<?xml version="1.0" encoding="UTF-8"?>
<svg height="747.38" width="4333.093" xmlns="http://www.w3.org/2000/svg">
 <g id="page" xmlns:svgx="http://www.xml-cml.org/schema/svgx">
  <g begin="text">
   <text y="343.863" x="55.786,63.457,68.437,71.49,75.325,79.679,84.66,87.35,92.85,98.32799999999999,101.423,106.923,110.2098,113.272,116.59,122.089" svgx:width="0.77,0.5,0.55,0.38,0.44,0.5,0.27,0.55,0.55,0.55,0.55,0.33,0.55,0.33,0.55,0.44" style="fill:rgb(23,22,21);font-family:AdvTimes;font-size:9.96px;stroke:none;">A2 region of the</text>
   <text y="343.863" x="129.486,136.639,144.31,151.464,156.445,166.298" svgx:width="0.72,0.77,0.72,0.5,0.99,0.5" style="fill:rgb(23,22,21);font-family:AdvTimes-i;font-size:9.96px;stroke:none;">GmCaM4</text>
   <text y="343.863" x="174.387,179.886,183.722,189.221,197.41,202.91,206.227,210.581,214.36579999999998,217.473,222.454,227.953,233.431,236.521,241.503,245.856,249.174,251.864,256.845,261.826,265.144,269.497,274.975,278.076,281.394,285.229,290.211,295.71,299.546" svgx:width="0.55,0.38,0.55,0.82,0.55,0.33,0.44,0.38,0.55,0.5,0.55,0.55,0.55,0.5,0.44,0.33,0.27,0.5,0.5,0.33,0.44,0.55,0.55,0.33,0.38,0.5,0.55,0.38,0.33" style="fill:rgb(23,22,21);font-family:AdvTimes;font-size:9.96px;stroke:none;">promoter and activated trans-</text>
   <text y="354.919" x="55.786,60.139,63.975,66.665,72.164,75.482,78.172,83.671,89.149,91.615,97.115,100.4018,102.897,106.214,111.714,116.0964,118.487,123.987,129.486,134.467,137.1562,139.634,143.47,147.823,153.323,158.822,162.658,165.975,170.329,174.1138,176.597,181.579,185.932,191.432,195.785,199.5698,202.052,204.742,210.22,212.71,217.691,222.045,227.026,230.861,234.179,236.8682,239.298,243.133,248.633,253.614,258.595,262.949,266.785,270.102,272.792,278.291,283.271,285.729,289.046,294.545,299.527" svgx:width="0.44,0.38,0.27,0.55,0.33,0.27,0.55,0.55,0.55,0.55,0.33,0.55,0.33,0.55,0.44,0.55,0.55,0.55,0.5,0.27,0.55,0.38,0.44,0.55,0.55,0.38,0.33,0.44,0.38,0.55,0.5,0.44,0.55,0.44,0.38,0.55,0.27,0.55,0.55,0.5,0.44,0.5,0.38,0.33,0.27,0.55,0.38,0.55,0.5,0.5,0.44,0.38,0.33,0.27,0.55,0.5,0.55,0.33,0.55,0.5,0.33" style="fill:rgb(23,22,21);font-family:AdvTimes;font-size:9.96px;stroke:none;">cription of the dual reporter genes in yeast, suggesting that</text>
   <text y="365.917" x="55.786,59.103,64.603,68.956,73.936,78.69,85.843,90.197,94.032,98.4144,103.124,108.105,113.605,119.104,124.582,129.373,133.726,138.707,144.207,149.706,152.396,157.895,162.877,166.194,170.548,174.3328,179.148,184.129,187.91379999999998,192.697,196.014,199.85,204.831,210.331,214.166,218.52,222.355,225.045,230.545,233.862,236.552,242.052,247.551,252.532,255.2212,259.99,263.826,268.179,273.161,278.66,281.35,286.331,289.649,295.148,298.984" svgx:width="0.33,0.55,0.44,0.5,0.55,0.72,0.44,0.38,0.44,0.55,0.5,0.55,0.55,0.55,0.55,0.44,0.5,0.55,0.55,0.27,0.55,0.5,0.33,0.44,0.38,0.55,0.5,0.38,0.55,0.33,0.38,0.5,0.55,0.38,0.44,0.38,0.27,0.55,0.33,0.27,0.55,0.55,0.5,0.27,0.55,0.38,0.44,0.5,0.55,0.27,0.5,0.33,0.55,0.38,0.38" style="fill:rgb(23,22,21);font-family:AdvTimes;font-size:9.96px;stroke:none;">they were good candidates as transcriptional regulators</text>
   <text y="376.973" x="55.786,61.285,64.5718,67.918,73.418,78.399,81.716,87.216,92.715,97.696,102.05,107.549,110.867,113.557,119.056,124.556,130.055,134.409,138.762" svgx:width="0.55,0.33,0.55,0.55,0.5,0.33,0.55,0.55,0.5,0.44,0.55,0.33,0.27,0.55,0.55,0.55,0.44,0.44,0.55" style="fill:rgb(23,22,21);font-family:AdvTimes;font-size:9.96px;stroke:none;">of pathogen-induced</text>
   <text y="376.973" x="147.628,154.781,162.452,169.606,174.587,184.44" svgx:width="0.72,0.77,0.72,0.5,0.99,0.5" style="fill:rgb(23,22,21);font-family:AdvTimes-i;font-size:9.96px;stroke:none;">GmCaM4</text>
   <text y="376.973" x="192.756,197.737,202.091,207.59,211.9724,215.319,219.673,224.654,230.153,233.989,238.342,242.178,246.014,248.704,254.203,259.702" svgx:width="0.5,0.44,0.55,0.44,0.55,0.44,0.5,0.55,0.38,0.44,0.38,0.38,0.27,0.55,0.55,0.27" style="fill:rgb(23,22,21);font-family:AdvTimes;font-size:9.96px;stroke:none;">gene expression.</text>
   <text y="400.954" x="55.786,61.803,66.157,71.138,76.119,80.473,85.454,89.808,94.19040000000001,96.207,101.188,106.17,111.151,113.841,118.822,122.658,125.348,129.1328,131.186,136.167" svgx:width="0.6,0.44,0.5,0.5,0.44,0.5,0.44,0.44,0.55,0.5,0.5,0.5,0.27,0.5,0.38,0.27,0.38,0.55,0.5,0.33" style="fill:rgb(23,22,21);font-family:AdvTimes-b;font-size:9.96px;stroke:none;">Sequence analysis of</text>
   <text y="400.954" x="141.448,148.601,156.273,163.426,169.443,172.761,180.95,188.621" svgx:width="0.72,0.77,0.72,0.6,0.33,0.82,0.77,0.5" style="fill:rgb(23,22,21);font-family:AdvTimes-bi;font-size:9.96px;stroke:none;">GmZF-HD1</text>
   <text y="400.954" x="195.647,200.628,205.609" svgx:width="0.5,0.5,0.5" style="fill:rgb(23,22,21);font-family:AdvTimes-b;font-size:9.96px;stroke:none;">and</text>
   <text y="400.954" code="1" x="212.598" svgx:width="0.77" style="fill:rgb(23,22,21);font-family:AdvMT_SY;font-size:9.96px;stroke:none;">?</text>
   <text y="400.954" x="220.251" svgx:width="0.5" style="fill:rgb(23,22,21);font-family:AdvTimes-bi;font-size:9.96px;stroke:none;">2</text>
   <text y="400.954" x="227.224,231.578,239.249,246.92,254.073" svgx:width="0.44,0.77,0.77,0.72,0.38" style="fill:rgb(23,22,21);font-family:AdvTimes-b;font-size:9.96px;stroke:none;">cDNAs</text>
   <text y="417.111" x="55.786,62.421,67.899,73.19,77.544,82.525,87.507,95.696,98.386,103.885,108.26740000000001,113.555,116.872,122.372,126.7544,131.98,135.815,139.133,142.969,148.468,152.822,156.139,161.638,165.474,169.828,173.6128,178.977,184.477,187.7638,193.038,196.355,201.854" svgx:width="0.67,0.55,0.55,0.44,0.5,0.5,0.82,0.27,0.55,0.44,0.55,0.33,0.55,0.44,0.55,0.38,0.33,0.38,0.55,0.44,0.33,0.55,0.38,0.44,0.38,0.55,0.55,0.33,0.55,0.33,0.55,0.44" style="fill:rgb(23,22,21);font-family:AdvTimes;font-size:9.96px;stroke:none;">To examine the structures of the</text>
   <text y="417.111" x="211.463,218.617,226.288,233.441,239.458,242.776,250.965,258.636" svgx:width="0.72,0.77,0.72,0.6,0.33,0.82,0.77,0.5" style="fill:rgb(23,22,21);font-family:AdvTimes-i;font-size:9.96px;stroke:none;">GmZF-HD1</text>
   <text y="417.111" x="268.95,273.931,279.43" svgx:width="0.5,0.55,0.55" style="fill:rgb(23,22,21);font-family:AdvTimes;font-size:9.96px;stroke:none;">and</text>
   <text y="417.111" code="1" x="290.21" svgx:width="0.77" style="fill:rgb(23,22,21);font-family:AdvMT_SY;font-size:9.96px;stroke:none;">?</text>
   <text y="417.111" x="297.863" svgx:width="0.5" style="fill:rgb(23,22,21);font-family:AdvTimes-i;font-size:9.96px;stroke:none;">2</text>
   <text y="428.167" x="55.786,60.139,68.329,76.518,84.1872,86.74,91.093,93.783,99.283,104.782,109.136,112.971,115.6602,118.203,125.357,129.7394,132.207,136.043,140.396,145.896,151.395,155.749,161.248,165.602,169.955,175.43300000000002,177.957,181.275,186.774,191.1564,193.661,196.979,204.132,209.61,212.143,216.497,224.686,232.875,240.546,244.382" svgx:width="0.44,0.82,0.82,0.77,0.55,0.44,0.27,0.55,0.55,0.44,0.38,0.27,0.55,0.72,0.44,0.55,0.38,0.44,0.55,0.55,0.44,0.55,0.44,0.44,0.55,0.55,0.33,0.55,0.44,0.55,0.33,0.72,0.55,0.55,0.44,0.82,0.82,0.77,0.38,0.27" style="fill:rgb(23,22,21);font-family:AdvTimes;font-size:9.96px;stroke:none;">cDNA clones, we sequenced the two cDNAs,</text>
   <text y="428.167" code="3" x="249.618" svgx:width="0.77" style="fill:rgb(23,22,21);font-family:AdvMT_SY;font-size:9.96px;stroke:none;">?</text>
   <text y="428.167" x="257.271,262.253,267.234,272.215,275.533,281.032,284.3188,286.864,291.846,297.345" svgx:width="0.5,0.5,0.5,0.33,0.55,0.33,0.55,0.5,0.55,0.55" style="fill:rgb(23,22,21);font-family:AdvTimes;font-size:9.96px;stroke:none;">770-nt and</text>
   <text y="439.222" x="55.786,60.767,65.748,70.73,74.047,79.547,82.864,85.5532,89.971,93.807,98.161,101.996,107.496,111.849,116.203,119.521,122.21,127.192,131.545,134.235,139.217,141.9062,146.38,153.533,159.032,161.722,166.076,171.554,175.973,179.808,184.162,189.143,193.497,198.478,201.168,205.522,211.0,215.487,218.805,224.304,229.285,232.5718,236.974,242.473,247.972,251.29,256.768,261.181,268.334,272.688,276.523,280.90540000000004,285.332,288.65,294.149,296.839,299.529" svgx:width="0.5,0.5,0.5,0.33,0.55,0.33,0.27,0.55,0.38,0.44,0.38,0.55,0.44,0.44,0.33,0.27,0.5,0.44,0.27,0.5,0.27,0.55,0.72,0.55,0.27,0.44,0.55,0.55,0.38,0.44,0.5,0.44,0.5,0.27,0.44,0.55,0.55,0.33,0.55,0.5,0.33,0.55,0.55,0.55,0.33,0.55,0.55,0.72,0.44,0.38,0.44,0.55,0.33,0.55,0.27,0.27,0.33" style="fill:rgb(23,22,21);font-family:AdvTimes;font-size:9.96px;stroke:none;">660-nt, respectively, which revealed that both were full-</text>
   <text y="450.221" x="55.786,58.476,62.829,68.329,73.31,76.628,82.127,84.8162,88.327,94.962,100.461" svgx:width="0.27,0.44,0.55,0.5,0.33,0.55,0.27,0.55,0.67,0.55,0.44" style="fill:rgb(23,22,21);font-family:AdvTimes;font-size:9.96px;stroke:none;">length. The</text>
   <text y="450.221" x="108.283,115.436,123.107,130.26,136.278,139.595,147.784,155.456" svgx:width="0.72,0.77,0.72,0.6,0.33,0.82,0.77,0.5" style="fill:rgb(23,22,21);font-family:AdvTimes-i;font-size:9.96px;stroke:none;">GmZF-HD1</text>
   <text y="450.221" x="163.955,168.308,176.498,184.687,192.3562,195.873,200.227,205.726,210.08,215.579,221.078,225.432,229.21679999999998,232.723,237.704,243.18200000000002,246.669,252.169,257.668,262.022,267.5,270.99,274.826,279.179,284.16,289.66,292.35,297.849" svgx:width="0.44,0.82,0.82,0.77,0.55,0.44,0.55,0.44,0.55,0.55,0.44,0.38,0.55,0.5,0.55,0.55,0.55,0.55,0.44,0.55,0.55,0.38,0.44,0.5,0.55,0.27,0.55,0.5" style="fill:rgb(23,22,21);font-family:AdvTimes;font-size:9.96px;stroke:none;">cDNA encodes an open reading</text>
   <text y="461.276" x="55.785,59.102,62.938,67.919,76.109,80.4914,86.512,92.012,95.2988,101.366,106.347,111.328,116.308,122.399,127.38,135.569,138.259,143.759,149.237,155.28,160.262,164.615,167.305,172.805,176.64,179.3292,185.44,192.593,198.093,200.782,205.136,210.614,216.678,220.513,226.013,230.366,234.72,237.41,242.909,247.263,251.0478,257.156,262.136,268.211,273.711,279.21,282.528,287.509,290.826,293.516,298.498" svgx:width="0.33,0.38,0.5,0.82,0.44,0.55,0.55,0.33,0.55,0.5,0.5,0.5,0.55,0.5,0.82,0.27,0.55,0.55,0.55,0.5,0.44,0.27,0.55,0.38,0.27,0.55,0.72,0.55,0.27,0.44,0.55,0.55,0.38,0.55,0.44,0.44,0.27,0.55,0.44,0.38,0.55,0.5,0.55,0.55,0.55,0.33,0.5,0.33,0.27,0.5,0.44" style="fill:rgb(23,22,21);font-family:AdvTimes;font-size:9.96px;stroke:none;">frame of 182 amino acids, which speciﬁes a putative</text>
   <text y="472.332" x="55.785,61.284,65.12,70.619,73.937,78.29,80.98,86.458,89.46,96.614,99.303,102.621,108.09899999999999,111.117,116.09700000000001,119.054,124.554,128.389,132.743,138.242,140.932,145.286,148.603,152.957,158.435,161.403,169.593,175.092,177.782,182.135,186.489,191.988,194.678,199.66,203.4448,206.53,214.719,219.7,223.536,227.3208,230.34,235.84,239.1268,242.075,247.057,252.556,258.055,263.555,266.84180000000003,269.854,274.835,279.815,281.477,286.976,295.165,300.146" svgx:width="0.55,0.38,0.55,0.33,0.44,0.27,0.55,0.55,0.72,0.27,0.33,0.55,0.55,0.5,0.55,0.55,0.38,0.44,0.55,0.27,0.44,0.33,0.44,0.55,0.55,0.82,0.55,0.27,0.44,0.44,0.55,0.27,0.5,0.38,0.55,0.82,0.5,0.38,0.38,0.55,0.55,0.33,0.55,0.5,0.55,0.55,0.55,0.33,0.55,0.5,0.5,0.55,0.55,0.82,0.5,0.27" style="fill:rgb(23,22,21);font-family:AdvTimes;font-size:9.96px;stroke:none;">protein with a predicted molecular mass of about 20 kDa.</text>
   <text y="483.387" x="55.785,62.42,67.919" svgx:width="0.67,0.55,0.44" style="fill:rgb(23,22,21);font-family:AdvTimes;font-size:9.96px;stroke:none;">The</text>
   <text y="483.387" x="74.777,81.93,89.601,96.754,102.771,106.089,114.278,121.949" svgx:width="0.72,0.77,0.72,0.6,0.33,0.82,0.77,0.5" style="fill:rgb(23,22,21);font-family:AdvTimes-i;font-size:9.96px;stroke:none;">GmZF-HD2</text>
   <text y="483.387" x="129.428,133.782,141.971,150.161,157.8302,160.325,164.679,170.178,174.532,180.031,185.531,189.884,193.66879999999998,196.268,201.25,206.728,209.194,214.693,220.193,224.546,230.024,232.551,236.387,240.741,245.722,251.221,253.911,259.41,264.39000000000004,266.849,270.167,274.003,278.984,287.173,291.5554,294.061,299.561" svgx:width="0.44,0.82,0.82,0.77,0.55,0.44,0.55,0.44,0.55,0.55,0.44,0.38,0.55,0.5,0.55,0.55,0.55,0.55,0.44,0.55,0.55,0.38,0.44,0.5,0.55,0.27,0.55,0.5,0.55,0.33,0.38,0.5,0.82,0.44,0.55,0.55,0.33" style="fill:rgb(23,22,21);font-family:AdvTimes;font-size:9.96px;stroke:none;">cDNA encodes an open reading frame of</text>
   <text y="494.443" x="55.785,60.766,65.747,70.727,73.813,78.794,86.984,89.674,95.173,100.651,103.747,108.728,113.082,115.772,121.271,125.107,127.7962,130.846,137.999,143.499,146.188,150.542,156.02,159.136,162.971,168.471,172.824,177.178,179.868,185.367,189.721,193.5058,196.609,201.589,204.66,210.159,215.659,218.976,223.957,227.275,229.965,234.946,239.3284,242.36,247.86,251.695,257.195,260.512,264.866,267.556,273.034,276.149,283.302,285.992,289.309,294.78700000000003,297.862" svgx:width="0.5,0.5,0.5,0.55,0.5,0.82,0.27,0.55,0.55,0.55,0.5,0.44,0.27,0.55,0.38,0.27,0.55,0.72,0.55,0.27,0.44,0.55,0.55,0.38,0.55,0.44,0.44,0.27,0.55,0.44,0.38,0.55,0.5,0.55,0.55,0.55,0.33,0.5,0.33,0.27,0.5,0.44,0.55,0.55,0.38,0.55,0.33,0.44,0.27,0.55,0.55,0.72,0.27,0.33,0.55,0.55,0.5" style="fill:rgb(23,22,21);font-family:AdvTimes;font-size:9.96px;stroke:none;">176 amino acids, which speciﬁes a putative protein with a</text>
   <text y="505.441" x="55.785,61.284,65.12,69.473,74.973,77.663,82.016,85.334,89.688,95.166,98.53,106.72,112.219,114.909,119.263,123.616,129.116,131.805,136.787,140.5718,143.941,152.13,157.111,160.947,164.7318,168.092,173.592,176.8788,180.168,185.149,190.649,196.148,201.647,204.9338,208.287,213.269,218.25,220.94,225.92,227.563,233.062,241.252,246.232,249.559,252.877,259.512,262.202,267.183,272.683,276.518,280.9004,284.198,289.18,296.851,300.168" svgx:width="0.55,0.38,0.44,0.55,0.27,0.44,0.33,0.44,0.55,0.55,0.82,0.55,0.27,0.44,0.44,0.55,0.27,0.5,0.38,0.55,0.82,0.5,0.38,0.38,0.55,0.55,0.33,0.55,0.5,0.55,0.55,0.55,0.33,0.55,0.5,0.5,0.27,0.5,0.55,0.55,0.82,0.5,0.55,0.33,0.67,0.27,0.5,0.55,0.38,0.44,0.55,0.5,0.77,0.33,0.27" style="fill:rgb(23,22,21);font-family:AdvTimes;font-size:9.96px;stroke:none;">predicted molecular mass of about 19.4 kDa (Figure 4A).</text>
   <text y="516.497" x="55.785,65.638,70.02040000000001,72.736,76.572,82.071,87.571,95.76,98.45,101.767,105.085,109.438,114.916,117.693,121.011,126.51,130.8924,133.567,139.066,144.566,148.919,151.609,155.963,161.462,164.78,167.47,172.969,177.35139999999998,180.111,183.947,188.3,193.8,199.299,203.653,209.152,213.506,217.859,221.6438,224.445,229.944,233.2308,236.01,239.328,244.827,249.2094,251.884,255.201,262.354,267.832,270.592,274.946,283.135,291.325,298.996" svgx:width="0.99,0.44,0.55,0.38,0.55,0.55,0.82,0.27,0.33,0.33,0.44,0.55,0.55,0.33,0.55,0.44,0.55,0.55,0.55,0.44,0.27,0.44,0.55,0.33,0.27,0.55,0.44,0.55,0.38,0.44,0.55,0.55,0.44,0.55,0.44,0.44,0.38,0.55,0.55,0.33,0.55,0.33,0.55,0.44,0.55,0.33,0.72,0.55,0.55,0.44,0.82,0.82,0.77,0.38" style="fill:rgb(23,22,21);font-family:AdvTimes;font-size:9.96px;stroke:none;">We submitted the nucleotide sequences of the two cDNAs</text>
   <text y="527.552" x="55.785,59.102,64.58,68.2,71.518,77.017,81.3994,84.924,93.114,97.467,102.967,109.602,114.583,120.082,125.582,128.899,135.534,145.387,152.023,158.658,161.975,170.164,178.354,184.989,189.3714,192.98,198.479,203.46,206.778,211.759,217.259,222.24,226.076,230.45839999999998,234.025,237.342,242.324,246.677,251.031,255.384,259.22,263.056,265.746,271.245,276.723,280.342,285.841,291.341,299.53" svgx:width="0.33,0.55,0.55,0.33,0.55,0.44,0.55,0.82,0.44,0.55,0.67,0.5,0.55,0.55,0.33,0.67,0.99,0.67,0.67,0.33,0.82,0.82,0.67,0.44,0.55,0.55,0.5,0.33,0.5,0.55,0.5,0.38,0.44,0.55,0.33,0.5,0.44,0.44,0.44,0.38,0.38,0.27,0.55,0.55,0.55,0.55,0.55,0.82,0.33" style="fill:rgb(23,22,21);font-family:AdvTimes;font-size:9.96px;stroke:none;">to the GenBank/EMBL/DDBJ database (accession num-</text>
   <text y="538.608" x="55.785,61.284,65.638,69.473,73.2578,75.684,83.355,91.027,96.008,100.989,105.97,110.952,115.933,120.91300000000001,123.305,128.287,133.786,139.264,141.673,149.345,157.016,161.997,166.978,171.96,176.941,181.922,186.902,189.295,192.612,198.112,201.89679999999998,204.318,207.636,213.135" svgx:width="0.55,0.44,0.38,0.38,0.55,0.77,0.77,0.5,0.5,0.5,0.5,0.5,0.5,0.55,0.5,0.55,0.55,0.55,0.77,0.77,0.5,0.5,0.5,0.5,0.5,0.5,0.55,0.33,0.55,0.38,0.55,0.33,0.55,0.44" style="fill:rgb(23,22,21);font-family:AdvTimes;font-size:9.96px;stroke:none;">bers AY695729 and AY695730 for the</text>
   <text y="538.608" x="219.853,227.006,234.677,241.83,247.848,251.165,259.355,267.026" svgx:width="0.72,0.77,0.72,0.6,0.33,0.82,0.77,0.5" style="fill:rgb(23,22,21);font-family:AdvTimes-i;font-size:9.96px;stroke:none;">GmZF-HD1</text>
   <text y="538.608" x="274.448,278.802,286.991,295.18" svgx:width="0.44,0.82,0.82,0.77" style="fill:rgb(23,22,21);font-family:AdvTimes;font-size:9.96px;stroke:none;">cDNA</text>
   <text y="549.663" x="55.785,60.766,66.265" svgx:width="0.5,0.55,0.55" style="fill:rgb(23,22,21);font-family:AdvTimes;font-size:9.96px;stroke:none;">and</text>
   <text y="549.663" x="75.571,82.724,90.395,97.548,103.565,106.883,115.072,122.743" svgx:width="0.72,0.77,0.72,0.6,0.33,0.82,0.77,0.5" style="fill:rgb(23,22,21);font-family:AdvTimes-i;font-size:9.96px;stroke:none;">GmZF-HD2</text>
   <text y="549.663" x="131.583,135.937,144.126,152.315,159.987,162.6762,166.505,170.341,174.694,178.53,184.029,188.383,192.737,196.054,198.744,203.725,208.079,210.769,215.75,219.068,221.7572,225.635,235.488,239.8704,243.663,246.981,252.48,256.834,262.312,266.113,269.949,274.302,279.284,283.119,287.473,292.972,297.326" svgx:width="0.44,0.82,0.82,0.77,0.27,0.55,0.38,0.44,0.38,0.55,0.44,0.44,0.33,0.27,0.5,0.44,0.27,0.5,0.33,0.27,0.55,0.99,0.44,0.55,0.33,0.55,0.44,0.55,0.55,0.38,0.44,0.5,0.38,0.44,0.55,0.44,0.55" style="fill:rgb(23,22,21);font-family:AdvTimes;font-size:9.96px;stroke:none;">cDNA, respectively). We then searched</text>
   <text y="560.662" x="55.785,61.284,66.265,69.583,74.564,80.064,85.045,88.881,93.234,97.0188,103.576,106.894,112.393,116.1778,122.738,126.574,130.928,136.427,141.926,146.28,151.779,156.133,160.487,164.27179999999998,170.813,176.312,181.812,190.001,195.5,198.19,203.69,208.671,214.17,219.67,223.45479999999998,230.057,233.374,238.852,245.363,248.681,254.18,259.679,263.515,267.8974,274.389,279.889,283.17580000000004,289.696,293.013,298.513" svgx:width="0.55,0.5,0.33,0.5,0.55,0.5,0.38,0.44,0.38,0.55,0.33,0.55,0.38,0.55,0.38,0.44,0.55,0.55,0.44,0.55,0.44,0.44,0.38,0.55,0.55,0.55,0.82,0.55,0.27,0.55,0.5,0.55,0.55,0.38,0.55,0.33,0.55,0.55,0.33,0.55,0.55,0.38,0.44,0.55,0.55,0.33,0.55,0.33,0.55,0.44" style="fill:rgb(23,22,21);font-family:AdvTimes;font-size:9.96px;stroke:none;">databases for sequences homologous to those of the</text>
   <text y="571.718" x="55.785,63.974,72.163,78.798,85.434,88.751,96.94,105.13,110.11,117.466,122.448,127.947" svgx:width="0.82,0.82,0.67,0.67,0.33,0.82,0.82,0.5,0.55,0.5,0.55,0.55" style="fill:rgb(23,22,21);font-family:AdvTimes;font-size:9.96px;stroke:none;">GmZF-HD1 and</text>
   <text y="571.718" code="1" x="140.71" svgx:width="0.77" style="fill:rgb(23,22,21);font-family:AdvMT_SY;font-size:9.96px;stroke:none;">?</text>
   <text y="571.718" x="148.363,153.343,160.609,166.109,169.944,175.444,178.761,183.115,185.805,191.304,195.14,197.8292,205.169,215.022,219.40439999999998,226.655,229.973,235.472,240.972,246.471,251.949,259.253,262.571,268.07,273.051,276.3378,283.63,287.984,292.965,297.319" svgx:width="0.5,0.55,0.55,0.38,0.55,0.33,0.44,0.27,0.55,0.38,0.27,0.55,0.99,0.44,0.55,0.33,0.55,0.55,0.55,0.55,0.55,0.33,0.55,0.5,0.33,0.55,0.44,0.5,0.44,0.55" style="fill:rgb(23,22,21);font-family:AdvTimes;font-size:9.96px;stroke:none;">2 proteins. We found that each</text>
   <text y="582.773" x="55.784,63.973,72.162,78.797,85.433,88.75,96.939,105.10619999999999,110.775,116.275,120.11,125.61,128.927,133.281,135.971,141.449,147.058,152.558,157.539,161.32379999999998,166.901,170.218,177.371,182.84900000000002,188.444,193.943,196.633,201.614,207.114,209.804,214.784,220.418,224.771,230.271,235.77,239.606,243.959,247.795,252.776,257.13,262.608,268.209,273.709,279.208,282.526,287.507,290.824,293.514,298.496" svgx:width="0.82,0.82,0.67,0.67,0.33,0.82,0.82,0.55,0.55,0.38,0.55,0.33,0.44,0.27,0.55,0.55,0.55,0.5,0.38,0.55,0.33,0.72,0.55,0.55,0.55,0.27,0.5,0.55,0.27,0.5,0.55,0.44,0.55,0.55,0.38,0.44,0.38,0.5,0.44,0.55,0.55,0.55,0.55,0.33,0.5,0.33,0.27,0.5,0.44" style="fill:rgb(23,22,21);font-family:AdvTimes;font-size:9.96px;stroke:none;">GmZF-HD protein has two highly conserved putative</text>
   <text y="593.829" x="55.784,60.137,62.827,68.327,72.7094,75.173,80.672,86.172,91.153,95.507,99.29180000000001,101.818,107.317,112.817,121.006,125.987,128.677,134.177,137.96179999999998,140.482,143.172,148.65,151.14,154.457,159.957,164.33939999999998,166.787,174.976,178.294,181.611,185.965,189.801,197.99,200.68,206.179,211.679,215.4638,218.037,223.018,228.517,233.995,236.518,241.498,243.945,252.135,260.324,267.9932,270.478,275.977,278.667,284.166,289.666,292.356,297.855" svgx:width="0.44,0.27,0.55,0.44,0.55,0.55,0.55,0.5,0.44,0.38,0.55,0.55,0.55,0.82,0.5,0.27,0.55,0.38,0.55,0.27,0.55,0.55,0.33,0.55,0.44,0.55,0.82,0.33,0.33,0.44,0.38,0.82,0.27,0.55,0.55,0.38,0.55,0.5,0.55,0.55,0.55,0.5,0.55,0.82,0.82,0.77,0.55,0.55,0.27,0.55,0.55,0.27,0.55,0.5" style="fill:rgb(23,22,21);font-family:AdvTimes;font-size:9.96px;stroke:none;">zinc ﬁnger domains in the N-terminus and a DNA binding</text>
   <text y="604.827" x="55.784,61.283,66.783,74.972,79.325,84.825,90.324,95.823,104.013,108.994,111.684,117.16199999999999,119.619,122.309,127.78699999999999,130.22,133.538,139.037,143.4194,145.811,152.964,156.282,159.599,163.953,167.788,175.978,178.667,184.167,189.666,193.502,196.1912,198.647,205.801,211.3,213.99,218.344,223.822,226.257,228.947,232.7318,235.157,239.511,245.01,249.992,253.827,258.809,263.162,266.48,270.833,274.669,277.359,281.195,284.512,287.202,291.5844,294.06,299.56" svgx:width="0.55,0.55,0.82,0.44,0.55,0.55,0.55,0.82,0.5,0.27,0.55,0.55,0.27,0.55,0.55,0.33,0.55,0.44,0.55,0.72,0.33,0.33,0.44,0.38,0.82,0.27,0.55,0.55,0.38,0.27,0.55,0.72,0.55,0.27,0.44,0.55,0.55,0.27,0.38,0.55,0.44,0.55,0.5,0.38,0.5,0.44,0.33,0.44,0.38,0.27,0.38,0.33,0.27,0.44,0.55,0.55,0.33" style="fill:rgb(23,22,21);font-family:AdvTimes;font-size:9.96px;stroke:none;">homeodomain in the C-terminus, which is characteristic of</text>
   <text y="615.883" x="55.784,61.283,66.783,74.972,80.471,83.161,88.66,93.642,97.4268,100.967,103.657,109.13499999999999,112.59,115.907,121.406,125.78840000000001,129.257,134.756,137.446,142.428,147.927,151.2138,154.711,161.346,167.982,171.299,179.488,187.6552,191.165,194.482,199.463,207.653,210.343,213.032,218.014,220.7032,224.16,226.85,232.349,236.703,239.392,244.892,250.391,253.081,258.58,263.56,267.076,274.747,278.064,286.254,292.889,297.87" svgx:width="0.55,0.55,0.82,0.55,0.27,0.55,0.5,0.38,0.55,0.27,0.55,0.55,0.33,0.55,0.44,0.55,0.55,0.27,0.5,0.55,0.33,0.55,0.67,0.67,0.33,0.82,0.82,0.55,0.33,0.5,0.82,0.27,0.27,0.5,0.27,0.55,0.27,0.55,0.44,0.27,0.55,0.55,0.27,0.55,0.5,0.55,0.77,0.33,0.82,0.67,0.5,0.5" style="fill:rgb(23,22,21);font-family:AdvTimes;font-size:9.96px;stroke:none;">homologs in the plant ZF-HD family, including AtHB24</text>
   <text y="626.938" x="55.784,60.765,66.264" svgx:width="0.5,0.55,0.55" style="fill:rgb(23,22,21);font-family:AdvTimes;font-size:9.96px;stroke:none;">and</text>
   <text y="626.938" code="1" x="75.003" svgx:width="0.77" style="fill:rgb(23,22,21);font-family:AdvMT_SY;font-size:9.96px;stroke:none;">?</text>
   <text y="626.938" x="82.656,87.637,92.617,95.865,101.365,104.6518,107.884,111.202,116.701,121.0834,124.269,131.422,136.402,139.632,145.131,147.821,152.803,158.302" svgx:width="0.5,0.5,0.55,0.55,0.33,0.55,0.33,0.55,0.44,0.55,0.72,0.5,0.55,0.55,0.27,0.5,0.55,0.33" style="fill:rgb(23,22,21);font-family:AdvTimes;font-size:9.96px;stroke:none;">26 of the C3 plant</text>
   <text y="626.938" x="164.86,172.013,175.849,180.83,185.812,188.502,193.483,198.464,203.445,207.281,209.971,213.7558,217.016,220.334,225.315,230.297,232.987,235.676,240.658,245.639" svgx:width="0.72,0.38,0.5,0.5,0.27,0.5,0.5,0.5,0.38,0.27,0.38,0.55,0.33,0.5,0.5,0.27,0.27,0.5,0.5,0.5" style="fill:rgb(23,22,21);font-family:AdvTimes-i;font-size:9.96px;stroke:none;">Arabidopsis thaliana</text>
   <text y="626.938" x="253.868,258.849,264.349,269.827,273.087,279.722,283.04,291.229,297.864" svgx:width="0.5,0.55,0.55,0.55,0.67,0.33,0.82,0.67,0.5" style="fill:rgb(23,22,21);font-family:AdvTimes;font-size:9.96px;stroke:none;">and FtHB1</text>
   <text y="637.994" x="55.784,61.283,64.5698,67.122,70.44,75.939,80.3214,82.77,89.923,94.903,97.397,102.896,105.586,110.567,116.066" svgx:width="0.55,0.33,0.55,0.33,0.55,0.44,0.55,0.72,0.5,0.55,0.55,0.27,0.5,0.55,0.33" style="fill:rgb(23,22,21);font-family:AdvTimes;font-size:9.96px;stroke:none;">of the C4 plant</text>
   <text y="637.994" x="121.888,127.905,130.595,135.576,139.93,144.284,148.119,150.809,155.789,158.284,161.602,165.437,168.127,173.108,177.462,181.298,185.651,188.341" svgx:width="0.6,0.27,0.5,0.44,0.44,0.38,0.27,0.5,0.55,0.33,0.38,0.27,0.5,0.44,0.38,0.44,0.27,0.5" style="fill:rgb(23,22,21);font-family:AdvTimes-i;font-size:9.96px;stroke:none;">Flaveria trinervia</text>
   <text y="637.994" x="195.872,199.189,205.825,208.514,213.496,218.995,222.831,227.21339999999998,229.717,234.698,242.369,245.687,248.3762,250.863,257.499,262.998,267.3804,269.855,276.49,283.125,286.443,294.632" svgx:width="0.33,0.67,0.27,0.5,0.55,0.38,0.44,0.55,0.5,0.77,0.33,0.27,0.55,0.67,0.55,0.44,0.55,0.67,0.67,0.33,0.82,0.82" style="fill:rgb(23,22,21);font-family:AdvTimes;font-size:9.96px;stroke:none;">(Figure 4A). The ZF-HD</text>
   <text y="649.049" x="55.785,60.138,62.828,67.81,71.645,75.4298,80.106,85.605,88.8918,93.542,99.041,104.541,112.73,117.084,122.583,128.082,133.582,141.771,146.752,149.442,154.92000000000002,159.588,165.087,168.923,174.422,177.74,182.094,184.784,190.283,194.06779999999998,198.762,206.951,211.933,216.91299999999998,221.552,227.052,231.43439999999998,236.009,238.699,244.198,249.18,254.679,257.369,262.35,266.704,272.182,276.884,279.574,285.052,289.697,293.014,298.514" svgx:width="0.44,0.27,0.5,0.38,0.38,0.55,0.55,0.33,0.55,0.55,0.55,0.82,0.44,0.55,0.55,0.55,0.82,0.5,0.27,0.55,0.55,0.55,0.38,0.55,0.33,0.44,0.27,0.55,0.38,0.55,0.82,0.5,0.5,0.55,0.55,0.44,0.55,0.27,0.55,0.5,0.55,0.27,0.5,0.44,0.55,0.55,0.27,0.55,0.55,0.33,0.55,0.44" style="fill:rgb(23,22,21);font-family:AdvTimes;font-size:9.96px;stroke:none;">class of homeodomain proteins may be involved in the</text>
   <text y="660.048" x="55.785,61.284,66.784,72.283,75.6,81.1,84.935,89.917,95.416,98.734,104.233,108.587,112.422,115.112,118.948,122.265,126.101,130.454,133.144,138.126,141.443,145.797,151.275,154.94,163.129,167.482,171.318,176.817,182.317,187.816,192.797,195.487,198.177,201.495,205.33,210.83,215.183,219.537,222.227,227.726,232.1084,235.668,240.65,245.003,250.503,254.88539999999998,258.459,262.813,267.794,273.293,277.129,281.482,285.318,289.154,291.844,297.343" svgx:width="0.55,0.55,0.55,0.33,0.55,0.38,0.5,0.55,0.33,0.55,0.44,0.38,0.27,0.38,0.33,0.38,0.44,0.27,0.5,0.33,0.44,0.55,0.55,0.82,0.44,0.38,0.55,0.55,0.55,0.5,0.27,0.27,0.33,0.38,0.55,0.44,0.44,0.27,0.55,0.44,0.55,0.5,0.44,0.55,0.44,0.55,0.44,0.5,0.55,0.38,0.44,0.38,0.38,0.27,0.55,0.55" style="fill:rgb(23,22,21);font-family:AdvTimes;font-size:9.96px;stroke:none;">photosynthesis-related mesophyll-speciﬁc gene expression</text>
   <text y="671.104" x="55.785,61.284,64.5708,68.143,73.643,79.142,84.641,88.477,93.976,99.476,104.975,109.329,114.828,120.327,123.017,128.517,133.498,137.334,142.833,147.814,152.796,156.113,160.4954,164.009,168.363,173.344,177.18,182.679,188.179,193.16,198.141,200.831,205.813,209.648,214.0304,217.527,220.216,225.69400000000002,229.206,236.359,241.339,244.91,248.745,254.245,258.598,262.952,265.642,269.996,273.7808,277.338,282.837,286.1238,289.697,293.014,298.514" svgx:width="0.55,0.33,0.55,0.55,0.55,0.55,0.38,0.55,0.55,0.55,0.44,0.55,0.55,0.27,0.55,0.5,0.38,0.55,0.5,0.5,0.33,0.44,0.55,0.44,0.5,0.38,0.55,0.55,0.5,0.5,0.27,0.5,0.38,0.44,0.55,0.27,0.55,0.55,0.72,0.5,0.55,0.38,0.55,0.44,0.44,0.27,0.44,0.38,0.55,0.55,0.33,0.55,0.33,0.55,0.44" style="fill:rgb(23,22,21);font-family:AdvTimes;font-size:9.96px;stroke:none;">of phosphoenolpyruvate carboxylase in C4 species of the</text>
   <text y="682.159" x="55.785,60.766,65.12,70.619,76.118" svgx:width="0.5,0.44,0.55,0.55,0.38" style="fill:rgb(23,22,21);font-family:AdvTimes;font-size:9.96px;stroke:none;">genus</text>
   <text y="682.159" x="83.904,89.922,92.612,97.593,101.947,106.3,110.136,112.826" svgx:width="0.6,0.27,0.5,0.44,0.44,0.38,0.27,0.5" style="fill:rgb(23,22,21);font-family:AdvTimes-i;font-size:9.96px;stroke:none;">Flaveria</text>
   <text y="682.159" x="121.718,125.036,130.017,134.998,138.316,141.0052,144.962,154.815,160.314,164.15,168.5324,172.401,176.237,180.59,184.944,189.298,194.797,198.114,200.804,205.786,208.4752,212.426,215.116,218.4028,222.403,229.556,234.538,238.3228,242.303,247.802,251.638,257.137,262.636,268.136,271.971,276.325,281.803,285.729,289.046,294.545,299.527" svgx:width="0.33,0.5,0.5,0.33,0.27,0.55,0.99,0.55,0.38,0.44,0.55,0.38,0.44,0.44,0.44,0.55,0.33,0.27,0.5,0.27,0.55,0.27,0.33,0.55,0.72,0.5,0.38,0.55,0.55,0.38,0.55,0.55,0.55,0.38,0.44,0.55,0.55,0.33,0.55,0.5,0.33" style="fill:rgb(23,22,21);font-family:AdvTimes;font-size:9.96px;stroke:none;">(32). More recently, it was proposed that</text>
   <text y="693.214" x="55.785,62.42,69.055,72.373,80.562,88.72919999999999,93.485,96.803,100.638,105.62,111.119,114.955,119.308,123.144,125.834,131.333,134.651,137.341,142.84,148.339,153.321,156.0102,160.722,164.557,168.911,173.892,179.392,182.082,187.063,190.38,195.88,199.715,203.4998,208.286,213.786,216.476,221.457,226.43699999999998,231.133,236.633,241.614,245.968,249.803,252.493,257.475,262.974,268.473,271.163,276.663,281.64300000000003,286.351,290.187,294.54,299.522" svgx:width="0.67,0.67,0.33,0.82,0.82,0.55,0.33,0.38,0.5,0.55,0.38,0.44,0.38,0.27,0.55,0.33,0.27,0.55,0.55,0.5,0.27,0.55,0.38,0.44,0.5,0.55,0.27,0.5,0.33,0.55,0.38,0.38,0.55,0.55,0.27,0.5,0.5,0.55,0.55,0.5,0.44,0.38,0.27,0.5,0.55,0.55,0.27,0.55,0.5,0.55,0.38,0.44,0.5,0.33" style="fill:rgb(23,22,21);font-family:AdvTimes;font-size:9.96px;stroke:none;">ZF-HD transcriptional regulators play overlapping reg-</text>
   <text y="704.27" x="55.785,61.284,63.974,68.955,72.273,77.772,81.608,86.58800000000001,93.711,97.547,103.046,105.736,110.09,113.87480000000001,121.094,123.784" svgx:width="0.55,0.27,0.5,0.33,0.55,0.38,0.5,0.55,0.38,0.55,0.27,0.44,0.38,0.55,0.27,0.55" style="fill:rgb(23,22,21);font-family:AdvTimes;font-size:9.96px;stroke:none;">ulatory roles in</text>
   <text y="704.27" x="136.402,143.555,147.391,152.372,157.354,160.043,165.025,170.006,174.987,178.823,181.513" svgx:width="0.72,0.38,0.5,0.5,0.27,0.5,0.5,0.5,0.38,0.27,0.38" style="fill:rgb(23,22,21);font-family:AdvTimes-i;font-size:9.96px;stroke:none;">Arabidopsis</text>
   <text y="704.27" x="192.527,198.027,203.526,207.362,212.343,215.0322,222.177,227.677,232.03,237.011,241.365,244.055,249.554,255.054,263.243,267.597,273.096,276.38280000000003,283.575,286.892,291.873,296.855,300.172" svgx:width="0.55,0.55,0.38,0.5,0.27,0.55,0.55,0.44,0.5,0.44,0.27,0.55,0.55,0.82,0.44,0.55,0.33,0.55,0.33,0.5,0.5,0.33,0.27" style="fill:rgb(23,22,21);font-family:AdvTimes;font-size:9.96px;stroke:none;">ﬂoral development (33).</text>
   <text y="715.269" x="55.785,63.974,69.473,76.627,80.98,85.962,90.315,94.151,96.8402,100.288,103.605,109.105,113.458,117.294,121.6764,125.006,127.696,131.4808,134.927,140.426,145.904,149.327,154.826,158.662,161.351,166.851,170.6358,174.101,178.454,183.436,186.125,191.625,195.978,201.478,205.831,210.21339999999998,213.615,216.933,222.432,227.413,230.6998,234.081,240.717,247.352,250.669,258.858,267.0252,270.478,275.977,281.477,289.666,294.019,299.519" svgx:width="0.82,0.55,0.72,0.44,0.5,0.44,0.38,0.27,0.55,0.33,0.55,0.44,0.38,0.44,0.55,0.27,0.38,0.55,0.55,0.55,0.55,0.55,0.38,0.27,0.55,0.38,0.55,0.44,0.5,0.27,0.55,0.44,0.55,0.44,0.44,0.55,0.33,0.55,0.5,0.33,0.55,0.67,0.67,0.33,0.82,0.82,0.55,0.55,0.55,0.82,0.44,0.55,0.33" style="fill:rgb(23,22,21);font-family:AdvTimes;font-size:9.96px;stroke:none;">However, there is no prior evidence that ZF-HD homeo-</text>
   <text y="726.324" x="55.785,61.284,66.784,74.973,79.954,82.644,88.122,92.295,97.794,101.63,107.129,110.447,114.8,117.49,122.989,126.77380000000001,131.015,135.997,139.832,144.21439999999998,148.363,151.053,156.552,161.534,167.033,169.723,174.704,179.058,184.536,188.728,191.418,196.89600000000002,201.086,206.586,211.567,214.884,220.384,225.883,230.865,235.218,240.696,244.853,248.689,251.378,256.36,261.859,266.84,269.53,272.22,277.72,282.70000000000005,286.862,291.844,297.343" svgx:width="0.55,0.55,0.82,0.5,0.27,0.55,0.55,0.55,0.38,0.55,0.33,0.44,0.27,0.55,0.38,0.55,0.5,0.38,0.44,0.55,0.27,0.55,0.5,0.55,0.27,0.5,0.44,0.55,0.55,0.27,0.55,0.55,0.55,0.5,0.33,0.55,0.55,0.5,0.44,0.55,0.55,0.38,0.27,0.5,0.55,0.5,0.27,0.27,0.55,0.5,0.55,0.5,0.55,0.55" style="fill:rgb(23,22,21);font-family:AdvTimes;font-size:9.96px;stroke:none;">domain proteins are involved in pathogen signaling and</text>
   <text y="737.38" x="55.785,61.284,63.974,68.955,74.455,77.7418,81.127,86.626,90.98,94.297,98.651,104.15,107.986,112.36840000000001,115.652,123.841,128.195,132.549,138.048,143.029,148.529,151.219,155.054,163.243,167.079" svgx:width="0.55,0.27,0.5,0.55,0.33,0.55,0.55,0.44,0.33,0.44,0.55,0.38,0.44,0.55,0.82,0.44,0.44,0.55,0.5,0.55,0.27,0.38,0.82,0.38,0.27" style="fill:rgb(23,22,21);font-family:AdvTimes;font-size:9.96px;stroke:none;">plant defense mechanisms.</text>
   <text y="692.536" x="332.728,336.564,342.063,345.381,349.734,353.57,357.924,361.759,365.077,367.767,373.266,378.247,380.937,385.918,388.60720000000003,392.141,398.159,405.83,414.019,421.6882,425.193,427.883,433.361,436.872,440.19,445.689,450.07140000000004,453.483,459.5,467.69,475.8572,479.392,484.891,490.39,495.372,499.725,503.50980000000004,507.058,510.893,516.393,521.892,525.21,528.527,533.509,541.698,544.388,547.078,552.058,555.53,561.029,566.01" svgx:width="0.38,0.55,0.33,0.44,0.38,0.44,0.38,0.33,0.27,0.55,0.5,0.27,0.5,0.27,0.55,0.6,0.77,0.82,0.77,0.55,0.27,0.55,0.55,0.33,0.55,0.44,0.55,0.6,0.82,0.82,0.55,0.55,0.55,0.5,0.44,0.38,0.55,0.38,0.55,0.55,0.33,0.33,0.5,0.82,0.27,0.27,0.5,0.55,0.55,0.5,0.38" style="fill:rgb(23,22,21);font-family:AdvTimes;font-size:9.96px;stroke:none;">Interestingly, PRHA in the PHD ﬁnger sub-family has</text>
   <text y="703.761" x="322.807,328.307,332.66,337.014,342.492,349.964,353.799,358.153,363.652,369.151,372.987,376.305,380.658,386.136,393.673,396.991,402.469,409.944,415.444,419.82640000000004,427.292,429.982,435.482,440.463,445.962,448.652,453.633,457.987,463.46500000000003,470.945,473.635,479.113,486.649,489.967,495.466,499.8484,507.286,510.604,514.439,519.42,524.92,528.755,533.109,536.945,539.634,545.134,548.451,551.141,556.641,562.14,567.121" svgx:width="0.55,0.44,0.44,0.55,0.55,0.38,0.44,0.55,0.55,0.38,0.33,0.44,0.55,0.55,0.33,0.55,0.55,0.55,0.44,0.55,0.27,0.55,0.5,0.55,0.27,0.5,0.44,0.55,0.55,0.27,0.55,0.55,0.33,0.55,0.44,0.55,0.33,0.38,0.5,0.55,0.38,0.44,0.38,0.27,0.55,0.33,0.27,0.55,0.55,0.5,0.27" style="fill:rgb(23,22,21);font-family:AdvTimes;font-size:9.96px;stroke:none;">been reported to be involved in the transcriptional</text>
   <text y="714.986" x="322.807,326.643,330.997,335.978,341.477,344.167,349.149,352.466,355.156,360.655,366.133,368.558,374.057,377.34380000000004,379.726,383.043,388.543" svgx:width="0.38,0.44,0.5,0.55,0.27,0.5,0.33,0.27,0.55,0.55,0.55,0.55,0.33,0.55,0.33,0.55,0.44" style="fill:rgb(23,22,21);font-family:AdvTimes;font-size:9.96px;stroke:none;">regulation of the</text>
   <text y="714.986" x="395.26,402.414,406.249,411.23,416.212,418.902,423.883,428.864,433.846,437.681,440.371,444.1558,446.624,451.605,455.44" svgx:width="0.72,0.38,0.5,0.5,0.27,0.5,0.5,0.5,0.38,0.27,0.38,0.55,0.5,0.38,0.5" style="fill:rgb(23,22,21);font-family:AdvTimes-i;font-size:9.96px;stroke:none;">Arabidopsis pr2</text>
   <text y="714.986" x="462.781,467.762,472.116,477.615,481.9974,484.381,487.698,492.68,497.661,500.979,503.6682,506.038,513.7072000000001,516.129,521.628,527.127,532.109,534.799,540.298,545.279,549.633,555.132,559.486,562.803,565.493" svgx:width="0.5,0.44,0.55,0.44,0.55,0.33,0.5,0.5,0.33,0.27,0.55,0.77,0.55,0.55,0.55,0.5,0.27,0.55,0.5,0.44,0.55,0.44,0.33,0.27,0.44" style="fill:rgb(23,22,21);font-family:AdvTimes;font-size:9.96px;stroke:none;">gene (20). A phylogenetic</text>
   <text y="726.154" x="322.806,326.124,329.96,334.313,338.6954,346.391,350.745,356.244,361.743,365.579,368.896,372.732,378.231,382.585,385.903,390.256,395.734,403.48,408.979,413.959,421.678,426.032,431.531,439.721,445.22,450.201,454.037,456.727,462.226,467.206,474.912,480.412,484.765,490.265,495.764,500.118,504.472,509.95,517.715,522.696,530.885,533.575,539.075,544.553,552.297,557.278,561.632,564.322" svgx:width="0.33,0.38,0.44,0.44,0.55,0.44,0.55,0.55,0.38,0.33,0.38,0.55,0.44,0.33,0.44,0.55,0.55,0.55,0.5,0.55,0.44,0.55,0.82,0.55,0.5,0.38,0.27,0.55,0.5,0.55,0.55,0.44,0.55,0.55,0.44,0.44,0.55,0.55,0.5,0.82,0.27,0.55,0.55,0.55,0.5,0.44,0.27,0.55" style="fill:rgb(23,22,21);font-family:AdvTimes;font-size:9.96px;stroke:none;">tree constructed by comparing deduced amino acid</text>
   <text y="737.379" x="322.806,326.642,330.996,336.495,341.994,346.348,351.847,356.201,360.555,364.3398,369.124,371.814,377.313,382.812,385.502,389.856,394.837,398.155,402.508,406.2928,411.076,414.394,419.893,424.874,428.16080000000005,432.902,441.091,449.281,455.916,462.551,465.868,474.058,482.247,487.22700000000003,491.975,496.957,502.456" svgx:width="0.38,0.44,0.55,0.55,0.44,0.55,0.44,0.44,0.38,0.55,0.27,0.55,0.55,0.27,0.44,0.5,0.33,0.44,0.38,0.55,0.33,0.55,0.5,0.33,0.55,0.82,0.82,0.67,0.67,0.33,0.82,0.82,0.5,0.55,0.5,0.55,0.55" style="fill:rgb(23,22,21);font-family:AdvTimes;font-size:9.96px;stroke:none;">sequences indicates that GmZF-HD1 and</text>
   <text y="737.379" code="1" x="512.671" svgx:width="0.77" style="fill:rgb(23,22,21);font-family:AdvMT_SY;font-size:9.96px;stroke:none;">?</text>
   <text y="737.379" x="520.381,525.361,530.075,535.057,538.892,543.2744,547.933,556.123,561.622,565.457" svgx:width="0.5,0.55,0.5,0.38,0.44,0.55,0.82,0.55,0.38,0.44" style="fill:rgb(23,22,21);font-family:AdvTimes;font-size:9.96px;stroke:none;">2 are more</text>
  </g>
  <g begin="text">
   <text y="78.824" x="55.786,61.094,65.079,69.064,71.216,74.72279999999999,78.746,82.731" svgx:width="0.67,0.5,0.5,0.27,0.44,0.55,0.5,0.27" style="fill:rgb(23,22,21);font-family:AdvTimes-b;font-size:7.97px;stroke:none;">Table 1.</text>
   <text y="78.824" x="88.838,95.39,98.873,103.272,106.755,109.824,113.809,115.9609,120.019,123.502,127.902,131.887,134.955,138.941,142.423,145.078,148.561,151.629,153.781,156.85,159.504,161.656,165.139,168.16760000000002,172.29,176.69,179.3201,183.346,186.0,190.399,193.9058,197.916,201.399,207.95,214.502,220.6389,224.675,228.158,230.31,234.71,239.109,242.592,245.62060000000002,249.677,251.829,254.897,259.297,261.449,265.434,268.088,271.571,275.95450000000005,280.007,282.159,286.5425,290.552,293.206,297.606,299.758" svgx:width="0.82,0.44,0.55,0.44,0.38,0.5,0.27,0.55,0.44,0.55,0.5,0.38,0.5,0.44,0.33,0.44,0.38,0.27,0.38,0.33,0.27,0.44,0.38,0.55,0.55,0.33,0.55,0.33,0.55,0.44,0.55,0.44,0.82,0.82,0.77,0.55,0.44,0.27,0.55,0.55,0.44,0.38,0.55,0.27,0.38,0.55,0.27,0.5,0.33,0.44,0.55,0.55,0.27,0.55,0.55,0.33,0.55,0.27,0.38" style="fill:rgb(23,22,21);font-family:AdvTimes;font-size:7.97px;stroke:none;">General characteristics of the cDNA clones isolated in this</text>
   <text y="88.802" x="55.786,58.854,61.508,65.908,70.308" svgx:width="0.38,0.33,0.55,0.55,0.5" style="fill:rgb(23,22,21);font-family:AdvTimes;font-size:7.97px;stroke:none;">study</text>
   <text y="108.247" x="55.786,62.337,65.406,69.805,74.205,78.5885,85.719,91.442,93.594,97.994,102.393,105.8998,112.989,116.057,120.457,123.525,127.008,130.077" svgx:width="0.82,0.38,0.55,0.55,0.55,0.55,0.72,0.27,0.55,0.55,0.44,0.55,0.38,0.55,0.38,0.44,0.38,0.33" style="fill:rgb(23,22,21);font-family:AdvTimes;font-size:7.97px;stroke:none;">Group Clone Insert</text>
   <text y="117.431" x="112.989,117.388,119.54,123.023,126.5298,129.713,132.367,136.767,141.167" svgx:width="0.55,0.27,0.44,0.44,0.55,0.33,0.55,0.55,0.33" style="fill:rgb(23,22,21);font-family:AdvTimes;font-size:7.97px;stroke:none;">Size (kb)</text>
   <text y="108.247" x="150.86,157.411,161.811,163.96290000000002,167.188,171.587,174.2171,177.449,183.172,185.324,189.723,194.123,197.606" svgx:width="0.82,0.55,0.27,0.55,0.55,0.33,0.55,0.72,0.27,0.55,0.55,0.44,0.38" style="fill:rgb(23,22,21);font-family:AdvTimes;font-size:7.97px;stroke:none;">No. of Clones</text>
   <text y="117.431" x="150.86,156.997,161.397,164.051,168.036,170.188,174.587,178.07" svgx:width="0.77,0.55,0.33,0.5,0.27,0.55,0.44,0.55" style="fill:rgb(23,22,21);font-family:AdvTimes;font-size:7.97px;stroke:none;">Obtained</text>
   <text y="108.247" x="207.78,213.917,217.4,220.468,224.868,227.02,229.674,232.70260000000002,235.956,240.356" svgx:width="0.77,0.44,0.38,0.55,0.27,0.33,0.38,0.55,0.55,0.33" style="fill:rgb(23,22,21);font-family:AdvTimes;font-size:7.97px;stroke:none;">Results of</text>
   <text y="117.431" x="207.78,213.088,218.396,224.533,228.933,234.2729,237.431,241.83,245.313,249.298,252.367,255.85" svgx:width="0.67,0.67,0.77,0.55,0.67,0.55,0.55,0.44,0.5,0.38,0.44,0.55" style="fill:rgb(23,22,21);font-family:AdvTimes;font-size:7.97px;stroke:none;">BLAST Search</text>
   <text y="135.686" x="55.786,59.771,85.719,89.704,112.989,116.974,119.126,123.111,127.096,150.86,154.845,158.83,207.78,214.331,220.883,226.191,231.499,234.153,240.705,247.256" svgx:width="0.5,0.55,0.5,0.55,0.5,0.27,0.5,0.5,0.55,0.5,0.5,0.55,0.82,0.82,0.67,0.67,0.33,0.82,0.82,0.5" style="fill:rgb(23,22,21);font-family:AdvTimes;font-size:7.97px;stroke:none;">1 5 0.77 22 GmZF-HD1</text>
   <text y="144.644" x="55.786,59.771,85.719,89.704,112.989,116.974,119.126,123.111,127.096,150.86,154.84500000000003,207.78,214.331,220.883,226.191,231.499,234.153,240.705,247.256" svgx:width="0.5,0.55,0.5,0.55,0.5,0.27,0.5,0.5,0.55,0.5,0.55,0.82,0.82,0.67,0.67,0.33,0.82,0.82,0.5" style="fill:rgb(23,22,21);font-family:AdvTimes;font-size:7.97px;stroke:none;">2 1 0.66 6 GmZF-HD2</text>
   <text y="153.602" x="55.786,59.771,85.719,89.704,112.989,116.974,119.126,123.111,150.86,154.84500000000003,207.78,212.594,216.993,219.145,223.131,225.785,231.922,234.5521,237.771,242.171,244.323,248.722,253.122,255.274,259.673,263.658,266.855,271.255,274.323,278.723,281.377,284.86,287.012" svgx:width="0.5,0.55,0.5,0.55,0.5,0.27,0.5,0.55,0.5,0.55,0.6,0.55,0.27,0.5,0.33,0.77,0.33,0.55,0.55,0.27,0.55,0.55,0.27,0.55,0.5,0.55,0.55,0.38,0.55,0.33,0.44,0.27,0.55" style="fill:rgb(23,22,21);font-family:AdvTimes;font-size:7.97px;stroke:none;">3 2 1.3 1 Poly(A) binding protein</text>
   <text y="162.56" x="55.786,59.771,85.719,89.704,112.989,116.974,119.126,123.111,150.86,154.84500000000003,207.78,212.179,214.834,219.233,222.302,226.287,230.272,233.7788,236.921,241.32,244.389,248.788,251.442,254.925,257.077" svgx:width="0.5,0.55,0.5,0.55,0.5,0.27,0.5,0.55,0.5,0.55,0.55,0.33,0.55,0.38,0.5,0.5,0.44,0.55,0.55,0.38,0.55,0.33,0.44,0.27,0.55" style="fill:rgb(23,22,21);font-family:AdvTimes;font-size:7.97px;stroke:none;">4 3 1.2 1 Storage protein</text>
   <text y="171.517" x="55.786,59.771,85.719,89.704,112.989,116.974,119.126,123.111,150.86,154.84500000000003,207.78,213.088,216.571,219.64,222.708,226.191,230.591,234.99,238.975,241.127,245.527,248.595,251.664" svgx:width="0.5,0.55,0.5,0.55,0.5,0.27,0.5,0.55,0.5,0.55,0.67,0.44,0.38,0.38,0.44,0.55,0.55,0.5,0.27,0.55,0.38,0.38,0.38" style="fill:rgb(23,22,21);font-family:AdvTimes;font-size:7.97px;stroke:none;">5 9 0.8 1 FerredoxinIII</text>
   <text y="180.531" x="55.786,59.771,85.719,89.705,93.69,112.989,116.974,119.126,123.111,150.86,154.84500000000003,207.78,213.917,217.4,221.385,224.454,227.0841,230.287,234.687,239.086,242.569,245.638,250.037,256.589,260.988,265.388,268.8948,272.07,275.138,278.621,282.104,285.587,289.987,292.641,297.041" svgx:width="0.5,0.55,0.5,0.5,0.55,0.5,0.27,0.5,0.55,0.5,0.55,0.77,0.44,0.5,0.38,0.33,0.55,0.55,0.55,0.44,0.38,0.55,0.82,0.55,0.55,0.44,0.55,0.38,0.44,0.44,0.44,0.55,0.33,0.55,0.38" style="fill:rgb(23,22,21);font-family:AdvTimes;font-size:7.97px;stroke:none;">6 10 0.3 1 Yeast pheromone receptor</text>
   <text y="189.489" x="55.786,59.771,85.719,89.705,93.69,112.989,116.974,119.126,123.111,150.86,154.84500000000003,207.78,213.917,218.317,222.716,226.701,229.77,231.922,236.321,238.975,241.127,243.279,247.679,251.1858,254.382,258.781,261.85,266.249,268.903,272.386,274.538" svgx:width="0.5,0.55,0.5,0.5,0.55,0.5,0.27,0.5,0.55,0.5,0.55,0.77,0.55,0.55,0.5,0.38,0.27,0.55,0.33,0.27,0.27,0.55,0.44,0.55,0.55,0.38,0.55,0.33,0.44,0.27,0.55" style="fill:rgb(23,22,21);font-family:AdvTimes;font-size:7.97px;stroke:none;">7 11 1.1 1 Ankyrin-like protein</text>
   <text y="198.447" x="55.786,59.771,85.719,89.705,93.69,112.989,116.974,119.126,123.111,150.86,154.84500000000003,207.78,214.331,216.483,220.883,223.537,227.522,234.074,238.059,240.713,244.2198,247.409,251.808,255.291,258.774,262.759,265.828,270.227,274.627,278.612,282.597,284.749,288.734,291.803" svgx:width="0.5,0.55,0.5,0.5,0.55,0.5,0.27,0.5,0.55,0.5,0.55,0.82,0.27,0.55,0.33,0.5,0.82,0.5,0.33,0.44,0.55,0.55,0.44,0.44,0.5,0.38,0.55,0.55,0.5,0.5,0.27,0.5,0.38,0.44" style="fill:rgb(23,22,21);font-family:AdvTimes;font-size:7.97px;stroke:none;">8 13 0.5 1 Glutamate decarboxylase</text>
   <text y="207.405" x="55.786,59.771,85.719,89.705,93.69,112.989,116.974,119.126,123.111,150.86,154.84500000000003,207.78,213.917,216.069,220.468,224.868,228.351,231.834,234.488,236.64,238.792,243.192,246.6988,249.903,254.303,257.371,261.771,264.425,267.908,270.06" svgx:width="0.5,0.55,0.5,0.5,0.55,0.5,0.27,0.5,0.55,0.5,0.55,0.77,0.27,0.55,0.55,0.44,0.44,0.33,0.27,0.27,0.55,0.44,0.55,0.55,0.38,0.55,0.33,0.44,0.27,0.55" style="fill:rgb(23,22,21);font-family:AdvTimes;font-size:7.97px;stroke:none;">9 14 0.8 1 Yippee-like protein</text>
   <text y="216.362" x="55.786,59.771,63.756,85.719,89.705,93.69,112.989,116.974,119.126,123.111,150.86,154.84500000000003,207.78,214.331,217.814,221.8,224.454,227.522,231.922,236.321,239.804,244.1875,247.409,251.808,254.877,259.276,261.93,265.413,267.565" svgx:width="0.5,0.5,0.55,0.5,0.5,0.55,0.5,0.27,0.5,0.55,0.5,0.55,0.82,0.44,0.5,0.33,0.38,0.55,0.55,0.44,0.55,0.55,0.55,0.38,0.55,0.33,0.44,0.27,0.55" style="fill:rgb(23,22,21);font-family:AdvTimes;font-size:7.97px;stroke:none;">10 16 1.3 1 Heatshock protein</text>
   <text y="225.32" x="55.786,59.771,63.756,85.719,89.705,93.69,112.989,116.974,119.126,123.111,127.096,150.86,154.84500000000003,207.78,214.331,216.483,220.468,223.951,228.351,232.751,235.819,240.219,242.873,246.356,248.508" svgx:width="0.5,0.5,0.55,0.5,0.5,0.55,0.5,0.27,0.5,0.5,0.55,0.5,0.55,0.82,0.27,0.5,0.44,0.55,0.55,0.38,0.55,0.33,0.44,0.27,0.55" style="fill:rgb(23,22,21);font-family:AdvTimes;font-size:7.97px;stroke:none;">11 18 1.25 1 Glycoprotein</text>
   <text y="234.334" x="55.786,59.771,63.756,85.719,89.705,93.69,112.989,116.974,119.126,123.111,150.86,154.84500000000003,207.78,213.917,216.986,221.385,225.37,228.439,231.093,235.078,237.732,241.2388,244.404,248.389,254.94,257.092,261.492,265.891,268.546,271.614,275.599,279.999,283.067,285.721,289.204,292.273,296.258,299.326" svgx:width="0.5,0.5,0.55,0.5,0.5,0.55,0.5,0.27,0.5,0.55,0.5,0.55,0.77,0.38,0.55,0.5,0.38,0.33,0.5,0.33,0.44,0.55,0.5,0.82,0.27,0.55,0.55,0.33,0.38,0.5,0.55,0.38,0.33,0.44,0.38,0.5,0.38,0.44" style="fill:rgb(23,22,21);font-family:AdvTimes;font-size:7.97px;stroke:none;">12 25 1.8 1 Aspartate aminotransferase</text>
   <text y="243.292" x="55.786,59.771,63.756,85.719,89.705,93.69,112.989,116.974,119.126,123.111,150.86,154.84500000000003,207.78,213.917,216.069,218.221,222.206,226.606,231.005,234.074,236.226,240.625,244.61,246.762,250.747,253.401" svgx:width="0.5,0.5,0.55,0.5,0.5,0.55,0.5,0.27,0.5,0.55,0.5,0.55,0.77,0.27,0.27,0.5,0.55,0.55,0.38,0.27,0.55,0.5,0.27,0.5,0.33,0.44" style="fill:rgb(23,22,21);font-family:AdvTimes;font-size:7.97px;stroke:none;">13 27 1.3 1 Oligouridylate</text>
   <text y="252.476" x="217.758,222.157,224.309,228.709,233.108,235.26,239.66,243.645,246.842,251.241,254.31,258.71,261.364,264.847,266.999" svgx:width="0.55,0.27,0.55,0.55,0.27,0.55,0.5,0.55,0.55,0.38,0.55,0.33,0.44,0.27,0.55" style="fill:rgb(23,22,21);font-family:AdvTimes;font-size:7.97px;stroke:none;">binding protein</text>
   <text y="261.207" x="55.786,59.771,63.756,85.719,89.705,93.69,112.989,116.974,119.126,123.111,127.096,150.86,154.84500000000003,207.78,213.917,216.069,220.468,224.868,227.937,232.336,238.888,242.873,245.0249,248.259,252.659,255.727,260.127,262.781,266.264,268.416" svgx:width="0.5,0.5,0.55,0.5,0.5,0.55,0.5,0.27,0.5,0.5,0.55,0.5,0.55,0.77,0.27,0.55,0.55,0.38,0.55,0.82,0.5,0.27,0.55,0.55,0.38,0.55,0.33,0.44,0.27,0.55" style="fill:rgb(23,22,21);font-family:AdvTimes;font-size:7.97px;stroke:none;">14 38 1.35 1 Ribosomal protein</text>
   <text y="270.164" x="55.786,59.771,63.756,85.719,89.705,93.69,112.989,116.974,119.126,123.111,150.86,154.84500000000003,207.78,212.594,216.077,219.145,223.545,227.53,229.682,234.082,238.067,241.135" svgx:width="0.5,0.5,0.55,0.5,0.5,0.55,0.5,0.27,0.5,0.55,0.5,0.55,0.6,0.44,0.38,0.55,0.5,0.27,0.55,0.5,0.38,0.44" style="fill:rgb(23,22,21);font-family:AdvTimes;font-size:7.97px;stroke:none;">15 40 1.4 1 Peroxidase</text>
   <text y="279.122" x="55.786,59.771,63.756,85.719,89.705,93.69,112.989,116.974,119.126,123.111,150.86,154.84500000000003,207.78,213.917,217.902,221.887,225.872,229.355,233.7385,236.921,240.404,244.389,248.788,250.94,254.925,257.077,261.477,265.462,268.669,272.152,276.552,280.951,284.936,289.336,292.819,296.302" svgx:width="0.5,0.5,0.55,0.5,0.5,0.55,0.5,0.27,0.5,0.55,0.5,0.55,0.77,0.5,0.5,0.5,0.44,0.55,0.55,0.44,0.5,0.55,0.27,0.5,0.27,0.55,0.5,0.55,0.44,0.55,0.55,0.5,0.55,0.44,0.44,0.38" style="fill:rgb(23,22,21);font-family:AdvTimes;font-size:7.97px;stroke:none;">16 42 0.6 1 Oxygen evolving enhancer</text>
   <text y="297.548" x="55.786,61.094,65.494,68.562,71.216,75.201,77.855,80.509,86.232,90.6155,94.224,98.623,103.023,106.091,108.243,110.897,113.049,117.034,120.5408,124.044,127.527,129.679,134.079,138.478,141.961,144.98960000000002,148.592,154.315,157.798,160.867,164.3738,167.925,170.077,173.145,177.545,179.697,183.682,186.336,189.819,194.2025,197.745,202.145,206.13000000000002,209.708,213.693,217.176,221.161,224.23,226.8601,230.401,234.8,239.2,242.683,245.337,249.737,253.722,258.121,261.19,263.342,267.7255,271.333,274.402,277.885,280.953,284.436,287.919,292.319,294.471,298.87" svgx:width="0.67,0.55,0.38,0.33,0.5,0.33,0.33,0.72,0.55,0.55,0.55,0.55,0.38,0.27,0.33,0.27,0.5,0.44,0.55,0.44,0.27,0.55,0.55,0.44,0.38,0.55,0.72,0.44,0.38,0.44,0.55,0.27,0.38,0.55,0.27,0.5,0.33,0.44,0.55,0.55,0.55,0.5,0.55,0.5,0.44,0.5,0.38,0.33,0.55,0.55,0.55,0.44,0.33,0.55,0.5,0.55,0.38,0.27,0.55,0.55,0.38,0.44,0.38,0.44,0.44,0.55,0.27,0.55,0.5" style="fill:rgb(23,22,21);font-family:AdvTimes;font-size:7.97px;stroke:none;">Forty-two positive clones were isolated by yeast one-hybrid screening</text>
   <text y="306.562" x="55.786,59.771,64.17,68.5535,71.773,76.173,78.325,82.31,84.462,88.861,92.344,96.72749999999999,99.949,102.101,106.501,109.155,113.5385,116.731,120.716,124.701,127.899,132.299,134.451,137.519,140.173,142.325,146.725,150.208,152.8381,156.076,159.559,166.11,172.662,178.7989,182.041,186.026,189.095,193.494,197.894,202.293,205.362" svgx:width="0.5,0.55,0.55,0.55,0.55,0.27,0.5,0.27,0.55,0.44,0.55,0.55,0.27,0.55,0.33,0.55,0.55,0.5,0.5,0.55,0.55,0.27,0.38,0.33,0.27,0.55,0.44,0.33,0.55,0.44,0.82,0.82,0.77,0.55,0.5,0.38,0.55,0.55,0.55,0.38,0.27" style="fill:rgb(23,22,21);font-family:AdvTimes;font-size:7.97px;stroke:none;">and divided into 16 distinct cDNA groups.</text>
  </g>
  <rect style="stroke:blue;stroke-width:0.3;" x="323.093" y="80.851" height="439.483" width="246.501" title="6"/>
  <text y="80.851" class="image" id="image.6.1" width="246" height="439" x="323.093">image.6.1.323_570.81_520</text>
  <g begin="text">
   <text y="527.095" x="322.809,327.623,329.775,333.76,337.746,340.814,344.3208,347.301,351.286" svgx:width="0.6,0.27,0.5,0.5,0.38,0.44,0.55,0.5,0.27" style="fill:rgb(23,22,21);font-family:AdvTimes-b;font-size:7.97px;stroke:none;">Figure 4.</text>
   <text y="527.095" x="357.449,363.586,370.137,372.289,376.689,381.07250000000005,384.095,388.08,391.563,393.715,398.0985,401.16,404.228,407.711,412.111,416.51,419.993,424.393,427.876,431.3828,434.382,438.367,440.519,442.671,446.656,451.055,457.607,461.09,465.489,468.1191,471.175,475.16,479.56,483.94350000000003,486.993,491.392,495.792,499.777,501.929,506.329,510.314,513.797,518.196,521.679,524.333,526.485,529.9918,532.971,536.956,541.356,545.341,547.493,551.478,554.547,556.699,559.7275999999999,562.792,567.192" svgx:width="0.77,0.82,0.27,0.55,0.55,0.55,0.5,0.44,0.27,0.55,0.55,0.38,0.44,0.55,0.55,0.44,0.55,0.44,0.44,0.55,0.5,0.27,0.27,0.5,0.55,0.82,0.44,0.55,0.33,0.55,0.5,0.55,0.55,0.55,0.55,0.55,0.5,0.27,0.55,0.5,0.44,0.55,0.44,0.33,0.27,0.44,0.55,0.5,0.55,0.5,0.27,0.5,0.38,0.27,0.38,0.55,0.55,0.33" style="fill:rgb(23,22,21);font-family:AdvTimes;font-size:7.97px;stroke:none;">Amino acid sequence alignment and phylogenetic analysis of</text>
   <text y="536.052" x="322.809,329.361,335.912,341.221,346.529,349.183,355.734,362.286,366.271,368.901,372.886,377.286" svgx:width="0.82,0.82,0.67,0.67,0.33,0.82,0.82,0.5,0.55,0.5,0.55,0.55" style="fill:rgb(23,22,21);font-family:AdvTimes;font-size:7.97px;stroke:none;">GmZF-HD1 and</text>
   <text y="536.052" code="1" x="384.264" svgx:width="0.77" style="fill:rgb(23,22,21);font-family:AdvMT_SY;font-size:7.97px;stroke:none;">?</text>
   <text y="536.052" x="390.444,394.429,396.5809,399.174" svgx:width="0.5,0.27,0.55,0.33" style="fill:rgb(23,22,21);font-family:AdvTimes;font-size:7.97px;stroke:none;">2. (</text>
   <text y="536.052" x="401.839" svgx:width="0.72" style="fill:rgb(23,22,21);font-family:AdvTimes-b;font-size:7.97px;stroke:none;">A</text>
   <text y="536.052" x="407.564,410.19410000000005,412.78,418.917,421.069,423.221,427.206,431.606,438.157,441.64,446.04,448.67010000000005,451.332,455.732,458.36210000000005,461.027,463.681,468.081,471.5878,474.123,480.674,487.226,492.534,497.842,500.496,507.048,513.599,517.5840000000001,520.271,524.256,528.656" svgx:width="0.33,0.55,0.77,0.27,0.27,0.5,0.55,0.82,0.44,0.55,0.33,0.55,0.55,0.33,0.55,0.33,0.55,0.44,0.55,0.82,0.82,0.67,0.67,0.33,0.82,0.82,0.5,0.55,0.5,0.55,0.55" style="fill:rgb(23,22,21);font-family:AdvTimes;font-size:7.97px;stroke:none;">) Alignment of the GmZF-HD1 and</text>
   <text y="536.052" code="1" x="535.634" svgx:width="0.77" style="fill:rgb(23,22,21);font-family:AdvMT_SY;font-size:7.97px;stroke:none;">?</text>
   <text y="536.052" x="541.757,545.742,548.333,552.318,558.87,561.022,565.422" svgx:width="0.5,0.55,0.5,0.82,0.27,0.55,0.55" style="fill:rgb(23,22,21);font-family:AdvTimes;font-size:7.97px;stroke:none;">2 amino</text>
   <text y="545.01" x="322.809,326.794,330.277,332.429,336.8125,341.574,344.643,348.126,352.525,356.925,360.408,364.807,368.29,371.773,374.8016,379.615,385.338,387.49,390.144,394.52750000000003,399.288,401.942,406.342" svgx:width="0.5,0.44,0.27,0.55,0.55,0.38,0.44,0.55,0.55,0.44,0.55,0.44,0.44,0.38,0.55,0.72,0.27,0.33,0.55,0.55,0.33,0.55,0.44" style="fill:rgb(23,22,21);font-family:AdvTimes;font-size:7.97px;stroke:none;">acid sequences with the</text>
   <text y="545.01" x="414.595,419.409,421.561,425.546,429.029,432.512,435.581,437.732,441.71700000000004,446.457,449.111,452.179,454.331,458.316,461.799,464.868,468.351,470.503" svgx:width="0.6,0.27,0.5,0.44,0.44,0.38,0.27,0.5,0.55,0.33,0.38,0.27,0.5,0.44,0.38,0.44,0.27,0.5" style="fill:rgb(23,22,21);font-family:AdvTimes-i;font-size:7.97px;stroke:none;">Flaveria trinervia</text>
   <text y="545.01" x="479.282,481.936,487.244,489.898,496.45,501.758,505.743,508.3731,513.128,517.113,521.513" svgx:width="0.33,0.67,0.33,0.82,0.67,0.5,0.33,0.55,0.5,0.55,0.55" style="fill:rgb(23,22,21);font-family:AdvTimes;font-size:7.97px;stroke:none;">(FtHB1) and</text>
   <text y="545.01" x="530.703,536.425,539.494,543.479,547.464,549.616,553.601,557.586,561.571,564.64,566.792" svgx:width="0.72,0.38,0.5,0.5,0.27,0.5,0.5,0.5,0.38,0.27,0.38" style="fill:rgb(23,22,21);font-family:AdvTimes-i;font-size:7.97px;stroke:none;">Arabidopsis</text>
   <text y="553.968" x="322.809,325.463,329.448,333.433,335.585,337.737,341.722,345.707" svgx:width="0.33,0.5,0.5,0.27,0.27,0.5,0.5,0.5" style="fill:rgb(23,22,21);font-family:AdvTimes-i;font-size:7.97px;stroke:none;">thaliana</text>
   <text y="553.968" x="354.217,356.871,363.008,365.662,372.214,377.522,381.507,385.492,389.99,393.975,398.375,402.7585,407.282,413.419,416.073,422.624,427.932,431.918,435.903,438.53310000000005,443.112,447.511,451.911,458.462,461.945,466.345,470.744,475.144,481.695,485.68,487.832,492.2155,496.744,501.143,504.212,508.611,511.266,514.749,516.901,521.3,524.369,526.5209,531.044,536.352,540.751,544.2578,548.789,553.188,555.34,559.325,563.725,565.877" svgx:width="0.33,0.77,0.33,0.82,0.67,0.5,0.5,0.55,0.5,0.55,0.55,0.55,0.77,0.33,0.82,0.67,0.5,0.5,0.33,0.55,0.55,0.55,0.82,0.44,0.55,0.55,0.55,0.82,0.5,0.27,0.55,0.55,0.55,0.38,0.55,0.33,0.44,0.27,0.55,0.38,0.27,0.55,0.67,0.55,0.44,0.55,0.55,0.27,0.5,0.55,0.27,0.5" style="fill:rgb(23,22,21);font-family:AdvTimes;font-size:7.97px;stroke:none;">(AtHB24 and AtHB26) homeodomain proteins. The highly</text>
   <text y="562.925" x="322.809,326.292,330.691,335.091,338.159,341.642,344.711,348.696,352.179,356.5625,361.474,365.873,370.273,376.824,380.809,382.961,387.361,390.3896,395.32,398.388,402.373,404.5249,409.38,412.448,416.8315,421.739,425.724,430.124,434.50750000000005,439.371,442.439,445.4676,450.426,454.411,457.48,460.9868,465.847,470.247,474.646,478.631,482.114,486.514,488.6659,493.513,495.665,500.065,503.548,507.947,510.601,512.753,516.236,520.221,522.3729,527.303,530.371,533.854,536.923,539.075,543.474,547.874,551.357,554.3856,559.334,563.319,566.388" svgx:width="0.44,0.55,0.55,0.38,0.44,0.38,0.5,0.44,0.55,0.55,0.55,0.55,0.82,0.5,0.27,0.55,0.38,0.55,0.38,0.5,0.27,0.55,0.38,0.55,0.55,0.5,0.55,0.55,0.55,0.38,0.38,0.55,0.5,0.38,0.44,0.55,0.55,0.55,0.5,0.44,0.55,0.27,0.55,0.27,0.55,0.44,0.55,0.33,0.27,0.44,0.5,0.27,0.55,0.38,0.44,0.38,0.27,0.55,0.55,0.44,0.38,0.55,0.5,0.38,0.44" style="fill:rgb(23,22,21);font-family:AdvTimes;font-size:7.97px;stroke:none;">conserved domains Ia, Ib and II are boxed, identical residues are</text>
   <text y="571.94" x="322.809,324.961,329.36,333.76,335.912,339.395,343.38,346.034,349.517,353.9005,356.881,362.604,364.756,367.41,371.79350000000005,374.739,380.462,384.861,387.013,389.667,393.17379999999997,396.113,398.265,401.748,404.402,407.056,410.539,413.607,416.6356,419.697,421.849,426.2325,429.165,433.565,435.717,439.702,443.185,447.56850000000003,450.539,454.938,459.338,463.323,466.806,469.874,472.02590000000004,475.03,479.43,483.415,486.484,490.883,494.366,497.39459999999997,500.372,502.524,506.924,511.323,513.475,516.958,520.943,523.597,527.1038,530.08,532.734,537.133,540.6398,543.572,547.557,551.957,555.026,558.509,562.908,566.391" svgx:width="0.27,0.55,0.55,0.27,0.44,0.5,0.33,0.44,0.55,0.55,0.72,0.27,0.33,0.55,0.55,0.72,0.55,0.27,0.33,0.44,0.55,0.27,0.44,0.33,0.33,0.44,0.38,0.38,0.55,0.27,0.55,0.55,0.55,0.27,0.5,0.44,0.55,0.55,0.55,0.55,0.5,0.44,0.38,0.27,0.55,0.55,0.5,0.38,0.55,0.44,0.38,0.55,0.27,0.55,0.55,0.27,0.44,0.5,0.33,0.44,0.55,0.33,0.55,0.44,0.55,0.5,0.55,0.38,0.44,0.55,0.44,0.44" style="fill:rgb(23,22,21);font-family:AdvTimes;font-size:7.97px;stroke:none;">indicated with white letters in black boxes, dashes indicate the absence</text>
   <text y="580.897" x="322.809,327.208,329.83810000000005,332.503,335.571,339.054,342.123,344.275,348.674,353.074,356.557,359.625,361.7769,364.534,368.519,372.919,377.3025,380.011,382.665,387.065,390.5718,393.221,395.875,398.944,401.096,405.495,408.978,411.13,413.282,417.267,419.921,426.473,433.024,439.1609,441.921,446.32,448.472,452.872,457.271,459.423,463.823,467.808,470.494,473.562,477.045,481.03,483.182,487.582,491.981,495.0096,497.763,502.163,504.79310000000004,507.458,510.112,514.512,518.0187999999999,520.724,525.124,529.523,536.075,539.558,543.957,548.357,552.756,559.308,563.293,565.445" svgx:width="0.55,0.33,0.55,0.38,0.44,0.38,0.27,0.55,0.55,0.44,0.38,0.27,0.55,0.5,0.55,0.55,0.55,0.33,0.55,0.44,0.55,0.33,0.38,0.27,0.55,0.44,0.27,0.27,0.5,0.33,0.82,0.82,0.77,0.55,0.55,0.27,0.55,0.55,0.27,0.55,0.5,0.55,0.38,0.44,0.5,0.27,0.55,0.55,0.38,0.55,0.55,0.33,0.55,0.33,0.55,0.44,0.55,0.55,0.55,0.82,0.44,0.55,0.55,0.55,0.82,0.5,0.27,0.55" style="fill:rgb(23,22,21);font-family:AdvTimes;font-size:7.97px;stroke:none;">of residues, and the trihelix-DNA binding regions of the homeodomain</text>
   <text y="589.855" x="322.809,326.794,329.862,333.3688,336.812,341.212,345.611,350.011,353.494,356.562,358.714,360.866,365.266,368.749,373.148,375.29990000000004,378.765" svgx:width="0.5,0.38,0.44,0.55,0.55,0.55,0.55,0.44,0.38,0.27,0.27,0.55,0.44,0.55,0.27,0.55,0.33" style="fill:rgb(23,22,21);font-family:AdvTimes;font-size:7.97px;stroke:none;">are underlined. (</text>
   <text y="589.855" x="381.429" svgx:width="0.67" style="fill:rgb(23,22,21);font-family:AdvTimes-b;font-size:7.97px;stroke:none;">B</text>
   <text y="589.855" x="386.758,389.3881,392.824,397.638,402.038,406.023,408.175,412.575,416.56,420.043,424.442,427.925,430.579,432.731,436.2378,439.71,442.364,445.432,448.915,452.4218,455.867,460.267,462.8971,466.412,470.811,472.963,476.948,481.348,483.97810000000004,487.445,491.844,496.244,502.796,506.278,510.678,515.078,519.477,526.029,530.014,532.166,536.5495000000001,540.056,544.456,547.524,551.924,554.578,558.061,560.213,564.612,567.681" svgx:width="0.33,0.55,0.6,0.55,0.5,0.27,0.55,0.5,0.44,0.55,0.44,0.33,0.27,0.44,0.55,0.33,0.38,0.44,0.44,0.55,0.55,0.33,0.55,0.55,0.27,0.5,0.55,0.33,0.55,0.55,0.55,0.82,0.44,0.55,0.55,0.55,0.82,0.5,0.27,0.55,0.55,0.55,0.38,0.55,0.33,0.44,0.27,0.55,0.38,0.27" style="fill:rgb(23,22,21);font-family:AdvTimes;font-size:7.97px;stroke:none;">) Phylogenetic tree of plant homeodomain proteins.</text>
   <text y="598.813" x="322.809,328.117,332.516,336.0228,338.456,345.007,348.49,352.89,358.198,362.183,366.583,370.96650000000005,373.492,377.477,380.96,384.443,387.926,390.994,394.063,396.215,400.614,404.9975,407.564,411.964,416.363,422.915,427.315,430.798,433.866,436.89459999999997,439.426,442.08,446.48,449.5086,452.068,454.722,459.122,462.6288,465.108,467.762,472.161,474.313,476.465,480.865,486.587,488.739,493.139,497.124,499.634,504.033,507.102,511.501,514.155,517.638,519.79,524.19,527.2186,529.738,533.723,536.792,540.2988,542.777,546.762,548.914,552.899,556.382,560.7655,563.3,565.452" svgx:width="0.67,0.55,0.44,0.55,0.82,0.44,0.55,0.67,0.5,0.55,0.55,0.55,0.5,0.44,0.44,0.44,0.38,0.38,0.27,0.55,0.55,0.55,0.55,0.55,0.82,0.55,0.44,0.38,0.38,0.55,0.33,0.55,0.38,0.55,0.33,0.55,0.44,0.55,0.33,0.55,0.27,0.27,0.55,0.72,0.27,0.55,0.5,0.55,0.55,0.38,0.55,0.33,0.44,0.27,0.55,0.38,0.55,0.5,0.38,0.44,0.55,0.5,0.27,0.5,0.44,0.55,0.55,0.27,0.55" style="fill:rgb(23,22,21);font-family:AdvTimes;font-size:7.97px;stroke:none;">The GenBank accession numbers for the following proteins are given in</text>
   <text y="607.771" x="322.809,327.208,331.193,334.262,337.745,342.144,344.798,349.198,352.681,355.749,357.901,360.97,363.12190000000004,368.447,374.998,381.55,388.101,393.409,397.394,402.69,405.344,411.481,419.364,423.349,427.334,431.319,435.304,439.289,443.274,445.928,448.0799,453.431,459.568,464.876,471.427,476.736,480.721,484.706,489.998,492.652,498.789,504.512,508.497,512.482,516.467,520.452,524.437,528.422,531.076,533.2279,538.584,544.721,550.029,556.581,561.889,565.874" svgx:width="0.55,0.5,0.38,0.44,0.55,0.33,0.55,0.44,0.38,0.27,0.38,0.27,0.55,0.82,0.82,0.82,0.67,0.5,0.55,0.33,0.77,0.99,0.5,0.5,0.5,0.5,0.5,0.5,0.33,0.27,0.55,0.77,0.67,0.82,0.67,0.5,0.5,0.55,0.33,0.77,0.72,0.5,0.5,0.5,0.5,0.5,0.5,0.33,0.27,0.55,0.77,0.67,0.82,0.67,0.5,0.5" style="fill:rgb(23,22,21);font-family:AdvTimes;font-size:7.97px;stroke:none;">parenthesis: GmHB1 (AW760234), ATHB24 (AC006439), ATHB28</text>
   <text y="616.728" x="322.809,325.463,331.6,336.908,340.893,344.878,348.863,352.848,356.833,360.819,362.97,366.956,369.61,371.7619,377.801,383.939,389.247,395.798,401.106,405.091,409.076,415.106,417.76,423.897,429.205,433.19,437.176,441.161,445.146,449.131,453.116,455.77,457.9219,463.919,470.056,473.124,479.676,484.984,488.969,495.043,497.697,503.834,509.557,513.542,517.527,521.512,525.497,529.482,533.468,536.122,538.2738999999999,544.31,549.618,554.018,560.569,565.878" svgx:width="0.33,0.77,0.67,0.5,0.5,0.5,0.5,0.5,0.5,0.27,0.5,0.33,0.27,0.55,0.77,0.67,0.82,0.67,0.5,0.5,0.55,0.33,0.77,0.67,0.5,0.5,0.5,0.5,0.5,0.5,0.33,0.27,0.55,0.77,0.38,0.82,0.67,0.5,0.55,0.33,0.77,0.72,0.5,0.5,0.5,0.5,0.5,0.5,0.33,0.27,0.55,0.67,0.55,0.82,0.67,0.5" style="fill:rgb(23,22,21);font-family:AdvTimes;font-size:7.97px;stroke:none;">(AL049862.1), ATHB25 (AB011479), OsHB1 (AC007858), FbHB4</text>
   <text y="625.743" x="322.809,325.463,331.6,335.585,339.57,343.555,347.54,351.525,354.179,356.3309,362.664,367.973,372.372,378.924,384.232,388.21700000000004,394.526,397.18,403.317,407.302,411.287,415.273,419.258,423.243,425.897,428.0489,434.382,439.69,442.344,448.896,454.204,458.189,464.543,467.197,473.334,477.319,481.304,485.289,489.274,493.26,495.914,498.0659,504.399,509.707,514.106,520.658,525.966,529.951,536.317,538.971,545.108,549.093,553.078,557.063,561.048,565.034,567.688" svgx:width="0.33,0.77,0.5,0.5,0.5,0.5,0.5,0.33,0.27,0.55,0.67,0.55,0.82,0.67,0.5,0.55,0.33,0.77,0.5,0.5,0.5,0.5,0.5,0.33,0.27,0.55,0.67,0.33,0.82,0.67,0.5,0.55,0.33,0.77,0.5,0.5,0.5,0.5,0.5,0.33,0.27,0.55,0.67,0.55,0.82,0.67,0.5,0.55,0.33,0.77,0.5,0.5,0.5,0.5,0.5,0.33,0.27" style="fill:rgb(23,22,21);font-family:AdvTimes;font-size:7.97px;stroke:none;">(Y18581), FbHB2 (Y18579), FtHB1 (Y18577), FbHB3 (Y18580),</text>
   <text y="634.7" x="322.809,328.946,334.254,340.805,346.113,350.099,354.084,357.902,360.556,366.693,372.002,375.987,379.972,383.957,387.942,391.927,395.912,398.566,400.7179,404.561,410.698,416.006,422.557,427.866,431.851,435.836,439.711,442.365,448.502,453.81,457.795,461.78,465.766,469.751,473.736,477.721,480.375,482.5269,486.369,491.677,496.986,502.294,506.279,510.067,512.721,519.273,523.258,527.243,531.228,535.213,539.198,541.852,544.0038999999999,547.882,554.019,559.327,565.878" svgx:width="0.77,0.67,0.82,0.67,0.5,0.5,0.55,0.33,0.77,0.67,0.5,0.5,0.5,0.5,0.5,0.5,0.33,0.27,0.55,0.77,0.67,0.82,0.67,0.5,0.5,0.55,0.33,0.77,0.67,0.5,0.5,0.5,0.5,0.5,0.5,0.33,0.27,0.55,0.67,0.67,0.67,0.5,0.55,0.33,0.82,0.5,0.5,0.5,0.5,0.5,0.33,0.27,0.55,0.77,0.67,0.82,0.5" style="fill:rgb(23,22,21);font-family:AdvTimes;font-size:7.97px;stroke:none;">ATHB26 (AB011483), ATHB27 (AB007647), BEL1 (U39944), ATH1</text>
   <text y="643.658" x="322.809,325.463,331.6,335.585,339.57,343.555,347.54,351.525,354.179,356.3309,359.149,365.286,370.594,377.146,382.454,386.439,389.253,391.907,398.044,402.029,406.014,410.0,413.985,417.97,420.624,422.77590000000004,425.593,431.73,437.038,443.59,448.898,452.88300000000004,455.698,458.352,464.489,468.474,472.459,476.444,480.429,484.414,487.068,489.2199,492.038,496.852,502.989,509.54,515.6769,518.514,521.168,526.476,530.461,534.446,538.431,542.417,546.402,549.056,551.2079,554.004,560.555,565.863" svgx:width="0.33,0.77,0.5,0.5,0.5,0.5,0.5,0.33,0.27,0.55,0.77,0.67,0.82,0.67,0.5,0.55,0.33,0.77,0.5,0.5,0.5,0.5,0.5,0.33,0.27,0.55,0.77,0.67,0.82,0.67,0.5,0.55,0.33,0.77,0.5,0.5,0.5,0.5,0.5,0.33,0.27,0.55,0.6,0.77,0.82,0.77,0.55,0.33,0.67,0.5,0.5,0.5,0.5,0.5,0.33,0.27,0.55,0.82,0.67,0.5" style="fill:rgb(23,22,21);font-family:AdvTimes;font-size:7.97px;stroke:none;">(X80126), ATHB2 (X68145), ATHB6 (X67034), PRHA (L21991), GL2</text>
   <text y="652.616" x="322.809,325.463,330.771,334.756,338.741,342.726,346.711,350.696,353.35,355.50190000000003,358.526,364.663,369.971,377.853,383.161,387.146,390.16,392.814,399.366,403.351,407.336,411.321,415.306,419.291,421.945,424.0969,427.124,431.524,436.832,444.7223,447.704,450.358,456.91,460.895,464.88,468.865,472.85,476.835,479.489,481.6409,484.668,491.22,497.771,501.75600000000003,504.738,507.392,513.529,517.514,521.5,525.485,529.47,533.455,536.109,538.2609,541.305,547.857,554.409,560.546,565.854" svgx:width="0.33,0.67,0.5,0.5,0.5,0.5,0.5,0.33,0.27,0.55,0.77,0.67,0.99,0.67,0.5,0.55,0.33,0.82,0.5,0.5,0.5,0.5,0.5,0.33,0.27,0.55,0.55,0.67,0.99,0.55,0.33,0.82,0.5,0.5,0.5,0.5,0.5,0.33,0.27,0.55,0.82,0.82,0.5,0.55,0.33,0.77,0.5,0.5,0.5,0.5,0.5,0.33,0.27,0.55,0.82,0.82,0.77,0.67,0.5" style="fill:rgb(23,22,21);font-family:AdvTimes;font-size:7.97px;stroke:none;">(L32873), ATML1 (U37589), STM (U32344), KN1 (X61308), KNAT3</text>
   <text y="661.573" x="322.809,325.463,331.6,335.585,339.57,343.555,347.54,351.525,354.179" svgx:width="0.33,0.77,0.5,0.5,0.5,0.5,0.5,0.33,0.27" style="fill:rgb(23,22,21);font-family:AdvTimes;font-size:7.97px;stroke:none;">(X92392).</text>
   <text y="44.978" x="349.001,356.826,361.907,366.348,369.092,373.532,376.276,380.7464,382.791,390.087,394.528,397.272,402.353,406.2138,408.302,415.599,420.039,423.952,428.392,433.473,437.386,441.826,446.907,449.6502,451.729,456.81,461.891,466.972,472.053,474.7962,476.844,484.141,489.222,491.965,494.7082,496.743,501.824,506.905,509.6482,511.711,519.536,524.617,527.3602,529.399,534.48" svgx:width="0.77,0.5,0.44,0.27,0.44,0.27,0.44,0.55,0.72,0.44,0.27,0.5,0.38,0.55,0.72,0.44,0.38,0.44,0.5,0.38,0.44,0.5,0.27,0.55,0.5,0.5,0.5,0.5,0.27,0.55,0.72,0.5,0.27,0.27,0.55,0.5,0.5,0.27,0.55,0.77,0.5,0.27,0.55,0.5,0.5" style="fill:rgb(23,22,21);font-family:AdvTimes-i;font-size:10.16px;stroke:none;">Nucleic Acids Research, 2007, Vol. 35, No. 11</text>
   <text y="44.978" x="549.524,554.605,559.686,564.767" svgx:width="0.5,0.5,0.5,0.5" style="fill:rgb(23,22,21);font-family:AdvTimes-bi;font-size:10.16px;stroke:none;">3617</text>
  </g>
 </g>
</svg>
