<?xml version="1.0" encoding="UTF-8"?>
<svg height="747.391" width="4319.94" xmlns="http://www.w3.org/2000/svg">
 <g id="page" xmlns:svgx="http://www.xml-cml.org/schema/svgx">
  <g begin="text">
   <text y="79.844" x="42.463,46.817,49.507,55.006,58.842,63.195,65.885,70.86500000000001,76.422,80.257,84.611,87.301,92.282,95.6,99.953,105.431,111.004,114.321,119.79899999999999,125.347,131.982,135.299,143.489,150.124,155.10399999999998,160.666,163.984,169.483,174.464,179.942,185.497,188.815,194.293,199.897,205.914,213.586,221.775,229.4442,234.989,238.307,244.942,247.632,252.613,258.112,261.948,266.3304,271.896,276.877,283.512,286.83" svgx:width="0.44,0.27,0.55,0.38,0.44,0.27,0.5,0.55,0.38,0.44,0.27,0.5,0.33,0.44,0.55,0.55,0.33,0.55,0.55,0.67,0.33,0.82,0.67,0.5,0.55,0.33,0.55,0.5,0.55,0.55,0.33,0.55,0.55,0.6,0.77,0.82,0.77,0.55,0.33,0.67,0.27,0.5,0.55,0.38,0.44,0.55,0.5,0.67,0.33,0.27" style="fill:rgb(23,22,21);font-family:AdvTimes;font-size:9.96px;stroke:none;">closely related to FtHB1 than to PRHA (Figure 4B).</text>
   <text y="90.843" x="42.463,49.098,54.597,58.951,62.787,67.14,70.458,75.957,79.793,84.147,86.8362,89.971,93.288,98.788,103.141,106.977,111.35940000000001,114.462,119.961,125.46,129.296,133.65,137.485,142.467,147.448,150.765,153.455,158.955,164.454,168.2388,171.437,174.127,182.316,187.815,190.505,195.48499999999999,198.593,201.91,207.41,212.391,215.6778,218.832,222.149,227.649,232.0314,235.16,243.349,251.538,258.173,264.808,268.126,276.315,284.504" svgx:width="0.67,0.55,0.44,0.38,0.44,0.33,0.55,0.38,0.44,0.27,0.55,0.33,0.55,0.44,0.38,0.44,0.55,0.55,0.55,0.38,0.44,0.38,0.5,0.5,0.33,0.27,0.55,0.55,0.38,0.55,0.27,0.82,0.55,0.27,0.5,0.55,0.33,0.55,0.5,0.33,0.55,0.33,0.55,0.44,0.55,0.82,0.82,0.67,0.67,0.33,0.82,0.82,0.5" style="fill:rgb(23,22,21);font-family:AdvTimes;font-size:9.96px;stroke:none;">Therefore, these observations imply that the GmZF-HD1</text>
   <text y="101.842" x="42.463,47.444,52.944" svgx:width="0.5,0.55,0.55" style="fill:rgb(23,22,21);font-family:AdvTimes;font-size:9.96px;stroke:none;">and</text>
   <text y="101.842" code="1" x="61.398" svgx:width="0.77" style="fill:rgb(23,22,21);font-family:AdvMT_SY;font-size:9.96px;stroke:none;">?</text>
   <text y="101.842" x="69.108,74.08800000000001,77.045,82.545,86.38,91.879,95.197,99.551,102.241,107.74,111.5248,114.575,118.411,122.765,128.264,132.099,136.453,140.289,144.642,150.142,153.4288,156.471,161.451,164.465,169.964,174.318,181.4892,184.478,188.832,191.521,196.503,200.338,204.12279999999998,207.155,212.654,215.9408,218.946,225.582,232.217,235.534,243.723,251.89020000000002,254.946,260.446,264.281,269.781,273.098,277.452,280.142,285.641" svgx:width="0.5,0.55,0.55,0.38,0.55,0.33,0.44,0.27,0.55,0.38,0.55,0.38,0.44,0.55,0.38,0.44,0.38,0.44,0.55,0.33,0.55,0.5,0.55,0.55,0.44,0.72,0.55,0.44,0.27,0.5,0.38,0.38,0.55,0.55,0.33,0.55,0.67,0.67,0.33,0.82,0.82,0.55,0.55,0.38,0.55,0.33,0.44,0.27,0.55,0.38" style="fill:rgb(23,22,21);font-family:AdvTimes;font-size:9.96px;stroke:none;">2 proteins represent a new class of ZF-HD proteins</text>
   <text y="112.784" x="42.462,45.78,51.279,56.26,59.5468,62.418,65.108,68.89280000000001,71.772,74.462,79.961,84.943,90.442,93.132,98.113,102.467,107.945,110.832,113.522,119.0,121.831,127.33,132.312,135.629,141.129,146.628,151.609,155.963,161.441,164.35,168.186,170.876,175.857,181.357,186.338,189.028,191.718,197.217,202.197,205.056,207.745,213.223,216.054,219.89,225.389,230.371,235.87,240.224,245.205,250.68300000000002,253.584,258.566,264.065,269.543,272.406,275.723,281.223,286.204" svgx:width="0.33,0.55,0.5,0.33,0.55,0.27,0.38,0.55,0.27,0.55,0.5,0.55,0.27,0.5,0.44,0.55,0.55,0.27,0.55,0.55,0.55,0.5,0.33,0.55,0.55,0.5,0.44,0.55,0.55,0.38,0.27,0.5,0.55,0.5,0.27,0.27,0.55,0.5,0.55,0.27,0.55,0.55,0.38,0.55,0.5,0.55,0.44,0.5,0.55,0.55,0.5,0.55,0.55,0.55,0.33,0.55,0.5,0.33" style="fill:rgb(23,22,21);font-family:AdvTimes;font-size:9.96px;stroke:none;">that is involved in pathogen signaling in soybean and that</text>
   <text y="123.782" x="42.462,45.78,51.279,55.6614,58.052,62.406,67.905,72.887,76.722,81.704,86.057,89.375,93.729,97.564,100.254,104.09,107.407,110.097,114.4794,116.899,121.252,123.942,129.441,133.8234,136.231,141.73,147.23,152.211,156.565,160.3498,162.819,168.319,173.818,182.007,186.988,189.678,195.178,198.9628,201.426,206.926,209.615,214.597,219.577,222.006,226.986,229.376,233.212,238.711,241.401,245.7834,248.198,250.888,256.366,258.799,264.298,268.134,273.633,276.951,281.304,283.994" svgx:width="0.33,0.55,0.44,0.55,0.44,0.55,0.5,0.38,0.5,0.44,0.33,0.44,0.38,0.27,0.38,0.33,0.27,0.44,0.55,0.44,0.27,0.55,0.44,0.55,0.55,0.55,0.5,0.44,0.38,0.55,0.55,0.55,0.82,0.5,0.27,0.55,0.38,0.55,0.55,0.27,0.5,0.5,0.55,0.5,0.55,0.38,0.55,0.27,0.44,0.55,0.27,0.55,0.55,0.55,0.38,0.55,0.33,0.44,0.27,0.55" style="fill:rgb(23,22,21);font-family:AdvTimes;font-size:9.96px;stroke:none;">the characteristic zinc ﬁnger domains play a role in protein</text>
   <text y="134.781" x="42.462,46.298,50.651,55.633,61.132,63.822,68.803,72.121,74.811,80.31,85.809" svgx:width="0.38,0.44,0.5,0.55,0.27,0.5,0.33,0.27,0.55,0.55,0.27" style="fill:rgb(23,22,21);font-family:AdvTimes;font-size:9.96px;stroke:none;">regulation.</text>
   <text y="156.211" x="42.462,49.097,54.596,59.578,63.413,67.767,71.603,75.438,78.128,83.109,88.089,90.083,95.065,100.046,103.363,106.681,111.035,114.87,119.85000000000001,121.888,126.869,130.1558,132.149,135.467,140.448" svgx:width="0.67,0.55,0.5,0.38,0.44,0.38,0.38,0.27,0.5,0.5,0.55,0.5,0.5,0.33,0.33,0.44,0.38,0.5,0.55,0.5,0.33,0.55,0.33,0.5,0.44" style="fill:rgb(23,22,21);font-family:AdvTimes-b;font-size:9.96px;stroke:none;">Expression pattern of the</text>
   <text y="156.211" x="146.833,153.986,161.658,168.811,174.828,178.146,186.335,194.006" svgx:width="0.72,0.77,0.72,0.6,0.33,0.82,0.77,0.5" style="fill:rgb(23,22,21);font-family:AdvTimes-bi;font-size:9.96px;stroke:none;">GmZF-HD1</text>
   <text y="156.211" x="201.032,206.013,210.367,215.348" svgx:width="0.5,0.44,0.5,0.44" style="fill:rgb(23,22,21);font-family:AdvTimes-b;font-size:9.96px;stroke:none;">gene</text>
   <text y="172.368" x="42.462,49.097,54.596,58.97839999999999,62.021,66.374,71.874,77.373,82.35300000000001,85.491,90.991,96.49,104.679,110.179,114.532,118.3168,121.491,126.991,130.2778,133.397,136.714,142.214" svgx:width="0.67,0.55,0.44,0.55,0.44,0.55,0.55,0.5,0.55,0.55,0.55,0.82,0.55,0.44,0.38,0.55,0.55,0.33,0.55,0.33,0.55,0.44" style="fill:rgb(23,22,21);font-family:AdvTimes;font-size:9.96px;stroke:none;">The copy number of the</text>
   <text y="172.368" x="149.668,156.821,164.492,171.645,177.662,180.98,189.169,196.84" svgx:width="0.72,0.77,0.72,0.6,0.33,0.82,0.77,0.5" style="fill:rgb(23,22,21);font-family:AdvTimes-i;font-size:9.96px;stroke:none;">GmZF-HD1</text>
   <text y="172.368" x="205.0,209.981,214.335,219.834,224.2164,227.28,229.97,235.448,238.562,241.879,247.379,251.76139999999998,254.833,258.668,264.168,269.149,274.648,279.002,283.983" svgx:width="0.5,0.44,0.55,0.44,0.55,0.27,0.55,0.55,0.33,0.55,0.44,0.55,0.38,0.55,0.5,0.55,0.44,0.5,0.55" style="fill:rgb(23,22,21);font-family:AdvTimes;font-size:9.96px;stroke:none;">gene in the soybean</text>
   <text y="183.367" x="42.462,47.443,51.797,57.296,62.796,70.985,75.3674,79.029,86.182,91.163,94.9478,98.701,103.055,106.89,110.208,112.898,121.087,126.068,129.386,133.739,139.217,142.978,148.477,153.457,157.207,162.707,168.206,173.705,177.023,182.522,186.876,190.711,196.18900000000002,199.896,205.395,208.085,213.585,216.8718,220.645,225.626,231.126,236.107,238.797,243.778,247.614,250.304,254.139,256.82820000000004,260.556,266.056,268.746,276.935,282.434,285.124" svgx:width="0.5,0.44,0.55,0.55,0.82,0.44,0.55,0.72,0.5,0.38,0.55,0.44,0.38,0.33,0.27,0.82,0.5,0.33,0.44,0.55,0.55,0.55,0.5,0.55,0.55,0.55,0.55,0.33,0.55,0.44,0.38,0.55,0.55,0.55,0.27,0.55,0.33,0.55,0.5,0.55,0.5,0.27,0.5,0.38,0.27,0.38,0.27,0.55,0.55,0.27,0.82,0.55,0.27,0.44" style="fill:rgb(23,22,21);font-family:AdvTimes;font-size:9.96px;stroke:none;">genome was estimated by Southern blot analysis. Simple</text>
   <text y="194.308" x="42.462,47.961,52.943,56.26,59.578,63.931,67.767,73.266,77.05080000000001,84.131,89.63,92.9168,100.004,105.503,110.485,115.984,119.82,122.509,128.009,130.699,135.052,140.034,143.351,146.041,151.54,157.018,164.122,171.275,175.629,179.465,183.8474,190.881,196.38,201.88,205.715,210.069,213.904,218.886,223.239,228.717,235.781,241.281,246.78,252.279,256.633,260.4178,267.529,273.028,275.718,280.7,286.199" svgx:width="0.55,0.5,0.33,0.33,0.44,0.38,0.55,0.38,0.55,0.55,0.33,0.55,0.55,0.5,0.55,0.38,0.27,0.55,0.27,0.44,0.5,0.33,0.27,0.55,0.55,0.55,0.72,0.44,0.38,0.44,0.55,0.55,0.55,0.38,0.44,0.38,0.5,0.44,0.55,0.55,0.55,0.55,0.55,0.44,0.38,0.55,0.55,0.27,0.5,0.55,0.33" style="fill:rgb(23,22,21);font-family:AdvTimes;font-size:9.96px;stroke:none;">patterns of hybridization were observed under high-</text>
   <text y="205.307" x="42.462,46.298,49.615,53.451,56.141,61.64,66.621,70.975,76.474,80.828,85.808,93.145,97.498,102.998,108.497,113.996,116.686,120.004,122.694,128.193,133.692,137.528,140.2172,147.626,151.462,156.961,161.942,166.924,171.277,175.113,178.431,181.12,186.62,191.6,198.933,202.25,207.749,212.731" svgx:width="0.38,0.33,0.38,0.27,0.55,0.5,0.44,0.55,0.44,0.5,0.55,0.44,0.55,0.55,0.55,0.27,0.33,0.27,0.55,0.55,0.38,0.27,0.55,0.38,0.55,0.5,0.5,0.44,0.38,0.33,0.27,0.55,0.5,0.55,0.33,0.55,0.5,0.33" style="fill:rgb(23,22,21);font-family:AdvTimes;font-size:9.96px;stroke:none;">stringency conditions, suggesting that</text>
   <text y="205.307" x="223.425,230.578,238.249,245.402,251.42,254.737,262.926,270.598" svgx:width="0.72,0.77,0.72,0.6,0.33,0.82,0.77,0.5" style="fill:rgb(23,22,21);font-family:AdvTimes-i;font-size:9.96px;stroke:none;">GmZF-HD1</text>
   <text y="205.307" x="282.952,285.642" svgx:width="0.27,0.38" style="fill:rgb(23,22,21);font-family:AdvTimes;font-size:9.96px;stroke:none;">is</text>
   <text y="216.306" x="42.462,47.961,51.797,56.151,59.986,64.34,69.839,73.1258,78.574,81.264,86.74199999999999,92.237,96.073,98.763,104.262,109.243,111.933,116.287,119.5738,125.062,130.561,134.3458,139.802,142.491,147.991,155.144,158.462,162.815,168.315,173.814,178.79399999999998,184.248,189.747,195.246,203.436,208.935,213.289,217.07379999999998,222.629,225.319,230.797,236.235,239.552,245.051,249.43339999999998,254.83,258.665,264.165,269.146,274.645,278.999,283.98" svgx:width="0.55,0.38,0.44,0.38,0.44,0.55,0.33,0.55,0.27,0.55,0.55,0.38,0.27,0.55,0.5,0.27,0.44,0.33,0.55,0.55,0.38,0.55,0.27,0.55,0.72,0.33,0.44,0.55,0.55,0.5,0.55,0.55,0.55,0.82,0.55,0.44,0.38,0.55,0.27,0.55,0.55,0.33,0.55,0.44,0.55,0.38,0.55,0.5,0.55,0.44,0.5,0.55" style="fill:rgb(23,22,21);font-family:AdvTimes;font-size:9.96px;stroke:none;">present in single- or low-copy number in the soybean</text>
   <text y="227.305" x="42.462,47.443,51.797,57.296,62.796,70.985,75.3674,79.652,82.97,88.469,93.451,96.768,101.748,106.071,111.571,117.07,120.35679999999999,124.666,128.502,134.001,139.501,146.654,152.153,155.471,158.1602,162.48,169.116,174.615,178.9974,183.286,186.604,189.294,193.129,196.965,202.464,206.818,210.136,213.971,219.471,223.824,228.178,230.868,236.367,240.74939999999998,245.08,249.434,254.415,259.915,263.75,268.104,271.94,275.775,278.465,283.964" svgx:width="0.5,0.44,0.55,0.55,0.82,0.44,0.55,0.33,0.55,0.5,0.33,0.5,0.55,0.55,0.55,0.33,0.55,0.38,0.55,0.55,0.72,0.55,0.33,0.27,0.55,0.67,0.55,0.44,0.55,0.33,0.27,0.38,0.38,0.55,0.44,0.33,0.38,0.55,0.44,0.44,0.27,0.55,0.44,0.55,0.44,0.5,0.55,0.38,0.44,0.38,0.38,0.27,0.55,0.55" style="fill:rgb(23,22,21);font-family:AdvTimes;font-size:9.96px;stroke:none;">genome (data not shown). The tissue-speciﬁc expression</text>
   <text y="238.303" x="42.462,47.961,52.943,56.26,59.578,63.931,67.767,73.24499999999999,80.445,85.945" svgx:width="0.55,0.5,0.33,0.33,0.44,0.38,0.55,0.55,0.55,0.33" style="fill:rgb(23,22,21);font-family:AdvTimes;font-size:9.96px;stroke:none;">pattern of</text>
   <text y="238.303" x="96.49,103.643,111.315,118.468,123.449,133.302" svgx:width="0.72,0.77,0.72,0.5,0.99,0.5" style="fill:rgb(23,22,21);font-family:AdvTimes-i;font-size:9.96px;stroke:none;">GmCaM4</text>
   <text y="238.303" x="145.529,152.682,157.036,160.871,165.2534,172.458,177.957,181.793,186.147,191.128,193.818,199.317,204.817,208.652,211.342,216.322,223.537,226.227,231.726,236.708,241.061,244.897,248.215,250.904,255.886,260.867,264.185,268.538,274.016,281.306,283.996" svgx:width="0.72,0.44,0.38,0.44,0.55,0.55,0.38,0.44,0.5,0.27,0.55,0.55,0.38,0.27,0.5,0.55,0.27,0.55,0.5,0.44,0.38,0.33,0.27,0.5,0.5,0.33,0.44,0.55,0.55,0.27,0.55" style="fill:rgb(23,22,21);font-family:AdvTimes;font-size:9.96px;stroke:none;">were previously investigated in</text>
   <text y="249.302" x="42.462,46.298,51.797,56.778,62.278,66.631,71.613,77.091,81.069,86.568,89.258,94.24,99.739,103.057,106.8418,110.946,116.445,121.425,125.403,130.902,136.401,140.237,143.554,149.054,153.408,157.243,162.721,166.731,171.713,177.212,182.193,184.883,189.865,193.7,196.39,200.17479999999998,204.262,207.579,212.56,217.542,220.8288,224.841,229.823,235.322,240.8,244.854,250.354,255.334,259.311,263.665,268.646,274.145,277.981,282.335,286.17" svgx:width="0.38,0.55,0.5,0.55,0.44,0.5,0.55,0.55,0.55,0.27,0.5,0.55,0.33,0.38,0.55,0.55,0.5,0.55,0.55,0.55,0.38,0.33,0.55,0.44,0.38,0.55,0.55,0.5,0.55,0.5,0.27,0.5,0.38,0.27,0.38,0.55,0.33,0.5,0.5,0.33,0.55,0.5,0.55,0.55,0.55,0.55,0.5,0.55,0.44,0.5,0.55,0.38,0.44,0.38,0.33" style="fill:rgb(23,22,21);font-family:AdvTimes;font-size:9.96px;stroke:none;">soybean plants by northern analysis (11) and by expres-</text>
   <text y="260.301" x="42.462,46.298,48.988,54.487,59.965,65.48,70.979,74.2658,79.766,84.74600000000001,90.255,95.754,99.59,105.089,113.278,118.777,122.095,126.449,130.284" svgx:width="0.38,0.27,0.55,0.55,0.55,0.55,0.33,0.55,0.5,0.55,0.55,0.38,0.55,0.82,0.55,0.33,0.44,0.38,0.33" style="fill:rgb(23,22,21);font-family:AdvTimes;font-size:9.96px;stroke:none;">sion of a promoter-</text>
   <text y="260.301" x="133.624" svgx:width="0.55" style="fill:rgb(23,22,21);font-family:AdvPi1;font-size:9.96px;stroke:none;">b</text>
   <text y="260.301" x="139.123,142.441,147.422,150.112,155.611,159.965,165.464,169.3,174.799,180.299,182.988,188.488,193.469,197.305,201.6874,207.211,210.528,218.717,226.907,232.406,235.6928,241.283,245.118,249.472,254.971,260.471,264.306,267.624,271.977,275.7618,281.307,283.997" svgx:width="0.33,0.5,0.27,0.55,0.44,0.55,0.38,0.55,0.55,0.27,0.55,0.5,0.38,0.44,0.55,0.33,0.82,0.82,0.55,0.33,0.55,0.38,0.44,0.55,0.55,0.38,0.33,0.44,0.38,0.55,0.27,0.55" style="fill:rgb(23,22,21);font-family:AdvTimes;font-size:9.96px;stroke:none;">-glucuronidase (GUS) reporter in</text>
   <text y="271.243" x="42.462,45.78,49.615,54.596,60.096,63.931,68.913,73.266,78.766,81.456" svgx:width="0.33,0.38,0.5,0.55,0.38,0.5,0.44,0.55,0.27,0.44" style="fill:rgb(23,22,21);font-family:AdvTimes;font-size:9.96px;stroke:none;">transgenic</text>
   <text y="271.243" x="89.8,96.953,100.789,105.77,110.752,113.442,118.423,123.404,128.385,132.221,134.911" svgx:width="0.72,0.38,0.5,0.5,0.27,0.5,0.5,0.5,0.38,0.27,0.38" style="fill:rgb(23,22,21);font-family:AdvTimes-i;font-size:9.96px;stroke:none;">Arabidopsis</text>
   <text y="271.243" x="142.808,148.308,150.998,155.979,161.478,164.796,168.58079999999998,172.628,175.946,180.927,185.908,189.226,191.9152,195.929,202.564,208.063,212.417,216.253,220.63539999999998,224.615,228.451,231.768,237.268,242.767,245.457,249.811,253.5958,257.667,261.503,267.002,272.501,279.655,284.008" svgx:width="0.55,0.27,0.5,0.55,0.33,0.38,0.55,0.33,0.5,0.5,0.33,0.27,0.55,0.67,0.55,0.44,0.38,0.44,0.55,0.38,0.33,0.55,0.55,0.27,0.44,0.38,0.55,0.38,0.55,0.55,0.72,0.44,0.55" style="fill:rgb(23,22,21);font-family:AdvTimes;font-size:9.96px;stroke:none;">plants (13). These studies showed</text>
   <text y="282.241" x="42.462,45.78,51.279,56.26" svgx:width="0.33,0.55,0.5,0.33" style="fill:rgb(23,22,21);font-family:AdvTimes;font-size:9.96px;stroke:none;">that</text>
   <text y="282.241" x="63.665,70.819,78.49,85.643,90.624,100.477" svgx:width="0.72,0.77,0.72,0.5,0.99,0.5" style="fill:rgb(23,22,21);font-family:AdvTimes-i;font-size:9.96px;stroke:none;">GmCaM4</text>
   <text y="282.241" x="109.643,112.333,116.1178,120.301,125.8,129.636,132.326,140.515,145.496,149.332,152.022,154.712,159.69199999999998,163.84,168.194,173.175,178.675,182.51,186.864,190.699,194.535,198.889,204.36700000000002,208.57,211.26,216.738,220.872,224.19,229.689,234.07139999999998,238.163,243.145,248.644,251.334,255.687,260.669,263.3582,267.53,273.029,278.529,284.028" svgx:width="0.27,0.38,0.55,0.55,0.38,0.27,0.82,0.5,0.38,0.27,0.27,0.5,0.55,0.44,0.5,0.55,0.38,0.44,0.38,0.38,0.44,0.55,0.55,0.27,0.55,0.55,0.33,0.55,0.44,0.55,0.5,0.55,0.27,0.44,0.5,0.27,0.55,0.55,0.55,0.55,0.55" style="fill:rgb(23,22,21);font-family:AdvTimes;font-size:9.96px;stroke:none;">is primarily expressed in the apical hook</text>
   <text y="293.24" x="42.462,47.443,52.943,58.421,61.057,65.411,68.101,73.6,79.099,84.081,89.062,92.38,95.07,100.569,105.549,108.168,113.668,118.649,124.148,129.648,134.001,139.501,142.818,147.8,150.489,154.2738,156.98,159.67,165.148,167.808,173.308,178.807,182.125,187.603,190.258,194.094,199.593,204.574,210.074,214.427,219.409,224.887,227.505,232.487,237.986,243.464,246.157,249.475,253.31,258.292,263.791,267.627,272.608,276.962,282.461,285.151" svgx:width="0.5,0.55,0.55,0.55,0.44,0.27,0.55,0.55,0.5,0.5,0.33,0.27,0.55,0.5,0.55,0.55,0.5,0.55,0.55,0.44,0.55,0.33,0.5,0.27,0.38,0.55,0.27,0.55,0.55,0.55,0.55,0.33,0.55,0.55,0.38,0.55,0.5,0.55,0.44,0.5,0.55,0.55,0.5,0.55,0.55,0.55,0.33,0.38,0.5,0.55,0.38,0.5,0.44,0.55,0.27,0.44" style="fill:rgb(23,22,21);font-family:AdvTimes;font-size:9.96px;stroke:none;">and elongating hypocotyls in both soybean and transgenic</text>
   <text y="304.239" x="42.462,49.615,53.451,58.432,63.413,66.103,71.085,76.066,81.047,84.883,87.573" svgx:width="0.72,0.38,0.5,0.5,0.27,0.5,0.5,0.5,0.38,0.27,0.38" style="fill:rgb(23,22,21);font-family:AdvTimes-i;font-size:9.96px;stroke:none;">Arabidopsis</text>
   <text y="304.239" x="91.444,94.1332,100.685,107.321,112.79899999999999,119.451,124.95,129.304,132.622,136.975,140.811,149.0,151.69,157.189,161.57139999999998,168.149,171.467,176.966,181.3484,187.935,193.434,197.27,202.769,208.269,210.958,215.3404,221.893,227.393" svgx:width="0.27,0.55,0.67,0.55,0.55,0.55,0.44,0.33,0.44,0.38,0.82,0.27,0.55,0.44,0.55,0.33,0.55,0.44,0.55,0.55,0.38,0.55,0.55,0.27,0.44,0.55,0.55,0.33" style="fill:rgb(23,22,21);font-family:AdvTimes;font-size:9.96px;stroke:none;">. To determine the proﬁle of</text>
   <text y="304.239" x="237.315,244.468,252.139,259.292,265.309,268.627,276.816,284.487" svgx:width="0.72,0.77,0.72,0.6,0.33,0.82,0.77,0.5" style="fill:rgb(23,22,21);font-family:AdvTimes-i;font-size:9.96px;stroke:none;">GmZF-HD1</text>
   <text y="315.238" x="42.462,46.816,51.797,57.296,61.132,65.486,69.321,73.157,75.847,81.346,86.845,89.5342,94.165,101.318,105.7004,110.265,115.765,120.118,123.954,127.272,132.771,136.607,144.796,149.149,154.627,159.304,164.804,170.303,174.139,177.456,182.956,187.309,191.145,196.62300000000002,201.257,206.238,211.738,216.719,219.409,224.39,228.226,230.916,234.7008,239.354,246.507,249.197,252.514,257.992,262.654,265.972,268.662,272.497,276.333,281.832,286.186" svgx:width="0.44,0.5,0.55,0.38,0.44,0.38,0.38,0.27,0.55,0.55,0.27,0.55,0.72,0.44,0.55,0.55,0.44,0.38,0.33,0.55,0.38,0.82,0.44,0.55,0.55,0.55,0.55,0.38,0.33,0.55,0.44,0.38,0.55,0.55,0.5,0.55,0.5,0.27,0.5,0.38,0.27,0.38,0.55,0.72,0.27,0.33,0.55,0.55,0.33,0.27,0.38,0.38,0.55,0.44,0.33" style="fill:rgb(23,22,21);font-family:AdvTimes;font-size:9.96px;stroke:none;">expression, we performed northern analysis with tissue-</text>
   <text y="326.236" x="42.462,46.298,51.797,56.151,60.504,63.194,68.694,73.0764,78.745,86.416,94.605,102.276,106.112,108.8012,114.518,121.153,126.652" svgx:width="0.38,0.55,0.44,0.44,0.27,0.55,0.44,0.55,0.77,0.82,0.77,0.38,0.27,0.55,0.67,0.55,0.44" style="fill:rgb(23,22,21);font-family:AdvTimes;font-size:9.96px;stroke:none;">speciﬁc RNAs. The</text>
   <text y="326.236" x="136.685,143.838,151.51,158.663,164.68,167.998,176.187,183.858" svgx:width="0.72,0.77,0.72,0.6,0.33,0.82,0.77,0.5" style="fill:rgb(23,22,21);font-family:AdvTimes-i;font-size:9.96px;stroke:none;">GmZF-HD1</text>
   <text y="326.236" x="194.569,197.887,201.722,206.703,212.203,216.038,220.392,224.228,226.918,232.417,235.7038,241.51,248.663,253.644,257.4288,263.166,268.666,271.356,276.337,281.836,284.526" svgx:width="0.33,0.38,0.5,0.55,0.38,0.44,0.38,0.27,0.55,0.33,0.55,0.72,0.5,0.38,0.55,0.55,0.27,0.5,0.55,0.27,0.5" style="fill:rgb(23,22,21);font-family:AdvTimes;font-size:9.96px;stroke:none;">transcript was highly</text>
   <text y="337.178" x="42.463,47.444,52.944,58.443,63.942,69.442,74.423,79.922,83.2088,89.914,92.604,98.082,104.881,109.862,115.361,118.051,122.405,127.386,130.0752,136.798,142.297,147.797,153.296,158.795,162.57979999999998,169.339,174.32,179.819,185.297,192.016,195.851,201.351,206.85,210.167,214.003,216.69219999999999,223.479,228.979,234.478,237.7648,244.513,252.702,258.201,262.555,268.033,274.786,277.476,281.829,285.665" svgx:width="0.5,0.55,0.55,0.55,0.55,0.5,0.55,0.33,0.55,0.27,0.55,0.55,0.5,0.55,0.27,0.44,0.5,0.27,0.55,0.55,0.55,0.55,0.55,0.38,0.55,0.5,0.55,0.55,0.55,0.38,0.55,0.55,0.33,0.38,0.27,0.55,0.55,0.55,0.33,0.55,0.82,0.55,0.44,0.55,0.55,0.27,0.44,0.38,0.38" style="fill:rgb(23,22,21);font-family:AdvTimes;font-size:9.96px;stroke:none;">abundant in apical hooks and roots, but much less</text>
   <text y="348.177" x="42.463,47.444,52.944,58.443,63.942,69.442,74.423,79.922,83.2088,92.069,94.759,100.237,109.077,113.431,116.12,121.62,127.119,132.1,137.082,140.399,143.089,148.589,153.569,162.425,167.924,172.905,178.405,183.904,188.258,193.757,197.075,202.056,204.746,208.581,211.2702,220.137,223.973,227.2598,236.124,243.277,248.258,252.0428,260.955,265.936,268.626,276.815,282.315,286.15" svgx:width="0.5,0.55,0.55,0.55,0.55,0.5,0.55,0.33,0.55,0.27,0.55,0.55,0.44,0.27,0.55,0.55,0.5,0.5,0.33,0.27,0.55,0.5,0.55,0.55,0.5,0.55,0.55,0.44,0.55,0.33,0.5,0.27,0.38,0.27,0.55,0.38,0.33,0.55,0.72,0.5,0.38,0.55,0.5,0.27,0.82,0.55,0.38,0.33" style="fill:rgb(23,22,21);font-family:AdvTimes;font-size:9.96px;stroke:none;">abundant in elongating hypocotyls. It was almost</text>
   <text y="359.176" x="42.463,47.962,53.462,58.961,63.315,66.632,70.986,75.34,78.657,83.638,89.138,91.828,96.2104,100.742,103.432,108.91,113.442,121.631,126.612,129.93,135.429,139.265,143.64739999999998,148.194,153.693,158.675,164.174,169.673,174.027,179.526,182.844,187.825,190.515,194.351,197.0402,201.598,207.097,209.787,215.286,223.475,228.975,231.665,236.018,239.854,242.5432,247.122,252.103,257.602,263.08,267.588,271.423,275.777,280.131,285.63" svgx:width="0.55,0.55,0.55,0.44,0.33,0.44,0.44,0.33,0.5,0.55,0.27,0.44,0.55,0.27,0.55,0.55,0.82,0.5,0.33,0.55,0.38,0.44,0.55,0.55,0.5,0.55,0.55,0.44,0.55,0.33,0.5,0.27,0.38,0.27,0.55,0.55,0.27,0.55,0.82,0.55,0.27,0.44,0.38,0.27,0.55,0.5,0.55,0.55,0.55,0.38,0.44,0.44,0.55,0.38" style="fill:rgb(23,22,21);font-family:AdvTimes;font-size:9.96px;stroke:none;">undetectable in mature hypocotyls, plumules, and seeds</text>
   <text y="370.174" x="42.463,45.781,52.416,55.106,60.087,65.586,69.422,73.8044,81.637,86.618,94.289,97.607,100.2962,108.113,114.748,120.247,124.601,128.436,132.8184,140.653,144.489,148.843,152.678,158.178,160.867,164.185,167.9698,175.859,180.84,184.676,189.05839999999998,196.892,201.874,206.227,210.063,215.04299999999998,222.914,226.749,229.439,237.628,240.318,243.008,247.989,251.7738,259.65,262.967,268.445,276.317,279.635,285.134" svgx:width="0.33,0.67,0.27,0.5,0.55,0.38,0.44,0.55,0.5,0.77,0.33,0.27,0.55,0.67,0.55,0.44,0.38,0.44,0.55,0.38,0.44,0.38,0.55,0.27,0.33,0.38,0.55,0.5,0.38,0.44,0.55,0.5,0.44,0.38,0.5,0.55,0.38,0.27,0.82,0.27,0.27,0.5,0.38,0.55,0.33,0.55,0.55,0.33,0.55,0.44" style="fill:rgb(23,22,21);font-family:AdvTimes;font-size:9.96px;stroke:none;">(Figure 5A). These results are very similar to the</text>
   <text y="381.173" x="42.463,46.817,51.798,57.297,61.133,65.487,69.322,73.158,75.848,81.347,86.82499999999999,92.522,98.021,103.003,106.32,109.638,113.991,117.827,123.326,127.1108,132.83,138.329" svgx:width="0.44,0.5,0.55,0.38,0.44,0.38,0.38,0.27,0.55,0.55,0.55,0.55,0.5,0.33,0.33,0.44,0.38,0.55,0.38,0.55,0.55,0.33" style="fill:rgb(23,22,21);font-family:AdvTimes;font-size:9.96px;stroke:none;">expression patterns of</text>
   <text y="381.173" x="147.344,154.497,162.169,169.322,174.303,184.156" svgx:width="0.72,0.77,0.72,0.5,0.99,0.5" style="fill:rgb(23,22,21);font-family:AdvTimes-i;font-size:9.96px;stroke:none;">GmCaM4</text>
   <text y="381.173" x="194.853,197.543,203.02100000000002,208.686,212.522,218.021,223.002,228.502,232.855,237.837,243.315,249.05,252.886,257.24,261.593,267.093,269.783,272.473,277.972,282.953,286.789" svgx:width="0.27,0.55,0.55,0.38,0.55,0.5,0.55,0.44,0.5,0.55,0.55,0.38,0.44,0.44,0.55,0.27,0.27,0.55,0.5,0.38,0.27" style="fill:rgb(23,22,21);font-family:AdvTimes;font-size:9.96px;stroke:none;">in soybean seedlings,</text>
   <text y="392.172" x="42.463,46.299,51.798,56.779,61.761,66.114,69.95,73.267,75.957,81.457,86.437,89.801,93.119,98.618,103.599,106.8858,110.267,113.585,119.084,123.46640000000001,126.764,134.954,143.143,149.778,156.413,159.731,167.92,176.109,181.089,184.534,190.033,193.869,199.368,202.685,207.039,209.729,215.20700000000002,218.549,226.738,231.719,236.69899999999998,240.092,245.591,249.9734,253.301,255.991,261.491,266.472,271.971,274.661,279.643,283.996" svgx:width="0.38,0.55,0.5,0.5,0.44,0.38,0.33,0.27,0.55,0.5,0.55,0.33,0.55,0.5,0.33,0.55,0.33,0.55,0.44,0.55,0.82,0.82,0.67,0.67,0.33,0.82,0.82,0.5,0.55,0.55,0.38,0.55,0.33,0.44,0.27,0.55,0.55,0.82,0.5,0.5,0.55,0.55,0.44,0.55,0.27,0.55,0.5,0.55,0.27,0.5,0.44,0.55" style="fill:rgb(23,22,21);font-family:AdvTimes;font-size:9.96px;stroke:none;">suggesting that the GmZF-HD1 protein may be involved</text>
   <text y="403.171" x="42.463,45.153,50.631,56.239,60.075,64.429,69.41,74.909,77.599,82.58,85.898,88.588,94.087,99.06700000000001,104.711,108.029,113.528,117.91040000000001,123.533,127.886,132.868,138.367,142.203,146.556,150.392,154.227,156.917,162.417,167.895,173.535,179.034" svgx:width="0.27,0.55,0.55,0.38,0.44,0.5,0.55,0.27,0.5,0.33,0.27,0.55,0.5,0.55,0.33,0.55,0.44,0.55,0.44,0.5,0.55,0.38,0.44,0.38,0.38,0.27,0.55,0.55,0.55,0.55,0.33" style="fill:rgb(23,22,21);font-family:AdvTimes;font-size:9.96px;stroke:none;">in regulating the expression of</text>
   <text y="403.171" x="187.993,195.146,202.817,209.97,214.951,224.804" svgx:width="0.72,0.77,0.72,0.5,0.99,0.5" style="fill:rgb(23,22,21);font-family:AdvTimes-i;font-size:9.96px;stroke:none;">GmCaM4</text>
   <text y="403.171" x="229.832,232.5212,238.109,241.944,245.2308,250.921,258.075,263.056,266.8408,272.465,277.964,281.8,286.153" svgx:width="0.27,0.55,0.38,0.33,0.55,0.72,0.5,0.38,0.55,0.55,0.38,0.44,0.33" style="fill:rgb(23,22,21);font-family:AdvTimes;font-size:9.96px;stroke:none;">. It was pre-</text>
   <text y="414.112" x="42.462,47.443,50.133,55.633,61.132,64.968,67.657,72.637,76.307,80.143,84.496,89.996,95.495,99.33,102.648,107.002,112.47999999999999,116.218,119.536,125.035,130.016,133.3028,137.081,141.434,146.416,151.915,155.751,160.104,163.94,167.776,170.465,175.965,181.443,185.155,190.655,193.9418,197.684,201.002,206.501" svgx:width="0.5,0.27,0.55,0.55,0.38,0.27,0.5,0.55,0.38,0.44,0.55,0.55,0.38,0.33,0.44,0.55,0.55,0.33,0.55,0.5,0.33,0.55,0.44,0.5,0.55,0.38,0.44,0.38,0.38,0.27,0.55,0.55,0.55,0.55,0.33,0.55,0.33,0.55,0.44" style="fill:rgb(23,22,21);font-family:AdvTimes;font-size:9.96px;stroke:none;">viously reported that expression of the</text>
   <text y="414.112" x="214.581,221.734,229.405,236.558,241.54,251.393" svgx:width="0.72,0.77,0.72,0.5,0.99,0.5" style="fill:rgb(23,22,21);font-family:AdvTimes-i;font-size:9.96px;stroke:none;">GmCaM4</text>
   <text y="414.112" x="260.105,265.086,269.44,274.939,279.32140000000004,282.952,285.642" svgx:width="0.5,0.44,0.55,0.44,0.55,0.27,0.38" style="fill:rgb(23,22,21);font-family:AdvTimes;font-size:9.96px;stroke:none;">gene is</text>
   <text y="425.111" x="42.462,47.961,51.797,56.778,64.968,69.949,73.266,75.956,80.31,85.291,87.981,90.671,95.65100000000001,105.617,108.307,113.806,119.306,124.805,129.159,133.512,138.99,148.986,154.485,159.465,169.452,174.952,179.933,183.25,188.75,194.249,199.23,203.584,209.062,219.058,222.376,226.211,230.565,235.546,238.864,247.053,251.407,256.906,260.19280000000003,270.194,273.512,278.493,283.474,286.792" svgx:width="0.55,0.38,0.5,0.82,0.5,0.33,0.27,0.44,0.5,0.27,0.27,0.5,0.55,0.27,0.55,0.55,0.55,0.44,0.44,0.55,0.55,0.55,0.5,0.55,0.55,0.5,0.33,0.55,0.55,0.5,0.44,0.55,0.55,0.33,0.38,0.44,0.5,0.33,0.82,0.44,0.55,0.33,0.55,0.33,0.5,0.5,0.33,0.27" style="fill:rgb(23,22,21);font-family:AdvTimes;font-size:9.96px;stroke:none;">dramatically induced by pathogen treatment (14).</text>
   <text y="436.11" x="42.462,49.097,54.596,58.95,62.786,67.139,70.457,75.956,79.792,84.146,86.8352,90.537,97.69,102.0724,105.674,108.364,113.863,118.844,123.198,127.033,130.351,133.041,138.022,143.004,146.321,150.675,156.15300000000002,159.928,163.246,168.745,173.1274,176.766,181.119,186.101,191.6,195.436,199.789,203.625,207.461,210.15,215.65,221.12800000000001,224.84,230.34" svgx:width="0.67,0.55,0.44,0.38,0.44,0.33,0.55,0.38,0.44,0.27,0.55,0.72,0.44,0.55,0.27,0.55,0.5,0.44,0.38,0.33,0.27,0.5,0.5,0.33,0.44,0.55,0.55,0.33,0.55,0.44,0.55,0.44,0.5,0.55,0.38,0.44,0.38,0.38,0.27,0.55,0.55,0.55,0.55,0.33" style="fill:rgb(23,22,21);font-family:AdvTimes;font-size:9.96px;stroke:none;">Therefore, we investigated the expression of</text>
   <text y="436.11" x="237.314,244.468,252.139,259.292,265.309,268.627,276.816,284.487" svgx:width="0.72,0.77,0.72,0.6,0.33,0.82,0.77,0.5" style="fill:rgb(23,22,21);font-family:AdvTimes-i;font-size:9.96px;stroke:none;">GmZF-HD1</text>
   <text y="447.109" x="42.462,45.152,50.63,53.461,57.296,61.65,65.486,70.985,76.484,81.984,85.819,90.2014,93.032,96.35,101.82799999999999,104.654,110.154,115.135,118.453,123.952,129.451,134.433,138.786,144.264,147.117,150.435,154.27,158.624,163.605,166.923,175.112,179.466,184.965,188.283,190.9722,193.832,201.503,204.193,207.51,213.01,218.509,224.008,228.99" svgx:width="0.27,0.55,0.55,0.38,0.44,0.38,0.55,0.55,0.55,0.38,0.44,0.55,0.33,0.55,0.55,0.55,0.5,0.33,0.55,0.55,0.5,0.44,0.55,0.55,0.33,0.38,0.44,0.5,0.33,0.82,0.44,0.55,0.33,0.27,0.55,0.77,0.27,0.33,0.55,0.55,0.55,0.5,0.55" style="fill:rgb(23,22,21);font-family:AdvTimes;font-size:9.96px;stroke:none;">in response to pathogen treatment. Although</text>
   <text y="447.109" x="237.314,244.468,252.139,259.292,265.309,268.627,276.816,284.487" svgx:width="0.72,0.77,0.72,0.6,0.33,0.82,0.77,0.5" style="fill:rgb(23,22,21);font-family:AdvTimes-i;font-size:9.96px;stroke:none;">GmZF-HD1</text>
   <text y="458.107" x="42.462,49.615,54.596,58.380799999999994,63.098,68.597,71.287,76.268,81.767,84.457,89.437,94.108,98.462,103.443,108.942,112.778,117.132,120.967,124.803,129.157,134.63500000000002,139.291,141.981,147.459,152.161,155.997,161.496,166.477,171.977,176.33,181.312,186.79000000000002,191.449,195.284,200.784,204.619,210.119,214.472,219.972,223.807,226.497,231.996,237.47400000000002,242.188,246.542,250.896,253.585,256.275,260.0598,264.808,270.308,275.807,281.306,285.66" svgx:width="0.72,0.5,0.38,0.55,0.55,0.27,0.5,0.55,0.27,0.5,0.55,0.44,0.5,0.55,0.38,0.44,0.38,0.38,0.44,0.55,0.55,0.27,0.55,0.55,0.38,0.55,0.5,0.55,0.44,0.5,0.55,0.55,0.38,0.55,0.38,0.55,0.44,0.55,0.38,0.27,0.55,0.55,0.55,0.44,0.44,0.27,0.27,0.38,0.55,0.55,0.55,0.55,0.44,0.38" style="fill:rgb(23,22,21);font-family:AdvTimes;font-size:9.96px;stroke:none;">was highly expressed in soybean suspension cells under</text>
   <text y="469.106" x="42.462,47.961,53.461,57.296,65.486,70.467,73.1562,78.574,82.928,88.427,93.927,99.426,102.116,105.434,108.123,113.623,119.122,122.958,125.6472,131.128,133.818,137.1048,142.58,149.733,154.715,158.4998,163.953,169.452,174.952,178.2388,183.682,187.517,190.207,195.189,200.688,203.378,208.877,213.231,218.212,223.712,227.029,229.719,234.69899999999998,240.204,242.894,248.393,253.892,259.392,263.745,268.099,273.577,279.038,284.537" svgx:width="0.55,0.55,0.38,0.82,0.5,0.27,0.55,0.44,0.55,0.55,0.55,0.27,0.33,0.27,0.55,0.55,0.38,0.27,0.55,0.27,0.33,0.55,0.72,0.5,0.38,0.55,0.55,0.55,0.33,0.55,0.38,0.27,0.5,0.55,0.27,0.55,0.44,0.5,0.55,0.33,0.27,0.5,0.55,0.27,0.55,0.55,0.55,0.44,0.44,0.55,0.55,0.55,0.5" style="fill:rgb(23,22,21);font-family:AdvTimes;font-size:9.96px;stroke:none;">normal conditions, it was not signiﬁcantly induced by</text>
   <text y="480.105" x="42.462,47.961,52.943,56.26,61.76,67.259,72.24,76.594,82.07199999999999,85.378,88.695,92.531,96.885,101.866,105.184,113.373,117.726,123.226,126.5128,129.938,133.255,139.89,142.58,147.561,153.061,156.896,161.27839999999998,164.577,169.558,176.193,179.51,182.1992,185.553,192.188,197.687,200.377,204.1618,207.549,211.385,215.738,219.574,225.073,227.763,231.0498,234.421,238.257,243.756,248.738,253.719,258.073,261.908,265.226,269.0108,272.405,275.722,281.222,286.203" svgx:width="0.55,0.5,0.33,0.55,0.55,0.5,0.44,0.55,0.55,0.33,0.38,0.44,0.5,0.33,0.82,0.44,0.55,0.33,0.55,0.33,0.67,0.27,0.5,0.55,0.38,0.44,0.55,0.5,0.67,0.33,0.27,0.55,0.67,0.55,0.27,0.38,0.55,0.38,0.44,0.38,0.55,0.27,0.33,0.55,0.38,0.55,0.5,0.5,0.44,0.38,0.33,0.38,0.55,0.33,0.55,0.5,0.33" style="fill:rgb(23,22,21);font-family:AdvTimes;font-size:9.96px;stroke:none;">pathogen treatment (Figure 5B). This result suggests that</text>
   <text y="491.047" x="42.462,45.78,51.279,55.6614,59.243,64.224,68.578,71.895,74.585,79.567,82.257,85.574,90.554,94.165,99.664" svgx:width="0.33,0.55,0.44,0.55,0.5,0.44,0.33,0.27,0.5,0.27,0.33,0.5,0.55,0.55,0.33" style="fill:rgb(23,22,21);font-family:AdvTimes;font-size:9.96px;stroke:none;">the activity of</text>
   <text y="491.047" x="106.638,113.791,121.462,128.616,134.633,137.951,146.14,153.811" svgx:width="0.72,0.77,0.72,0.6,0.33,0.82,0.77,0.5" style="fill:rgb(23,22,21);font-family:AdvTimes-i;font-size:9.96px;stroke:none;">GmZF-HD1</text>
   <text y="491.047" x="162.424,165.114,170.592,174.272,177.59,183.089,187.4714,191.053,193.743,199.242,204.742,210.241,214.595,217.912,220.602,226.102,231.58,235.273,240.773" svgx:width="0.27,0.55,0.55,0.33,0.55,0.44,0.55,0.27,0.55,0.55,0.55,0.44,0.33,0.27,0.55,0.55,0.55,0.55,0.33" style="fill:rgb(23,22,21);font-family:AdvTimes;font-size:9.96px;stroke:none;">in the induction of</text>
   <text y="491.047" x="247.69,254.843,262.514,269.667,274.648,284.501" svgx:width="0.72,0.77,0.72,0.5,0.99,0.5" style="fill:rgb(23,22,21);font-family:AdvTimes-i;font-size:9.96px;stroke:none;">GmCaM4</text>
   <text y="502.045" x="42.462,47.443,51.797,57.296,61.678399999999996,64.005,68.359,73.34,78.839,82.675,87.029,90.864,94.7,97.39,102.889,108.36699999999999,110.72,113.41,118.88799999999999,121.264,125.1,129.453,133.289,138.788,144.288,149.787,153.623,158.00539999999998,160.381,163.699,169.17700000000002,171.549,177.049,182.03,185.348,190.847,196.346,201.328,205.681,211.15900000000002,213.502,221.691,226.672,231.652,234.025,239.524,243.9064,246.214,250.568,256.067,261.566,264.884,268.72,274.219,276.909,279.599,283.952" svgx:width="0.5,0.44,0.55,0.44,0.55,0.44,0.5,0.55,0.38,0.44,0.38,0.38,0.27,0.55,0.55,0.55,0.27,0.55,0.55,0.38,0.44,0.38,0.55,0.55,0.55,0.38,0.44,0.55,0.33,0.55,0.55,0.55,0.5,0.33,0.55,0.55,0.5,0.44,0.55,0.55,0.82,0.5,0.5,0.55,0.55,0.44,0.55,0.44,0.55,0.55,0.33,0.38,0.55,0.27,0.27,0.44,0.55" style="fill:rgb(23,22,21);font-family:AdvTimes;font-size:9.96px;stroke:none;">gene expression in response to pathogen may be controlled</text>
   <text y="513.044" x="42.462,47.443,50.7298,54.084,59.584,65.083,68.919,72.236,75.554,78.871,82.707,87.688,93.188,97.023,101.377,105.212,107.902,113.402,116.719,119.409,124.908,130.408,135.389,138.0782,141.446,144.136,149.636,153.471,156.789,161.142,166.124,171.602,174.952,180.451,183.7378,187.084,190.402,194.237,199.218,204.718,208.553,212.907,216.743,219.433,224.932,228.249,230.939,236.439,241.938,246.919,249.6082,253.017,255.706,260.06,265.041,269.395,272.085,275.921" svgx:width="0.5,0.33,0.55,0.55,0.55,0.38,0.33,0.33,0.33,0.38,0.5,0.55,0.38,0.44,0.38,0.27,0.55,0.33,0.27,0.55,0.55,0.5,0.27,0.55,0.27,0.55,0.38,0.33,0.44,0.5,0.55,0.55,0.55,0.33,0.55,0.33,0.38,0.5,0.55,0.38,0.44,0.38,0.27,0.55,0.33,0.27,0.55,0.55,0.5,0.27,0.55,0.27,0.44,0.5,0.44,0.27,0.38,0.27" style="fill:rgb(23,22,21);font-family:AdvTimes;font-size:9.96px;stroke:none;">at post-transcriptional instead of transcriptional levels.</text>
   <text y="534.474" x="42.462,49.097,54.078,58.46040000000001,60.434,67.587,70.904,74.222,78.575,82.411,90.082,92.772,97.753,102.735,105.4242,107.431,112.412,117.394,125.065,129.419,134.4,139.381,144.362,152.034,157.015,159.705,164.686,167.3752,169.395,174.377,179.358,182.6448,184.702,189.683,194.665,197.9518,199.952,203.269,208.251,212.6334,214.635,222.306,225.623,228.941,233.295,237.13,244.801,247.491,252.473,257.454,260.14320000000004,262.199,266.553,269.243,274.224" svgx:width="0.67,0.5,0.44,0.55,0.72,0.33,0.33,0.44,0.38,0.77,0.27,0.5,0.5,0.27,0.55,0.5,0.5,0.77,0.44,0.5,0.5,0.5,0.77,0.5,0.27,0.5,0.27,0.55,0.5,0.5,0.33,0.55,0.5,0.5,0.33,0.55,0.33,0.5,0.44,0.55,0.77,0.33,0.33,0.44,0.38,0.77,0.27,0.5,0.5,0.27,0.55,0.44,0.27,0.5,0.44" style="fill:rgb(23,22,21);font-family:AdvTimes-b;font-size:9.96px;stroke:none;">The C-terminal homeodomain, but not the N-terminal zinc</text>
   <text y="545.416" x="42.462,45.78,48.469,53.451,58.432,62.786,66.5708,68.597,73.578,78.559,86.231,91.212,93.902,98.883,102.719,105.4082,107.431,112.412,115.102,120.084,125.065,128.8498,130.902,134.22,139.2,141.22,144.538,149.519,153.9014,155.846,160.828,165.809,169.126,174.108" svgx:width="0.33,0.27,0.5,0.5,0.44,0.38,0.55,0.5,0.5,0.77,0.5,0.27,0.5,0.38,0.27,0.55,0.5,0.27,0.5,0.5,0.38,0.55,0.33,0.5,0.55,0.33,0.5,0.44,0.55,0.5,0.5,0.33,0.5,0.33" style="fill:rgb(23,22,21);font-family:AdvTimes-b;font-size:9.96px;stroke:none;">finger domains, binds to the 30-nt</text>
   <text y="545.416" x="179.432,186.585,194.256,201.409,206.391,216.244" svgx:width="0.72,0.77,0.72,0.5,0.99,0.5" style="fill:rgb(23,22,21);font-family:AdvTimes-bi;font-size:9.96px;stroke:none;">GmCaM4</text>
   <text y="545.416" x="223.255,228.237,232.072,237.053,244.725,249.706,253.023,257.377" svgx:width="0.5,0.38,0.5,0.77,0.5,0.33,0.44,0.38" style="fill:rgb(23,22,21);font-family:AdvTimes-b;font-size:9.96px;stroke:none;">promoter</text>
   <text y="556.414" x="42.462,46.298,50.651,55.633,60.614,64.967,69.949,74.302" svgx:width="0.38,0.44,0.5,0.5,0.44,0.5,0.44,0.44" style="fill:rgb(23,22,21);font-family:AdvTimes-b;font-size:9.96px;stroke:none;">sequence</text>
   <text y="572.515" x="42.462,49.097,54.575,57.202,61.555,66.537,71.518,74.208,79.707,84.688,88.006,92.3884,95.016,102.169,107.668,112.022,115.339,120.839,125.192,128.9768,131.695,139.884,148.073,154.709,161.344,164.661,172.85,181.04,186.01999999999998,188.727,193.708,199.207,204.685,207.379,210.696,215.676,218.264,223.763,226.453,231.953,237.431,240.147,243.464,248.942,251.599,254.916,260.416,264.7984,267.416,272.398,277.379,280.697,286.196" svgx:width="0.67,0.55,0.55,0.44,0.5,0.5,0.27,0.55,0.5,0.33,0.44,0.55,0.72,0.55,0.44,0.33,0.55,0.44,0.38,0.55,0.82,0.82,0.67,0.67,0.33,0.82,0.82,0.5,0.55,0.5,0.55,0.55,0.55,0.33,0.5,0.55,0.55,0.27,0.55,0.55,0.55,0.33,0.55,0.55,0.33,0.55,0.44,0.55,0.5,0.5,0.33,0.55,0.33" style="fill:rgb(23,22,21);font-family:AdvTimes;font-size:9.96px;stroke:none;">To evaluate whether GmZF-HD1 and -2 bind to the 30-nt</text>
   <text y="583.514" x="42.462,46.298,50.651,56.151,61.65,66.004,71.503,75.857,80.2394,82.713,87.067,92.566,98.065,101.383,106.364,109.054,114.553,117.243,122.743,127.723,130.334,133.652,139.151,143.5334,146.038,149.356,156.509,161.987,164.52,168.355,172.709,178.208,182.562,187.543,190.861,194.64579999999998,197.231,202.73,206.0168,208.569,213.54899999999998,216.109,220.463,225.962,231.461,235.297,239.651,243.486,248.468,252.821,258.299,260.839,268.51,275.145,281.781" svgx:width="0.38,0.44,0.55,0.55,0.44,0.55,0.44,0.44,0.55,0.44,0.55,0.55,0.33,0.5,0.27,0.55,0.27,0.55,0.5,0.55,0.33,0.55,0.44,0.55,0.33,0.72,0.55,0.55,0.38,0.44,0.55,0.44,0.5,0.33,0.38,0.55,0.55,0.33,0.55,0.5,0.55,0.44,0.55,0.55,0.38,0.44,0.38,0.5,0.44,0.55,0.55,0.77,0.67,0.67,0.77" style="fill:rgb(23,22,21);font-family:AdvTimes;font-size:9.96px;stroke:none;">sequence containing the two repeats of a conserved ATTA</text>
   <text y="594.512" x="42.462,47.961,53.461,61.65,66.004,71.503,77.002,82.502,90.691,95.672,98.362,103.83999999999999,106.978,112.477,115.167,120.666,126.166,128.856,134.355,139.33499999999998,142.411,146.246,148.936,152.254,156.63639999999998,159.702,162.392,167.87,170.983,174.301,179.8" svgx:width="0.55,0.55,0.82,0.44,0.55,0.55,0.55,0.82,0.5,0.27,0.55,0.55,0.55,0.27,0.55,0.55,0.27,0.55,0.5,0.55,0.38,0.27,0.33,0.44,0.55,0.27,0.55,0.55,0.33,0.55,0.44" style="fill:rgb(23,22,21);font-family:AdvTimes;font-size:9.96px;stroke:none;">homeodomain binding site in the</text>
   <text y="594.512" x="187.255,194.409,202.08,209.233,214.214,224.067" svgx:width="0.72,0.77,0.72,0.5,0.99,0.5" style="fill:rgb(23,22,21);font-family:AdvTimes-i;font-size:9.96px;stroke:none;">GmCaM4</text>
   <text y="594.512" x="232.156,237.655,241.491,246.99,255.179,260.679,263.996,268.35,272.186,274.8752,278.02,285.173" svgx:width="0.55,0.38,0.55,0.82,0.55,0.33,0.44,0.38,0.27,0.55,0.72,0.44" style="fill:rgb(23,22,21);font-family:AdvTimes;font-size:9.96px;stroke:none;">promoter, we</text>
   <text y="605.511" x="42.462,47.961,51.797,57.296,62.796,68.295,72.649,77.002,82.47999999999999,87.759,91.595,95.948,100.302,105.801,113.99,119.49,122.18,127.679,132.66,138.16,141.4468,146.775,150.093,155.592,158.282,160.972,164.29,166.98,171.333,176.833,181.814,185.131,190.609,195.928,204.117,212.306,218.941,225.577,228.894,237.083,245.273,250.253,255.625,260.606,266.105" svgx:width="0.55,0.38,0.55,0.55,0.55,0.44,0.44,0.55,0.55,0.38,0.44,0.44,0.55,0.82,0.55,0.27,0.55,0.5,0.55,0.33,0.55,0.33,0.55,0.27,0.27,0.33,0.27,0.44,0.55,0.5,0.33,0.55,0.55,0.82,0.82,0.67,0.67,0.33,0.82,0.82,0.5,0.55,0.5,0.55,0.55" style="fill:rgb(23,22,21);font-family:AdvTimes;font-size:9.96px;stroke:none;">produced recombinant full-length GmZF-HD1 and</text>
   <text y="605.511" code="1" x="276.829" svgx:width="0.77" style="fill:rgb(23,22,21);font-family:AdvMT_SY;font-size:9.96px;stroke:none;">?</text>
   <text y="605.511" x="284.539" svgx:width="0.5" style="fill:rgb(23,22,21);font-family:AdvTimes;font-size:9.96px;stroke:none;">2</text>
   <text y="616.51" x="42.462,47.961,51.797,57.296,60.614,64.968,67.657,73.157,76.9418,82.487,85.804,91.304,95.139,99.493,104.97099999999999,110.493,113.81,119.288,124.836,133.025,138.524,145.1972,150.688,153.378" svgx:width="0.55,0.38,0.55,0.33,0.44,0.27,0.55,0.38,0.55,0.33,0.55,0.38,0.44,0.55,0.55,0.33,0.55,0.55,0.82,0.55,0.67,0.55,0.27,0.55" style="fill:rgb(23,22,21);font-family:AdvTimes;font-size:9.96px;stroke:none;">proteins fused to GST in</text>
   <text y="616.51" x="164.351,170.986,173.6752,179.205,183.558,188.54,191.229" svgx:width="0.67,0.27,0.55,0.44,0.5,0.27,0.27" style="fill:rgb(23,22,21);font-family:AdvTimes-i;font-size:9.96px;stroke:none;">E. coli</text>
   <text y="616.51" x="193.945,196.6342,202.109,208.744,214.243,218.62539999999998,224.105,227.423,234.576,240.054,245.591,248.909,254.408,257.098,259.788,263.106,265.796,270.149,275.649,280.63,283.947" svgx:width="0.27,0.55,0.67,0.55,0.44,0.55,0.33,0.72,0.55,0.55,0.33,0.55,0.27,0.27,0.33,0.27,0.44,0.55,0.5,0.33,0.55" style="fill:rgb(23,22,21);font-family:AdvTimes;font-size:9.96px;stroke:none;">. The two full-length</text>
   <text y="627.508" x="42.463,46.299,50.652,55.006,60.505,68.695,74.194,76.884,82.383,87.364,92.864,96.1508,99.042,104.541,108.377,113.876,117.193,121.547,124.237,129.736,133.52079999999998,136.458,143.611,147.965,151.801,156.18339999999998,159.021,162.857,165.547,173.736,176.426,179.116,184.097,187.933,190.623,195.60299999999998,198.536,202.89,207.871,213.37,218.352,223.851,226.541,230.9234,233.799,239.298,242.5848,245.477,250.976,253.666,259.165,264.665,267.355,272.854,277.834,280.683,284.0" svgx:width="0.38,0.44,0.44,0.55,0.82,0.55,0.27,0.55,0.5,0.55,0.33,0.55,0.55,0.38,0.55,0.33,0.44,0.27,0.55,0.38,0.55,0.72,0.44,0.38,0.44,0.55,0.38,0.27,0.82,0.27,0.27,0.5,0.38,0.27,0.5,0.55,0.44,0.5,0.55,0.5,0.55,0.27,0.44,0.55,0.55,0.33,0.55,0.55,0.27,0.55,0.55,0.27,0.55,0.5,0.55,0.33,0.55" style="fill:rgb(23,22,21);font-family:AdvTimes;font-size:9.96px;stroke:none;">recombinant proteins were similarly capable of binding to</text>
   <text y="638.45" x="42.463,45.781,51.28,55.662400000000005,58.167,63.148,68.13,71.447,76.947,80.2338,82.828,86.664,91.018,96.517,102.016,106.37,111.869,116.223,120.6054,123.193,125.883,131.361,133.964,137.282,142.781,147.1634,149.669,154.65,159.003,161.69219999999999,164.296,168.131,173.631,176.32,179.638,182.9248,185.498,190.479,194.315,198.15,203.132,208.112,210.726,214.044,220.679,223.369,228.35,233.849,237.685,242.0674,244.628,249.609,256.244,259.562,262.25120000000004,264.81,271.445,276.945,281.298,286.798" svgx:width="0.33,0.55,0.44,0.55,0.5,0.5,0.33,0.55,0.33,0.55,0.38,0.44,0.55,0.55,0.44,0.55,0.44,0.44,0.55,0.27,0.55,0.55,0.33,0.55,0.44,0.55,0.5,0.44,0.27,0.55,0.38,0.55,0.27,0.33,0.33,0.55,0.5,0.38,0.38,0.5,0.5,0.55,0.33,0.67,0.27,0.5,0.55,0.38,0.44,0.55,0.5,0.67,0.33,0.27,0.55,0.67,0.55,0.44,0.55,0.27" style="fill:rgb(23,22,21);font-family:AdvTimes;font-size:9.96px;stroke:none;">the 30-nt sequence in the gel shift assay (Figure 6B). Then,</text>
   <text y="649.449" x="42.463,45.781,51.259,55.786,59.104,63.457,67.293,70.5798,75.118,82.272,87.771,90.461,94.814,100.29199999999999,104.882,110.381,115.88,124.07,129.051,131.741,137.21900000000002,141.731,145.049,151.684,158.3572,162.878,168.377,172.1618,176.711,184.9,193.089,196.3758,200.918,203.608,207.3928,211.974,214.663,220.163,225.144,230.643,233.333,238.315,242.668,248.14600000000002,252.736,255.425,260.903,265.435,273.624,281.813" svgx:width="0.33,0.55,0.55,0.33,0.44,0.38,0.33,0.55,0.72,0.55,0.27,0.44,0.55,0.55,0.55,0.55,0.82,0.5,0.27,0.55,0.55,0.33,0.67,0.67,0.55,0.55,0.38,0.55,0.82,0.82,0.33,0.55,0.27,0.38,0.55,0.27,0.55,0.5,0.55,0.27,0.5,0.44,0.55,0.55,0.27,0.55,0.55,0.82,0.82,0.77" style="fill:rgb(23,22,21);font-family:AdvTimes;font-size:9.96px;stroke:none;">to test which domain (ZF or HD) is involved in DNA</text>
   <text y="660.448" x="42.463,47.962,50.652,56.152,61.651,64.341,69.84,74.822,77.5112,85.039,92.192,96.5744,104.088,109.587,113.941,117.776,121.094,126.593,130.429,138.618,142.972,148.45000000000002,156.074,162.71,172.563,178.062,185.7312,193.265,200.418,203.108,206.425,211.90300000000002,219.513,226.666,229.984,233.302,237.655,241.491,249.68,252.37,257.869,262.851,265.5402,273.087,281.276" svgx:width="0.55,0.27,0.55,0.55,0.27,0.55,0.5,0.27,0.55,0.72,0.44,0.55,0.55,0.44,0.38,0.33,0.55,0.38,0.82,0.44,0.55,0.55,0.67,0.99,0.55,0.77,0.55,0.72,0.27,0.33,0.55,0.55,0.72,0.33,0.33,0.44,0.38,0.82,0.27,0.55,0.5,0.27,0.55,0.82,0.82" style="fill:rgb(23,22,21);font-family:AdvTimes;font-size:9.96px;stroke:none;">binding, we performed EMSA with C-terminal HD</text>
   <text y="671.446" x="42.463,47.962,52.316,55.006,59.36,62.677,65.367,70.866,76.344,80.73,86.23,90.583,94.419,97.109,102.09,107.071,110.389,113.079,118.06,122.414,126.1988,130.676" svgx:width="0.55,0.44,0.27,0.44,0.33,0.27,0.55,0.55,0.55,0.55,0.44,0.38,0.27,0.5,0.5,0.33,0.27,0.5,0.44,0.38,0.55,0.33" style="fill:rgb(23,22,21);font-family:AdvTimes;font-size:9.96px;stroke:none;">deletion derivatives (</text>
   <text y="671.446" code="1" x="134.021" svgx:width="0.8" style="fill:rgb(23,22,21);font-family:AdvMT_RM;font-size:9.96px;stroke:none;">?</text>
   <text y="671.446" x="142.015,150.205,158.394,161.6808,166.053,171.034,176.534,182.012,186.462,194.652,197.969,201.287,205.64,209.476,217.665,220.355,225.855,230.836,233.5252,237.939,244.574,251.24720000000002,255.571,261.07,265.424,268.114,272.468,275.785,278.475,283.974" svgx:width="0.82,0.82,0.33,0.55,0.5,0.55,0.55,0.55,0.82,0.33,0.33,0.44,0.38,0.82,0.27,0.55,0.5,0.27,0.55,0.67,0.67,0.55,0.55,0.44,0.27,0.44,0.33,0.27,0.55,0.55" style="fill:rgb(23,22,21);font-family:AdvTimes;font-size:9.96px;stroke:none;">HD) and N-terminal ZF deletion</text>
   <text y="682.445" x="42.463,47.962,52.316,56.152,58.841,63.823,68.804,72.122,74.812,79.793,84.146,87.9308,91.218" svgx:width="0.55,0.44,0.38,0.27,0.5,0.5,0.33,0.27,0.5,0.44,0.38,0.55,0.33" style="fill:rgb(23,22,21);font-family:AdvTimes;font-size:9.96px;stroke:none;">derivatives (</text>
   <text y="682.445" code="1" x="94.563" svgx:width="0.8" style="fill:rgb(23,22,21);font-family:AdvMT_RM;font-size:9.96px;stroke:none;">?</text>
   <text y="682.445" x="102.557,109.192,115.828,119.1148,122.343,127.842,131.1288,134.419,138.772,143.754,148.107,153.585,156.868,162.368,166.203,171.703,175.02,179.374,182.064,187.542,190.77,194.088,200.723,203.413,208.394,213.893,217.729,222.1114,225.352,230.334,238.005,241.322,244.0112,247.292,254.963,258.7478,262.032,265.867,271.367,276.866,284.019" svgx:width="0.67,0.67,0.33,0.55,0.55,0.33,0.55,0.44,0.5,0.44,0.55,0.55,0.55,0.38,0.55,0.33,0.44,0.27,0.55,0.55,0.33,0.67,0.27,0.5,0.55,0.38,0.44,0.55,0.5,0.77,0.33,0.27,0.55,0.77,0.38,0.55,0.38,0.55,0.55,0.72,0.55" style="fill:rgb(23,22,21);font-family:AdvTimes;font-size:9.96px;stroke:none;">ZF) of each protein (Figure 6A). As shown</text>
   <text y="693.444" x="42.463,45.153,50.631,53.972,60.607,63.297,68.278,73.777,77.613,81.9954,85.379,90.36,96.995,99.6842,103.066,109.702,119.555,125.054,132.7232,136.062,141.561,145.915,149.75,153.068,158.567,162.403,170.592,174.946,180.424,183.853,189.353,193.188,195.878,201.377,206.357,209.762,213.079,218.579,222.9614,226.259,231.24,236.222,239.539,245.038,248.3248,251.713,255.549,259.903,265.402,270.901,275.255,280.754,285.108" svgx:width="0.27,0.55,0.55,0.67,0.27,0.5,0.55,0.38,0.44,0.55,0.5,0.67,0.27,0.55,0.67,0.99,0.55,0.77,0.55,0.55,0.44,0.38,0.33,0.55,0.38,0.82,0.44,0.55,0.55,0.55,0.38,0.27,0.55,0.5,0.55,0.33,0.55,0.44,0.55,0.5,0.5,0.33,0.55,0.33,0.55,0.38,0.44,0.55,0.55,0.44,0.55,0.44,0.44" style="fill:rgb(23,22,21);font-family:AdvTimes;font-size:9.96px;stroke:none;">in Figure 6B, EMSA performed using the 30-nt sequence</text>
   <text y="704.443" x="42.463,47.444,51.2288,54.198,59.178,62.078,67.578,71.413,76.913,82.412,86.79440000000001,89.688,96.841,99.531,102.848,108.326,111.288,114.605,120.104,124.4864,127.388,132.887,138.387,142.222,144.912,150.412,154.765,160.243,163.161,168.66,173.014,175.704,180.057,183.375,186.065,191.564,197.042,200.011,208.2,213.699,217.017,221.998,227.497,230.815,234.5998,237.597,241.433,246.932,252.432,259.585,263.939,269.41700000000003,272.407,275.724,281.224,286.205" svgx:width="0.5,0.38,0.55,0.5,0.55,0.55,0.38,0.55,0.55,0.44,0.55,0.72,0.27,0.33,0.55,0.55,0.33,0.55,0.44,0.55,0.55,0.55,0.38,0.27,0.55,0.44,0.55,0.55,0.55,0.44,0.27,0.44,0.33,0.27,0.55,0.55,0.55,0.82,0.55,0.33,0.5,0.55,0.33,0.38,0.55,0.38,0.55,0.55,0.72,0.44,0.55,0.55,0.33,0.55,0.5,0.33" style="fill:rgb(23,22,21);font-family:AdvTimes;font-size:9.96px;stroke:none;">as a probe with the puriﬁed deletion mutants showed that</text>
   <text y="715.384" x="42.463,45.781,51.28,55.662400000000005,58.677,66.866,70.184,73.501,77.855,81.691,89.88,92.57,98.069,103.051,105.7402,108.907,115.542,122.21520000000001,125.234,130.734,135.087,137.777,142.131,145.448,148.138,153.638,159.116,162.254,170.444,175.943,179.26,184.242,189.741,193.059,196.8438,200.012,203.329,206.019,208.709,213.063,215.7522,218.89,222.207,227.707,233.206,237.042,241.4244,244.458,248.811,254.311,259.81,263.128,268.109,270.799,276.298,278.988,284.487" svgx:width="0.33,0.55,0.44,0.55,0.82,0.33,0.33,0.44,0.38,0.82,0.27,0.55,0.5,0.27,0.55,0.67,0.67,0.55,0.55,0.44,0.27,0.44,0.33,0.27,0.55,0.55,0.55,0.82,0.55,0.33,0.5,0.55,0.33,0.38,0.55,0.33,0.27,0.27,0.44,0.27,0.55,0.33,0.55,0.55,0.38,0.44,0.55,0.44,0.55,0.55,0.33,0.5,0.27,0.55,0.27,0.55,0.5" style="fill:rgb(23,22,21);font-family:AdvTimes;font-size:9.96px;stroke:none;">the N-terminal ZF deletion mutants (i.e. those containing</text>
   <text y="726.383" x="42.463,47.962,53.462,56.152,61.132000000000005,67.407,70.725,76.224,80.60640000000001,86.909,92.408,97.908,106.097,110.451,115.95,121.449,126.949,135.138,140.119,142.809,148.309,151.5958,158.001,161.837,165.154,168.99,174.489,179.989,184.97,187.66,192.64,198.989,204.489,209.988,215.487,220.987,226.465,232.778,236.095,241.573,247.915,251.232,256.732,261.11440000000005,267.417,272.398,277.379,280.697,286.196" svgx:width="0.55,0.55,0.27,0.5,0.55,0.33,0.55,0.44,0.55,0.55,0.55,0.82,0.44,0.55,0.55,0.55,0.82,0.5,0.27,0.55,0.33,0.55,0.38,0.33,0.38,0.55,0.55,0.5,0.27,0.5,0.55,0.55,0.55,0.55,0.55,0.55,0.55,0.33,0.55,0.55,0.33,0.55,0.44,0.55,0.5,0.5,0.33,0.55,0.33" style="fill:rgb(23,22,21);font-family:AdvTimes;font-size:9.96px;stroke:none;">only the homeodomain) strongly bound to the 30-nt</text>
   <text y="737.382" x="42.463,46.299,50.652,56.152,61.651,66.005,71.504,75.858,80.211,82.9002,87.307,92.806,98.305,101.5918,106.072,109.39,114.889,119.87,123.1568,127.615,130.933,136.432,140.81439999999998,145.19,152.343,155.661,158.979,163.332,167.168,175.357,178.047,183.546,188.528,191.2172,195.703,203.892,212.0592,216.509,222.008,226.362,229.051,233.405,236.723,239.413,244.912,250.39000000000001,254.833,263.022,268.521,271.839,276.82,282.32,285.637" svgx:width="0.38,0.44,0.55,0.55,0.44,0.55,0.44,0.44,0.27,0.55,0.55,0.55,0.33,0.55,0.33,0.55,0.5,0.33,0.55,0.33,0.55,0.44,0.55,0.72,0.33,0.33,0.44,0.38,0.82,0.27,0.55,0.5,0.27,0.55,0.82,0.82,0.55,0.55,0.44,0.27,0.44,0.33,0.27,0.55,0.55,0.55,0.82,0.55,0.33,0.5,0.55,0.33,0.38" style="fill:rgb(23,22,21);font-family:AdvTimes;font-size:9.96px;stroke:none;">sequence, but that the C-terminal HD deletion mutants</text>
   <text y="453.465" x="309.429,314.928,317.618,323.096,325.7,331.199,336.698,339.9848,342.594,345.912,348.602,351.292,355.645,358.3342,360.962,364.28,369.779,375.279,379.114,383.4964,386.077,390.431,395.93,401.429,404.747,409.728,412.418,417.918,420.607,426.107,431.08700000000005,433.698,439.198,444.697,447.387,452.367,454.958,458.275,463.774,468.1564,470.718,475.072,477.762,483.261,487.64340000000004,490.22,495.72,501.219,506.2,510.554,514.3388,516.979,522.478,527.977,536.167,541.148,543.838,549.337,553.173" svgx:width="0.55,0.27,0.55,0.55,0.55,0.55,0.33,0.55,0.33,0.27,0.27,0.44,0.27,0.55,0.33,0.55,0.55,0.38,0.44,0.55,0.44,0.55,0.55,0.33,0.5,0.27,0.55,0.27,0.55,0.5,0.55,0.55,0.55,0.27,0.5,0.55,0.33,0.55,0.44,0.55,0.44,0.27,0.55,0.44,0.55,0.55,0.55,0.5,0.44,0.38,0.55,0.55,0.55,0.82,0.5,0.27,0.55,0.38,0.33" style="fill:rgb(23,22,21);font-family:AdvTimes;font-size:9.96px;stroke:none;">did not (i.e. those containing only the zinc ﬁnger domains)</text>
   <text y="464.52" x="309.429,312.746,319.381,322.071,327.053,332.552,336.388,340.7704,344.068,349.049,355.684,359.002,361.69120000000004,364.987,374.84,379.2224,382.449,385.766,391.266,395.619,401.09700000000004,404.445,409.944,414.298,418.134,421.451,426.951,430.786,438.975,443.329,448.807,452.123,457.103,460.4,464.754,470.253,478.442,483.942,488.295,491.613,494.303,497.62,500.31,505.81,511.288,514.598,519.579,523.415,527.25,532.231,537.211,540.506,545.488,550.987" svgx:width="0.33,0.67,0.27,0.5,0.55,0.38,0.44,0.55,0.5,0.67,0.33,0.27,0.55,0.99,0.44,0.55,0.33,0.55,0.44,0.55,0.55,0.55,0.44,0.38,0.33,0.55,0.38,0.82,0.44,0.55,0.55,0.5,0.55,0.44,0.55,0.82,0.55,0.44,0.33,0.27,0.33,0.27,0.55,0.55,0.55,0.5,0.38,0.38,0.5,0.5,0.55,0.5,0.55,0.55" style="fill:rgb(23,22,21);font-family:AdvTimes;font-size:9.96px;stroke:none;">(Figure 6B). We then performed a competition assay and</text>
   <text y="475.576" x="309.429,312.746,318.246,323.745,329.244,334.72200000000004,340.667,343.984,349.483,354.465,357.7518,363.74,371.929,380.118,387.79,392.771,398.27,402.106,407.605,410.923,415.276,417.966,423.444,429.446,433.8,439.299,447.489,452.988,455.678,460.031,465.011,470.945,474.262,479.761,483.597,491.786,496.768,500.085,502.775,508.274,513.752,519.756,526.909,531.891,535.6758,541.639,545.475,548.165,553.146" svgx:width="0.33,0.55,0.55,0.55,0.55,0.55,0.33,0.55,0.5,0.33,0.55,0.82,0.82,0.77,0.5,0.55,0.38,0.55,0.33,0.44,0.27,0.55,0.55,0.44,0.55,0.82,0.55,0.27,0.44,0.5,0.55,0.33,0.55,0.38,0.82,0.5,0.33,0.27,0.55,0.55,0.55,0.72,0.5,0.38,0.55,0.38,0.27,0.5,0.33" style="fill:rgb(23,22,21);font-family:AdvTimes;font-size:9.96px;stroke:none;">found that DNA–protein complex formation was sig-</text>
   <text y="486.631" x="309.429,314.928,317.618,323.117,327.471,332.452,337.952,341.269,343.959,348.939,353.251,357.087,361.441,366.94,372.439,376.793,381.147,386.625,390.895,396.394,401.374,405.635,410.616,416.094,420.374,425.874,431.35200000000003,435.625,438.943,444.421,448.664,453.645,458.627,463.608,466.926,470.243,475.742,478.432,483.91,488.236,496.425,501.924,504.614,509.595,513.3798,517.716,522.07,527.051,531.404,535.758,539.594,543.3788000000001,547.706,553.206" svgx:width="0.55,0.27,0.55,0.44,0.5,0.55,0.33,0.27,0.5,0.55,0.38,0.44,0.55,0.55,0.44,0.44,0.55,0.55,0.55,0.5,0.55,0.5,0.55,0.55,0.55,0.55,0.55,0.33,0.55,0.55,0.5,0.5,0.5,0.33,0.33,0.55,0.27,0.55,0.55,0.82,0.55,0.27,0.5,0.38,0.55,0.44,0.5,0.44,0.44,0.38,0.38,0.55,0.55,0.33" style="fill:rgb(23,22,21);font-family:AdvTimes;font-size:9.96px;stroke:none;">niﬁcantly reduced by an up to 200-fold molar excess of</text>
   <text y="497.687" x="309.429,314.928,320.427,323.117,328.099,333.598,337.952,340.642,344.995,350.473,355.065,360.047,365.028,368.346,373.845,377.13180000000006,381.71,386.064,391.563,399.753,405.252,409.606,412.923,415.613,418.931,424.43,428.2148,432.846,436.164,441.663,446.645,449.962,454.942,459.491,464.991,470.49,473.77680000000004,478.313,482.148,487.648,493.147,500.3,505.8,509.117,511.80620000000005,516.353,521.852,524.542,530.042,534.395,538.7774,543.339,546.656,552.155" svgx:width="0.55,0.55,0.27,0.5,0.55,0.44,0.27,0.44,0.55,0.55,0.5,0.5,0.33,0.55,0.33,0.55,0.44,0.55,0.82,0.55,0.44,0.33,0.27,0.33,0.55,0.38,0.55,0.33,0.55,0.5,0.33,0.5,0.55,0.55,0.55,0.33,0.55,0.38,0.55,0.55,0.72,0.55,0.33,0.27,0.55,0.55,0.27,0.55,0.44,0.44,0.55,0.33,0.55,0.44" style="fill:rgb(23,22,21);font-family:AdvTimes;font-size:9.96px;stroke:none;">unlabeled 30-nt competitor (data not shown). Since the</text>
   <text y="508.742" x="309.429,314.928,317.618,323.117,328.617,331.307,336.806,341.786,344.862,349.843,358.032,363.532,366.222,369.539,374.519,377.63,380.947,386.425,389.535,392.853,398.352,402.7344,405.806,410.787,415.769,419.086,424.585,427.8718,430.977,434.813,439.167,444.666,450.165,454.519,460.018,464.372,468.75440000000003,471.795,477.295,480.58180000000004,483.701,489.2,493.036,498.535,501.852,506.206,508.896,514.395,518.1798,521.344,525.698,531.197,536.697,540.014,544.995,547.685,553.185" svgx:width="0.55,0.27,0.55,0.55,0.27,0.55,0.5,0.55,0.5,0.82,0.55,0.27,0.33,0.5,0.55,0.33,0.55,0.55,0.33,0.55,0.44,0.55,0.5,0.5,0.33,0.55,0.33,0.55,0.38,0.44,0.55,0.55,0.44,0.55,0.44,0.44,0.55,0.55,0.33,0.55,0.55,0.38,0.55,0.33,0.44,0.27,0.55,0.38,0.55,0.44,0.55,0.55,0.33,0.5,0.27,0.55,0.33" style="fill:rgb(23,22,21);font-family:AdvTimes;font-size:9.96px;stroke:none;">binding aﬃnity to the 30-nt sequence of proteins contain-</text>
   <text y="519.798" x="309.429,312.119,317.618,322.598,331.766,337.265,342.765,345.455,350.435,359.546,362.863,368.363,372.7454,381.883,387.382,392.882,401.071,405.424,410.924,416.423,421.923,430.112,435.093,437.783,443.261,452.408,455.726,463.915,472.104,478.739,485.374,488.692,496.881,505.07" svgx:width="0.27,0.55,0.5,0.55,0.55,0.55,0.27,0.5,0.55,0.33,0.55,0.44,0.55,0.55,0.55,0.82,0.44,0.55,0.55,0.55,0.82,0.5,0.27,0.55,0.55,0.33,0.82,0.82,0.67,0.67,0.33,0.82,0.82,0.5" style="fill:rgb(23,22,21);font-family:AdvTimes;font-size:9.96px;stroke:none;">ing only the homeodomain (GmZF-HD1</text>
   <text y="519.798" code="1" x="510.12" svgx:width="0.8" style="fill:rgb(23,22,21);font-family:AdvMT_RM;font-size:9.96px;stroke:none;">?</text>
   <text y="519.798" x="518.114,524.749,531.4222,540.508,545.49,550.989" svgx:width="0.67,0.67,0.55,0.5,0.55,0.55" style="fill:rgb(23,22,21);font-family:AdvTimes;font-size:9.96px;stroke:none;">ZF and</text>
   <text y="530.853" code="1" x="309.429" svgx:width="0.77" style="fill:rgb(23,22,21);font-family:AdvMT_SY;font-size:9.96px;stroke:none;">?</text>
   <text y="530.853" x="317.139" svgx:width="0.5" style="fill:rgb(23,22,21);font-family:AdvTimes;font-size:9.96px;stroke:none;">2</text>
   <text y="530.853" code="1" x="322.071" svgx:width="0.8" style="fill:rgb(23,22,21);font-family:AdvMT_RM;font-size:9.96px;stroke:none;">?</text>
   <text y="530.853" x="330.065,336.7,343.336,346.62280000000004,350.814,357.968,362.949,366.73380000000003,370.883,379.072,384.572,388.925,394.403,398.549,402.385,405.702,409.538,415.037,420.537,425.518,429.872,433.65680000000003,437.78,441.098,446.597,451.578,457.056,461.194,464.512,470.011,474.992,478.27880000000005,482.396,487.896,491.18280000000004,495.322,498.639,504.139,508.5214,512.613,515.931,521.43,524.12,526.81,530.127,532.817,537.171,542.67,547.651,550.969" svgx:width="0.67,0.67,0.33,0.55,0.72,0.5,0.38,0.55,0.82,0.55,0.44,0.55,0.55,0.38,0.33,0.38,0.55,0.55,0.5,0.44,0.38,0.55,0.33,0.55,0.5,0.55,0.55,0.33,0.55,0.5,0.33,0.55,0.55,0.33,0.55,0.33,0.55,0.44,0.55,0.33,0.55,0.27,0.27,0.33,0.27,0.44,0.55,0.5,0.33,0.55" style="fill:rgb(23,22,21);font-family:AdvTimes;font-size:9.96px;stroke:none;">ZF) was much stronger than that of the full-length</text>
   <text y="541.909" x="309.429,314.928,318.764,324.263,327.581,331.934,334.624,340.124,343.90880000000004,352.402,355.719,363.908,372.098,378.733,385.368,388.685,396.875,405.064,410.04400000000004,418.504,423.486,428.985" svgx:width="0.55,0.38,0.55,0.33,0.44,0.27,0.55,0.38,0.55,0.33,0.82,0.82,0.67,0.67,0.33,0.82,0.82,0.5,0.55,0.5,0.55,0.55" style="fill:rgb(23,22,21);font-family:AdvTimes;font-size:9.96px;stroke:none;">proteins (GmZF-HD1 and</text>
   <text y="541.909" code="1" x="442.884" svgx:width="0.77" style="fill:rgb(23,22,21);font-family:AdvMT_SY;font-size:9.96px;stroke:none;">?</text>
   <text y="541.909" x="450.537,455.518,458.836,461.52520000000004,469.982,474.963,480.463,485.94100000000003,494.36,498.195,500.885,506.384,510.738,515.1204,523.499,531.688,539.878,546.513,553.148" svgx:width="0.5,0.33,0.27,0.55,0.5,0.55,0.55,0.55,0.38,0.27,0.55,0.44,0.44,0.55,0.82,0.82,0.67,0.67,0.33" style="fill:rgb(23,22,21);font-family:AdvTimes;font-size:9.96px;stroke:none;">2), and since GmZF-</text>
   <text y="552.964" x="309.429,317.618,325.807" svgx:width="0.82,0.82,0.5" style="fill:rgb(23,22,21);font-family:AdvTimes;font-size:9.96px;stroke:none;">HD1</text>
   <text y="552.964" code="1" x="330.802" svgx:width="0.8" style="fill:rgb(23,22,21);font-family:AdvMT_RM;font-size:9.96px;stroke:none;">?</text>
   <text y="552.964" x="338.796,345.431,352.1042,359.601,364.583,370.082,375.56,383.129,391.318,399.508,406.143,412.778,416.095,424.285,432.474" svgx:width="0.67,0.67,0.55,0.5,0.55,0.55,0.55,0.82,0.82,0.67,0.67,0.33,0.82,0.82,0.5" style="fill:rgb(23,22,21);font-family:AdvTimes;font-size:9.96px;stroke:none;">ZF and GmZF-HD2</text>
   <text y="552.964" code="1" x="437.497" svgx:width="0.8" style="fill:rgb(23,22,21);font-family:AdvMT_RM;font-size:9.96px;stroke:none;">?</text>
   <text y="552.964" x="445.491,452.126,458.7992,466.297,471.796,477.296,482.795,488.294,493.772,501.332,508.486,511.175,514.493,519.971,527.524,531.36,534.049,542.239,544.929,547.619,552.6" svgx:width="0.67,0.67,0.55,0.55,0.55,0.55,0.55,0.55,0.55,0.72,0.27,0.33,0.55,0.55,0.38,0.27,0.82,0.27,0.27,0.5,0.38" style="fill:rgb(23,22,21);font-family:AdvTimes;font-size:9.96px;stroke:none;">ZF bound with similar</text>
   <text y="564.02" x="309.429,314.41,322.599,328.099,330.789,334.106,339.086,344.464,347.782,353.26,358.637,361.955,367.454,370.144,373.9288,379.329,383.165,387.519,393.018,398.517,402.871,408.37,412.724,417.078,419.7672,425.136,433.326,441.515,448.15,454.785,458.103,466.292,474.481" svgx:width="0.5,0.82,0.55,0.27,0.33,0.5,0.55,0.33,0.55,0.55,0.33,0.55,0.27,0.38,0.55,0.38,0.44,0.55,0.55,0.44,0.55,0.44,0.44,0.27,0.55,0.82,0.82,0.67,0.67,0.33,0.82,0.82,0.5" style="fill:rgb(23,22,21);font-family:AdvTimes;font-size:9.96px;stroke:none;">aﬃnity to this sequence, GmZF-HD1</text>
   <text y="564.02" code="1" x="479.506" svgx:width="0.8" style="fill:rgb(23,22,21);font-family:AdvMT_RM;font-size:9.96px;stroke:none;">?</text>
   <text y="564.02" x="487.5,494.135,500.8082,506.152,513.305,518.287,522.0718,527.468,531.822,537.321,542.821,546.656,551.01" svgx:width="0.67,0.67,0.55,0.72,0.5,0.38,0.55,0.44,0.55,0.55,0.38,0.44,0.55" style="fill:rgb(23,22,21);font-family:AdvTimes;font-size:9.96px;stroke:none;">ZF was chosen</text>
   <text y="575.075" x="309.429,312.746,318.246,322.0308,325.245,328.563,334.062,337.898,341.215,346.715,351.068,354.8528,358.07,364.705,374.558,380.058,387.7272,390.952,395.305,400.287,405.786,410.14,413.975,416.665,424.854,429.208,434.708,438.025,441.8098,445.036,448.353,453.831,456.998,461.352,466.851,471.832,475.668,480.649,485.003,488.32,492.674,496.51,499.199,503.553,507.9354,511.139,513.829,517.146,520.9308,524.121,526.811,532.31,535.628,539.981,543.817,548.798,553.152" svgx:width="0.33,0.55,0.38,0.55,0.33,0.55,0.38,0.33,0.55,0.44,0.38,0.55,0.67,0.99,0.55,0.77,0.55,0.44,0.5,0.55,0.44,0.38,0.27,0.82,0.44,0.55,0.33,0.38,0.55,0.33,0.55,0.55,0.44,0.55,0.5,0.38,0.5,0.44,0.33,0.44,0.38,0.27,0.44,0.44,0.55,0.27,0.33,0.38,0.55,0.27,0.55,0.33,0.44,0.38,0.5,0.44,0.33" style="fill:rgb(23,22,21);font-family:AdvTimes;font-size:9.96px;stroke:none;">for further EMSA experiments to characterize its interac-</text>
   <text y="586.131" x="309.429,312.746,315.436,320.936,326.414,329.781,336.935,339.624,342.942,348.42,351.778,355.095,360.595,363.285,367.06980000000004,370.487,374.322,378.676,383.657,386.347,391.846,397.324,400.646,406.146,409.43280000000004,412.779,416.096,421.596" svgx:width="0.33,0.27,0.55,0.55,0.55,0.72,0.27,0.33,0.55,0.55,0.33,0.55,0.27,0.38,0.55,0.38,0.44,0.5,0.27,0.55,0.55,0.55,0.55,0.33,0.55,0.33,0.55,0.44" style="fill:rgb(23,22,21);font-family:AdvTimes;font-size:9.96px;stroke:none;">tion with this region of the</text>
   <text y="586.131" x="429.277,436.43,444.101,451.254,456.236,466.089" svgx:width="0.72,0.77,0.72,0.5,0.99,0.5" style="fill:rgb(23,22,21);font-family:AdvTimes-i;font-size:9.96px;stroke:none;">GmCaM4</text>
   <text y="586.131" x="474.461,479.961,483.796,489.296,497.485,502.984,506.302,510.655,514.491" svgx:width="0.55,0.38,0.55,0.82,0.55,0.33,0.44,0.38,0.27" style="fill:rgb(23,22,21);font-family:AdvTimes;font-size:9.96px;stroke:none;">promoter.</text>
   <text y="610.792" x="309.429,313.264,318.246,322.599,327.581,330.898,333.588,336.906,339.596,343.949,348.93,352.248,354.938,359.919,364.899,366.971,371.952,375.2388,377.232,384.903,392.575,399.728,405.745,409.063,417.252,424.923,429.903,431.94,436.921,439.611,444.592,449.574,452.264,457.245,462.225,464.254,468.09,470.78,474.098,478.451,482.23580000000004,484.323,487.013,491.993,493.961,497.279,502.26" svgx:width="0.38,0.5,0.44,0.5,0.33,0.27,0.33,0.27,0.44,0.5,0.33,0.27,0.5,0.5,0.55,0.5,0.33,0.55,0.77,0.77,0.72,0.6,0.33,0.82,0.77,0.5,0.55,0.5,0.27,0.5,0.5,0.27,0.5,0.5,0.55,0.38,0.27,0.33,0.44,0.38,0.55,0.27,0.5,0.55,0.33,0.5,0.44" style="fill:rgb(23,22,21);font-family:AdvTimes-b;font-size:9.96px;stroke:none;">Identification of GmZF-HD1 binding sites in the</text>
   <text y="610.792" x="508.647,515.8,523.471,530.624,535.606,545.459" svgx:width="0.72,0.77,0.72,0.5,0.99,0.5" style="fill:rgb(23,22,21);font-family:AdvTimes-bi;font-size:9.96px;stroke:none;">GmCaM4</text>
   <text y="621.734" x="309.429,314.41,318.246,323.227,330.898,335.879,339.197,343.551" svgx:width="0.5,0.38,0.5,0.77,0.5,0.33,0.44,0.38" style="fill:rgb(23,22,21);font-family:AdvTimes-b;font-size:9.96px;stroke:none;">promoter</text>
   <text y="637.891" x="309.429,316.064,321.54200000000003,323.999,332.188,337.688,341.523,345.90540000000004,348.263,353.762,357.598,361.952,366.305,368.995,372.831,377.185,379.874,384.85400000000004,387.323,395.513,400.494,405.97200000000004,408.357,411.674,417.173,421.5554,423.947,429.446,432.136,437.636,443.135,445.825,451.324,456.30400000000003,458.7,462.535,465.225,468.543,472.9254,475.31,480.81,484.09680000000003,486.535,489.853,495.352,499.7344,502.126,510.315,518.504,525.139,531.774,535.092,543.281,551.47" svgx:width="0.67,0.55,0.55,0.82,0.55,0.38,0.44,0.55,0.55,0.38,0.44,0.44,0.27,0.38,0.44,0.27,0.5,0.55,0.82,0.5,0.55,0.55,0.33,0.55,0.44,0.55,0.55,0.27,0.55,0.55,0.27,0.55,0.5,0.55,0.38,0.27,0.33,0.44,0.55,0.55,0.33,0.55,0.33,0.55,0.44,0.55,0.82,0.82,0.67,0.67,0.33,0.82,0.82,0.5" style="fill:rgb(23,22,21);font-family:AdvTimes;font-size:9.96px;stroke:none;">To more precisely map the binding site of the GmZF-HD1</text>
   <text y="648.947" x="309.429,314.928,318.764,324.263,327.581,331.934,334.624,340.124,342.81320000000005,347.866,355.019,359.4014,364.363,369.862,374.216,378.051,380.741,385.722,391.222,395.575,401.053,406.145,409.98,412.67,417.65000000000003,422.642,430.831,436.33,439.648,444.629,447.947,452.301,457.779,462.837,467.818,472.172,476.008,479.843,482.533,488.032,493.532,497.3168,502.408,507.908,511.19480000000004,516.241,519.559,525.058,529.4404,534.383,539.365,544.346,547.664,553.163" svgx:width="0.55,0.38,0.55,0.33,0.44,0.27,0.55,0.27,0.55,0.72,0.44,0.55,0.55,0.44,0.38,0.27,0.5,0.55,0.44,0.55,0.55,0.38,0.27,0.5,0.55,0.82,0.55,0.33,0.5,0.33,0.44,0.55,0.55,0.5,0.44,0.38,0.38,0.27,0.55,0.55,0.38,0.55,0.55,0.33,0.55,0.33,0.55,0.44,0.55,0.5,0.5,0.33,0.55,0.33" style="fill:rgb(23,22,21);font-family:AdvTimes;font-size:9.96px;stroke:none;">protein, we designed six mutated versions of the 30-nt</text>
   <text y="660.002" x="309.429,313.264,317.618,323.117,328.617,332.97,338.47,342.823,347.2054,354.045,357.363,367.216,372.196,379.046,382.364,387.842,394.75,404.603,409.585,412.902,415.5912,422.417,426.77,431.752,436.105,441.583,448.495,455.648,458.338,461.655,467.133,474.006,478.987,482.305,487.804,491.0908,497.987,506.176,511.676,514.993,519.974,523.292,525.982,531.481,536.981,540.7658,547.706,552.688" svgx:width="0.38,0.44,0.55,0.55,0.44,0.55,0.44,0.44,0.55,0.33,0.99,0.5,0.55,0.33,0.55,0.55,0.99,0.5,0.33,0.27,0.55,0.44,0.5,0.44,0.55,0.55,0.72,0.27,0.33,0.55,0.55,0.5,0.33,0.55,0.33,0.55,0.82,0.55,0.33,0.5,0.33,0.27,0.55,0.55,0.38,0.55,0.5,0.38" style="fill:rgb(23,22,21);font-family:AdvTimes;font-size:9.96px;stroke:none;">sequence (M1 to M6), each with 5-nt mutations as</text>
   <text y="671.058" x="309.429,314.928,320.427,323.745,326.435,329.125,334.624,338.978,344.456,349.681,352.371,357.849,363.06,369.696,372.385,377.367,382.866,386.702,391.0844,396.225,401.206,408.878,411.5672,416.748,423.383,428.882,433.2644,438.405,443.386,448.885,451.575,454.265,456.955,460.273,465.25300000000004,470.435,475.935,479.22180000000003,484.439,487.756,493.256,497.6384,502.75,506.586,510.939,515.293,520.792,528.982,534.481,537.171,542.67,547.651,553.151" svgx:width="0.55,0.55,0.33,0.27,0.27,0.55,0.44,0.55,0.55,0.27,0.55,0.55,0.67,0.27,0.5,0.55,0.38,0.44,0.55,0.5,0.77,0.27,0.55,0.67,0.55,0.44,0.55,0.5,0.55,0.27,0.27,0.27,0.33,0.5,0.55,0.55,0.33,0.55,0.33,0.55,0.44,0.55,0.38,0.44,0.44,0.55,0.82,0.55,0.27,0.55,0.5,0.55,0.33" style="fill:rgb(23,22,21);font-family:AdvTimes;font-size:9.96px;stroke:none;">outlined in Figure 7A. The ability of the recombinant</text>
   <text y="682.113" x="309.429,317.618,325.807,332.442,339.078,342.395,350.584,358.774,363.755" svgx:width="0.82,0.82,0.67,0.67,0.33,0.82,0.82,0.5,0.33" style="fill:rgb(23,22,21);font-family:AdvTimes;font-size:9.96px;stroke:none;">GmZF-HD1(</text>
   <text y="682.113" code="1" x="367.142" svgx:width="0.8" style="fill:rgb(23,22,21);font-family:AdvMT_RM;font-size:9.96px;stroke:none;">?</text>
   <text y="682.113" x="375.136,381.771,388.406,391.69280000000003,396.85,400.167,405.667,409.502,412.192,417.691,423.169,428.37,433.87,437.705,443.205,446.522,450.876,453.566,459.044,464.2,467.517,472.995,478.146,483.646,486.336,491.835,497.313,502.524,509.677,512.367,515.057,520.556,523.874,527.191,532.173,537.672,542.0544,547.14,552.64" svgx:width="0.67,0.67,0.33,0.55,0.33,0.55,0.38,0.27,0.55,0.55,0.55,0.55,0.38,0.55,0.33,0.44,0.27,0.55,0.55,0.33,0.55,0.55,0.55,0.27,0.55,0.55,0.55,0.72,0.27,0.27,0.55,0.33,0.33,0.5,0.55,0.44,0.55,0.55,0.38" style="fill:rgb(23,22,21);font-family:AdvTimes;font-size:9.96px;stroke:none;">ZF) fusion protein to bind wild-type or</text>
   <text y="693.169" x="309.43,317.619,323.118,326.436,331.417,334.735,339.088,344.56600000000003,347.98,352.961,357.943,361.26,366.76,370.0468,373.434,377.27,381.624,387.123,392.622,396.976,402.475,406.829,411.183,414.9678,418.392,425.545,430.526,434.31080000000003,437.724,442.078,447.059,452.04,460.23,462.92,468.419,472.773,478.25100000000003,481.603,487.103,490.938,493.628,499.128,504.108,507.512,514.147,524.0,529.5,537.1692,540.507,545.489,550.988" svgx:width="0.82,0.55,0.33,0.5,0.33,0.44,0.55,0.55,0.5,0.5,0.33,0.55,0.33,0.55,0.38,0.44,0.55,0.55,0.44,0.55,0.44,0.44,0.38,0.55,0.72,0.5,0.38,0.55,0.44,0.5,0.5,0.82,0.27,0.55,0.44,0.55,0.55,0.55,0.38,0.27,0.55,0.5,0.55,0.67,0.99,0.55,0.77,0.55,0.5,0.55,0.55" style="fill:rgb(23,22,21);font-family:AdvTimes;font-size:9.96px;stroke:none;">mutated 30-nt sequences was examined using EMSA and</text>
   <text y="704.224" x="309.43,313.783,319.283,327.472,332.971,337.325,340.643,343.333,346.65,349.34,354.839,360.317,364.308,369.289,373.125,376.96,381.942,386.923,390.758,393.4472,397.36,405.031,408.8158,412.78,416.615,422.115,427.614,434.767,440.245,444.187,446.877,452.355,456.263,462.898,465.588,470.569,476.068,479.904,484.2864,488.18,493.161,499.796,502.4852,506.434,509.752,515.251,519.6333999999999,523.498,531.687,539.877,546.512,553.147" svgx:width="0.44,0.55,0.82,0.55,0.44,0.33,0.27,0.33,0.27,0.55,0.55,0.55,0.5,0.38,0.38,0.5,0.5,0.38,0.27,0.55,0.77,0.38,0.55,0.38,0.55,0.55,0.72,0.55,0.55,0.27,0.55,0.55,0.67,0.27,0.5,0.55,0.38,0.44,0.55,0.5,0.67,0.27,0.55,0.33,0.55,0.44,0.55,0.82,0.82,0.67,0.67,0.33" style="fill:rgb(23,22,21);font-family:AdvTimes;font-size:9.96px;stroke:none;">competition assays. As shown in Figure 7B, the GmZF-</text>
   <text y="715.28" x="309.43,317.619,325.808,330.79" svgx:width="0.82,0.82,0.5,0.33" style="fill:rgb(23,22,21);font-family:AdvTimes;font-size:9.96px;stroke:none;">HD1(</text>
   <text y="715.28" code="1" x="334.148" svgx:width="0.8" style="fill:rgb(23,22,21);font-family:AdvMT_RM;font-size:9.96px;stroke:none;">?</text>
   <text y="715.28" x="342.142,348.777,355.412,358.6988,363.061,368.561,372.396,377.896,381.213,385.567,388.257,393.735,398.097,401.933,405.25,409.086,414.585,420.084,425.066,427.756,432.736,437.045,442.544,448.043,453.543,459.042,464.52,468.906,472.224,477.702,482.002,485.319,490.819,495.20140000000004,499.52,509.373,514.354,517.0432000000001,521.346,531.199,536.179,540.508,545.49,550.989" svgx:width="0.67,0.67,0.33,0.55,0.55,0.38,0.55,0.33,0.44,0.27,0.55,0.55,0.38,0.33,0.38,0.55,0.55,0.5,0.27,0.5,0.55,0.55,0.55,0.55,0.55,0.55,0.55,0.33,0.55,0.55,0.33,0.55,0.44,0.55,0.99,0.5,0.27,0.55,0.99,0.5,0.55,0.5,0.55,0.55" style="fill:rgb(23,22,21);font-family:AdvTimes;font-size:9.96px;stroke:none;">ZF) protein strongly bound to the M3, M5 and</text>
   <text y="726.335" x="309.431,319.284,324.264,326.949,330.785,335.138,340.638,346.137,350.491,355.99,360.344,364.697,368.4818,371.226,376.207,381.706,387.184,389.935,397.088,401.441,406.423,411.922,414.612,419.59200000000004,422.249,427.749,433.248,438.747,444.247,449.725,452.466,455.783,461.261,463.918,473.771,478.752,481.44120000000004,484.157,489.656,495.156,498.44280000000003,501.165,506.664,512.164,515.4508,518.172,521.49,526.968,529.681,539.534,544.514,547.199,552.699" svgx:width="0.99,0.5,0.55,0.38,0.44,0.55,0.55,0.44,0.55,0.44,0.44,0.38,0.55,0.5,0.55,0.55,0.55,0.72,0.44,0.5,0.55,0.27,0.5,0.55,0.55,0.55,0.55,0.55,0.55,0.55,0.33,0.55,0.55,0.99,0.5,0.27,0.55,0.55,0.55,0.33,0.55,0.55,0.55,0.33,0.55,0.33,0.55,0.55,0.99,0.5,0.55,0.55,0.38" style="fill:rgb(23,22,21);font-family:AdvTimes;font-size:9.96px;stroke:none;">M6 sequences and weakly bound to M4, but not to M1 or</text>
   <text y="737.391" x="309.431,319.284,324.265,326.9542,330.86,337.495,342.973,346.847,351.201,356.7,362.2,367.699,371.535,379.7022,383.64,386.958,392.457,395.147,398.9318,402.859,406.695,411.048,414.884,420.383,423.073,426.391,429.08020000000005,433.019,440.172,444.55440000000004,448.382,453.882,458.235,462.071,465.388,470.888,474.723,482.913,487.266,492.744,496.684,501.66400000000004,505.528,509.881,515.381,523.57,529.069,533.423,536.74,539.43,542.748,545.438,550.937" svgx:width="0.99,0.5,0.27,0.55,0.67,0.55,0.55,0.44,0.55,0.55,0.55,0.38,0.82,0.55,0.33,0.55,0.27,0.38,0.55,0.38,0.44,0.38,0.55,0.27,0.33,0.27,0.55,0.72,0.44,0.55,0.55,0.44,0.38,0.33,0.55,0.38,0.82,0.44,0.55,0.55,0.5,0.55,0.44,0.55,0.82,0.55,0.44,0.33,0.27,0.33,0.27,0.55,0.55" style="fill:rgb(23,22,21);font-family:AdvTimes;font-size:9.96px;stroke:none;">M2. To conﬁrm this result, we performed a competition</text>
  </g>
  <rect style="stroke:blue;stroke-width:0.3;" x="309.94" y="80.851" height="232.27" width="246.104" title="7"/>
  <text y="80.851" class="image" id="image.7.1" width="246" height="232" x="309.94">image.7.1.310_556.81_313</text>
  <g begin="text">
   <text y="319.882" x="309.43,314.244,316.396,320.381,324.366,327.434,330.9408,334.942,338.927" svgx:width="0.6,0.27,0.5,0.5,0.38,0.44,0.55,0.5,0.27" style="fill:rgb(23,22,21);font-family:AdvTimes-b;font-size:7.97px;stroke:none;">Figure 5.</text>
   <text y="319.882" x="345.09,350.398,354.383,358.783,361.851,365.334,368.403,371.471,373.623,378.023,382.40650000000005,386.476,390.876,394.861,397.515,400.169,403.652,406.72,411.10350000000005,415.163,419.563,422.1931,426.275,428.929,433.329" svgx:width="0.67,0.5,0.55,0.38,0.44,0.38,0.38,0.27,0.55,0.55,0.55,0.55,0.5,0.33,0.33,0.44,0.38,0.55,0.55,0.55,0.33,0.55,0.33,0.55,0.44" style="fill:rgb(23,22,21);font-family:AdvTimes;font-size:7.97px;stroke:none;">Expression pattern of the</text>
   <text y="319.882" x="440.845,446.567,452.705,458.427,463.241,465.895,472.447,478.584" svgx:width="0.72,0.77,0.72,0.6,0.33,0.82,0.77,0.5" style="fill:rgb(23,22,21);font-family:AdvTimes-i;font-size:7.97px;stroke:none;">GmZF-HD1</text>
   <text y="319.882" x="486.596,493.148,499.285,505.836,511.97290000000004,516.02,518.172,522.5555,526.621,529.69,534.089,538.074,542.474,545.957,549.942,554.341" svgx:width="0.82,0.77,0.82,0.77,0.55,0.27,0.55,0.55,0.38,0.55,0.5,0.55,0.44,0.5,0.55,0.27" style="fill:rgb(23,22,21);font-family:AdvTimes;font-size:7.97px;stroke:none;">mRNA in soybean.</text>
   <text y="328.84" x="309.431" svgx:width="0.33" style="fill:rgb(23,22,21);font-family:AdvTimes;font-size:7.97px;stroke:none;">(</text>
   <text y="328.84" x="312.095" svgx:width="0.72" style="fill:rgb(23,22,21);font-family:AdvTimes-b;font-size:7.97px;stroke:none;">A</text>
   <text y="328.84" x="317.821,320.45110000000005,324.057,330.608,335.008,338.076,340.73,345.13,348.613,351.681,356.0645,359.66,364.06,366.212,370.611,373.2411,376.895,380.88,385.28,389.265,391.417,395.402,398.47,400.622,403.6506,407.283,411.683" svgx:width="0.33,0.55,0.82,0.55,0.38,0.33,0.55,0.44,0.38,0.55,0.55,0.55,0.27,0.55,0.33,0.55,0.5,0.55,0.5,0.27,0.5,0.38,0.27,0.38,0.55,0.55,0.33" style="fill:rgb(23,22,21);font-family:AdvTimes;font-size:7.97px;stroke:none;">) Northern blot analysis of</text>
   <text y="328.84" x="417.884,423.607,429.744,435.467,440.281,442.935,449.486,455.623" svgx:width="0.72,0.77,0.72,0.6,0.33,0.82,0.77,0.5" style="fill:rgb(23,22,21);font-family:AdvTimes-i;font-size:7.97px;stroke:none;">GmZF-HD1</text>
   <text y="328.84" x="463.239,467.224,470.707,475.106,478.6128,482.174,485.657,489.642,494.042,497.11,500.593,503.662,506.73,508.882,513.282,517.6655000000001,521.293,523.445,527.8285000000001,531.44,535.426,539.411,542.479,544.631,549.031,553.43" svgx:width="0.5,0.44,0.55,0.44,0.55,0.44,0.5,0.55,0.38,0.44,0.38,0.38,0.27,0.55,0.55,0.55,0.27,0.55,0.55,0.5,0.5,0.38,0.27,0.55,0.55,0.38" style="fill:rgb(23,22,21);font-family:AdvTimes;font-size:7.97px;stroke:none;">gene expression in various</text>
   <text y="337.797" x="309.431,312.499,316.899,320.884,325.283,328.766,332.751,337.1345,342.03,344.684,346.836,349.904,352.973,357.372,360.855,363.924,366.0759,370.943" svgx:width="0.38,0.55,0.5,0.55,0.44,0.5,0.55,0.55,0.33,0.27,0.38,0.38,0.55,0.44,0.38,0.27,0.55,0.33" style="fill:rgb(23,22,21);font-family:AdvTimes;font-size:7.97px;stroke:none;">soybean tissues. (</text>
   <text y="337.797" x="373.608" svgx:width="0.67" style="fill:rgb(23,22,21);font-family:AdvTimes-b;font-size:7.97px;stroke:none;">B</text>
   <text y="337.797" x="378.936,381.5661,386.42,391.728,393.88,400.431,403.914,406.568,410.051,414.451,418.85,421.919,424.987,428.4938,433.418,437.818,440.4481,445.324,448.807,452.792,457.192,460.26,463.743,466.812,469.88,472.032,476.432,480.81550000000004,485.69,490.089,492.7191,497.596,500.25,504.649,508.1558,513.017,519.568,526.12,531.428,536.736,539.39,545.941,552.493" svgx:width="0.33,0.55,0.67,0.27,0.82,0.44,0.33,0.44,0.55,0.55,0.38,0.38,0.44,0.55,0.55,0.33,0.55,0.44,0.5,0.55,0.38,0.44,0.38,0.38,0.27,0.55,0.55,0.55,0.55,0.33,0.55,0.33,0.55,0.44,0.55,0.82,0.82,0.67,0.67,0.33,0.82,0.82,0.5" style="fill:rgb(23,22,21);font-family:AdvTimes;font-size:7.97px;stroke:none;">) Time-course of expression of the GmZF-HD1</text>
   <text y="346.755" x="309.431,312.085,315.153,319.138,323.538,326.606,330.089,333.158,335.31,339.709,342.33910000000003,345.714,349.699,352.353,355.007,358.49,361.5186,364.82,369.219,373.204,375.858,380.258,384.657,388.642,392.125,396.5085,399.856" svgx:width="0.33,0.38,0.5,0.55,0.38,0.44,0.38,0.27,0.55,0.33,0.55,0.5,0.33,0.33,0.44,0.38,0.55,0.55,0.5,0.33,0.55,0.55,0.5,0.44,0.55,0.55,0.33" style="fill:rgb(23,22,21);font-family:AdvTimes;font-size:7.97px;stroke:none;">transcript after pathogen (</text>
   <text y="346.755" x="402.521,407.829,410.898,414.883,417.0349,420.322,424.308,427.791,430.859" svgx:width="0.67,0.38,0.5,0.27,0.55,0.5,0.44,0.38,0.72" style="fill:rgb(23,22,21);font-family:AdvTimes-i;font-size:7.97px;stroke:none;">Psg. avrA</text>
   <text y="346.755" x="436.594,439.2241,442.547,445.201,448.269,451.752,455.737,458.391,464.943,468.426,472.825,475.4551,478.773,480.925,485.30850000000004,488.638,491.707,496.106,500.091,504.491,507.974,511.959,516.3425,519.649,522.718,527.117,530.186,534.586,538.069,542.468,545.537,547.689,552.088" svgx:width="0.33,0.55,0.33,0.38,0.44,0.5,0.33,0.82,0.44,0.55,0.33,0.55,0.27,0.55,0.55,0.38,0.55,0.5,0.55,0.44,0.5,0.55,0.55,0.38,0.55,0.38,0.55,0.44,0.55,0.38,0.27,0.55,0.55" style="fill:rgb(23,22,21);font-family:AdvTimes;font-size:7.97px;stroke:none;">) treatment in soybean suspension</text>
   <text y="355.769" x="309.431,312.914,316.397,318.549,320.701,323.769,325.9209,330.521,335.829,340.228,342.882,346.867,349.01890000000003,353.538,359.675,366.226,372.3629,376.952,379.606,383.591" svgx:width="0.44,0.44,0.27,0.27,0.38,0.27,0.55,0.67,0.55,0.33,0.5,0.27,0.55,0.77,0.82,0.77,0.55,0.33,0.5,0.5" style="fill:rgb(23,22,21);font-family:AdvTimes;font-size:7.97px;stroke:none;">cells. Total RNA (20</text>
   <text y="355.769" x="388.858" svgx:width="0.55" style="fill:rgb(23,22,21);font-family:AdvPi1;font-size:7.97px;stroke:none;">m</text>
   <text y="355.769" x="393.28,397.265,399.8951,404.448,408.848,411.916,415.399,419.799,423.784,426.852,430.335,434.7185,439.315,441.969,445.037,449.437,455.9724,460.518,464.503,468.902,471.054,474.537,478.522,480.6739,485.236,489.635,493.62,498.02,502.419,505.902,510.302,512.956,516.941,519.093,522.1216,526.735,529.389,535.526,539.925,542.077,545.56,549.546,551.698,554.352" svgx:width="0.5,0.33,0.55,0.55,0.38,0.44,0.55,0.5,0.38,0.44,0.55,0.55,0.33,0.38,0.55,0.82,0.55,0.5,0.55,0.27,0.44,0.5,0.27,0.55,0.55,0.5,0.55,0.55,0.44,0.55,0.33,0.5,0.27,0.38,0.55,0.33,0.77,0.55,0.27,0.44,0.5,0.27,0.33,0.27" style="fill:rgb(23,22,21);font-family:AdvTimes;font-size:7.97px;stroke:none;">g) prepared from apical hypocotyls (Apical),</text>
   <text y="364.727" x="309.431,312.914,315.066,319.465,323.865,327.85,331.835,334.489,336.641,341.04,345.02500000000003,352.177,356.577,360.562,364.961,369.361,372.844,377.243,379.898,383.883,386.035,389.0636,396.228,398.882,404.19,406.342,410.741,415.141,419.126,423.111,425.765,427.917,432.317,436.302,438.956,441.10790000000003,448.216,454.767,458.752,461.406,465.806,468.874,472.3808,479.511,483.91,487.895,492.295,496.694,500.177,504.577,507.231,511.216,513.368,516.3966,523.561,526.215,534.098,538.083,540.737,545.136,548.205,551.688,554.342" svgx:width="0.44,0.27,0.55,0.55,0.5,0.5,0.33,0.27,0.55,0.5,0.55,0.55,0.5,0.55,0.55,0.44,0.55,0.33,0.5,0.27,0.38,0.55,0.33,0.67,0.27,0.55,0.55,0.5,0.5,0.33,0.27,0.55,0.5,0.33,0.27,0.55,0.82,0.5,0.33,0.55,0.38,0.44,0.55,0.55,0.5,0.55,0.55,0.44,0.55,0.33,0.5,0.27,0.38,0.55,0.33,0.99,0.5,0.33,0.55,0.38,0.44,0.33,0.27" style="fill:rgb(23,22,21);font-family:AdvTimes;font-size:7.97px;stroke:none;">elongating hypocotyls (Elongating), mature hypocotyls (Mature),</text>
   <text y="373.685" x="309.431,313.83,315.982,320.382,326.933,331.333,333.485,336.968,339.11990000000003,341.859,344.927,348.41,351.893,356.293,358.4449,361.135,364.203,368.603,373.002,375.63210000000004,378.313,382.298,386.698,391.0815,393.79,396.859,401.258,405.243,409.643,413.126,417.111,421.4945,424.178,427.247,431.646,434.715,439.114,442.597,446.997,450.065,452.217,456.617,461.00050000000005,463.75,467.233,470.716,472.868,475.02,478.04859999999996,480.758,483.412,486.48,489.963,493.948,496.602,500.085,504.4685,507.176,512.899,515.051,517.705,522.0885000000001,524.808,529.208,533.193,535.847,540.246,544.646,548.631,552.114" svgx:width="0.55,0.27,0.55,0.82,0.55,0.27,0.44,0.27,0.55,0.38,0.44,0.44,0.55,0.27,0.55,0.38,0.55,0.55,0.33,0.55,0.5,0.55,0.55,0.55,0.38,0.55,0.5,0.55,0.44,0.5,0.55,0.55,0.38,0.55,0.38,0.55,0.44,0.55,0.38,0.27,0.55,0.55,0.55,0.44,0.44,0.27,0.27,0.38,0.55,0.33,0.38,0.44,0.5,0.33,0.44,0.55,0.55,0.72,0.27,0.33,0.55,0.55,0.55,0.5,0.33,0.55,0.55,0.5,0.44,0.55" style="fill:rgb(23,22,21);font-family:AdvTimes;font-size:7.97px;stroke:none;">plumule, seed, root and soybean suspension cells treated with pathogen</text>
   <text y="382.642" x="309.431" svgx:width="0.33" style="fill:rgb(23,22,21);font-family:AdvTimes;font-size:7.97px;stroke:none;">(</text>
   <text y="382.642" x="312.095,317.403,320.472,324.457,326.6089,332.165,336.15,339.633,342.701" svgx:width="0.67,0.38,0.5,0.27,0.55,0.5,0.44,0.38,0.72" style="fill:rgb(23,22,21);font-family:AdvTimes-i;font-size:7.97px;stroke:none;">Psg. avrA</text>
   <text y="382.642" x="348.435,351.06510000000003,356.656,362.378,365.861,368.93,372.4368,377.972,381.04,384.523,388.923,392.908,395.977,399.962,402.616,406.099,410.4825,416.013,420.412,424.7955,430.356,434.341,439.88,443.865,446.017,450.003,457.973,463.522,466.176,470.575,473.644,480.195,484.18,486.332,490.732,494.215,498.614,502.599,506.999,510.482,513.136,517.121,521.106,525.091,528.16,532.559,535.628,539.1348,544.707,548.692,552.175,554.327" svgx:width="0.33,0.55,0.72,0.44,0.38,0.44,0.55,0.38,0.44,0.55,0.5,0.38,0.5,0.33,0.44,0.55,0.55,0.55,0.55,0.55,0.5,0.55,0.5,0.27,0.5,1.0,0.55,0.33,0.55,0.38,0.82,0.5,0.27,0.55,0.44,0.55,0.5,0.55,0.44,0.33,0.5,0.5,0.5,0.38,0.55,0.38,0.44,0.55,0.5,0.44,0.27,0.27" style="fill:rgb(23,22,21);font-family:AdvTimes;font-size:7.97px;stroke:none;">) were separated on a 1.5% formaldehyde/agarose gel,</text>
   <text y="391.6" x="309.431,312.085,315.153,319.138,323.538,326.606,329.26,332.743,335.812,338.88,342.363,346.7465,350.079,354.479,358.878,361.533,365.91650000000004,369.185,373.17,376.442,380.841,384.826,386.978,391.378,395.7615,399.063,405.614,409.097,415.649,420.048,423.117,427.102,431.501,435.0078,438.238,442.223,446.622,451.00550000000004,454.338,458.738,462.723,467.122,470.191,472.343,476.742,478.894,482.377,485.86,490.24350000000004,493.513,499.236,501.388,504.042,508.4255,511.712" svgx:width="0.33,0.38,0.5,0.55,0.38,0.33,0.44,0.38,0.38,0.44,0.55,0.55,0.55,0.55,0.33,0.55,0.55,0.5,0.55,0.55,0.5,0.27,0.55,0.55,0.55,0.82,0.44,0.82,0.55,0.38,0.5,0.55,0.44,0.55,0.5,0.55,0.55,0.55,0.55,0.5,0.55,0.38,0.27,0.55,0.27,0.44,0.44,0.55,0.55,0.72,0.27,0.33,0.55,0.55,0.5" style="fill:rgb(23,22,21);font-family:AdvTimes;font-size:7.97px;stroke:none;">transferred onto a nylon membrane and hybridized with a</text>
   <text y="388.084" x="518.967,521.956" svgx:width="0.5,0.5" style="fill:rgb(23,22,21);font-family:AdvTimes;font-size:5.31px;stroke:none;">32</text>
   <text y="391.599" x="524.976,529.79,532.444,534.596,538.581,542.981,546.464,548.616,552.099" svgx:width="0.6,0.33,0.27,0.5,0.55,0.44,0.27,0.44,0.55" style="fill:rgb(23,22,21);font-family:AdvTimes;font-size:7.97px;stroke:none;">P-labeled</text>
   <text y="400.556" x="309.429,315.152,321.289,327.012,331.826,334.48,341.031,347.168" svgx:width="0.72,0.77,0.72,0.6,0.33,0.82,0.77,0.5" style="fill:rgb(23,22,21);font-family:AdvTimes-i;font-size:7.97px;stroke:none;">GmZF-HD1</text>
   <text y="400.556" x="356.088,359.571,366.122,372.674,378.8109,383.697,388.097,391.165,395.565,399.964,403.447,405.5989,410.456,415.765,420.1485,425.027,429.012,432.495,435.563,437.715,440.369,444.35400000000004,449.235,452.718,457.117,461.517,465.502,467.6539,472.535,474.687,479.087,483.072,487.472,489.623,494.023,498.00800000000004,502.866,507.266,509.89610000000005,514.772,517.426,521.825,524.479,528.465,530.6169,535.521,541.658,548.21,554.347" svgx:width="0.44,0.82,0.82,0.77,0.55,0.55,0.38,0.55,0.55,0.44,0.27,0.55,0.67,0.55,0.55,0.5,0.44,0.38,0.27,0.33,0.5,0.55,0.44,0.55,0.55,0.5,0.27,0.55,0.27,0.55,0.5,0.55,0.27,0.55,0.5,0.55,0.55,0.33,0.55,0.33,0.55,0.33,0.5,0.27,0.55,0.77,0.82,0.77,0.27" style="fill:rgb(23,22,21);font-family:AdvTimes;font-size:7.97px;stroke:none;">cDNA probe. To verify equal loading of total RNA,</text>
   <text y="409.514" x="309.429,312.498,318.635,325.186,331.323,334.35159999999996,337.606,343.328,346.811,349.88,353.3868,356.598,360.583,362.735,365.803,370.203,374.188,376.34,378.492,381.975,385.458,389.84150000000005,393.052,397.451,401.43600000000004,404.617,407.686,410.34,414.325,416.477,420.876,423.028,427.428,431.413,434.665,440.388,442.539,445.194,449.57750000000004,452.75,456.233,458.887,463.287,465.439,469.838,471.99,476.39,482.92539999999997,486.199,490.599,493.667,498.067,504.618,506.77,511.17,514.653" svgx:width="0.38,0.77,0.82,0.77,0.38,0.55,0.72,0.44,0.38,0.44,0.55,0.5,0.27,0.38,0.55,0.5,0.27,0.27,0.44,0.44,0.55,0.55,0.55,0.5,0.55,0.38,0.33,0.5,0.27,0.55,0.27,0.55,0.5,0.55,0.72,0.27,0.33,0.55,0.55,0.44,0.33,0.55,0.27,0.55,0.27,0.55,0.82,0.55,0.55,0.38,0.55,0.82,0.27,0.55,0.44,0.27" style="fill:rgb(23,22,21);font-family:AdvTimes;font-size:7.97px;stroke:none;">rRNAs were visualized by staining with ethidium bromide.</text>
   <text y="44.751" x="42.463,47.444,52.426,57.407" svgx:width="0.5,0.5,0.5,0.5" style="fill:rgb(23,22,21);font-family:AdvTimes-bi;font-size:9.96px;stroke:none;">3618</text>
   <text y="44.751" x="72.34,80.165,85.246,89.686,92.43,96.871,99.615,104.08539999999999,106.129,113.426,117.866,120.61,125.691,129.55180000000001,131.641,138.937,143.378,147.29,151.731,156.812,160.724,165.165,170.246,172.9892,175.068,180.149,185.23,190.311,195.392,198.1352,200.183,207.479,212.56,215.304,218.0472,220.082,225.163,230.244,232.9872,235.048,242.873,247.954,250.6972,252.736,257.817" svgx:width="0.77,0.5,0.44,0.27,0.44,0.27,0.44,0.55,0.72,0.44,0.27,0.5,0.38,0.55,0.72,0.44,0.38,0.44,0.5,0.38,0.44,0.5,0.27,0.55,0.5,0.5,0.5,0.5,0.27,0.55,0.72,0.5,0.27,0.27,0.55,0.5,0.5,0.27,0.55,0.77,0.5,0.27,0.55,0.5,0.5" style="fill:rgb(23,22,21);font-family:AdvTimes-i;font-size:10.16px;stroke:none;">Nucleic Acids Research, 2007, Vol. 35, No. 11</text>
  </g>
 </g>
</svg>
