<?xml version="1.0" encoding="UTF-8"?>
<svg height="747.373" width="4338.309" xmlns="http://www.w3.org/2000/svg">
 <g id="page" xmlns:svgx="http://www.xml-cml.org/schema/svgx">
  <g begin="text">
   <text y="519.214" x="55.786,60.767,64.603,68.438,73.42,78.4,81.24,86.74,90.575,93.265,98.764,103.744,106.582,110.936,115.917,120.271,125.749,128.635,136.825,142.324,145.641,150.623,153.94,158.294,163.77200000000002,166.619,174.808,182.997,190.6662,193.491,197.326,201.68,207.179,212.679,217.032,222.532,226.885,231.26739999999998,234.139,239.121,242.9058,245.762,250.742,253.585,257.939,263.438,271.628,277.127,281.481,284.798,287.488,290.806,296.305,300.14" svgx:width="0.5,0.38,0.38,0.5,0.5,0.55,0.55,0.38,0.27,0.55,0.5,0.55,0.44,0.5,0.44,0.55,0.55,0.82,0.55,0.33,0.5,0.33,0.44,0.55,0.55,0.82,0.82,0.77,0.55,0.38,0.44,0.55,0.55,0.44,0.55,0.44,0.44,0.55,0.5,0.38,0.55,0.5,0.55,0.44,0.55,0.82,0.55,0.44,0.33,0.27,0.33,0.55,0.38,0.27" style="fill:rgb(23,22,21);font-family:AdvTimes;font-size:9.96px;stroke:none;">assay using each mutated DNA sequence as a competitor.</text>
   <text y="530.27" x="55.786,63.455200000000005,70.072,75.053,80.035,85.016,88.334,91.651,97.151,99.84,105.318,111.911,120.1,125.6,128.29,133.271,137.05579999999998,143.716,148.069,153.051,157.404,161.758,165.594,169.37879999999998,176.03,181.53,184.8168,191.45,201.303,206.285,208.9742,215.545,225.398,230.378,236.975,242.474,246.25879999999998,252.905,262.758,267.738,274.334,279.316,282.005,290.195,295.694,299.53" svgx:width="0.77,0.55,0.5,0.5,0.5,0.33,0.33,0.55,0.27,0.55,0.55,0.82,0.55,0.27,0.5,0.38,0.55,0.44,0.5,0.44,0.44,0.38,0.38,0.55,0.55,0.33,0.55,0.99,0.5,0.27,0.55,0.99,0.5,0.55,0.55,0.38,0.55,0.99,0.5,0.55,0.5,0.27,0.82,0.55,0.38,0.33" style="fill:rgb(23,22,21);font-family:AdvTimes;font-size:9.96px;stroke:none;">A 200-fold molar excess of M3, M5 or M6 almost</text>
   <text y="541.325" x="55.786,60.139,65.639,73.828,79.327,82.017,86.371,89.689,94.042,96.732,101.712,104.258,106.948,112.447,117.946,120.636,126.136,128.826,132.143,136.497,141.97500000000002,144.509,150.008,152.698,158.197,163.697,166.387,171.886,176.86599999999999,179.375,182.692,188.17000000000002,190.713,194.031,199.53,203.9124,206.361,211.342,216.323,219.641,225.14,228.4268,230.965,234.801,239.154,244.654,250.153,254.507,260.006,264.36,268.713,271.40220000000005,273.881,277.717,280.407,288.596,291.286,293.976,298.957" svgx:width="0.44,0.55,0.82,0.55,0.27,0.44,0.33,0.44,0.27,0.5,0.55,0.27,0.55,0.55,0.27,0.55,0.27,0.33,0.44,0.55,0.55,0.55,0.27,0.55,0.55,0.27,0.55,0.5,0.55,0.33,0.55,0.55,0.33,0.55,0.44,0.55,0.5,0.5,0.33,0.55,0.33,0.55,0.38,0.44,0.55,0.55,0.44,0.55,0.44,0.44,0.27,0.55,0.38,0.27,0.82,0.27,0.27,0.5,0.38" style="fill:rgb(23,22,21);font-family:AdvTimes;font-size:9.96px;stroke:none;">completely inhibited binding to the 30-nt sequence, similar</text>
   <text y="552.381" x="55.786,59.103,64.581,70.186,73.503,79.003,83.3854,89.007,91.697,97.196,102.696,105.386,110.885,113.575,116.892,119.582,125.082,130.56,136.232,140.585,146.085,151.584,154.902,159.255,163.091,166.927,171.28,176.758,182.38,187.879,192.85899999999998,198.48,201.798,207.297,211.6794,217.246,224.399,227.089,229.779,235.278,238.596,241.913,246.894,252.394,256.7764,262.372,266.208,270.562,276.061,281.56,285.914,291.413,295.767,300.121" svgx:width="0.33,0.55,0.55,0.33,0.55,0.44,0.55,0.27,0.55,0.55,0.27,0.55,0.27,0.33,0.27,0.55,0.55,0.55,0.44,0.55,0.55,0.33,0.44,0.38,0.38,0.44,0.55,0.55,0.55,0.5,0.55,0.33,0.55,0.44,0.55,0.72,0.27,0.27,0.55,0.33,0.33,0.5,0.55,0.44,0.55,0.38,0.44,0.55,0.55,0.44,0.55,0.44,0.44,0.27" style="fill:rgb(23,22,21);font-family:AdvTimes;font-size:9.96px;stroke:none;">to the inhibition conferred by the wild-type sequence.</text>
   <text y="563.436" x="55.786,63.457,68.935,72.737,76.055,81.554,85.9364,89.745,95.245,98.562,104.062,108.415,112.19980000000001,116.051,121.55,126.531,132.031,137.53,140.2192,144.0,153.853,158.834,161.5232,165.316,175.169,180.149,183.968,188.949,194.448,199.92600000000002,203.697,213.55,218.53,222.348,227.33,231.1148,234.934,239.288,244.787,252.976,258.476,262.829,266.147,268.837,272.154,277.654,281.489,285.2738,289.189,294.688,297.378" svgx:width="0.77,0.55,0.55,0.33,0.55,0.44,0.55,0.55,0.33,0.55,0.44,0.38,0.55,0.55,0.5,0.55,0.55,0.27,0.55,0.99,0.5,0.27,0.55,0.99,0.5,0.55,0.5,0.55,0.55,0.55,0.99,0.5,0.55,0.5,0.38,0.55,0.44,0.55,0.82,0.55,0.44,0.33,0.27,0.33,0.55,0.38,0.38,0.55,0.55,0.27,0.55" style="fill:rgb(23,22,21);font-family:AdvTimes;font-size:9.96px;stroke:none;">On the other hand, M1, M2 and M4 as competitors did</text>
   <text y="574.548" x="55.786,61.285,66.785,70.0718,76.535,81.516,87.534,91.887,96.241,99.5278,106.015,109.333,114.832,119.2144,125.631,128.948,134.447,138.283,146.472,151.454,154.771,157.461,162.96,168.43800000000002,174.896,180.395,183.6818,190.146,198.336,206.525,214.196,219.177,224.677,228.512,234.012,237.329,241.683,244.373,249.851,256.363,260.716,266.216,274.405,279.904,282.594,286.948,291.929,296.283,300.119" svgx:width="0.55,0.55,0.33,0.55,0.5,0.6,0.44,0.44,0.33,0.55,0.33,0.55,0.44,0.55,0.33,0.55,0.38,0.82,0.5,0.33,0.27,0.55,0.55,0.55,0.55,0.33,0.55,0.82,0.82,0.77,0.5,0.55,0.38,0.55,0.33,0.44,0.27,0.55,0.55,0.44,0.55,0.82,0.55,0.27,0.44,0.5,0.44,0.38,0.27" style="fill:rgb(23,22,21);font-family:AdvTimes;font-size:9.96px;stroke:none;">not aﬀect the formation of DNA–protein complexes,</text>
   <text y="585.604" x="55.786,62.939,68.438,71.128,75.482,80.96,88.327,95.48,99.833,103.669,108.0514,115.369,119.205,121.895,130.084,132.774,135.464,140.445,144.22979999999998,151.595,154.913,160.39100000000002,167.752,171.07,176.569,182.069,185.904,190.2864,197.573,203.072,208.571,212.407,216.76,220.596,225.577,229.931,235.40900000000002,242.756,245.446,250.924,258.29,261.607,267.106,271.4884,278.756,286.945,295.134" svgx:width="0.72,0.55,0.27,0.44,0.55,0.55,0.72,0.44,0.38,0.44,0.55,0.38,0.27,0.82,0.27,0.27,0.5,0.38,0.55,0.33,0.55,0.55,0.33,0.55,0.55,0.38,0.44,0.55,0.55,0.55,0.38,0.44,0.38,0.5,0.44,0.55,0.55,0.27,0.55,0.55,0.33,0.55,0.44,0.55,0.82,0.82,0.77" style="fill:rgb(23,22,21);font-family:AdvTimes;font-size:9.96px;stroke:none;">which were similar to those observed in the DNA</text>
   <text y="596.659" x="55.786,61.285,63.975,69.474,74.974,77.664,83.163,88.143,91.729,96.71,100.546,104.381,109.363,114.343,117.921,121.238,127.873,130.563,135.544,141.044,144.879,149.26139999999998,152.842,157.824,164.977,168.294,170.9832,174.556,181.191,186.69,191.044,194.88,199.26239999999999,202.846,206.681,211.035,214.871,220.37,223.06,226.377,230.1618,233.8,237.635,240.953,244.788,250.288,255.787,260.768,263.458,268.43800000000005,272.067,275.902,281.402,286.383,291.364,295.718,299.554" svgx:width="0.55,0.27,0.55,0.55,0.27,0.55,0.5,0.55,0.5,0.38,0.38,0.5,0.5,0.55,0.33,0.67,0.27,0.5,0.55,0.38,0.44,0.55,0.5,0.72,0.33,0.27,0.55,0.67,0.55,0.44,0.38,0.44,0.55,0.38,0.44,0.38,0.55,0.27,0.33,0.38,0.55,0.38,0.33,0.38,0.55,0.55,0.5,0.27,0.5,0.55,0.38,0.55,0.5,0.5,0.44,0.38,0.33" style="fill:rgb(23,22,21);font-family:AdvTimes;font-size:9.96px;stroke:none;">binding assay (Figure 7C). These results strongly suggest</text>
   <text y="607.715" x="55.786,59.103,64.603,69.584,72.8708,76.705,84.895,93.084,99.719,106.354,109.672,117.861,126.05,131.03,134.871,140.37,143.06,148.56,154.059,157.8438,161.686,164.376,169.854,173.648,178.628,182.379,186.214,190.568,196.067,201.567,205.92,211.42,215.773,220.127,223.444,227.28,232.779,237.133,241.487,244.177,249.676,254.05839999999998,257.892,266.081,271.063,276.562,282.061,286.415,290.19980000000004,294.061,297.379" svgx:width="0.33,0.55,0.5,0.33,0.55,0.82,0.82,0.67,0.67,0.33,0.82,0.82,0.5,0.55,0.55,0.27,0.55,0.55,0.38,0.55,0.27,0.55,0.55,0.5,0.55,0.38,0.44,0.55,0.55,0.44,0.55,0.44,0.44,0.33,0.38,0.55,0.44,0.44,0.27,0.55,0.44,0.55,0.82,0.5,0.55,0.55,0.44,0.38,0.55,0.33,0.55" style="fill:rgb(23,22,21);font-family:AdvTimes;font-size:9.96px;stroke:none;">that GmZF-HD1 binds in a sequence-speciﬁc manner to</text>
   <text y="618.771" x="55.786,59.103,64.603" svgx:width="0.33,0.55,0.44" style="fill:rgb(23,22,21);font-family:AdvTimes;font-size:9.96px;stroke:none;">the</text>
   <text y="618.771" x="75.515,82.668,90.339,97.492,102.474,112.327" svgx:width="0.72,0.77,0.72,0.5,0.99,0.5" style="fill:rgb(23,22,21);font-family:AdvTimes-i;font-size:9.96px;stroke:none;">GmCaM4</text>
   <text y="618.771" x="123.873,129.373,133.208,138.708,146.897,152.396,155.714,160.067,163.8518,170.474,175.456,180.955,186.43300000000002,193.038,196.355,201.854,206.836,210.1228,216.678,219.995,225.495,229.8774,236.407,241.388,246.369,249.687,255.186,258.4728,265.093,268.929,273.282,278.782,284.281,288.635,294.134,298.488" svgx:width="0.55,0.38,0.55,0.82,0.55,0.33,0.44,0.38,0.55,0.5,0.55,0.55,0.55,0.33,0.55,0.5,0.33,0.55,0.33,0.55,0.44,0.55,0.5,0.5,0.33,0.55,0.33,0.55,0.38,0.44,0.55,0.55,0.44,0.55,0.44,0.44" style="fill:rgb(23,22,21);font-family:AdvTimes;font-size:9.96px;stroke:none;">promoter and that the 20-nt sequence</text>
   <text y="629.882" x="55.786,63.457,71.646,78.281" svgx:width="0.77,0.82,0.67,0.77" style="fill:rgb(23,22,21);font-family:AdvTimes;font-size:9.96px;stroke:none;">AGTA</text>
   <text y="629.882" x="86.003,93.157,99.792,106.427" svgx:width="0.72,0.67,0.67,0.72" style="fill:rgb(23,22,21);font-family:AdvTimes-b;font-size:9.96px;stroke:none;">ATTA</text>
   <text y="629.882" x="113.613,121.284,128.955,137.144,145.334,153.523,161.712,169.901" svgx:width="0.77,0.77,0.82,0.82,0.82,0.82,0.82,0.77" style="fill:rgb(23,22,21);font-family:AdvTimes;font-size:9.96px;stroke:none;">AANNNNNA</text>
   <text y="629.882" x="177.618,184.772,191.407,198.042" svgx:width="0.72,0.67,0.67,0.72" style="fill:rgb(23,22,21);font-family:AdvTimes-b;font-size:9.96px;stroke:none;">ATTA</text>
   <text y="629.882" x="207.893,212.246,217.746,223.245,226.563,231.544,234.234,239.733,242.423,247.923,252.903,255.571,258.888,266.041,271.519,274.223,281.894,288.529,295.164" svgx:width="0.44,0.55,0.55,0.33,0.5,0.27,0.55,0.27,0.55,0.5,0.55,0.33,0.72,0.55,0.55,0.77,0.67,0.67,0.77" style="fill:rgb(23,22,21);font-family:AdvTimes;font-size:9.96px;stroke:none;">containing two ATTA</text>
   <text y="640.937" x="55.787,59.622,63.976,69.475,73.829,78.81,82.128,85.9128,89.859,98.048,103.029,108.009,111.855,117.355,121.73740000000001,125.575,130.555,134.419,139.918,145.417,148.735,153.716,157.034,159.724,164.705,169.0874,172.969,177.323,182.822,186.658" svgx:width="0.38,0.44,0.55,0.44,0.5,0.33,0.38,0.55,0.82,0.5,0.5,0.55,0.55,0.44,0.55,0.5,0.55,0.55,0.55,0.33,0.5,0.33,0.27,0.5,0.44,0.55,0.44,0.55,0.38,0.44" style="fill:rgb(23,22,21);font-family:AdvTimes;font-size:9.96px;stroke:none;">repeats may be a putative core</text>
   <text y="640.937" x="194.854,199.207,201.897" svgx:width="0.44,0.27,0.38" style="fill:rgb(23,22,21);font-family:AdvTimes-i;font-size:9.96px;stroke:none;">cis</text>
   <text y="640.937" x="205.796,209.113,214.095,218.448,221.766,224.456,229.955,234.935,238.791,243.144,245.834,250.188,258.377,262.731,268.23,271.51680000000005,275.47,278.16,283.63800000000003,287.489,290.807,296.306,298.996" svgx:width="0.33,0.5,0.44,0.33,0.27,0.55,0.5,0.55,0.44,0.27,0.44,0.82,0.44,0.55,0.33,0.55,0.27,0.55,0.55,0.33,0.55,0.27,0.38" style="fill:rgb(23,22,21);font-family:AdvTimes;font-size:9.96px;stroke:none;">-acting element in this</text>
   <text y="651.993" x="55.787,61.286,65.122,70.621,78.81,84.31,87.627,91.981,95.817" svgx:width="0.55,0.38,0.55,0.82,0.55,0.33,0.44,0.38,0.27" style="fill:rgb(23,22,21);font-family:AdvTimes;font-size:9.96px;stroke:none;">promoter.</text>
   <text y="677.107" x="55.787,63.458,71.129,78.282,84.3,87.617,95.807,103.478,108.458,110.494,115.476,119.829,123.147,125.837,130.19,134.544,137.234,142.214,144.226,147.543,152.525,157.506,161.86,165.177,167.867,172.848,177.83,181.6148,183.684,188.665,192.44979999999998,194.512,199.492,201.485,204.802,208.638,213.619,218.601,222.436,226.79,230.625,233.315,238.297,241.614,244.304,249.285,254.267,259.248,261.9372,263.959,267.795,272.148,277.13,282.111,284.801,289.782,293.1,298.081" svgx:width="0.77,0.77,0.72,0.6,0.33,0.82,0.77,0.5,0.55,0.5,0.44,0.33,0.27,0.44,0.44,0.27,0.5,0.55,0.33,0.5,0.5,0.44,0.33,0.27,0.5,0.5,0.38,0.55,0.5,0.38,0.55,0.5,0.55,0.33,0.38,0.5,0.5,0.38,0.44,0.38,0.27,0.5,0.33,0.27,0.5,0.5,0.5,0.27,0.55,0.38,0.44,0.5,0.5,0.27,0.5,0.33,0.5,0.38" style="fill:rgb(23,22,21);font-family:AdvTimes-b;font-size:9.96px;stroke:none;">GmZF-HD1 actively functions as a transcriptional regulator</text>
   <text y="688.049" x="55.787,58.477,63.458,67.812,72.793,75.483,79.837,84.19,89.17,91.22,93.91,98.89,100.858,105.839,110.82,114.138,119.119,124.1,129.082,133.435,138.417,141.734,144.424,149.405,154.387,159.368,163.722,168.075,173.05499999999998,175.067,180.048,184.402,189.383,193.7654,195.759,200.113,205.612,210.594,214.429,218.783,222.618,226.454,229.144,234.125" svgx:width="0.27,0.5,0.44,0.5,0.27,0.44,0.44,0.5,0.55,0.27,0.5,0.55,0.5,0.5,0.33,0.5,0.5,0.5,0.44,0.5,0.33,0.27,0.5,0.5,0.5,0.44,0.44,0.5,0.55,0.5,0.44,0.5,0.44,0.55,0.44,0.55,0.5,0.38,0.44,0.38,0.38,0.27,0.5,0.5" style="fill:rgb(23,22,21);font-family:AdvTimes-b;font-size:9.96px;stroke:none;">involved in pathogen-induced gene expression</text>
   <text y="688.049" x="241.115,243.805,248.785,250.81,255.163,257.853,262.207" svgx:width="0.27,0.5,0.55,0.44,0.27,0.44,0.5" style="fill:rgb(23,22,21);font-family:AdvTimes-bi;font-size:9.96px;stroke:none;">in vivo</text>
   <text y="704.207" x="55.787,62.422,67.89999999999999,71.944,76.298,81.797,87.297,92.796,96.631,104.7982,108.907,112.225,117.724,122.706,125.9928,130.054,138.243,146.432,153.068,159.703,163.02,171.209,179.399,184.379,188.447,191.137,194.9218,199.048,204.029,209.507,213.561,218.543,222.896,226.214,228.904,233.885,238.26739999999998,242.248,246.601,252.101,260.29,265.789,271.289,276.788,281.142,286.641,289.92780000000005,294.064,299.564" svgx:width="0.67,0.55,0.55,0.44,0.55,0.55,0.55,0.38,0.82,0.55,0.33,0.55,0.5,0.33,0.55,0.82,0.82,0.67,0.67,0.33,0.82,0.82,0.5,0.55,0.27,0.38,0.55,0.5,0.55,0.55,0.5,0.44,0.33,0.27,0.5,0.44,0.55,0.44,0.55,0.82,0.55,0.55,0.55,0.44,0.55,0.33,0.55,0.55,0.33" style="fill:rgb(23,22,21);font-family:AdvTimes;font-size:9.96px;stroke:none;">To conﬁrm that GmZF-HD1 is an active component of</text>
   <text y="715.262" x="55.787,59.104,64.604,68.9864,74.892,80.391,84.227,89.726,93.044,97.398,100.087,105.587,108.904,117.094,125.283,132.9522,138.898,143.251,148.751,156.94,162.439,165.129,169.483,174.463,180.34,185.84,191.339,195.174,199.528,203.364,208.345,212.699,218.17700000000002,224.164,226.854,232.33200000000002,238.224,244.859,254.712,260.211,267.8802,273.826,278.18,283.161,288.661,293.014,296.85,299.54" svgx:width="0.33,0.55,0.44,0.55,0.55,0.38,0.55,0.33,0.44,0.27,0.55,0.33,0.82,0.82,0.77,0.55,0.44,0.55,0.82,0.55,0.27,0.44,0.5,0.55,0.55,0.55,0.38,0.44,0.38,0.5,0.44,0.55,0.55,0.27,0.55,0.55,0.67,0.99,0.55,0.77,0.55,0.44,0.5,0.55,0.44,0.38,0.27,0.33" style="fill:rgb(23,22,21);font-family:AdvTimes;font-size:9.96px;stroke:none;">the protein-DNA complex observed in EMSA experi-</text>
   <text y="726.318" x="55.787,63.976,68.33,73.829,77.147,80.93180000000001,84.303,91.456,94.146,97.463,102.94099999999999,106.242,109.56,115.059,119.4414,122.683,127.664,132.645,135.963,141.462,144.7488,148.08,151.916,156.27,161.769,167.268,171.622,177.121,181.475,185.85739999999998,189.125,194.625,197.9118,201.258,204.575,210.075" svgx:width="0.82,0.44,0.55,0.33,0.38,0.55,0.72,0.27,0.33,0.55,0.55,0.33,0.55,0.44,0.55,0.5,0.5,0.33,0.55,0.33,0.55,0.38,0.44,0.55,0.55,0.44,0.55,0.44,0.44,0.55,0.55,0.33,0.55,0.33,0.55,0.44" style="fill:rgb(23,22,21);font-family:AdvTimes;font-size:9.96px;stroke:none;">ments with the 30-nt sequence of the</text>
   <text y="726.318" x="217.701,224.854,232.525,239.678,244.66,254.513" svgx:width="0.72,0.77,0.72,0.5,0.99,0.5" style="fill:rgb(23,22,21);font-family:AdvTimes-i;font-size:9.96px;stroke:none;">GmCaM4</text>
   <text y="726.318" x="262.829,268.328,272.164,277.663,285.852,291.352,294.669,299.023" svgx:width="0.55,0.38,0.55,0.82,0.55,0.33,0.44,0.38" style="fill:rgb(23,22,21);font-family:AdvTimes;font-size:9.96px;stroke:none;">promoter</text>
   <text y="737.373" x="55.787,60.768,66.267,71.74499999999999,79.484,84.983,90.483,94.836,97.526,101.88,106.861,110.64580000000001,118.488,122.842,127.823,131.141,134.976,139.958,144.311,147.629,151.41379999999998,159.194,162.511,166.347,171.846,180.0132,187.823,193.322,198.304,201.621,207.121,212.62,217.601,221.955,227.454,230.772,234.089,237.925,242.279,247.26,250.578,254.931,260.409,268.212,272.048,277.547,282.529,288.028,292.382,297.363" svgx:width="0.5,0.55,0.55,0.55,0.55,0.55,0.44,0.27,0.44,0.5,0.38,0.55,0.44,0.5,0.33,0.38,0.5,0.44,0.33,0.38,0.55,0.33,0.38,0.55,0.82,0.55,0.55,0.5,0.33,0.55,0.55,0.5,0.44,0.55,0.33,0.33,0.38,0.44,0.5,0.33,0.44,0.55,0.55,0.38,0.55,0.5,0.55,0.44,0.5,0.55" style="fill:rgb(23,22,21);font-family:AdvTimes;font-size:9.96px;stroke:none;">and nuclear extracts from pathogen-treated soybean</text>
   <text y="535.15" x="322.809,326.645,332.144,335.98,341.479,345.833,351.332,355.168,357.858,363.357,368.83500000000004,373.889,378.242,382.596,385.286,387.976,391.811,394.5002,399.514,406.667,411.0494,416.011,419.846,424.827,427.517,431.353,435.707,441.185,446.227,451.208,456.708,460.025,462.715,466.033,474.222,482.411,489.046,495.682,498.999,507.188,515.378,520.3580000000001,525.426,530.925,536.425,539.114,544.096,548.449,551.139,556.639,562.138,567.119" svgx:width="0.38,0.55,0.38,0.55,0.44,0.55,0.38,0.27,0.55,0.55,0.55,0.44,0.44,0.27,0.27,0.38,0.27,0.55,0.72,0.44,0.55,0.38,0.5,0.27,0.38,0.44,0.55,0.55,0.5,0.55,0.33,0.27,0.33,0.82,0.82,0.67,0.67,0.33,0.82,0.82,0.5,0.55,0.55,0.55,0.27,0.5,0.44,0.27,0.55,0.55,0.5,0.27" style="fill:rgb(23,22,21);font-family:AdvTimes;font-size:9.96px;stroke:none;">suspension cells, we raised anti-GmZF-HD1 polyclonal</text>
   <text y="546.318" x="322.809,327.791,333.29,336.608,339.297,344.797,350.296,355.796,358.485,362.839,366.6238,370.091,375.072,380.053,385.035,387.725,393.224,397.06,400.34680000000003,403.822,407.14,412.639,417.0214,420.433,425.414,433.603,439.103,441.793,445.11,450.092,453.409,458.908,464.408,468.243,470.933,476.433,480.786,486.264,489.768,497.957,503.456,510.091,512.781,515.471,523.66,531.85,538.485,545.12,548.437,556.627,564.816" svgx:width="0.5,0.55,0.33,0.27,0.55,0.55,0.55,0.27,0.44,0.38,0.55,0.5,0.5,0.5,0.27,0.55,0.38,0.33,0.55,0.33,0.55,0.44,0.55,0.5,0.82,0.55,0.27,0.33,0.5,0.33,0.55,0.55,0.38,0.27,0.55,0.44,0.55,0.55,0.82,0.55,0.67,0.27,0.27,0.82,0.82,0.67,0.67,0.33,0.82,0.82,0.5" style="fill:rgb(23,22,21);font-family:AdvTimes;font-size:9.96px;stroke:none;">antibodies against the aﬃnity-puriﬁed GST::GmZF-HD1</text>
   <text y="557.543" x="322.809,326.127,331.626,335.462,338.152,343.651,349.129,354.047,359.546,363.382,368.881,372.199,376.553,379.243,384.742,387.43120000000005,392.371,402.224,406.6064,411.477,416.976,420.812,425.165,430.64300000000003,435.514,438.832,444.331,448.685,452.521,456.90340000000003,461.82,466.801,472.3,475.618,478.308,483.807,489.306,494.806,497.496,501.849,505.6338,510.575,513.892,519.391,523.1758,528.15,531.985,537.484,542.984,547.337,551.173,555.009,560.508,563.198,566.515" svgx:width="0.33,0.55,0.38,0.27,0.55,0.55,0.55,0.55,0.38,0.55,0.33,0.44,0.27,0.55,0.27,0.55,0.99,0.44,0.55,0.55,0.38,0.44,0.55,0.55,0.33,0.55,0.44,0.38,0.44,0.55,0.5,0.55,0.33,0.27,0.55,0.55,0.55,0.27,0.44,0.38,0.55,0.33,0.55,0.38,0.55,0.38,0.55,0.55,0.44,0.38,0.38,0.55,0.27,0.33,0.33" style="fill:rgb(23,22,21);font-family:AdvTimes;font-size:9.96px;stroke:none;">fusion protein. We used these antibodies for supershift</text>
   <text y="568.768" x="322.809,327.791,331.626,335.462,340.443,345.424,349.2088,355.691,359.008,364.508,369.489,373.843,377.16,382.66,387.013,390.7978,397.303,404.456,407.146,410.463,415.94100000000003,422.474,427.974,433.473,437.827,440.517,444.87,449.851,453.6358,460.118,464.472,469.453,472.77,476.606,481.587,485.941,489.259,493.04380000000003,499.576,502.893,506.729,512.228,520.3951999999999,526.901,532.401,537.382,540.699,546.199,551.698,556.679,561.033,566.532" svgx:width="0.5,0.38,0.38,0.5,0.5,0.38,0.55,0.33,0.55,0.5,0.44,0.33,0.55,0.44,0.38,0.55,0.72,0.27,0.33,0.55,0.55,0.55,0.55,0.44,0.27,0.44,0.5,0.38,0.55,0.44,0.5,0.33,0.38,0.5,0.44,0.33,0.38,0.55,0.33,0.38,0.55,0.82,0.55,0.55,0.5,0.33,0.55,0.55,0.5,0.44,0.55,0.33" style="fill:rgb(23,22,21);font-family:AdvTimes;font-size:9.96px;stroke:none;">assays together with nuclear extracts from pathogen-</text>
   <text y="579.993" x="322.809,326.127,329.963,334.316,339.297,342.615,346.969,352.447,355.861,360.215,364.569,367.259,369.948,373.7328,377.177,380.495,387.13,389.82,394.801,400.301,404.136,408.51840000000004,411.93,416.911,424.582,427.9,430.5892,433.983,440.618,446.118,450.5004,453.882,457.718,463.217,467.571,471.925,474.615,480.114,484.468,487.158,490.475,495.45500000000004,498.84,504.339,507.6258,511.085,514.402,519.902,524.2844,527.638,532.62,538.119,541.437,544.127,547.962,552.316,556.151,561.651" svgx:width="0.33,0.38,0.44,0.5,0.33,0.44,0.55,0.55,0.44,0.44,0.27,0.27,0.38,0.55,0.33,0.67,0.27,0.5,0.55,0.38,0.44,0.55,0.5,0.77,0.33,0.27,0.55,0.67,0.55,0.44,0.55,0.38,0.55,0.44,0.44,0.27,0.55,0.44,0.27,0.33,0.5,0.55,0.55,0.33,0.55,0.33,0.55,0.44,0.55,0.5,0.55,0.33,0.27,0.38,0.44,0.38,0.55,0.82" style="fill:rgb(23,22,21);font-family:AdvTimes;font-size:9.96px;stroke:none;">treated cells (Figure 8A). The speciﬁcity of the antiserum</text>
   <text y="591.161" x="322.809,329.963,334.944,338.72880000000004,345.373,349.726,355.226,360.725,366.224,370.06,378.249,382.603,388.081,394.695,400.194,405.17400000000004,411.76,418.913,423.266,427.102,430.419,434.773,438.609,444.087,450.707,455.689,461.188,466.169,468.859,473.84,477.676,480.366,484.1508,490.846,497.999,500.689,504.006,509.484,516.131,519.966,524.32,528.674,534.173,542.362,547.862,550.551,556.051,561.032,566.531" svgx:width="0.72,0.5,0.38,0.55,0.44,0.55,0.55,0.55,0.38,0.82,0.44,0.55,0.55,0.55,0.5,0.55,0.72,0.44,0.38,0.33,0.44,0.38,0.55,0.55,0.5,0.55,0.5,0.27,0.5,0.38,0.27,0.38,0.55,0.72,0.27,0.33,0.55,0.55,0.38,0.44,0.44,0.55,0.82,0.55,0.27,0.55,0.5,0.55,0.33" style="fill:rgb(23,22,21);font-family:AdvTimes;font-size:9.96px;stroke:none;">was conﬁrmed by western analysis with recombinant</text>
   <text y="602.386" x="322.809,330.999,336.498,343.133,345.823,348.513,356.702,364.891,371.527,378.162,381.479,389.668,397.858,402.838,405.353,410.852,414.688,420.187,423.504,427.858,430.548,436.047,439.83180000000004,442.373,447.354,452.853,458.331,460.797,464.115,469.614,472.932,477.913,480.60220000000004,483.078,488.059,493.558,499.036,501.503,507.002,512.501,516.855,519.545,523.898,528.88,532.6648,535.178,539.014,544.513,549.494,554.994,559.347,564.329" svgx:width="0.82,0.55,0.67,0.27,0.27,0.82,0.82,0.67,0.67,0.33,0.82,0.82,0.5,0.55,0.55,0.38,0.55,0.33,0.44,0.27,0.55,0.38,0.55,0.5,0.55,0.55,0.55,0.33,0.55,0.33,0.5,0.27,0.55,0.5,0.55,0.55,0.55,0.55,0.55,0.44,0.27,0.44,0.5,0.38,0.55,0.38,0.55,0.5,0.55,0.44,0.5,0.55" style="fill:rgb(23,22,21);font-family:AdvTimes;font-size:9.96px;stroke:none;">GST::GmZF-HD1 proteins and total and nuclear soybean</text>
   <text y="613.611" x="322.809,328.309,332.144,337.644,340.961,345.315,348.005,353.504,357.34,360.0292,362.834,369.469,374.969,379.3514,382.167,387.148,392.647,395.965,398.655,402.49,406.844,410.68,416.179,424.34619999999995,427.236,431.072,436.571,442.071,449.224,453.578,459.056,461.875,467.375,472.853,475.708,480.062,483.898,489.397,493.233,497.068,500.386,504.221,508.575,513.556,517.91,521.228,523.918,528.899,531.589,534.906,539.886,542.775,546.092,551.5699999999999,554.397,559.378,564.878" svgx:width="0.55,0.38,0.55,0.33,0.44,0.27,0.55,0.38,0.27,0.55,0.67,0.55,0.44,0.55,0.5,0.55,0.33,0.27,0.38,0.44,0.38,0.55,0.82,0.55,0.38,0.55,0.55,0.72,0.44,0.55,0.55,0.55,0.55,0.55,0.44,0.38,0.55,0.38,0.38,0.33,0.38,0.44,0.5,0.44,0.33,0.27,0.5,0.27,0.33,0.5,0.55,0.33,0.55,0.55,0.5,0.55,0.5" style="fill:rgb(23,22,21);font-family:AdvTimes;font-size:9.96px;stroke:none;">proteins. The antiserum showed no cross-reactivity to any</text>
   <text y="624.779" x="322.809,328.309,331.626,337.126,341.479,345.2638,348.434,353.934,357.769,363.269,366.586,370.94,373.63,379.129,382.91380000000004,386.078,391.577,395.931,399.767,402.456,407.438,411.791,417.269,420.433,423.751,427.586,433.085,441.25219999999996,444.414,447.732,453.231,456.548,461.53,464.2192,467.318,472.817,477.799,482.152,485.47,489.823,493.659,496.349,501.33,504.0192,507.172,511.526,515.88,518.57,521.2592000000001,524.407,528.76,533.742,537.059,540.895,545.876,550.23,553.547,557.3318,560.519,566.018" svgx:width="0.55,0.33,0.55,0.44,0.38,0.55,0.55,0.38,0.55,0.33,0.44,0.27,0.55,0.38,0.55,0.55,0.44,0.38,0.27,0.5,0.44,0.55,0.55,0.33,0.38,0.55,0.82,0.55,0.33,0.55,0.33,0.5,0.27,0.55,0.55,0.5,0.44,0.33,0.44,0.38,0.27,0.5,0.27,0.55,0.44,0.44,0.27,0.27,0.55,0.44,0.5,0.33,0.38,0.5,0.44,0.33,0.38,0.55,0.55,0.38" style="fill:rgb(23,22,21);font-family:AdvTimes;font-size:9.96px;stroke:none;">other proteins derived from total bacterial cell extracts or</text>
   <text y="636.004" x="322.809,326.127,331.605,340.328,345.309,350.808,355.788,364.535,370.034,373.352,378.851,383.205,386.9898,395.772,399.608,405.107,410.089,415.588,419.942,424.923,430.401,439.142,444.641,448.477,453.976,457.294,461.647,464.337,469.836,473.62080000000003,482.454,485.772,491.271,496.252,499.57,504.55,513.294,518.794,524.293,527.5798,536.312,540.147,545.647,551.146,558.299,563.799,567.116" svgx:width="0.33,0.55,0.55,0.5,0.55,0.5,0.55,0.55,0.33,0.55,0.44,0.38,0.55,0.38,0.55,0.5,0.55,0.44,0.5,0.55,0.55,0.55,0.38,0.55,0.33,0.44,0.27,0.55,0.38,0.55,0.33,0.55,0.5,0.33,0.5,0.55,0.55,0.55,0.33,0.55,0.38,0.55,0.55,0.72,0.55,0.33,0.27" style="fill:rgb(23,22,21);font-family:AdvTimes;font-size:9.96px;stroke:none;">to any other soybean proteins (data not shown).</text>
   <text y="647.229" x="322.809,326.645,332.144,336.498,341.997,347.497,352.478,355.796,358.485,363.985,369.463,375.93,381.429,384.7158,391.237,396.218,398.908,403.889,408.87" svgx:width="0.38,0.55,0.44,0.55,0.55,0.5,0.33,0.27,0.55,0.55,0.55,0.55,0.33,0.55,0.5,0.27,0.5,0.5,0.5" style="fill:rgb(23,22,21);font-family:AdvTimes;font-size:9.96px;stroke:none;">Incubation of 0.5–1</text>
   <text y="647.229" x="415.502" svgx:width="0.55" style="fill:rgb(23,22,21);font-family:AdvPi1;font-size:9.96px;stroke:none;">m</text>
   <text y="647.229" x="421.002,425.982,432.454,437.953,441.2398,447.76,452.742,458.241,461.558,464.248,468.084,472.438,476.273,481.773,489.962,492.6512,499.18,504.68,510.179,514.533,517.223,521.576,526.557,530.3418,536.881,541.234,546.216,549.533,553.369,558.35,562.704,566.021" svgx:width="0.5,0.55,0.55,0.33,0.55,0.5,0.55,0.33,0.27,0.38,0.44,0.38,0.55,0.82,0.27,0.55,0.55,0.55,0.44,0.27,0.44,0.5,0.38,0.55,0.44,0.5,0.33,0.38,0.5,0.44,0.33,0.38" style="fill:rgb(23,22,21);font-family:AdvTimes;font-size:9.96px;stroke:none;">g of antiserum, nuclear extracts</text>
   <text y="658.397" x="322.81,327.792,333.291,338.769,345.034,348.352,353.851,358.2334,364.536,369.517,374.498,377.816,383.315,386.6018,392.882,398.382,402.217,407.717,413.216,417.5984,423.893,426.583,432.06100000000004,438.35,441.667,447.167,451.5494,457.851,462.833,467.186,469.8752,476.163,479.998,485.498,488.188,491.505,494.7918,501.107,504.943,509.296,514.278,518.631,521.949,524.639,530.138,535.616,541.926,546.279,548.969,553.323,558.304,562.14,564.83" svgx:width="0.5,0.55,0.55,0.55,0.33,0.55,0.44,0.55,0.5,0.5,0.33,0.55,0.33,0.55,0.55,0.38,0.55,0.55,0.44,0.55,0.27,0.55,0.55,0.33,0.55,0.44,0.55,0.5,0.44,0.27,0.55,0.38,0.55,0.27,0.33,0.33,0.55,0.38,0.44,0.5,0.44,0.33,0.27,0.55,0.55,0.55,0.44,0.27,0.44,0.5,0.38,0.27,0.5" style="fill:rgb(23,22,21);font-family:AdvTimes;font-size:9.96px;stroke:none;">and the 30-nt probe in the gel shift reaction clearly</text>
   <text y="669.622" x="322.81,326.646,331.0,334.835,340.335,343.025,346.342,350.696,356.17400000000004,363.288,365.978,371.456,378.595,383.57500000000005,390.614,394.449,399.949,405.448,409.802,413.637,417.473,422.972,425.662,428.98,432.26680000000005,439.426,444.925,448.21180000000004,455.356,460.336,467.375,475.564,483.753,491.424,496.406,501.905,505.741,511.24,514.558,518.911,521.601,527.079,534.272,538.625,544.125,552.314,557.813,560.503,564.857" svgx:width="0.38,0.44,0.38,0.55,0.27,0.33,0.44,0.55,0.55,0.27,0.55,0.55,0.5,0.55,0.38,0.55,0.55,0.44,0.38,0.38,0.55,0.27,0.33,0.33,0.55,0.55,0.33,0.55,0.5,0.55,0.82,0.82,0.77,0.5,0.55,0.38,0.55,0.33,0.44,0.27,0.55,0.55,0.44,0.55,0.82,0.55,0.27,0.44,0.5" style="fill:rgb(23,22,21);font-family:AdvTimes;font-size:9.96px;stroke:none;">resulted in a supershift of a DNA–protein complex</text>
   <text y="680.846" x="322.81,326.128,332.763,335.453,340.434,345.934,349.769,354.1514,358.923,363.904,371.575,374.2642,379.105,381.795,386.776,392.276,396.629,400.41380000000004,405.297,410.278,415.259,420.241,423.558,426.2472,431.035,438.188,443.688,446.378,450.731,456.209,461.082,468.235,473.217,477.0018,481.888,487.388,492.887,496.1738,500.993,506.493,511.992,515.828,520.181,524.017,528.998,533.352,538.8299999999999,543.682,546.372,551.8499999999999,556.664,559.982,565.481" svgx:width="0.33,0.67,0.27,0.5,0.55,0.38,0.44,0.55,0.5,0.77,0.27,0.55,0.27,0.5,0.55,0.44,0.38,0.55,0.5,0.5,0.5,0.33,0.27,0.55,0.72,0.55,0.27,0.44,0.55,0.55,0.72,0.5,0.38,0.55,0.55,0.55,0.33,0.55,0.55,0.55,0.38,0.44,0.38,0.5,0.44,0.55,0.55,0.27,0.55,0.55,0.33,0.55,0.44" style="fill:rgb(23,22,21);font-family:AdvTimes;font-size:9.96px;stroke:none;">(Figure 8A, lanes 6–8), which was not observed in the</text>
   <text y="692.071" x="322.81,328.31,332.145,336.499,340.335,344.688,350.188,354.541,358.9234,361.418,366.917,370.2038,372.699,378.199,382.034,386.388,389.078,397.267,405.456,410.956,416.455,420.8374,423.382,427.218,431.571,435.407,440.906,449.0732,451.615,454.933,461.568,464.258,469.239,474.738,478.574,482.95640000000003,485.46,490.441,498.112,500.80120000000005,503.318,506.008,510.989,516.488,520.8704,523.33,528.311,531.5978,534.158,539.657,543.4418000000001,546.007,548.696,554.174,556.665,559.982,565.481" svgx:width="0.55,0.38,0.44,0.38,0.44,0.55,0.44,0.44,0.55,0.55,0.33,0.55,0.55,0.38,0.44,0.27,0.82,0.82,0.55,0.55,0.44,0.55,0.38,0.44,0.38,0.55,0.82,0.55,0.33,0.67,0.27,0.5,0.55,0.38,0.44,0.55,0.5,0.77,0.27,0.55,0.27,0.5,0.55,0.44,0.55,0.5,0.33,0.55,0.55,0.38,0.55,0.27,0.55,0.55,0.33,0.55,0.44" style="fill:rgb(23,22,21);font-family:AdvTimes;font-size:9.96px;stroke:none;">presence of preimmune serum (Figure 8A, lane 1) or in the</text>
   <text y="703.239" x="322.81,327.792,333.291,337.127,341.48,346.98,351.333,355.71540000000005,359.036,364.536,367.82280000000003,371.226,376.207,381.706,385.024,387.714,391.549,395.903,399.739,405.238,413.4052,416.807,420.124,426.759,429.449,434.43,439.93,443.765,448.1474,451.502,456.484,464.155,466.8442,470.211,472.901,477.882,483.382,487.7644,491.131,496.112,499.429,502.1182,505.474,512.109,517.608,521.962,525.797,530.1794,533.536,539.036,544.535,548.371,552.724,556.56,561.541,566.522" svgx:width="0.5,0.55,0.38,0.44,0.55,0.44,0.44,0.55,0.55,0.33,0.55,0.5,0.55,0.33,0.27,0.38,0.44,0.38,0.55,0.82,0.55,0.33,0.67,0.27,0.5,0.55,0.38,0.44,0.55,0.5,0.77,0.27,0.55,0.27,0.5,0.55,0.44,0.55,0.5,0.33,0.27,0.55,0.67,0.55,0.44,0.38,0.44,0.55,0.55,0.55,0.38,0.44,0.38,0.5,0.5,0.33" style="fill:rgb(23,22,21);font-family:AdvTimes;font-size:9.96px;stroke:none;">absence of antiserum (Figure 8A, lane 3). These observa-</text>
   <text y="714.464" x="322.81,326.128,328.818,334.317,339.817,343.6018,347.641,351.477,354.794,358.63,364.129,369.629,374.61,377.3,382.28000000000003,386.248,390.602,396.101,401.601,407.1,410.936,419.10319999999996,423.098,426.415,431.915,436.896,440.18280000000004,444.188,447.505,453.005,457.3874,461.365,469.555,477.744,484.379,491.014,494.332,502.521,510.71,515.6899999999999,519.701,525.201,529.036,534.536,537.853,542.207,544.897,550.375,554.397,557.087,560.8718,564.886" svgx:width="0.33,0.27,0.55,0.55,0.38,0.55,0.38,0.33,0.38,0.55,0.55,0.5,0.27,0.5,0.55,0.44,0.55,0.55,0.55,0.38,0.82,0.55,0.33,0.55,0.5,0.33,0.55,0.33,0.55,0.44,0.55,0.82,0.82,0.67,0.67,0.33,0.82,0.82,0.5,0.55,0.55,0.38,0.55,0.33,0.44,0.27,0.55,0.55,0.27,0.38,0.55,0.5" style="fill:rgb(23,22,21);font-family:AdvTimes;font-size:9.96px;stroke:none;">tions strongly conﬁrm that the GmZF-HD1 protein is a</text>
   <text y="725.689" x="322.81,327.164,332.663,340.853,346.352,351.851,357.351,361.704,367.204,370.49080000000004,373.89,379.389,382.67580000000004,386.022,389.34,394.839,399.2214,402.519,408.019,413.518,417.872,420.561,424.915,429.896,433.68080000000003,437.101,442.601,446.436,451.936,455.253,459.607,462.297,467.796,472.777,480.967,489.156,496.8252,500.2,504.553,510.053,518.242,523.741,526.431,530.785,535.765,539.147,542.465,547.964,551.8,559.989,564.343" svgx:width="0.44,0.55,0.82,0.55,0.55,0.55,0.44,0.55,0.33,0.55,0.55,0.33,0.55,0.33,0.55,0.44,0.55,0.55,0.55,0.44,0.27,0.44,0.5,0.38,0.55,0.55,0.38,0.55,0.33,0.44,0.27,0.55,0.5,0.82,0.82,0.77,0.55,0.44,0.55,0.82,0.55,0.27,0.44,0.5,0.55,0.33,0.55,0.38,0.82,0.44,0.55" style="fill:rgb(23,22,21);font-family:AdvTimes;font-size:9.96px;stroke:none;">component of the nuclear protein–DNA complex formed</text>
   <text y="736.857" x="322.81,329.964,332.653,335.971,341.449,345.884,349.201,354.701,359.08340000000004,363.516,368.497,373.478,376.796,382.295,385.58180000000004,390.048,393.884,398.237,403.737,409.236,413.59,419.089,423.443,427.8254,432.283,437.783,441.06980000000004,445.493,448.81,454.31" svgx:width="0.72,0.27,0.33,0.55,0.55,0.33,0.55,0.44,0.55,0.5,0.5,0.33,0.55,0.33,0.55,0.38,0.44,0.55,0.55,0.44,0.55,0.44,0.44,0.55,0.55,0.33,0.55,0.33,0.55,0.44" style="fill:rgb(23,22,21);font-family:AdvTimes;font-size:9.96px;stroke:none;">with the 30-nt sequence of the</text>
   <text y="736.857" x="463.125,470.278,477.949,485.102,490.083,499.936" svgx:width="0.72,0.77,0.72,0.5,0.99,0.5" style="fill:rgb(23,22,21);font-family:AdvTimes-i;font-size:9.96px;stroke:none;">GmCaM4</text>
   <text y="736.857" x="509.386,514.885,518.721,524.22,532.409,537.909,541.226,545.58,549.3648000000001,553.889,558.87,564.369" svgx:width="0.55,0.38,0.55,0.82,0.55,0.33,0.44,0.38,0.55,0.5,0.55,0.55" style="fill:rgb(23,22,21);font-family:AdvTimes;font-size:9.96px;stroke:none;">promoter and</text>
  </g>
  <rect style="stroke:blue;stroke-width:0.3;" x="328.309" y="79.943" height="282.671" width="236.012" title="8"/>
  <text y="79.943" class="image" id="image.8.1" width="236" height="282" x="328.309">image.8.1.328_564.80_363</text>
  <g begin="text">
   <text y="369.318" x="322.809,327.623,329.775,333.76,337.746,340.814,344.3208,348.605,352.59" svgx:width="0.6,0.27,0.5,0.5,0.38,0.44,0.55,0.5,0.27" style="fill:rgb(23,22,21);font-family:AdvTimes-b;font-size:7.97px;stroke:none;">Figure 7.</text>
   <text y="369.318" x="358.753,363.152,367.552,371.035,374.518,376.67,381.069,384.5758,388.857,391.009,395.408,398.062,401.545,404.614,408.599,412.082,414.736,416.888,421.287,425.6705,430.016,434.416,437.0461,441.411,444.065,448.465,451.9718,456.265,462.816,469.368,474.676,479.984,482.638,489.19,495.741,499.726,504.057,508.457,511.525,515.925,518.579,522.062,524.214,528.5975000000001,532.914,538.637,540.789,543.443,547.8265,552.19,556.175,560.16,562.814,567.214" svgx:width="0.55,0.55,0.44,0.44,0.27,0.55,0.44,0.55,0.27,0.55,0.33,0.44,0.38,0.5,0.44,0.33,0.27,0.55,0.55,0.55,0.55,0.33,0.55,0.33,0.55,0.44,0.55,0.82,0.82,0.67,0.67,0.33,0.82,0.82,0.5,0.55,0.55,0.38,0.55,0.33,0.44,0.27,0.55,0.55,0.72,0.27,0.33,0.55,0.55,0.5,0.5,0.33,0.55,0.33" style="fill:rgb(23,22,21);font-family:AdvTimes;font-size:7.97px;stroke:none;">Speciﬁc interaction of the GmZF-HD1 protein with 30-nt</text>
   <text y="378.276" x="322.809,327.209,329.361,331.513,335.498,339.897,344.297,348.697,352.18,354.331,357.814,362.214,364.868,367.02,371.42,374.902,377.93059999999997,381.373,385.773,389.256,392.324,394.476,398.462,401.945,406.3285,409.777,412.431,415.499,419.899,426.4344,429.847,432.501,436.9" svgx:width="0.55,0.27,0.27,0.5,0.55,0.55,0.55,0.44,0.27,0.44,0.55,0.33,0.27,0.55,0.44,0.38,0.55,0.55,0.44,0.38,0.27,0.5,0.44,0.55,0.55,0.33,0.38,0.55,0.82,0.55,0.33,0.55,0.44" style="fill:rgb(23,22,21);font-family:AdvTimes;font-size:7.97px;stroke:none;">oligonucleotides derived from the</text>
   <text y="378.276" x="443.792,449.515,455.652,461.374,465.36,473.242" svgx:width="0.72,0.77,0.72,0.5,0.99,0.5" style="fill:rgb(23,22,21);font-family:AdvTimes-i;font-size:7.97px;stroke:none;">GmCaM4</text>
   <text y="378.276" x="480.642,485.042,488.111,492.51,499.062,503.461,506.115,509.598,512.667,514.8189,518.23" svgx:width="0.55,0.38,0.55,0.82,0.55,0.33,0.44,0.38,0.27,0.55,0.33" style="fill:rgb(23,22,21);font-family:AdvTimes;font-size:7.97px;stroke:none;">promoter. (</text>
   <text y="378.276" x="520.894" svgx:width="0.72" style="fill:rgb(23,22,21);font-family:AdvTimes-b;font-size:7.97px;stroke:none;">A</text>
   <text y="378.276" x="526.62,529.2501,532.686,539.238,543.637,547.12,549.272,552.755,557.155,559.809,561.961,566.36" svgx:width="0.33,0.55,0.82,0.55,0.44,0.27,0.44,0.55,0.33,0.27,0.55,0.44" style="fill:rgb(23,22,21);font-family:AdvTimes;font-size:7.97px;stroke:none;">) Nucleotide</text>
   <text y="387.234" x="322.809,325.877,329.36,333.76,338.159,341.642,346.042,349.525,353.008,356.03659999999996,359.773,364.172,366.80210000000005,370.601,374.586,378.255,382.24,386.225,388.879,393.279,395.9091,399.685,402.339,405.408,409.393,413.378,419.929,423.412,427.812,430.44210000000004,434.211,438.611,441.2411,444.983,447.637,452.036" svgx:width="0.38,0.44,0.55,0.55,0.44,0.55,0.44,0.44,0.38,0.55,0.55,0.33,0.55,0.5,0.55,0.5,0.5,0.33,0.55,0.33,0.55,0.33,0.38,0.5,0.5,0.82,0.44,0.55,0.33,0.55,0.55,0.33,0.55,0.33,0.55,0.44" style="fill:rgb(23,22,21);font-family:AdvTimes;font-size:7.97px;stroke:none;">sequences of a 30-nt fragment of the</text>
   <text y="387.234" x="459.269,464.991,471.128,476.851,480.836,488.719,491.373" svgx:width="0.72,0.77,0.72,0.5,0.99,0.33,0.5" style="fill:rgb(23,22,21);font-family:AdvTimes-i;font-size:7.97px;stroke:none;">GmCaM-4</text>
   <text y="387.234" x="499.067,503.467,506.535,510.935,517.486,521.886,524.54,528.023,531.0516,534.841,537.495,545.377,550.685,553.3150999999999,557.065,561.05,565.449" svgx:width="0.55,0.38,0.55,0.82,0.55,0.33,0.44,0.38,0.55,0.33,0.99,0.67,0.33,0.55,0.5,0.55,0.55" style="fill:rgb(23,22,21);font-family:AdvTimes;font-size:7.97px;stroke:none;">promoter (WT) and</text>
   <text y="396.191" x="322.809,329.36,333.76,336.414,340.399,343.053,346.536,350.9195,356.881,359.535,362.604,366.589,370.574,377.125,380.608,385.008,387.662,390.69059999999996,396.737,399.391,407.274,411.259,417.26,419.914,424.2975,430.243,438.125,442.111,444.7411,450.766,455.166,458.234,461.717,466.1005,472.083,476.068,479.09659999999997,485.122,489.522,492.59,496.99,501.39,504.873,507.9016,513.923,518.322,521.3506,527.359,530.842,535.241,541.793,546.192,549.675,552.329,554.481,557.135,561.535,564.604,567.672" svgx:width="0.82,0.55,0.33,0.5,0.33,0.44,0.55,0.55,0.33,0.38,0.5,0.5,0.82,0.44,0.55,0.33,0.38,0.55,0.33,0.99,0.5,0.55,0.33,0.55,0.55,0.99,0.5,0.33,0.55,0.55,0.38,0.44,0.55,0.55,0.5,0.38,0.55,0.55,0.38,0.55,0.55,0.44,0.38,0.55,0.55,0.38,0.55,0.44,0.55,0.82,0.55,0.44,0.33,0.27,0.33,0.55,0.38,0.38,0.27" style="fill:rgb(23,22,21);font-family:AdvTimes;font-size:7.97px;stroke:none;">mutated fragments (M1 to M6) used as probes or competitors.</text>
   <text y="405.149" x="322.809" svgx:width="0.33" style="fill:rgb(23,22,21);font-family:AdvTimes;font-size:7.97px;stroke:none;">(</text>
   <text y="405.149" x="325.473" svgx:width="0.67" style="fill:rgb(23,22,21);font-family:AdvTimes-b;font-size:7.97px;stroke:none;">B</text>
   <text y="405.149" x="330.745,333.37510000000003,339.249,345.801,352.352,358.49,361.144,365.543,367.695,372.095,376.494,378.646,383.046,387.031,392.938,396.923,401.323,403.475,405.627,407.779,410.433,414.418,420.264,424.664,427.2941,433.19,436.259,439.742,443.225,447.624,454.176,458.575,460.727,465.127,469.112,473.511,476.14110000000005,482.06,488.612,495.163,500.471,505.779,508.434,514.985,521.537,525.522,531.384,537.106,539.258,541.912,546.2955000000001,552.19,556.175,560.16,562.814,567.214" svgx:width="0.33,0.55,0.82,0.82,0.77,0.33,0.55,0.27,0.55,0.55,0.27,0.55,0.5,0.55,0.5,0.55,0.27,0.27,0.27,0.33,0.5,0.55,0.55,0.33,0.55,0.38,0.44,0.44,0.55,0.82,0.55,0.27,0.55,0.5,0.55,0.33,0.55,0.82,0.82,0.67,0.67,0.33,0.82,0.82,0.5,0.55,0.72,0.27,0.33,0.55,0.55,0.5,0.5,0.33,0.55,0.33" style="fill:rgb(23,22,21);font-family:AdvTimes;font-size:7.97px;stroke:none;">) DNA-binding ability of recombinant GmZF-HD1 with 30-nt</text>
   <text y="414.163" x="322.809,329.36,335.912,342.0489,347.47,350.124,358.007,363.315,365.9451,371.395,375.38,379.78,384.1635,389.593,396.145,400.544,403.198,407.183,411.583,414.21310000000005,419.641,422.295,425.363,429.349,433.334,439.885,443.368,447.768,450.422,453.4506,458.929,461.583,469.466,473.451,478.885,481.539,485.9225,491.358,499.24,503.225,505.879,508.03090000000003,513.468,518.776,523.175,526.6818,532.063,535.132,539.117,543.516,545.668,550.068,554.053,557.536,560.19,562.342,566.327" svgx:width="0.82,0.82,0.77,0.55,0.33,0.99,0.67,0.33,0.55,0.5,0.55,0.55,0.55,0.82,0.55,0.33,0.5,0.55,0.33,0.55,0.33,0.38,0.5,0.5,0.82,0.44,0.55,0.33,0.38,0.55,0.33,0.99,0.5,0.55,0.33,0.55,0.55,0.99,0.5,0.33,0.27,0.55,0.67,0.55,0.44,0.55,0.38,0.5,0.55,0.27,0.55,0.5,0.44,0.33,0.27,0.5,0.44" style="fill:rgb(23,22,21);font-family:AdvTimes;font-size:7.97px;stroke:none;">DNA (WT) and mutant fragments (M1 to M6). The radioactive</text>
   <text y="423.121" x="322.809,327.208,330.277,334.676,339.076,342.559,345.5876,350.078,355.8,359.283,362.352,365.8588,370.261,372.413,376.812,380.295,384.695,389.094,393.079,395.733,399.216,403.59950000000003,408.075,410.227,414.6105,419.074,421.728,426.128,429.6348,434.098,438.497,441.566,445.049,448.117,451.6,456.0,459.483,462.9898,467.433,471.833,474.46310000000005,478.885,481.954,485.437,488.92,493.319,499.871,504.27,506.422,510.822,514.807,519.207,521.8371,526.337,532.889,539.44,544.749,550.057,552.711,559.262,565.814" svgx:width="0.55,0.38,0.55,0.55,0.44,0.38,0.55,0.72,0.44,0.38,0.44,0.55,0.27,0.55,0.44,0.55,0.55,0.5,0.33,0.44,0.55,0.55,0.27,0.55,0.55,0.33,0.55,0.44,0.55,0.55,0.38,0.44,0.38,0.44,0.55,0.44,0.44,0.55,0.55,0.33,0.55,0.38,0.44,0.44,0.55,0.82,0.55,0.27,0.55,0.5,0.55,0.33,0.55,0.82,0.82,0.67,0.67,0.33,0.82,0.82,0.5" style="fill:rgb(23,22,21);font-family:AdvTimes;font-size:7.97px;stroke:none;">probes were incubated in the presence of recombinant GmZF-HD1</text>
   <text y="432.079" x="322.809,327.208,330.2366,337.038,343.59,347.99,353.3299,360.056,364.041,366.193,370.592,374.992,378.475,380.62690000000003,387.381" svgx:width="0.55,0.38,0.55,0.82,0.55,0.67,0.55,0.5,0.27,0.55,0.55,0.44,0.27,0.55,0.33" style="fill:rgb(23,22,21);font-family:AdvTimes;font-size:7.97px;stroke:none;">or GST alone. (</text>
   <text y="432.079" x="390.047" svgx:width="0.72" style="fill:rgb(23,22,21);font-family:AdvTimes-b;font-size:7.97px;stroke:none;">C</text>
   <text y="432.079" x="395.772,398.4021,405.184,410.906,415.306,421.857,426.257,429.74,432.394,434.546,437.2,439.352,443.337,446.8438,453.657,457.642,461.125,463.2769,470.041,476.593,480.992,485.392,487.544,489.696,491.848,494.502,498.487,505.248,508.316,512.716,514.868,517.522,520.1521,526.961,530.946,534.015,537.083,541.068,545.053,551.85,556.249,559.318,561.47,565.869" svgx:width="0.33,0.55,0.72,0.55,0.82,0.55,0.44,0.33,0.27,0.33,0.27,0.5,0.44,0.55,0.5,0.44,0.27,0.55,0.82,0.55,0.55,0.27,0.27,0.27,0.33,0.5,0.55,0.38,0.55,0.27,0.33,0.33,0.55,0.5,0.38,0.38,0.5,0.5,0.55,0.55,0.38,0.27,0.55,0.5" style="fill:rgb(23,22,21);font-family:AdvTimes;font-size:7.97px;stroke:none;">) Competitive gel mobility shift assay using</text>
   <text y="441.036" x="322.809,326.794,330.779,333.433,337.832,340.4621,345.883,352.435,358.986,365.1229,370.601,373.255,381.138,386.446,389.07610000000005,394.583,398.568,402.967,407.3505,412.781,419.332,423.732,426.386,430.371,433.025,436.508,440.8915,446.343,452.895,459.446,465.58290000000005,471.061,473.716,476.784,480.769,484.754,491.306,494.789,499.188,501.842,504.87059999999997,510.35,513.004,520.886,524.871,530.362,533.016,537.3995,542.835,550.717,554.702,557.3321,562.79,566.775" svgx:width="0.5,0.5,0.33,0.55,0.33,0.55,0.82,0.82,0.77,0.55,0.33,0.99,0.67,0.33,0.55,0.5,0.55,0.55,0.55,0.82,0.55,0.33,0.5,0.33,0.44,0.55,0.55,0.82,0.82,0.77,0.55,0.33,0.38,0.5,0.5,0.82,0.44,0.55,0.33,0.38,0.55,0.33,0.99,0.5,0.55,0.33,0.55,0.55,0.99,0.5,0.33,0.55,0.5,0.38" style="fill:rgb(23,22,21);font-family:AdvTimes;font-size:7.97px;stroke:none;">30-nt DNA (WT) and mutated DNA fragments (M1 to M6) as</text>
   <text y="449.994" x="322.809,326.291,330.691,337.243,341.642,345.125,347.779,349.931,352.585,356.985,360.053,363.122,365.2739,368.447,373.755,378.154,381.6608,384.774,391.326,397.877,404.01390000000004,407.168,411.568,413.72,418.119,422.519,424.671,429.07,433.055,436.195,439.263,442.746,446.731,450.214,452.868,455.02,459.42,463.80350000000004,466.979,472.702,476.687,479.7156,482.91,487.309,490.792,493.861,496.515,500.914,503.983,510.534,514.017,518.4005000000001,521.575,527.297,529.449,532.103,536.4865,539.66,542.728,546.211,549.694,554.094,560.645,565.045,567.197" svgx:width="0.44,0.55,0.82,0.55,0.44,0.33,0.27,0.33,0.55,0.38,0.38,0.27,0.55,0.67,0.55,0.44,0.55,0.82,0.82,0.77,0.55,0.55,0.27,0.55,0.55,0.27,0.55,0.5,0.55,0.38,0.44,0.5,0.44,0.33,0.27,0.55,0.55,0.55,0.72,0.5,0.38,0.55,0.55,0.44,0.38,0.33,0.55,0.38,0.82,0.44,0.55,0.55,0.72,0.27,0.33,0.55,0.55,0.38,0.44,0.44,0.55,0.82,0.55,0.27,0.33" style="fill:rgb(23,22,21);font-family:AdvTimes;font-size:7.97px;stroke:none;">competitors. The DNA binding reaction was performed with recombi-</text>
   <text y="458.952" x="322.809,327.208,331.193,335.593,338.22310000000004,343.842,350.393,354.793,360.101,362.755,365.409,369.809,372.877,376.36,380.74350000000004,386.419,392.97,399.522,404.83,410.138,412.792,419.344,425.895,429.88,435.572,439.971,443.04,447.439,450.093,453.576,455.728,460.11150000000004,465.733,469.718,474.117" svgx:width="0.55,0.5,0.55,0.33,0.55,0.82,0.55,0.67,0.33,0.33,0.55,0.38,0.44,0.55,0.55,0.82,0.82,0.67,0.67,0.33,0.82,0.82,0.5,0.55,0.55,0.38,0.55,0.33,0.44,0.27,0.55,0.55,0.5,0.55,0.55" style="fill:rgb(23,22,21);font-family:AdvTimes;font-size:7.97px;stroke:none;">nant GST-fused GmZF-HD1 protein and</text>
   <text y="455.435" x="484.157,487.146" svgx:width="0.5,0.5" style="fill:rgb(23,22,21);font-family:AdvTimes;font-size:5.31px;stroke:none;">32</text>
   <text y="458.95" x="490.11,494.924,497.578,499.73,503.715,508.115,511.598,513.75,517.233,521.6165,527.301,531.286,535.271,537.925,542.324,544.9540999999999,550.601,557.153,563.704" svgx:width="0.6,0.33,0.27,0.5,0.55,0.44,0.27,0.44,0.55,0.55,0.5,0.5,0.33,0.55,0.33,0.55,0.82,0.82,0.77" style="fill:rgb(23,22,21);font-family:AdvTimes;font-size:7.97px;stroke:none;">P-labeled 30-nt DNA</text>
   <text y="467.907" x="322.808,325.463,328.531,332.516,336.501,343.053,346.536,350.935,353.56510000000003,357.562,360.216,368.098,373.406,376.03610000000003,380.012,382.164,386.5475,390.5,393.154,397.554,401.0608,405.014,408.999,413.399,416.467,419.95,424.35,427.833,431.3398,435.288,439.687,442.7156,446.683,451.082,454.151,457.634,460.702,464.185,468.585,472.068,475.5748,479.508,483.908,486.53810000000004,490.506,494.906,499.305,501.457,505.442,509.842,513.325,515.477,518.96,523.3435000000001,527.357,530.84,535.24,541.791,546.191,549.674,552.328,554.48,557.134,561.533,564.602,567.67" svgx:width="0.33,0.38,0.5,0.5,0.82,0.44,0.55,0.33,0.55,0.33,0.99,0.67,0.33,0.55,0.27,0.55,0.55,0.33,0.55,0.44,0.55,0.5,0.55,0.38,0.44,0.55,0.44,0.44,0.55,0.55,0.38,0.55,0.55,0.38,0.44,0.38,0.44,0.55,0.44,0.44,0.55,0.55,0.33,0.55,0.55,0.55,0.27,0.5,0.55,0.44,0.27,0.44,0.55,0.55,0.44,0.55,0.82,0.55,0.44,0.33,0.27,0.33,0.55,0.38,0.38,0.27" style="fill:rgb(23,22,21);font-family:AdvTimes;font-size:7.97px;stroke:none;">fragment (WT) in the absence or presence of unlabeled competitors.</text>
   <text y="476.922" x="322.808,328.117,332.102,335.585,339.9685,346.053,349.536,353.935,360.487,364.886,368.369,371.023,373.175,375.829,380.229,383.25759999999997,389.367,395.918,402.47,408.60690000000005,414.709,417.363,421.348,425.333,429.318,431.972,434.626,439.026,441.178,445.5615,451.616,458.168,462.567,464.719,468.705,471.73359999999997,477.865,481.348,485.334,488.816,492.299,495.368,498.436,501.0661,507.176,512.898,516.884,519.9126,525.998,529.983,534.383,538.782,542.265,546.6485,552.757,555.411,559.7945,565.853" svgx:width="0.67,0.5,0.44,0.55,0.55,0.44,0.55,0.82,0.55,0.44,0.33,0.27,0.33,0.55,0.38,0.55,0.82,0.82,0.77,0.55,0.33,0.5,0.5,0.5,0.33,0.33,0.55,0.27,0.55,0.55,0.82,0.55,0.27,0.5,0.38,0.55,0.44,0.5,0.44,0.44,0.38,0.38,0.33,0.55,0.72,0.5,0.38,0.55,0.5,0.55,0.55,0.44,0.55,0.55,0.33,0.55,0.55,0.5" style="fill:rgb(23,22,21);font-family:AdvTimes;font-size:7.97px;stroke:none;">Each competitor DNA (200-fold molar excess) was added to a</text>
   <text y="485.879" x="322.808,325.877,329.36,333.345,336.828,339.482,341.634,346.034,350.4175,355.748,362.299,364.451,368.436,371.09,375.49,378.558,382.041,384.1929,389.537,394.845,397.914,401.397,404.9038,410.174,412.828,416.813,419.881,422.95,427.349,433.072,435.70210000000003,441.015,445.0,449.4,453.7835,459.1,463.5,466.568,470.968,473.622,477.105,479.257,483.656,486.311,489.793,494.193,500.745,505.144,507.296,510.779,514.764,518.247,522.6305,528.039,530.693,534.678,537.747,540.815,545.215,550.938,555.337,558.82,562.805,567.205" svgx:width="0.38,0.44,0.5,0.44,0.33,0.27,0.55,0.55,0.55,0.82,0.27,0.5,0.33,0.55,0.38,0.44,0.27,0.55,0.67,0.38,0.44,0.44,0.55,0.33,0.5,0.38,0.38,0.55,0.72,0.33,0.55,0.5,0.55,0.55,0.55,0.55,0.38,0.55,0.33,0.44,0.27,0.55,0.33,0.44,0.55,0.82,0.55,0.27,0.44,0.5,0.44,0.55,0.55,0.33,0.5,0.38,0.38,0.55,0.72,0.55,0.44,0.5,0.55,0.33" style="fill:rgb(23,22,21);font-family:AdvTimes;font-size:7.97px;stroke:none;">reaction mixture. Free (arrow) and protein-complexed (arrowhead)</text>
   <text y="494.837" x="322.808,327.208,330.276,334.676,339.076,342.559,345.5876,348.66,354.383,357.866,360.935,364.4418,367.483,370.551,374.034,378.434,382.419,385.488,389.473,392.127,395.61,399.99350000000004,403.087,407.486,411.8695,414.935,418.92,423.30350000000004,426.387,430.372,438.34200000000004,441.355,445.754,450.154,452.306,456.291,460.276,463.759,466.827,470.812,472.964,476.949,483.501,485.653,490.052,493.5588,496.63,500.615,504.098,506.2499,509.329,513.314,517.714,522.0975000000001,525.147,529.132,531.284,534.352,538.752,542.737,544.889,547.041,550.524,554.007,558.3905,561.487,565.887" svgx:width="0.55,0.38,0.55,0.55,0.44,0.38,0.55,0.72,0.44,0.38,0.44,0.55,0.38,0.44,0.55,0.5,0.38,0.5,0.33,0.44,0.55,0.55,0.55,0.55,0.55,0.5,0.55,0.55,0.5,1.0,0.55,0.55,0.55,0.27,0.5,0.5,0.44,0.38,0.5,0.27,0.5,0.82,0.27,0.55,0.44,0.55,0.5,0.44,0.27,0.55,0.5,0.55,0.55,0.55,0.5,0.27,0.38,0.55,0.5,0.27,0.27,0.44,0.44,0.55,0.55,0.55,0.5" style="fill:rgb(23,22,21);font-family:AdvTimes;font-size:7.97px;stroke:none;">probes were separated on an 8% polyacrylamide gel and visualized by</text>
   <text y="503.795" x="322.808,326.794,331.193,333.847,338.247,341.315,345.3,349.7,351.852,356.251,360.236,363.305,367.29,371.69,376.089,380.074" svgx:width="0.5,0.55,0.33,0.55,0.38,0.5,0.55,0.27,0.55,0.5,0.38,0.5,0.55,0.55,0.5,0.27" style="fill:rgb(23,22,21);font-family:AdvTimes;font-size:7.97px;stroke:none;">autoradiography.</text>
  </g>
  <rect style="stroke:blue;stroke-width:0.3;" x="75.118" y="80.851" height="310.733" width="208.403" title="8"/>
  <text y="80.851" class="image" id="image.8.2" width="208" height="310" x="75.118">image.8.2.75_284.81_392</text>
  <g begin="text">
   <text y="398.288" x="55.786,60.6,62.752,66.737,70.722,73.79,77.2968,82.488,86.473" svgx:width="0.6,0.27,0.5,0.5,0.38,0.44,0.55,0.5,0.27" style="fill:rgb(23,22,21);font-family:AdvTimes-b;font-size:7.97px;stroke:none;">Figure 6.</text>
   <text y="398.288" x="92.636,97.944,102.344,105.85079999999999,111.005,117.556,124.108,130.245,132.899,137.299,139.451,143.85,148.25,150.402,154.801,158.786,164.013,167.998,172.398,174.55,176.702,178.854,181.508,183.66,187.143,190.1716,195.421,199.821,202.4511,207.667,214.218,220.77,226.078,231.386,234.04,240.592,247.143,251.12800000000001,256.366,260.351,264.751" svgx:width="0.67,0.55,0.44,0.55,0.82,0.82,0.77,0.33,0.55,0.27,0.55,0.55,0.27,0.55,0.5,0.55,0.5,0.55,0.27,0.27,0.27,0.33,0.27,0.44,0.38,0.55,0.55,0.33,0.55,0.82,0.82,0.67,0.67,0.33,0.82,0.82,0.5,0.55,0.5,0.55,0.55" style="fill:rgb(23,22,21);font-family:AdvTimes;font-size:7.97px;stroke:none;">The DNA-binding abilities of GmZF-HD1 and</text>
   <text y="398.288" code="1" x="274.337" svgx:width="0.77" style="fill:rgb(23,22,21);font-family:AdvMT_SY;font-size:7.97px;stroke:none;">?</text>
   <text y="398.288" x="280.517,284.502,286.6539,291.799" svgx:width="0.5,0.27,0.55,0.33" style="fill:rgb(23,22,21);font-family:AdvTimes;font-size:7.97px;stroke:none;">2. (</text>
   <text y="398.288" x="294.463" svgx:width="0.72" style="fill:rgb(23,22,21);font-family:AdvTimes-b;font-size:7.97px;stroke:none;">A</text>
   <text y="398.288" x="300.189" svgx:width="0.33" style="fill:rgb(23,22,21);font-family:AdvTimes;font-size:7.97px;stroke:none;">)</text>
   <text y="407.246" x="55.785,60.185,63.668,68.067,71.55,78.102,82.087,84.741,86.893,90.3998,97.965,101.033,104.516,108.916,111.985,115.467,118.536,122.019,126.419,129.073,133.058,135.712,137.864,142.263,146.6465,154.262,158.661,161.2911,168.889,175.44,181.992,187.3,192.608,195.262,201.813,208.365,212.35000000000002,219.913,223.898,228.298" svgx:width="0.55,0.44,0.55,0.44,0.82,0.5,0.33,0.27,0.44,0.55,0.38,0.44,0.55,0.38,0.44,0.38,0.44,0.55,0.33,0.5,0.33,0.27,0.55,0.55,0.55,0.55,0.33,0.55,0.82,0.82,0.67,0.67,0.33,0.82,0.82,0.5,0.55,0.5,0.55,0.55" style="fill:rgb(23,22,21);font-family:AdvTimes;font-size:7.97px;stroke:none;">Schematic representation of GmZF-HD1 and</text>
   <text y="407.246" code="1" x="240.264" svgx:width="0.77" style="fill:rgb(23,22,21);font-family:AdvMT_SY;font-size:7.97px;stroke:none;">?</text>
   <text y="407.246" x="246.387,250.372,257.952,264.504,268.903,274.2429,281.763,284.417,288.817,291.885,294.037,298.437" svgx:width="0.5,0.55,0.82,0.55,0.67,0.55,0.33,0.55,0.38,0.27,0.55,0.55" style="fill:rgb(23,22,21);font-family:AdvTimes;font-size:7.97px;stroke:none;">2 GST fusion</text>
   <text y="416.26" x="55.784,59.267,63.667,68.066,71.135,73.789,76.857,81.257,84.74,87.394,90.463,92.61489999999999,97.397,103.949,108.348,114.9,119.3,122.783,125.851,128.8796,133.738,135.89,140.289,144.689,146.841,150.324,154.309,156.963,160.4698,165.259,167.913,172.313,175.8198,180.566,184.966,189.366,192.434,194.586,197.24,199.392,203.792,208.191,211.2196,216.056,220.456,223.0861,227.905,232.304,236.704,241.103,245.503,249.902,253.888,256.956,259.108,262.591,265.6196,270.425,272.577,276.9605,281.763,284.417,288.817,291.885,294.037,298.437" svgx:width="0.44,0.55,0.55,0.38,0.33,0.38,0.55,0.44,0.33,0.38,0.27,0.55,0.82,0.55,0.82,0.55,0.44,0.38,0.38,0.55,0.27,0.55,0.55,0.27,0.44,0.5,0.33,0.44,0.55,0.33,0.55,0.44,0.55,0.55,0.55,0.38,0.27,0.33,0.27,0.55,0.55,0.38,0.55,0.55,0.33,0.55,0.55,0.55,0.55,0.55,0.55,0.5,0.38,0.27,0.44,0.38,0.55,0.27,0.55,0.55,0.33,0.55,0.38,0.27,0.55,0.55" style="fill:rgb(23,22,21);font-family:AdvTimes;font-size:7.97px;stroke:none;">constructs. Numbers indicate the positions of boundaries in fusion</text>
   <text y="425.218" x="55.784,59.267,63.667,68.066,71.135,73.789,76.857,81.257,84.74,87.394,90.463,92.61489999999999,96.036,102.173,108.725,110.877,115.276,119.6595,123.136,127.121,130.604,132.756,137.1395,140.54,144.94,149.339,152.408,154.56,157.214,159.366,163.765,168.165,171.1936,174.669,179.069,181.6991,185.157,189.557,193.956,200.508,204.493,206.645,211.0285,214.468,218.867,223.267,227.666,232.066,236.465,240.451,243.519,245.671,249.154,252.1826,255.627,259.613,262.681,266.1878,269.574,271.726,276.125,280.525,282.677,286.16,290.145,292.799,296.282,300.681" svgx:width="0.44,0.55,0.55,0.38,0.33,0.38,0.55,0.44,0.33,0.38,0.27,0.55,0.77,0.82,0.27,0.55,0.55,0.55,0.5,0.44,0.27,0.55,0.55,0.55,0.55,0.38,0.27,0.33,0.27,0.55,0.55,0.38,0.55,0.55,0.33,0.55,0.55,0.55,0.82,0.5,0.27,0.55,0.55,0.55,0.55,0.55,0.55,0.55,0.5,0.38,0.27,0.44,0.38,0.55,0.5,0.38,0.44,0.55,0.27,0.55,0.55,0.27,0.44,0.5,0.33,0.44,0.55,0.27" style="fill:rgb(23,22,21);font-family:AdvTimes;font-size:7.97px;stroke:none;">constructs. Amino acid positions of domain boundaries are indicated.</text>
   <text y="434.176" x="55.784" svgx:width="0.33" style="fill:rgb(23,22,21);font-family:AdvTimes;font-size:7.97px;stroke:none;">(</text>
   <text y="434.176" x="58.449" svgx:width="0.67" style="fill:rgb(23,22,21);font-family:AdvTimes-b;font-size:7.97px;stroke:none;">B</text>
   <text y="434.176" x="63.778,66.4081,69.22,72.289,76.688,79.343,82.826,85.894,89.879,93.362,96.016,98.168,102.568,106.9515,109.756,114.156,116.7861,119.621,122.275,126.674,130.1808,132.944,136.929,140.914,143.568,147.968,150.5981,153.467,156.536,160.019,164.418,168.818,172.301,176.7,180.183,183.6898,186.463,189.946,194.345,198.745,201.399,205.384,207.536,211.936,214.088,218.487,222.472,225.298,227.952,232.351,235.8578,238.621,244.758,248.743,251.397,255.382,258.18,261.248,264.731,268.716,270.868,275.268,279.6515,282.444,286.843,289.47310000000004,292.309,294.963,299.362" svgx:width="0.33,0.55,0.38,0.55,0.33,0.44,0.38,0.5,0.44,0.33,0.27,0.55,0.55,0.55,0.55,0.33,0.55,0.33,0.55,0.44,0.55,0.5,0.5,0.33,0.55,0.33,0.55,0.38,0.44,0.55,0.55,0.44,0.55,0.44,0.44,0.55,0.44,0.55,0.55,0.33,0.5,0.27,0.55,0.27,0.55,0.5,0.55,0.33,0.55,0.44,0.55,0.77,0.5,0.33,0.5,0.55,0.38,0.44,0.5,0.27,0.55,0.55,0.55,0.55,0.33,0.55,0.33,0.55,0.44" style="fill:rgb(23,22,21);font-family:AdvTimes;font-size:7.97px;stroke:none;">) Interaction of the 30-nt sequence containing the A2-2 region of the</text>
   <text y="443.133" x="55.784,61.507,67.644,73.366,77.352,85.234,87.888" svgx:width="0.72,0.77,0.72,0.5,0.99,0.33,0.5" style="fill:rgb(23,22,21);font-family:AdvTimes-i;font-size:7.97px;stroke:none;">GmCaM-4</text>
   <text y="443.133" x="95.413,99.812,102.881,107.28,113.832,118.232,120.886,124.369,127.3976,131.017,136.739,138.891,141.545,145.92849999999999,149.499,152.567,156.05,159.533,163.933,170.484,174.884,177.036,181.435,185.42,189.82,192.4501,196.044,202.595,209.147,214.455,219.763,222.417,228.969,235.52,239.50500000000002,243.099,247.084,251.484" svgx:width="0.55,0.38,0.55,0.82,0.55,0.33,0.44,0.38,0.55,0.72,0.27,0.33,0.55,0.55,0.38,0.44,0.44,0.55,0.82,0.55,0.27,0.55,0.5,0.55,0.33,0.55,0.82,0.82,0.67,0.67,0.33,0.82,0.82,0.5,0.55,0.5,0.55,0.55" style="fill:rgb(23,22,21);font-family:AdvTimes;font-size:7.97px;stroke:none;">promoter with recombinant GmZF-HD1 and</text>
   <text y="443.133" code="1" x="259.369" svgx:width="0.77" style="fill:rgb(23,22,21);font-family:AdvMT_SY;font-size:7.97px;stroke:none;">?</text>
   <text y="443.133" x="265.549,269.534,273.032,277.431,280.5,284.9,287.554,291.037,293.189,297.588,300.657" svgx:width="0.5,0.55,0.55,0.38,0.55,0.33,0.44,0.27,0.55,0.38,0.27" style="fill:rgb(23,22,21);font-family:AdvTimes;font-size:7.97px;stroke:none;">2 proteins.</text>
   <text y="452.091" x="55.784,61.092,65.492" svgx:width="0.67,0.55,0.44" style="fill:rgb(23,22,21);font-family:AdvTimes;font-size:7.97px;stroke:none;">The</text>
   <text y="448.575" x="72.0,74.989" svgx:width="0.5,0.5" style="fill:rgb(23,22,21);font-family:AdvTimes;font-size:5.31px;stroke:none;">32</text>
   <text y="452.09" x="78.009,82.823,85.477,87.629,91.615,96.014,99.497,101.649,105.132,109.5155,112.592,116.577,120.562,123.216,127.616,130.2461,133.285,137.685,139.837,141.989,145.974,150.373,154.773,159.172,162.655,164.807,168.29,172.69,175.344,177.496,181.895,185.4018,188.504,194.227,198.212,201.2406,204.322,206.474,210.873,214.356,218.756,223.155,227.141,229.795,233.278,237.6615,240.719,242.871,247.2545,250.3,252.954,257.354,260.8608,263.907,268.307,271.375,274.858,277.927,281.41,285.809,289.292,292.79879999999997,295.825,300.225" svgx:width="0.6,0.33,0.27,0.5,0.55,0.44,0.27,0.44,0.55,0.55,0.5,0.5,0.33,0.55,0.33,0.55,0.55,0.27,0.27,0.5,0.55,0.55,0.55,0.44,0.27,0.44,0.55,0.33,0.27,0.55,0.44,0.55,0.72,0.5,0.38,0.55,0.27,0.55,0.44,0.55,0.55,0.5,0.33,0.44,0.55,0.55,0.27,0.55,0.55,0.33,0.55,0.44,0.55,0.55,0.38,0.44,0.38,0.44,0.55,0.44,0.44,0.55,0.55,0.33" style="fill:rgb(23,22,21);font-family:AdvTimes;font-size:7.97px;stroke:none;">P-labeled 30-nt oligonucleotide was incubated in the presence of</text>
   <text y="461.048" x="55.786,58.855,62.338,65.821,70.22,76.772,81.171,83.323,87.723,91.708,96.107,98.7371,103.976,110.527,117.079,122.387,127.695,130.349,136.9,143.452,147.437,152.618,157.018" svgx:width="0.38,0.44,0.44,0.55,0.82,0.55,0.27,0.55,0.5,0.55,0.33,0.55,0.82,0.82,0.67,0.67,0.33,0.82,0.82,0.5,0.55,0.55,0.38" style="fill:rgb(23,22,21);font-family:AdvTimes;font-size:7.97px;stroke:none;">recombinant GmZF-HD1 or</text>
   <text y="461.048" code="1" x="165.261" svgx:width="0.77" style="fill:rgb(23,22,21);font-family:AdvMT_SY;font-size:7.97px;stroke:none;">?</text>
   <text y="461.048" x="171.44,175.425,180.568,184.967,188.036,192.435,195.089,198.572,200.724,205.1075,210.331,214.731,217.7596,222.917,229.469,233.868,239.2079,244.404,248.389,250.541,254.941,259.34,262.823,264.9749,270.143,276.28,278.432,280.5839,285.733,287.885,291.871,296.27,299.753" svgx:width="0.5,0.55,0.55,0.38,0.55,0.33,0.44,0.27,0.55,0.55,0.55,0.38,0.55,0.82,0.55,0.67,0.55,0.5,0.27,0.55,0.55,0.44,0.27,0.55,0.77,0.27,0.27,0.55,0.27,0.5,0.55,0.44,0.38" style="fill:rgb(23,22,21);font-family:AdvTimes;font-size:7.97px;stroke:none;">2 protein or GST alone. All lanes</text>
   <text y="470.005" x="55.786,59.269,63.669,68.068,70.722,74.707,76.859,81.24249999999999,86.344,90.329" svgx:width="0.44,0.55,0.55,0.33,0.5,0.27,0.55,0.55,0.5,0.5" style="fill:rgb(23,22,21);font-family:AdvTimes;font-size:7.97px;stroke:none;">contain 10</text>
   <text y="470.005" x="95.641" svgx:width="0.55" style="fill:rgb(23,22,21);font-family:AdvPi1;font-size:7.97px;stroke:none;">m</text>
   <text y="470.005" x="100.063,104.048,109.134,113.533,116.1631,121.266,124.749,128.734,132.217,136.6005,141.675,146.075,150.06,153.543,156.197,159.68,162.749,164.901,168.886,171.0379,176.145,179.628,183.613,186.267,189.336,193.321,196.804,199.458,201.6099,206.703,212.011,215.079,218.562,222.0688,227.112,229.766,233.751,236.82,239.888,244.288,250.01,252.6401,257.783,261.768,266.167,270.5505,275.641,280.04,283.109,287.508,290.163,293.645,295.797,300.197" svgx:width="0.5,0.55,0.55,0.33,0.55,0.44,0.5,0.44,0.55,0.55,0.55,0.5,0.44,0.33,0.44,0.38,0.27,0.5,0.27,0.55,0.44,0.5,0.33,0.38,0.5,0.44,0.33,0.27,0.55,0.67,0.38,0.44,0.44,0.55,0.33,0.5,0.38,0.38,0.55,0.72,0.33,0.55,0.5,0.55,0.55,0.55,0.55,0.38,0.55,0.33,0.44,0.27,0.55,0.33" style="fill:rgb(23,22,21);font-family:AdvTimes;font-size:7.97px;stroke:none;">g of each bacterial extract. Free (arrow) and protein-</text>
   <text y="479.02" x="55.785,59.268,63.668,70.219,74.619,76.771,80.254,84.239,87.722,92.10549999999999,96.434,99.088,103.073,106.142,109.21,113.61,119.332,123.732,127.215,131.2,135.6,138.2301,142.582,146.982,150.05,154.45,158.85,162.333,165.3616,169.682,175.404,178.887,181.956,185.4628,189.752,192.82,196.303,200.703,204.688,207.756,211.741,214.395,217.878,222.26149999999998,226.603,231.002,235.3855,239.642,243.627,248.0105,252.341,256.326,264.29600000000005,268.555,272.955,277.354,279.506,283.492,287.477,290.96,294.028,298.013,300.165" svgx:width="0.44,0.55,0.82,0.55,0.27,0.44,0.5,0.44,0.55,0.55,0.33,0.5,0.38,0.38,0.55,0.72,0.55,0.44,0.5,0.55,0.33,0.55,0.55,0.38,0.55,0.55,0.44,0.38,0.55,0.72,0.44,0.38,0.44,0.55,0.38,0.44,0.55,0.5,0.38,0.5,0.33,0.44,0.55,0.55,0.55,0.55,0.55,0.5,0.55,0.55,0.5,1.0,0.55,0.55,0.55,0.27,0.5,0.5,0.44,0.38,0.5,0.27,0.33" style="fill:rgb(23,22,21);font-family:AdvTimes;font-size:7.97px;stroke:none;">complexed (arrowhead) probes were separated on an 8% polyacryl-</text>
   <text y="487.977" x="55.785,59.77,66.322,68.474,72.873,76.3798,79.54,83.525,87.008,89.1599,92.409,96.394,100.794,105.1775,108.34,112.325,114.477,117.546,121.945,125.93,128.082,130.234,133.717,137.2,141.5835,144.851,149.25,153.235,156.416,160.401,164.801,167.455,171.855,174.923,178.908,183.308,185.46,189.859,193.844,196.913,200.898,205.298,209.697,213.682" svgx:width="0.5,0.82,0.27,0.55,0.44,0.55,0.5,0.44,0.27,0.55,0.5,0.55,0.55,0.55,0.5,0.27,0.38,0.55,0.5,0.27,0.27,0.44,0.44,0.55,0.55,0.55,0.5,0.55,0.5,0.55,0.33,0.55,0.38,0.5,0.55,0.27,0.55,0.5,0.38,0.5,0.55,0.55,0.5,0.27" style="fill:rgb(23,22,21);font-family:AdvTimes;font-size:7.97px;stroke:none;">amide gel and visualized by autoradiography.</text>
   <text y="44.978" x="349.001,356.826,361.907,366.348,369.092,373.532,376.276,380.7464,382.791,390.087,394.528,397.272,402.353,406.2138,408.302,415.599,420.039,423.952,428.392,433.473,437.386,441.826,446.907,449.6502,451.729,456.81,461.891,466.972,472.053,474.7962,476.844,484.141,489.222,491.965,494.7082,496.743,501.824,506.905,509.6482,511.711,519.536,524.617,527.3602,529.399,534.48" svgx:width="0.77,0.5,0.44,0.27,0.44,0.27,0.44,0.55,0.72,0.44,0.27,0.5,0.38,0.55,0.72,0.44,0.38,0.44,0.5,0.38,0.44,0.5,0.27,0.55,0.5,0.5,0.5,0.5,0.27,0.55,0.72,0.5,0.27,0.27,0.55,0.5,0.5,0.27,0.55,0.77,0.5,0.27,0.55,0.5,0.5" style="fill:rgb(23,22,21);font-family:AdvTimes-i;font-size:10.16px;stroke:none;">Nucleic Acids Research, 2007, Vol. 35, No. 11</text>
   <text y="44.978" x="549.524,554.605,559.686,564.767" svgx:width="0.5,0.5,0.5,0.5" style="fill:rgb(23,22,21);font-family:AdvTimes-bi;font-size:10.16px;stroke:none;">3619</text>
  </g>
 </g>
</svg>
