<?xml version="1.0" encoding="UTF-8"?>
<svg height="756.836" width="566.5423999999999" xmlns="http://www.w3.org/2000/svg">
 <g id="page" xmlns:svgx="http://www.xml-cml.org/schema/svgx">
  <g begin="text">
   <text y="38.969" x="42.463,47.444,52.426,57.407,62.388,67.369,72.351,77.332,82.313" svgx:width="0.5,0.5,0.5,0.5,0.5,0.5,0.5,0.5,0.5" style="fill:rgb(23,22,21);font-family:AdvTimes-bi;font-size:9.96px;stroke:none;">3612–3623</text>
   <text y="38.969" x="97.228,104.9,109.881,114.235,116.924,121.278,123.968,128.3504,132.377,139.531,143.884,146.574,151.555,155.3398,159.363,166.516,170.87,174.706,179.059,184.04,187.876,192.23,197.211,199.9002,203.923,208.904,213.885,218.867,223.848,226.5372,230.568,237.721,242.702,245.392,248.0812,252.054,257.035,262.017,264.7062,268.722,276.393,281.374,284.06320000000005,288.054,293.035,298.01500000000004,430.976,437.612,442.593,447.574,450.264,452.954,456.79,461.771,466.124,471.10400000000004,475.14,480.121,485.102,487.792,490.482,495.463,499.84540000000004,503.826,508.80600000000004,512.783,522.636,527.618,532.5980000000001,536.594,541.575,546.557,551.538" svgx:width="0.77,0.5,0.44,0.27,0.44,0.27,0.44,0.55,0.72,0.44,0.27,0.5,0.38,0.55,0.72,0.44,0.38,0.44,0.5,0.38,0.44,0.5,0.27,0.55,0.5,0.5,0.5,0.5,0.27,0.55,0.72,0.5,0.27,0.27,0.55,0.5,0.5,0.27,0.55,0.77,0.5,0.27,0.55,0.5,0.5,0.55,0.67,0.5,0.5,0.27,0.27,0.38,0.5,0.44,0.5,0.55,0.5,0.5,0.27,0.27,0.5,0.44,0.55,0.5,0.55,0.99,0.5,0.5,0.55,0.5,0.5,0.5,0.5" style="fill:rgb(23,22,21);font-family:AdvTimes-i;font-size:9.96px;stroke:none;">Nucleic Acids Research, 2007, Vol. 35, No. 11 Published online 7 May 2007</text>
   <text y="49.967" x="42.463,47.444,52.426,55.116,58.433,63.414,68.396,71.086,76.067,81.048,86.029,91.011,94.328,99.31,104.291,108.127,111.444,116.425,121.715,129.387,134.368,139.349" svgx:width="0.5,0.5,0.27,0.33,0.5,0.5,0.27,0.5,0.5,0.5,0.5,0.33,0.5,0.5,0.38,0.33,0.5,0.53,0.77,0.5,0.5,0.5" style="fill:rgb(23,22,21);font-family:AdvTimes-i;font-size:9.96px;stroke:none;">doi:10.1093/nar/gkm273</text>
   <text y="88.859" x="42.463,55.733,67.131,74.184,86.0,98.234,110.468,121.865,133.681,141.771,146.951,158.767,171.001,182.817,194.214,205.611,217.76829999999998,225.413,237.647,242.828,254.644,266.878,272.058,283.874,296.03130000000004,303.594,315.828,322.4049,329.899,336.953,348.769,360.1291,367.6,378.38,390.614,400.975,413.209,424.606,436.004,447.7627,455.305,465.666,470.847,482.663,494.0231,501.51,508.145,513.326,525.141,537.376,548.773" svgx:width="0.67,0.57,0.35,0.59,0.61,0.61,0.57,0.59,0.41,0.26,0.59,0.61,0.59,0.57,0.57,0.61,0.55,0.61,0.26,0.59,0.61,0.26,0.59,0.61,0.55,0.61,0.33,0.55,0.35,0.59,0.57,0.55,0.54,0.61,0.52,0.61,0.57,0.57,0.59,0.55,0.52,0.26,0.59,0.57,0.55,0.33,0.26,0.59,0.61,0.57,0.38" style="fill:rgb(23,22,21);font-family:AdvP47D4A3;font-size:19.93px;stroke:none;">Pathogen-induced binding of the soybean zinc finger</text>
   <text y="110.742" x="42.463,54.279,66.513,84.565,95.962,108.197,120.431,132.665,150.717,162.114,167.295,179.0537,185.443,197.677,205.348,217.582,224.636,236.033,241.214,253.03,263.7922,270.086,285.229,303.281,316.133,327.949,336.038,350.763,365.488,376.4495,382.793,394.19,406.006,418.1633,424.519,439.662,457.714,470.566,482.382,490.471,505.196,519.921,530.8825,537.226,544.28" svgx:width="0.59,0.61,0.91,0.57,0.61,0.61,0.61,0.91,0.57,0.26,0.59,0.55,0.61,0.38,0.61,0.35,0.57,0.26,0.59,0.54,0.55,0.76,0.91,0.64,0.59,0.41,0.74,0.74,0.55,0.55,0.57,0.59,0.61,0.55,0.76,0.91,0.64,0.59,0.41,0.74,0.74,0.55,0.55,0.35,0.61" style="fill:rgb(23,22,21);font-family:AdvP47D4A3;font-size:19.93px;stroke:none;">homeodomain proteins GmZF-HD1 and GmZF-HD2 to</text>
   <text y="132.682" x="42.463,49.517,65.696,77.85329999999999,85.89,93.561,104.959,117.193,128.59,139.987,147.041,157.8032,165.884,178.118,184.6949,192.758,206.446,218.68,230.915,244.6667,252.625,264.441,276.675,294.727,306.125,318.359,330.593,342.827,360.879,372.276,377.457,389.21569999999997,397.362,409.597,414.777,426.593,438.827,444.008,455.823,467.9803,476.109,486.889,492.069,499.123" svgx:width="0.35,0.81,0.61,0.55,0.38,0.57,0.61,0.57,0.57,0.35,0.54,0.55,0.61,0.33,0.55,0.69,0.61,0.61,0.69,0.55,0.59,0.61,0.91,0.57,0.61,0.61,0.61,0.91,0.57,0.26,0.59,0.55,0.61,0.26,0.59,0.61,0.26,0.59,0.61,0.55,0.54,0.26,0.35,0.57" style="fill:rgb(23,22,21);font-family:AdvP47D4A3;font-size:19.93px;stroke:none;">two repeats of ATTA homeodomain binding site</text>
   <text y="154.622" x="42.463,47.644,59.402699999999996,67.407,74.461,86.277,97.6371,105.676,117.073,128.471,133.651,151.703,163.938,176.172,187.987,193.168,198.349,210.1077,218.27,223.45,234.23,246.464,253.099,265.333,273.005,291.1413,299.115" svgx:width="0.26,0.59,0.55,0.35,0.59,0.57,0.55,0.57,0.57,0.26,0.91,0.61,0.61,0.59,0.26,0.26,0.59,0.55,0.26,0.54,0.61,0.33,0.61,0.38,0.91,0.55,0.55" style="fill:rgb(23,22,21);font-family:AdvP47D4A3;font-size:19.93px;stroke:none;">in the calmodulin isoform 4</text>
   <text y="154.622" x="318.048,323.846,338.989,357.042,371.766,383.164,401.216,412.215" svgx:width="0.29,0.76,0.91,0.74,0.57,0.91,0.55,0.29" style="fill:rgb(23,22,21);font-family:AdvP47D8EF;font-size:19.93px;stroke:none;">(GmCaM4)</text>
   <text y="154.622" x="426.105,438.339,446.01,458.244,476.297,488.531,495.584,506.982" svgx:width="0.61,0.38,0.61,0.91,0.61,0.35,0.57,0.38" style="fill:rgb(23,22,21);font-family:AdvP47D4A3;font-size:19.93px;stroke:none;">promoter</text>
   <text y="178.263" x="42.463,51.298,57.514,64.353,71.693,78.783,86.0786,90.936,99.771,106.86,113.699,121.039,124.1486,128.977,136.939,143.778,148.38" svgx:width="0.74,0.52,0.57,0.61,0.59,0.61,0.55,0.74,0.59,0.57,0.61,0.26,0.55,0.67,0.57,0.38,0.57" style="fill:rgb(23,22,21);font-family:AdvP47D4A3;font-size:11.96px;stroke:none;">Hyeong Cheol Park</text>
   <text y="172.934" x="155.225,160.175,162.694" svgx:width="0.55,0.28,0.55" style="fill:rgb(23,22,21);font-family:AdvP47D4A3;font-size:7.97px;stroke:none;">1,2</text>
   <text y="178.263" x="167.641,170.9898,175.805,186.636,193.475,200.5314,205.399,212.488,218.705,225.543,232.632,239.9276,244.8,253.384,256.492" svgx:width="0.28,0.55,0.91,0.57,0.59,0.55,0.59,0.52,0.57,0.59,0.61,0.55,0.72,0.26,0.91" style="fill:rgb(23,22,21);font-family:AdvP47D4A3;font-size:11.96px;stroke:none;">, Man Lyang Kim</text>
   <text y="172.934" x="267.307" svgx:width="0.55" style="fill:rgb(23,22,21);font-family:AdvP47D4A3;font-size:7.97px;stroke:none;">1</text>
   <text y="178.263" x="272.239,275.58779999999996,280.403,288.114,294.953,302.042,309.33759999999995,314.192,325.023,328.132,335.1884,340.044,347.133,353.972" svgx:width="0.28,0.55,0.64,0.57,0.59,0.61,0.55,0.91,0.26,0.59,0.55,0.59,0.57,0.57" style="fill:rgb(23,22,21);font-family:AdvP47D4A3;font-size:11.96px;stroke:none;">, Sang Min Lee</text>
   <text y="172.934" x="360.85,365.8,368.319" svgx:width="0.55,0.28,0.55" style="fill:rgb(23,22,21);font-family:AdvP47D4A3;font-size:7.97px;stroke:none;">1,2</text>
   <text y="178.263" x="373.266,376.6148,381.373,387.972,394.81,402.151,409.24,416.5356,421.399,430.233,437.574,444.663,451.9586,456.832,465.296,472.135,479.224" svgx:width="0.28,0.55,0.55,0.57,0.61,0.59,0.61,0.55,0.74,0.61,0.59,0.61,0.55,0.71,0.57,0.59,0.57" style="fill:rgb(23,22,21);font-family:AdvP47D4A3;font-size:11.96px;stroke:none;">, Jeong Dong Bahk</text>
   <text y="172.934" x="486.085,491.034,493.554" svgx:width="0.55,0.28,0.55" style="fill:rgb(23,22,21);font-family:AdvP47D4A3;font-size:7.97px;stroke:none;">1,2</text>
   <text y="178.263" x="498.501" svgx:width="0.28" style="fill:rgb(23,22,21);font-family:AdvP47D4A3;font-size:11.96px;stroke:none;">,</text>
   <text y="194.193" x="42.464,51.299,58.137,64.975,69.829,76.428,79.536,86.5924,91.447,99.409,106.499" svgx:width="0.74,0.57,0.57,0.41,0.55,0.26,0.59,0.55,0.67,0.59,0.59" style="fill:rgb(23,22,21);font-family:AdvP47D4A3;font-size:11.96px;stroke:none;">Dae-Jin Yun</text>
   <text y="188.921" x="113.613,118.562,121.082" svgx:width="0.55,0.28,0.55" style="fill:rgb(23,22,21);font-family:AdvP47D4A3;font-size:7.97px;stroke:none;">1,2</text>
   <text y="194.194" x="126.028,129.3768,134.192,143.027,150.117,156.955,163.7722,168.605,177.942,184.9984,189.809,196.898,200.006" svgx:width="0.28,0.55,0.74,0.59,0.57,0.57,0.55,0.78,0.59,0.55,0.59,0.26,0.91" style="fill:rgb(23,22,21);font-family:AdvP47D4A3;font-size:11.96px;stroke:none;">, Chae Oh Lim</text>
   <text y="188.921" x="210.841,215.79,218.31" svgx:width="0.55,0.28,0.55" style="fill:rgb(23,22,21);font-family:AdvP47D4A3;font-size:7.97px;stroke:none;">1,2</text>
   <text y="194.194" x="223.257,226.60580000000002,231.421,238.02,245.36,252.45,259.74559999999997,264.587,273.421,280.511,287.349,294.4054,299.283,308.117,315.458,322.547" svgx:width="0.28,0.55,0.55,0.61,0.59,0.61,0.55,0.74,0.59,0.57,0.59,0.55,0.74,0.61,0.59,0.61" style="fill:rgb(23,22,21);font-family:AdvP47D4A3;font-size:11.96px;stroke:none;">, Jong Chan Hong</text>
   <text y="188.921" x="329.896,334.845,337.365" svgx:width="0.55,0.28,0.55" style="fill:rgb(23,22,21);font-family:AdvP47D4A3;font-size:7.97px;stroke:none;">1,2</text>
   <text y="194.194" x="342.312,345.6608,350.476,358.187,365.025,372.115,379.4106,384.265,392.227,399.065,406.405,409.5146,414.312,421.402,428.24" svgx:width="0.28,0.55,0.64,0.57,0.59,0.61,0.55,0.67,0.57,0.61,0.26,0.55,0.59,0.57,0.57" style="fill:rgb(23,22,21);font-family:AdvP47D4A3;font-size:11.96px;stroke:none;">, Sang Yeol Lee</text>
   <text y="188.921" x="435.118,440.067,442.587" svgx:width="0.55,0.28,0.55" style="fill:rgb(23,22,21);font-family:AdvP47D4A3;font-size:7.97px;stroke:none;">1,2</text>
   <text y="194.194" x="447.534" svgx:width="0.28" style="fill:rgb(23,22,21);font-family:AdvP47D4A3;font-size:11.96px;stroke:none;">,</text>
   <text y="210.124" x="42.464,53.295,60.636,67.9316,72.738,79.337,86.1542,90.993,99.828,106.917" svgx:width="0.91,0.61,0.61,0.55,0.55,0.57,0.55,0.74,0.59,0.61" style="fill:rgb(23,22,21);font-family:AdvP47D4A3;font-size:11.96px;stroke:none;">Moo Je Cho</text>
   <text y="204.852" x="114.293" svgx:width="0.55" style="fill:rgb(23,22,21);font-family:AdvP47D4A3;font-size:7.97px;stroke:none;">1</text>
   <text y="210.125" x="123.987,130.826,137.915,145.2106,150.066,161.388,168.728,176.02360000000002,180.907,188.618,191.726,198.5432,203.357,212.192,219.282,226.371,233.46" svgx:width="0.57,0.59,0.61,0.55,0.95,0.61,0.61,0.55,0.64,0.26,0.57,0.55,0.74,0.59,0.59,0.59,0.61" style="fill:rgb(23,22,21);font-family:AdvP47D4A3;font-size:11.96px;stroke:none;">and Woo Sik Chung</text>
   <text y="204.852" x="240.831,245.781,248.3,253.25" svgx:width="0.55,0.28,0.55,0.28" style="fill:rgb(23,22,21);font-family:AdvP47D4A3;font-size:7.97px;stroke:none;">1,2,</text>
   <text y="210.125" x="255.798" svgx:width="0.41" style="fill:rgb(23,22,21);font-family:AdvP47D4A3;font-size:11.96px;stroke:none;">*</text>
   <text y="229.4" x="42.463" svgx:width="0.55" style="fill:rgb(23,22,21);font-family:AdvP47DFC8;font-size:6.64px;stroke:none;">1</text>
   <text y="233.822" x="46.545,53.598,55.77,60.752,62.923,67.905,70.077,75.775,81.253,85.322,91.021,93.9094,97.908,104.334,110.242,116.15,118.321,120.493,125.883,131.7594,135.835,141.334,143.506,146.405,151.7834,155.791,162.217,167.606,169.778,175.168,180.667,186.057,191.4354,195.475,198.065,204.909,211.544,217.044,222.52200000000002,226.542,232.45,235.768,241.466,247.165,250.482,255.872,264.38,266.97,269.7588,273.824,280.25,282.421,287.811,293.311,296.3986,300.412,309.129,314.828,317.0,322.389,327.779,333.279,335.45,340.84,344.1268,348.204,355.048,357.22,362.918,365.09,370.789,376.487,381.46700000000004,385.506,390.896,396.396,402.2724,406.312,413.157,415.328,421.027,424.135,429.525,434.915,440.414,445.914,451.612,453.784,459.483,465.181,470.161,474.229,481.074,486.463,491.445,496.835,502.224,505.542,510.932,516.41,520.434,527.587,532.977,538.476,541.585,546.974,550.292" svgx:width="0.71,0.22,0.5,0.22,0.5,0.22,0.57,0.55,0.55,0.57,0.29,0.55,0.64,0.59,0.59,0.22,0.22,0.54,0.59,0.55,0.55,0.22,0.29,0.54,0.55,0.64,0.54,0.22,0.54,0.55,0.54,0.54,0.55,0.26,0.69,0.67,0.55,0.55,0.55,0.59,0.33,0.57,0.57,0.33,0.54,0.85,0.26,0.28,0.55,0.64,0.22,0.54,0.55,0.31,0.55,0.88,0.57,0.22,0.54,0.54,0.55,0.22,0.54,0.33,0.55,0.69,0.22,0.57,0.22,0.57,0.57,0.5,0.55,0.54,0.55,0.59,0.55,0.69,0.22,0.57,0.31,0.54,0.54,0.55,0.55,0.57,0.22,0.57,0.57,0.5,0.55,0.69,0.54,0.5,0.54,0.54,0.33,0.54,0.55,0.55,0.72,0.54,0.55,0.31,0.54,0.33,0.28" style="fill:rgb(23,22,21);font-family:AdvP47DFC8;font-size:9.96px;stroke:none;">Division of Applied Life Science (BK21 program), Plant Molecular Biology and Biotechnology Research Center,</text>
   <text y="245.784" x="42.463,50.035,55.016,60.406,66.104,71.604,77.302,82.284,87.673,93.173,98.8502,102.16,109.313,114.703,117.811,119.983,125.682,131.181,136.571,138.7622,142.128,149.281,154.781,156.952,161.934,167.323,170.641,175.622,177.794,180.902,185.884,188.6728,192.017,197.197,199.369,204.869,207.04,212.54,215.3288,218.662,224.161,229.66,235.16,238.995,244.495,249.994,255.493,258.2818,261.578,268.213,273.911,277.229,282.619,287.9974,291.341,296.731,302.23" svgx:width="0.76,0.5,0.54,0.57,0.55,0.57,0.5,0.54,0.55,0.57,0.55,0.72,0.54,0.31,0.22,0.57,0.55,0.54,0.22,0.55,0.72,0.55,0.22,0.5,0.54,0.33,0.5,0.22,0.31,0.5,0.28,0.55,0.52,0.22,0.55,0.22,0.55,0.28,0.55,0.55,0.55,0.55,0.38,0.55,0.55,0.55,0.28,0.55,0.67,0.57,0.33,0.54,0.54,0.55,0.54,0.55,0.59" style="fill:rgb(23,22,21);font-family:AdvP47DFC8;font-size:9.96px;stroke:none;">Gyeongsang National University, Jinju, 660-701, Korea and</text>
   <text y="241.362" x="311.414" svgx:width="0.55" style="fill:rgb(23,22,21);font-family:AdvP47DFC8;font-size:6.64px;stroke:none;">2</text>
   <text y="245.784" x="315.553,321.67,327.169,332.15,334.322,337.64,343.338,348.838,357.346,362.736,368.235,371.343,376.733,378.9242,382.279,389.124,391.295,396.994,400.102,405.492,410.882,416.381,421.881,427.579,429.751,435.45,441.148,446.12800000000004,449.459,456.612,462.002,465.11,467.282,472.981,478.48,483.87,486.0612,489.37,496.523,502.222,505.539,510.9174,514.258,521.102,526.492,531.473,536.863,542.253,545.57,550.96" svgx:width="0.61,0.55,0.5,0.22,0.33,0.57,0.55,0.85,0.54,0.55,0.31,0.54,0.22,0.55,0.69,0.22,0.57,0.31,0.54,0.54,0.55,0.55,0.57,0.22,0.57,0.57,0.5,0.55,0.72,0.54,0.31,0.22,0.57,0.55,0.54,0.22,0.55,0.72,0.57,0.33,0.54,0.55,0.69,0.54,0.5,0.54,0.54,0.33,0.54,0.55" style="fill:rgb(23,22,21);font-family:AdvP47DFC8;font-size:9.96px;stroke:none;">Environmental Biotechnology National Core Research</text>
   <text y="257.747" x="42.464,49.617,55.007,60.506,63.614,69.004,72.322,75.1108,79.143,86.715,91.696,97.086,102.784,108.284,113.982,118.964,124.353,129.853,135.5302,139.577,146.73,152.12,155.229,157.4,163.099,168.598,173.988,176.1792,180.169,187.322,192.821,194.993,199.975,205.364,208.682,213.663,215.835,218.943,223.925,226.71380000000002,230.738,235.919,238.091,243.59,245.762,251.261,254.0498,258.064,263.563,269.062,274.562,278.397,283.897,289.396,294.895,297.68379999999996,301.717,308.352,314.05,317.368,322.758" svgx:width="0.72,0.54,0.55,0.31,0.54,0.33,0.28,0.55,0.76,0.5,0.54,0.57,0.55,0.57,0.5,0.54,0.55,0.57,0.55,0.72,0.54,0.31,0.22,0.57,0.55,0.54,0.22,0.55,0.72,0.55,0.22,0.5,0.54,0.33,0.5,0.22,0.31,0.5,0.28,0.55,0.52,0.22,0.55,0.22,0.55,0.28,0.55,0.55,0.55,0.55,0.38,0.55,0.55,0.55,0.28,0.55,0.67,0.57,0.33,0.54,0.54" style="fill:rgb(23,22,21);font-family:AdvP47DFC8;font-size:9.96px;stroke:none;">Center, Gyeongsang National University, Jinju, 660-701, Korea</text>
   <text y="281.614" x="42.463,47.939,52.25,56.562,60.874,62.612,66.597,70.909,75.6113,78.861,84.503,88.815,93.127,97.439,104.246,108.972,113.284,115.9141,119.113,123.513,125.7446,128.978,133.377,137.777,142.177,146.576,148.80759999999998,151.995,157.471,161.782,165.768,167.505,171.49,175.802,180.5043,183.744,188.055,192.455,197.15730000000002,200.412,205.552,209.864,214.176,218.488,223.214,225.701,230.013,234.7153,237.943,243.083,247.81,250.464,252.201,253.9544,257.162,261.561,265.961,268.1926,271.392,275.791,280.191,284.59" svgx:width="0.69,0.54,0.54,0.54,0.22,0.5,0.54,0.59,0.55,0.71,0.54,0.54,0.54,0.85,0.59,0.54,0.33,0.55,0.55,0.28,0.55,0.55,0.55,0.55,0.55,0.28,0.55,0.69,0.54,0.5,0.22,0.5,0.54,0.59,0.55,0.54,0.55,0.59,0.55,0.64,0.54,0.54,0.54,0.59,0.31,0.54,0.59,0.55,0.64,0.59,0.33,0.22,0.22,0.55,0.55,0.55,0.28,0.55,0.55,0.55,0.55,0.55" style="fill:rgb(23,22,21);font-family:AdvP47DFC8;font-size:7.97px;stroke:none;">Received December 1, 2006; Revised and Accepted April 10, 2007</text>
   <text y="317.501" x="42.463,49.307,56.361,62.787,68.904,76.057,82.901,90.264" svgx:width="0.69,0.71,0.64,0.61,0.72,0.69,0.74,0.61" style="fill:rgb(23,22,21);font-family:AdvP47D4A3;font-size:9.96px;stroke:none;">ABSTRACT</text>
   <text y="334.225" x="42.463,49.825,55.524,58.114,67.14,73.257,79.374,85.282,87.873,90.463,96.3394,100.005,102.904,110.266,115.965,124.991,127.8794,131.582,134.173,139.5514,143.205,145.795,151.703,156.883,163.001,165.591,170.771,176.47,182.5456,186.234,188.825,194.70139999999998,198.424,204.541,210.239,213.557,219.255,225.163,230.553,236.2302,239.922,243.757,249.456,254.846,260.963,267.08,272.988,278.377,284.076" svgx:width="0.74,0.57,0.26,0.91,0.61,0.61,0.59,0.26,0.26,0.59,0.55,0.29,0.74,0.57,0.91,0.29,0.55,0.26,0.54,0.55,0.26,0.59,0.52,0.61,0.26,0.52,0.57,0.61,0.55,0.26,0.59,0.55,0.61,0.57,0.33,0.57,0.59,0.54,0.57,0.55,0.38,0.57,0.54,0.61,0.61,0.59,0.54,0.57,0.54" style="fill:rgb(23,22,21);font-family:AdvP47D4A3;font-size:9.96px;stroke:none;">Calmodulin (CaM) is involved in defense responses</text>
   <text y="346.187" x="42.463,45.053,50.9294,54.312,60.429,63.019,68.717,74.625,78.152,83.542,86.3308,89.688,92.587,98.46340000000001,101.877,107.267,113.384,118.564,124.681,130.38,136.079,141.9554,145.417" svgx:width="0.26,0.59,0.55,0.61,0.26,0.57,0.59,0.35,0.54,0.28,0.55,0.29,0.59,0.55,0.54,0.61,0.52,0.61,0.57,0.57,0.59,0.55,0.29" style="fill:rgb(23,22,21);font-family:AdvP47D4A3;font-size:9.96px;stroke:none;">in plants. In soybean (</text>
   <text y="346.187" x="148.309,155.88,158.471,163.651,169.15,171.741,177.858,183.5352,186.916,195.942,201.64" svgx:width="0.76,0.26,0.52,0.55,0.26,0.61,0.57,0.55,0.91,0.57,0.52" style="fill:rgb(23,22,21);font-family:AdvP47D8EF;font-size:9.96px;stroke:none;">Glycine max</text>
   <text y="346.187" x="206.872,209.771,212.5598,215.886,219.413,223.248,228.947,234.855,240.245,245.943,249.779,252.369,258.486,262.013,264.603,270.72,276.5964,280.061,286.178" svgx:width="0.29,0.28,0.55,0.35,0.38,0.57,0.59,0.54,0.57,0.38,0.26,0.61,0.35,0.26,0.61,0.59,0.55,0.61,0.33" style="fill:rgb(23,22,21);font-family:AdvP47D4A3;font-size:9.96px;stroke:none;">), transcription of</text>
   <text y="358.149" x="42.463,48.162,53.86,56.451,65.477,71.594,77.711,83.619,86.209,88.799,94.67540000000001,98.814,101.405,106.795,112.912,116.229,122.346,126.182,135.2456,139.349,144.827,148.93" svgx:width="0.57,0.57,0.26,0.91,0.61,0.61,0.59,0.26,0.26,0.59,0.55,0.26,0.54,0.61,0.33,0.61,0.38,0.91,0.55,0.55,0.55,0.29" style="fill:rgb(23,22,21);font-family:AdvP47D4A3;font-size:9.96px;stroke:none;">calmodulin isoform 4 (</text>
   <text y="358.149" x="151.88,159.452,168.478,175.84,181.539,190.565" svgx:width="0.76,0.91,0.74,0.57,0.91,0.55" style="fill:rgb(23,22,21);font-family:AdvP47D8EF;font-size:9.96px;stroke:none;">GmCaM4</text>
   <text y="358.149" x="196.1,198.98839999999998,203.073,205.663,211.0414,215.149,218.984,224.683,230.8,233.39,239.507,242.098,247.27720000000002,251.432,254.022,259.93,266.047,271.954,277.653,283.352" svgx:width="0.29,0.55,0.26,0.54,0.55,0.38,0.57,0.61,0.26,0.61,0.26,0.52,0.55,0.26,0.59,0.61,0.59,0.57,0.57,0.61" style="fill:rgb(23,22,21);font-family:AdvP47D4A3;font-size:9.96px;stroke:none;">) is rapidly induced</text>
   <text y="370.111" x="42.463,50.553,53.143,56.67,62.577,65.168,71.04440000000001,73.701,79.2,84.678,86.343,95.369,97.96,103.8364,106.526,112.224,115.542,119.068,124.767,128.5518,131.244,137.361,143.059,146.586,152.494,158.611,164.728,170.427,176.30339999999998,179.035,184.425,187.952,190.542,199.568,205.476,208.066,213.765,217.292,219.882,225.999,231.907,234.69580000000002,237.371,243.488,249.396,252.88199999999998,255.57,259.406,265.104,271.221,277.129,279.719,285.418" svgx:width="0.81,0.26,0.35,0.59,0.26,0.59,0.55,0.55,0.55,0.55,0.91,0.26,0.59,0.55,0.57,0.33,0.35,0.57,0.38,0.55,0.61,0.57,0.35,0.59,0.61,0.61,0.57,0.59,0.55,0.54,0.35,0.26,0.91,0.59,0.26,0.57,0.35,0.26,0.61,0.59,0.28,0.55,0.61,0.59,0.35,0.55,0.38,0.57,0.61,0.59,0.26,0.57,0.41" style="fill:rgb(23,22,21);font-family:AdvP47D4A3;font-size:9.96px;stroke:none;">within 30 min after pathogen stimulation, but regula-</text>
   <text y="382.073" x="42.463,45.99,48.58,54.697,60.57340000000001,64.233,70.35,73.6368,77.329,80.856,86.764" svgx:width="0.35,0.26,0.61,0.59,0.55,0.61,0.33,0.55,0.35,0.59,0.57" style="fill:rgb(23,22,21);font-family:AdvP47D4A3;font-size:9.96px;stroke:none;">tion of the</text>
   <text y="382.073" x="96.15,103.722,112.748,120.111,125.809,134.835" svgx:width="0.76,0.91,0.74,0.57,0.91,0.55" style="fill:rgb(23,22,21);font-family:AdvP47D8EF;font-size:9.96px;stroke:none;">GmCaM4</text>
   <text y="382.073" x="143.999,150.116,155.814,161.722,167.3992,171.098,173.688,179.56439999999998,183.231,187.066,192.765,198.155,204.272,210.389,216.296,221.686,227.3632,231.079,234.606,240.6816,244.345,250.462,256.161,259.688,265.595,271.712,277.829,283.528" svgx:width="0.61,0.57,0.59,0.57,0.55,0.26,0.59,0.55,0.38,0.57,0.54,0.61,0.61,0.59,0.54,0.57,0.55,0.35,0.61,0.55,0.61,0.57,0.35,0.59,0.61,0.61,0.57,0.59" style="fill:rgb(23,22,21);font-family:AdvP47D4A3;font-size:9.96px;stroke:none;">gene in response to pathogen</text>
   <text y="393.979" x="42.462,45.052,50.4304,57.372,63.489,69.606,75.723,79.559,82.149,87.3282,94.278,100.186,106.094,112.211,117.91,121.745,127.135,130.662,136.779,142.896,149.013,151.80180000000001,158.794,166.157,171.855,175.691,181.389,184.17780000000002,191.109,199.199,204.8762,211.858,217.766,223.156,228.854,234.92960000000002,241.905,245.432,251.34,257.0172,263.958,269.139,274.838,280.536,285.926" svgx:width="0.26,0.54,0.55,0.61,0.61,0.61,0.38,0.26,0.52,0.55,0.59,0.59,0.61,0.57,0.38,0.54,0.35,0.61,0.61,0.61,0.28,0.55,0.74,0.57,0.38,0.57,0.28,0.55,0.81,0.57,0.55,0.59,0.54,0.57,0.61,0.55,0.35,0.59,0.57,0.55,0.52,0.57,0.57,0.54,0.35" style="fill:rgb(23,22,21);font-family:AdvP47D4A3;font-size:9.96px;stroke:none;">is poorly understood. Here, we used the yeast</text>
   <text y="405.941" x="42.462,48.579,54.487,60.185,64.23,70.138,75.319,81.436,85.271,87.862,93.93759999999999,101.251,106.641,111.822,117.211,120.738,126.437,135.5006,142.75,146.276,152.35160000000002,159.644,162.234,167.624,173.741,176.331,182.03,185.557,191.2342,198.535,202.062,210.152,216.2276,223.536,229.235,236.597,243.96,250.8324,258.062,263.76,266.351,272.468,278.375,284.074" svgx:width="0.61,0.59,0.57,0.41,0.59,0.52,0.61,0.38,0.26,0.61,0.55,0.54,0.52,0.54,0.35,0.57,0.91,0.55,0.35,0.61,0.55,0.26,0.54,0.61,0.26,0.57,0.35,0.57,0.55,0.35,0.81,0.61,0.55,0.57,0.74,0.74,0.69,0.55,0.57,0.26,0.61,0.59,0.57,0.54" style="fill:rgb(23,22,21);font-family:AdvP47D4A3;font-size:9.96px;stroke:none;">one-hybrid system to isolate two cDNA clones</text>
   <text y="417.903" x="42.462,48.161,54.068,59.767,65.884,72.001,74.591,80.499,86.57459999999999,93.145,99.262,103.097,109.214,112.741,118.44,121.03,126.938,132.31640000000002,138.895,142.422,148.33,154.028,157.51399999999998,164.067,170.184,172.774,178.682,184.7576,191.335,194.862,200.9376,207.492,213.1692,219.682,225.181,230.68,234.725,240.633,244.119,250.692,257.537,261.273,267.39,271.434,275.27,277.86,283.559" svgx:width="0.57,0.59,0.57,0.61,0.61,0.26,0.59,0.61,0.55,0.61,0.38,0.61,0.35,0.57,0.26,0.59,0.54,0.55,0.35,0.59,0.57,0.35,0.55,0.61,0.26,0.59,0.61,0.55,0.35,0.61,0.55,0.57,0.55,0.55,0.55,0.41,0.59,0.35,0.55,0.69,0.38,0.61,0.41,0.38,0.26,0.57,0.59" style="fill:rgb(23,22,21);font-family:AdvP47D4A3;font-size:9.96px;stroke:none;">encoding proteins that bind to a 30-nt A/T-rich</text>
   <text y="429.865" x="42.462,47.852,53.55,59.667,65.575,71.274,77.182,82.88,88.5572,93.088,95.678,101.5544,106.07,109.597,115.505,121.1822,125.686,133.257,142.283,149.646,155.344,164.37,169.848,174.327,180.444,184.28,190.397,199.423,205.54,209.067,214.765,218.601,221.3898,225.916,231.5932,236.064,239.9,245.598,251.715,254.306,260.423,266.2994,270.817,274.344,280.251,285.95" svgx:width="0.54,0.57,0.61,0.59,0.57,0.59,0.57,0.57,0.55,0.26,0.59,0.55,0.35,0.59,0.57,0.55,0.76,0.91,0.74,0.57,0.91,0.55,0.55,0.61,0.38,0.61,0.91,0.61,0.35,0.57,0.38,0.28,0.55,0.57,0.55,0.38,0.57,0.61,0.26,0.61,0.59,0.55,0.35,0.59,0.57,0.35" style="fill:rgb(23,22,21);font-family:AdvP47D4A3;font-size:9.96px;stroke:none;">sequence in the GmCaM4 promoter, a region that</text>
   <text y="441.827" x="42.462,48.161,54.278,60.185,63.712,69.411,72.001,77.909,83.2874,86.512,90.038,98.128,104.2036,107.488,111.324,117.022,123.139,128.838,134.536,138.063,143.4414,146.662,152.779,156.0658,159.304,164.9812,168.205,173.904,180.021,185.928,191.318,197.017,200.852,206.033,211.732,217.8076,221.098,227.006,233.123,242.149,247.848,253.965,260.082,266.199,275.225,280.924,283.514" svgx:width="0.57,0.61,0.59,0.35,0.57,0.26,0.59,0.54,0.55,0.35,0.81,0.61,0.55,0.38,0.57,0.61,0.57,0.57,0.35,0.54,0.55,0.61,0.33,0.55,0.57,0.55,0.57,0.61,0.59,0.54,0.57,0.38,0.52,0.57,0.61,0.55,0.59,0.61,0.91,0.57,0.61,0.61,0.61,0.91,0.57,0.26,0.59" style="fill:rgb(23,22,21);font-family:AdvP47D4A3;font-size:9.96px;stroke:none;">contains two repeats of a conserved homeodomain</text>
   <text y="453.789" x="42.462,48.579,51.169,57.077,63.194,65.784,71.692,77.76759999999999,83.167,88.557,91.147,94.674,100.373,103.1618,108.565,115.409,121.526,127.643,134.488,137.2768,142.694,148.811,154.719,160.3962,165.767,169.294,177.383,183.45860000000002,188.897,195.014,198.85,204.967,208.494,214.192,216.783,222.69,228.08,230.86880000000002,236.291,243.863,252.889,259.315,265.223,269.268,276.63,283.992" svgx:width="0.61,0.26,0.59,0.61,0.26,0.59,0.61,0.55,0.54,0.26,0.35,0.57,0.28,0.55,0.69,0.61,0.61,0.69,0.28,0.55,0.61,0.59,0.57,0.55,0.35,0.81,0.61,0.55,0.61,0.38,0.61,0.35,0.57,0.26,0.59,0.54,0.28,0.55,0.76,0.91,0.64,0.59,0.41,0.74,0.74,0.55" style="fill:rgb(23,22,21);font-family:AdvP47D4A3;font-size:9.96px;stroke:none;">binding site, ATTA. The two proteins, GmZF-HD1</text>
   <text y="465.751" x="42.462,48.161,54.068,60.1436,64.742,72.314,81.34,87.766,93.674,97.719,105.081,112.443,117.943,120.73179999999999,125.403,131.52,137.218,139.809,145.926,151.833,157.9086,162.536,166.063,172.1386,176.766,180.293,186.2,191.8772,196.495,201.675,204.266,210.173,215.8502,220.476,223.793,226.384,232.291,238.408,244.107,247.8918,252.563,258.471,264.588,273.614,279.313,285.43" svgx:width="0.57,0.59,0.61,0.55,0.76,0.91,0.64,0.59,0.41,0.74,0.74,0.55,0.28,0.55,0.61,0.57,0.26,0.61,0.59,0.61,0.55,0.35,0.61,0.55,0.35,0.59,0.57,0.55,0.52,0.26,0.59,0.57,0.55,0.33,0.26,0.59,0.61,0.57,0.38,0.55,0.59,0.61,0.91,0.57,0.61,0.41" style="fill:rgb(23,22,21);font-family:AdvP47D4A3;font-size:9.96px;stroke:none;">and GmZF-HD2, belong to the zinc finger homeo-</text>
   <text y="477.713" x="42.462,48.579,54.696,63.722,69.421,72.011,77.8874,91.501,94.4,100.826,106.734,110.779,118.141,125.503,128.3914,142.07,145.597,149.432,155.131,161.039,166.429,172.127,175.963,178.553,184.67,188.197,190.787,196.904,202.7804,216.45,219.767,225.466,231.165,234.691,240.808,244.59279999999998,258.289,261.606,267.305,276.331,278.921,281.512,286.692" svgx:width="0.61,0.61,0.91,0.57,0.26,0.59,0.55,0.29,0.64,0.59,0.41,0.74,0.74,0.29,0.55,0.35,0.38,0.57,0.59,0.54,0.57,0.38,0.26,0.61,0.35,0.26,0.61,0.59,0.55,0.33,0.57,0.57,0.35,0.61,0.38,0.55,0.33,0.57,0.91,0.26,0.26,0.52,0.28" style="fill:rgb(23,22,21);font-family:AdvP47D4A3;font-size:9.96px;stroke:none;">domain (ZF-HD) transcription factor family.</text>
   <text y="489.619" x="42.462,49.824,55.941,64.968,70.666,73.256,79.1324,84.981,91.098,96.797,99.387,105.086,108.613,111.203,117.32,123.1964,129.088,134.786,140.694,146.393,148.983,154.164,159.553,162.144,167.5224,173.421,178.811,184.719,190.836,198.926,204.624,210.6996,216.564,220.091,225.999,231.698,235.184,241.056,246.7332,252.564,258.472,264.589,273.615,279.314,285.431" svgx:width="0.74,0.61,0.91,0.57,0.26,0.59,0.55,0.61,0.57,0.26,0.57,0.35,0.26,0.61,0.59,0.55,0.57,0.59,0.57,0.26,0.52,0.54,0.26,0.54,0.55,0.54,0.59,0.61,0.81,0.57,0.61,0.55,0.35,0.59,0.57,0.35,0.55,0.57,0.55,0.59,0.61,0.91,0.57,0.61,0.41" style="fill:rgb(23,22,21);font-family:AdvP47D4A3;font-size:9.96px;stroke:none;">Domain deletion analysis showed that a homeo-</text>
   <text y="501.581" x="42.462,48.579,54.696,63.722,69.421,72.011,77.8874,85.831,94.857,100.974,104.501,107.091,110.3778,118.372,124.071,129.769,135.6454,143.6,149.717,152.308,158.215,164.2906,172.287,175.813,181.8886,189.805,193.332,199.239,204.9162,212.878,218.378,223.877,227.922,233.83,237.316,245.307,252.878,261.904,269.267,274.965,283.991" svgx:width="0.61,0.61,0.91,0.57,0.26,0.59,0.55,0.91,0.61,0.35,0.26,0.33,0.55,0.57,0.57,0.59,0.55,0.61,0.26,0.59,0.61,0.55,0.35,0.61,0.55,0.35,0.59,0.57,0.55,0.55,0.55,0.41,0.59,0.35,0.55,0.76,0.91,0.74,0.57,0.91,0.55" style="fill:rgb(23,22,21);font-family:AdvP47D4A3;font-size:9.96px;stroke:none;">domain motif can bind to the 30-nt GmCaM4</text>
   <text y="513.543" x="42.462,48.579,52.415,58.532,67.558,73.675,77.202,82.9,86.68480000000001,92.351,97.74,103.439,109.556,115.464,121.163,127.07,132.769,138.468,141.2568,146.945,155.034,160.942,166.641,170.476,176.175,181.874,187.2524,192.922,196.449,202.357,208.0342,213.671,217.198,225.288,231.36360000000002,237.029,242.209,244.799,250.707,256.3842,262.03,265.347,267.938,273.845,279.962,285.661" svgx:width="0.61,0.38,0.61,0.91,0.61,0.35,0.57,0.38,0.55,0.54,0.57,0.61,0.59,0.57,0.59,0.57,0.57,0.28,0.55,0.81,0.59,0.57,0.38,0.57,0.57,0.54,0.55,0.35,0.59,0.57,0.55,0.35,0.81,0.61,0.55,0.52,0.26,0.59,0.57,0.55,0.33,0.26,0.59,0.61,0.57,0.38" style="fill:rgb(23,22,21);font-family:AdvP47D4A3;font-size:9.96px;stroke:none;">promoter sequence, whereas the two zinc finger</text>
   <text y="525.505" x="42.462,48.579,54.696,63.722,69.421,72.011,77.919,83.2974,94.392,100.091,105.789,111.697,117.605,123.722,127.249,130.0378,141.107,148.469,152.305,154.895,158.422,161.012,166.711,172.409,174.999,177.59,182.77,185.55880000000002,196.665,200.192,206.1,211.7772,222.857,226.174,232.291,236.127,245.153,250.852,254.378,256.969,263.086,268.9624,280.059,286.176" svgx:width="0.61,0.61,0.91,0.57,0.26,0.59,0.54,0.55,0.57,0.57,0.59,0.59,0.61,0.35,0.28,0.55,0.74,0.38,0.26,0.35,0.26,0.57,0.57,0.26,0.26,0.52,0.28,0.55,0.35,0.59,0.57,0.55,0.33,0.61,0.38,0.91,0.57,0.35,0.26,0.61,0.59,0.55,0.61,0.33" style="fill:rgb(23,22,21);font-family:AdvP47D4A3;font-size:9.96px;stroke:none;">domains cannot. Critically, the formation of</text>
   <text y="537.467" x="42.462,47.852,53.76,59.877,65.575,69.411,73.456,78.845,84.753,87.344,90.661,94.188,99.886,105.96159999999999,114.461,120.159,126.276,135.302,141.42,144.01,149.708,155.098,160.797,166.1754,174.668,180.785,185.9642,194.397,200.095,205.9714,214.465,220.164,226.072,229.599,232.189,236.234,243.805,252.831,259.257,265.165,269.21,276.572,283.935" svgx:width="0.54,0.59,0.61,0.57,0.38,0.41,0.54,0.59,0.26,0.33,0.35,0.57,0.61,0.55,0.57,0.61,0.91,0.61,0.26,0.57,0.54,0.57,0.54,0.55,0.61,0.52,0.55,0.57,0.59,0.55,0.57,0.59,0.35,0.26,0.41,0.76,0.91,0.64,0.59,0.41,0.74,0.74,0.55" style="fill:rgb(23,22,21);font-family:AdvP47D4A3;font-size:9.96px;stroke:none;">super-shifted complexes by an anti-GmZF-HD1</text>
   <text y="549.429" x="42.462,48.161,54.068,57.595,60.185,66.303,72.42,78.537,83.7162,92.125,94.715,100.623,106.321,112.229,118.346,124.045,127.572,133.27,139.34560000000002,147.797,155.886,158.476,162.003,167.87939999999998,176.256,182.164,188.071,193.77,196.36,202.059,207.757,211.5418,220.022,225.721,231.111,234.638,238.473,244.172,249.87,253.397,258.7754,267.19,270.508,274.344,280.461" svgx:width="0.57,0.59,0.35,0.26,0.61,0.61,0.61,0.52,0.55,0.26,0.59,0.57,0.59,0.61,0.57,0.35,0.57,0.61,0.55,0.81,0.26,0.35,0.59,0.55,0.59,0.59,0.57,0.26,0.57,0.57,0.38,0.55,0.57,0.54,0.35,0.38,0.57,0.57,0.35,0.54,0.55,0.33,0.38,0.61,0.91" style="fill:rgb(23,22,21);font-family:AdvP47D4A3;font-size:9.96px;stroke:none;">antibody incubated with nuclear extracts from</text>
   <text y="561.391" x="42.462,48.579,54.278,57.804,63.712,69.829,75.946,81.645,87.553,91.598,95.124,98.96,104.659,110.357,113.884,119.583,125.65859999999999,128.407,134.106,139.805,142.395,144.985,150.3634,153.012,158.402,164.31,170.427,176.544,182.242,187.632,191.159,196.5374,199.272,202.799,208.707,214.406,217.892,220.588,224.115,230.023,235.7002,238.333,240.923,246.831,250.358,256.056,259.892,265.59,271.289,274.816,277.406,283.523" svgx:width="0.61,0.57,0.35,0.59,0.61,0.61,0.57,0.59,0.41,0.35,0.38,0.57,0.57,0.35,0.57,0.61,0.55,0.57,0.57,0.26,0.26,0.54,0.55,0.54,0.59,0.61,0.61,0.57,0.54,0.35,0.54,0.55,0.35,0.59,0.57,0.35,0.55,0.35,0.59,0.57,0.55,0.26,0.59,0.35,0.57,0.38,0.57,0.57,0.35,0.26,0.61,0.59" style="fill:rgb(23,22,21);font-family:AdvP47D4A3;font-size:9.96px;stroke:none;">pathogen-treated cells suggests that the interaction</text>
   <text y="573.353" x="42.462,48.579,54.278,57.804,65.894,71.593,77.291,83.1674,95.526,103.097,112.124,118.549,124.457,128.502,135.864,143.227,148.705,161.062,166.76,172.668,178.74360000000001,191.052,194.579,202.669,208.74460000000002,221.099,227.007,233.124,242.15,247.849,253.966,260.083,266.2,275.226,280.925,283.515" svgx:width="0.61,0.57,0.35,0.81,0.57,0.57,0.59,0.55,0.76,0.91,0.64,0.59,0.41,0.74,0.74,0.55,0.55,0.57,0.59,0.61,0.55,0.35,0.81,0.61,0.55,0.59,0.61,0.91,0.57,0.61,0.61,0.61,0.91,0.57,0.26,0.59" style="fill:rgb(23,22,21);font-family:AdvP47D4A3;font-size:9.96px;stroke:none;">between GmZF-HD1 and two homeodomain</text>
   <text y="585.259" x="42.462,48.579,51.169,57.077,63.194,65.784,71.692,77.76759999999999,85.945,91.335,93.925,97.452,103.1292,111.287,115.122,120.821,126.938,132.636,138.335,141.862,147.2404,155.45,158.04,163.4184,171.55,175.386,181.085,187.202,193.109,195.7,201.398,204.925,210.624,216.6996,224.954,231.071,236.2502,244.343,250.46,256.159,259.686,265.593,271.71,277.827,283.526" svgx:width="0.61,0.26,0.59,0.61,0.26,0.59,0.61,0.55,0.54,0.26,0.35,0.57,0.55,0.38,0.57,0.61,0.57,0.57,0.35,0.54,0.55,0.26,0.54,0.55,0.38,0.57,0.61,0.59,0.26,0.57,0.35,0.57,0.61,0.55,0.61,0.52,0.55,0.61,0.57,0.35,0.59,0.61,0.61,0.57,0.59" style="fill:rgb(23,22,21);font-family:AdvP47D4A3;font-size:9.96px;stroke:none;">binding site repeats is regulated by pathogen</text>
   <text y="597.221" x="42.462,47.852,51.379,53.969,62.995,68.903,71.493,77.192,80.718,83.309,89.426,95.334,98.1228,104.313,110.221,112.811,118.719,124.417,127.008,129.598,134.778,137.5668,143.714,149.3912,155.562,159.089,162.925,168.623,174.531,179.921,182.511,188.21,194.118,197.60399999999998,203.807,209.506,214.896,221.013,224.848,230.547,235.937,241.327,243.917,250.034,255.91039999999998,262.087,267.785,273.175,278.565,284.263" svgx:width="0.54,0.35,0.26,0.91,0.59,0.26,0.57,0.35,0.26,0.61,0.59,0.28,0.55,0.59,0.26,0.59,0.57,0.26,0.26,0.52,0.28,0.55,0.57,0.55,0.35,0.38,0.57,0.59,0.54,0.26,0.57,0.59,0.35,0.55,0.57,0.54,0.61,0.38,0.57,0.54,0.54,0.26,0.61,0.59,0.55,0.57,0.54,0.54,0.57,0.52" style="fill:rgb(23,22,21);font-family:AdvP47D4A3;font-size:9.96px;stroke:none;">stimulation. Finally, a transient expression assay</text>
   <text y="317.499" x="309.428,317.517,320.108,323.634" svgx:width="0.81,0.26,0.35,0.59" style="fill:rgb(23,22,21);font-family:AdvP47D4A3;font-size:9.96px;stroke:none;">with</text>
   <text y="317.499" x="332.785,339.629,343.465,349.164,355.281,357.871,363.988,369.896,376.013,381.193,383.784" svgx:width="0.69,0.38,0.57,0.61,0.26,0.61,0.59,0.61,0.52,0.26,0.52" style="fill:rgb(23,22,21);font-family:AdvP47D8EF;font-size:9.96px;stroke:none;">Arabidopsis</text>
   <text y="317.499" x="392.313,398.43,402.265,408.382,411.909,418.026,424.143,426.733,432.432,437.822,441.349,446.7274,450.025,455.724,461.841,467.748,471.066,473.656,477.492,486.518,492.217,498.2926,501.614,505.141,511.049,516.747,520.233,523.497,531.069,540.095,546.521,552.429" svgx:width="0.61,0.38,0.61,0.35,0.61,0.61,0.26,0.57,0.54,0.35,0.54,0.55,0.57,0.61,0.59,0.33,0.26,0.38,0.91,0.57,0.61,0.55,0.35,0.59,0.57,0.35,0.55,0.76,0.91,0.64,0.59,0.41" style="fill:rgb(23,22,21);font-family:AdvP47D4A3;font-size:9.96px;stroke:none;">protoplasts confirmed that GmZF-</text>
   <text y="329.461" x="309.428,316.79,324.152,329.63,335.337,341.035,346.734,352.61039999999997,358.297,363.996,369.695,373.221,375.812,380.992,386.691,390.217,395.8942,401.61,405.136,411.044,416.7212,422.416,428.114,433.504,439.621,443.457,449.155,454.545,459.935,462.525,468.642,474.5184,480.242,486.359" svgx:width="0.74,0.74,0.55,0.55,0.57,0.57,0.59,0.55,0.57,0.57,0.35,0.26,0.52,0.57,0.35,0.57,0.55,0.35,0.59,0.57,0.55,0.57,0.54,0.61,0.38,0.57,0.54,0.54,0.26,0.61,0.59,0.55,0.61,0.33" style="fill:rgb(23,22,21);font-family:AdvP47D4A3;font-size:9.96px;stroke:none;">HD1 can activate the expression of</text>
   <text y="329.461" x="495.323,502.894,511.921,519.283,524.982,534.008" svgx:width="0.76,0.91,0.74,0.57,0.91,0.55" style="fill:rgb(23,22,21);font-family:AdvP47D8EF;font-size:9.96px;stroke:none;">GmCaM4</text>
   <text y="329.461" x="545.213,551.33" svgx:width="0.61,0.52" style="fill:rgb(23,22,21);font-family:AdvP47D4A3;font-size:9.96px;stroke:none;">by</text>
   <text y="341.423" x="309.428,314.818,320.935,326.633,332.332,334.922,338.24,340.83,346.529,352.227,354.817,357.408,362.5872,366.346,368.936,374.844,378.371,384.07,387.905,393.604,399.302,402.829,405.419,411.327,417.4026,421.167,429.257,431.847,435.374,441.2504,444.978,448.505,454.412,460.0892,463.8,467.327,475.417,481.4926,485.173,489.009,494.707,500.824,506.523,512.221,515.748,521.138,523.9268000000001,527.636,533.753,539.66,545.359,550.749" svgx:width="0.54,0.61,0.57,0.57,0.26,0.33,0.26,0.57,0.57,0.26,0.26,0.52,0.55,0.26,0.59,0.35,0.57,0.38,0.57,0.57,0.35,0.26,0.59,0.61,0.55,0.81,0.26,0.35,0.59,0.55,0.35,0.59,0.57,0.55,0.35,0.81,0.61,0.55,0.38,0.57,0.61,0.57,0.57,0.35,0.54,0.28,0.55,0.61,0.59,0.57,0.54,0.57" style="fill:rgb(23,22,21);font-family:AdvP47D4A3;font-size:9.96px;stroke:none;">specifically interacting with the two repeats. These</text>
   <text y="353.385" x="309.428,313.263,318.962,324.352,330.26,332.85,336.377,341.7554,344.973,350.363,356.271,362.388,368.505,374.204,379.593,383.079,386.302,389.829,395.737,401.435,404.921,408.128,411.655,417.563,423.2402,426.383,433.954,442.98,449.406,455.314,459.359,466.721,474.084,479.562,482.791,488.49,494.397,500.4726,503.654,508.635,514.1129999999999,517.26,523.377,527.212,533.329,536.856,542.555,545.145,551.053" svgx:width="0.38,0.57,0.54,0.59,0.26,0.35,0.54,0.55,0.54,0.59,0.61,0.61,0.57,0.54,0.35,0.55,0.35,0.59,0.57,0.35,0.55,0.35,0.59,0.57,0.55,0.76,0.91,0.64,0.59,0.41,0.74,0.74,0.55,0.55,0.57,0.59,0.61,0.55,0.5,0.55,0.55,0.61,0.38,0.61,0.35,0.57,0.26,0.59,0.54" style="fill:rgb(23,22,21);font-family:AdvP47D4A3;font-size:9.96px;stroke:none;">results suggest that the GmZF-HD1 and –2 proteins</text>
   <text y="365.291" x="309.428,312.745,318.653,324.561,330.26,333.786,336.377,342.494,348.3704,352.457,358.156,363.5344,367.594,374.02,379.928,383.973,391.335,398.7054,402.744,406.27,410.106,415.805,421.712,427.102,432.801,436.636,439.227,445.344,448.87,451.461,457.578,463.45439999999996,467.542,470.86,476.558,482.257,485.784,491.901,495.736,501.1144,505.186,508.713,514.7886,518.849,524.547,530.246,533.773,536.363,541.543,547.242,550.769" svgx:width="0.33,0.59,0.59,0.57,0.35,0.26,0.61,0.59,0.55,0.57,0.54,0.55,0.64,0.59,0.41,0.74,0.74,0.55,0.35,0.38,0.57,0.59,0.54,0.57,0.38,0.26,0.61,0.35,0.26,0.61,0.59,0.55,0.33,0.57,0.57,0.35,0.61,0.38,0.54,0.55,0.35,0.61,0.55,0.57,0.57,0.35,0.26,0.52,0.57,0.35,0.57" style="fill:rgb(23,22,21);font-family:AdvP47D4A3;font-size:9.96px;stroke:none;">function as ZF-HD transcription factors to activate</text>
   <text y="377.253" x="309.428,316.999,326.025,333.388,339.086,348.113" svgx:width="0.76,0.91,0.74,0.57,0.91,0.55" style="fill:rgb(23,22,21);font-family:AdvP47D8EF;font-size:9.96px;stroke:none;">GmCaM4</text>
   <text y="377.253" x="356.483,362.6,368.299,374.207,379.8842,382.732,388.43,393.82,399.937,403.773,409.471,414.861,420.251,422.841,428.958,434.8344,437.723,440.313,446.1894,449.062,452.897,458.596,463.986,470.103,476.22,482.127,487.517,493.1942,496.116,499.643,505.7186,508.588,514.705,520.404,523.93,529.838,535.955,542.072,547.771,553.679" svgx:width="0.61,0.57,0.59,0.57,0.55,0.57,0.54,0.61,0.38,0.57,0.54,0.54,0.26,0.61,0.59,0.55,0.26,0.59,0.55,0.38,0.57,0.54,0.61,0.61,0.59,0.54,0.57,0.55,0.35,0.61,0.55,0.61,0.57,0.35,0.59,0.61,0.61,0.57,0.59,0.28" style="fill:rgb(23,22,21);font-family:AdvP47D4A3;font-size:9.96px;stroke:none;">gene expression in response to pathogen.</text>
   <text y="414.896" x="309.428,312.327,319.689,325.806,332.959,340.74,348.103,355.465,362.827,368.944,371.843,379.624" svgx:width="0.29,0.74,0.61,0.72,0.78,0.74,0.74,0.74,0.61,0.29,0.78,0.74" style="fill:rgb(23,22,21);font-family:AdvP47D4A3;font-size:9.96px;stroke:none;">INTRODUCTION</text>
   <text y="430.657" x="309.428,313.263,318.741,321.786,327.286,329.976,334.957,340.456,343.774,347.609,350.2982,353.307,357.661,362.642,365.96,371.459,375.295,380.794,383.484,386.174,390.527,393.845,397.162,400.998,405.352,409.7344,412.72,417.074,422.055,424.745,429.099,431.789,437.288,445.4552,448.493,451.183,455.536,460.518,464.871,467.5602,470.603,473.92,481.074" svgx:width="0.38,0.55,0.55,0.55,0.27,0.5,0.55,0.33,0.38,0.27,0.55,0.44,0.5,0.33,0.55,0.38,0.55,0.27,0.27,0.44,0.33,0.33,0.38,0.44,0.44,0.55,0.44,0.5,0.27,0.44,0.27,0.55,0.82,0.55,0.27,0.44,0.5,0.44,0.27,0.55,0.33,0.72,0.5" style="fill:rgb(23,22,21);font-family:AdvTimes;font-size:9.96px;stroke:none;">In plants, cytosolic-free calcium level (Ca</text>
   <text y="426.238" x="486.028" svgx:width="0.5" style="fill:rgb(23,22,21);font-family:AdvTimes;font-size:6.64px;stroke:none;">2</text>
   <text y="426.238" x="489.77" svgx:width="0.77" style="fill:rgb(23,22,21);font-family:AdvMT_SY;font-size:6.64px;stroke:none;">þ</text>
   <text y="430.66" x="495.553,498.8398,501.845,507.344,510.034,515.016,519.997,523.7818,526.846,532.345,535.035,540.017,545.516,548.834,553.815" svgx:width="0.33,0.55,0.55,0.27,0.5,0.5,0.38,0.55,0.55,0.27,0.5,0.55,0.33,0.5,0.27" style="fill:rgb(23,22,21);font-family:AdvTimes;font-size:9.96px;stroke:none;">) plays pivotal</text>
   <text y="441.771" x="309.43,313.266,318.765,321.455,325.809,329.59380000000004,332.447,337.428,341.2128,344.069,349.051,354.529,357.336,360.025,365.525,368.842,372.678,377.659,382.013,386.367,389.056,391.746,397.246,399.936,404.917,408.7018,411.533,415.369,419.722,424.076,429.575,435.075,440.553,443.395,451.584,455.937,459.773,463.609,467.962,473.462,478.443,482.797,486.58180000000004,489.429,492.119,497.59700000000004,500.427,504.263,508.617,512.452,517.952,523.451,528.95,532.786,537.1683999999999,539.942,543.26,548.7379999999999,551.508" svgx:width="0.38,0.55,0.27,0.44,0.38,0.55,0.5,0.38,0.55,0.5,0.55,0.55,0.27,0.55,0.33,0.38,0.5,0.44,0.44,0.27,0.27,0.55,0.27,0.5,0.38,0.55,0.38,0.44,0.44,0.55,0.55,0.55,0.55,0.82,0.44,0.38,0.38,0.44,0.55,0.5,0.44,0.38,0.55,0.27,0.55,0.55,0.38,0.44,0.38,0.55,0.55,0.55,0.38,0.44,0.55,0.33,0.55,0.55,0.5" style="fill:rgb(23,22,21);font-family:AdvTimes;font-size:9.96px;stroke:none;">roles as an intracellular second messenger in response to a</text>
   <text y="452.939" x="309.43,314.412,319.393,323.229,325.918,330.272,333.59,338.57,341.859,347.358,350.64480000000003,353.877,357.713,361.031,363.72,371.91,377.409,380.099,382.789,385.4782,388.744,391.434,396.933,401.287,403.976,409.476,414.975,417.665,423.164,428.144,431.432,434.122,436.812,441.793,447.293,450.61,453.29920000000004,456.547,462.046,467.546,472.527,475.845,481.344,486.843,492.343,496.178,504.368,509.867,515.366,519.72,523.556,526.2452000000001,529.509,535.008,539.99,542.68,548.179,553.16" svgx:width="0.5,0.5,0.38,0.27,0.44,0.33,0.5,0.55,0.55,0.33,0.55,0.38,0.33,0.27,0.82,0.55,0.27,0.27,0.27,0.55,0.27,0.55,0.44,0.27,0.55,0.55,0.27,0.55,0.5,0.55,0.27,0.27,0.5,0.55,0.33,0.27,0.55,0.55,0.55,0.5,0.33,0.55,0.55,0.55,0.38,0.82,0.55,0.55,0.44,0.38,0.27,0.55,0.55,0.5,0.27,0.55,0.5,0.33" style="fill:rgb(23,22,21);font-family:AdvTimes;font-size:9.96px;stroke:none;">variety of stimuli, including light, phytohormones, oxida-</text>
   <text y="464.051" x="309.43,312.748,315.438,320.419,324.8014,328.139,331.975,335.292,339.128,343.482,347.317,351.153,353.84220000000005,357.222,362.721,366.557,372.056,377.556,382.537,388.036,391.354,394.0432,397.417,401.771,407.27,409.96,415.438,418.79,423.771,429.27,434.748,438.122,443.622,448.603,451.92,457.42,462.919,467.9,472.254,477.753,481.5378,484.949,488.267,493.248,495.938,500.919,504.237,506.92620000000005,510.291,517.963,523.462,527.8444,531.154,536.653,539.9398,543.343,546.661,552.16" svgx:width="0.33,0.27,0.5,0.44,0.55,0.38,0.33,0.38,0.44,0.38,0.38,0.27,0.55,0.55,0.38,0.55,0.55,0.5,0.55,0.33,0.27,0.55,0.44,0.55,0.27,0.55,0.55,0.5,0.55,0.55,0.55,0.55,0.5,0.33,0.55,0.55,0.5,0.44,0.55,0.38,0.55,0.33,0.5,0.27,0.5,0.33,0.27,0.55,0.77,0.55,0.44,0.55,0.55,0.33,0.55,0.33,0.55,0.44" style="fill:rgb(23,22,21);font-family:AdvTimes;font-size:9.96px;stroke:none;">tive stress, drought, cold and pathogens (1,2). One of the</text>
   <text y="475.162" x="309.43,313.784,318.765,322.601,325.291,327.981,332.334,336.17,339.45680000000004,346.223,350.577,355.558,359.912,365.411,368.729,372.5138,379.332,382.022,387.5,394.242,398.078,402.431,406.267,411.766,417.266,422.765,426.601,430.9834,437.668,440.986,446.464,453.202,458.701,463.682,467.0,472.499,477.999,482.98,487.334,492.812,499.576,504.557,507.874,511.192,516.173,520.527,526.005,532.74,535.43,539.2148,546.006,550.988" svgx:width="0.44,0.5,0.38,0.27,0.27,0.44,0.38,0.33,0.55,0.44,0.5,0.44,0.55,0.33,0.38,0.55,0.27,0.55,0.55,0.38,0.44,0.38,0.55,0.55,0.55,0.38,0.44,0.55,0.33,0.55,0.55,0.55,0.5,0.33,0.55,0.55,0.5,0.44,0.55,0.55,0.5,0.33,0.33,0.5,0.44,0.55,0.55,0.27,0.38,0.55,0.5,0.55" style="fill:rgb(23,22,21);font-family:AdvTimes;font-size:9.96px;stroke:none;">earliest events in response to pathogen attack is an</text>
   <text y="486.273" x="309.43,312.12,317.62,321.973,325.809,330.163,335.144,338.979,343.3614,349.228,351.918,357.396,363.231,366.549,372.048,376.4304,382.28,384.97,392.123" svgx:width="0.27,0.55,0.44,0.38,0.44,0.5,0.38,0.44,0.55,0.27,0.55,0.55,0.33,0.55,0.44,0.55,0.27,0.72,0.5" style="fill:rgb(23,22,21);font-family:AdvTimes;font-size:9.96px;stroke:none;">increase in the [Ca</text>
   <text y="481.854" x="397.077" svgx:width="0.5" style="fill:rgb(23,22,21);font-family:AdvTimes;font-size:6.64px;stroke:none;">2</text>
   <text y="481.854" x="400.819" svgx:width="0.77" style="fill:rgb(23,22,21);font-family:AdvMT_SY;font-size:6.64px;stroke:none;">þ</text>
   <text y="486.276" x="406.602" svgx:width="0.27" style="fill:rgb(23,22,21);font-family:AdvTimes;font-size:9.96px;stroke:none;">]</text>
   <text y="487.977" x="409.266,412.531,416.267" svgx:width="0.44,0.5,0.33" style="fill:rgb(23,22,21);font-family:AdvTimes;font-size:6.64px;stroke:none;">cyt</text>
   <text y="486.276" x="418.79,421.47920000000005,427.294,434.448,437.138,440.455,445.933,451.842,456.196,461.695,469.885,475.384,478.074,482.428,487.408,493.285,497.638,503.138,508.119,513.618,518.6,522.953,526.7378,532.629,535.319,540.7969999999999,546.632,549.322,552.64" svgx:width="0.27,0.55,0.72,0.27,0.33,0.55,0.55,0.44,0.55,0.82,0.55,0.27,0.44,0.5,0.55,0.44,0.55,0.5,0.55,0.5,0.44,0.38,0.55,0.27,0.55,0.55,0.27,0.33,0.38" style="fill:rgb(23,22,21);font-family:AdvTimes;font-size:9.96px;stroke:none;">, with complex changes in its</text>
   <text y="497.444" x="309.43,314.411,322.6,328.1,330.79,333.48,336.797,342.297,347.796,352.15,354.8392,359.432,362.75,366.585,370.939,376.438,381.938,386.291,391.791,396.145,401.125,405.636,410.617,416.117,421.595,426.102,431.601,437.101,440.936,445.918,449.235,451.925,457.424,462.902,467.488,470.805,475.786,478.476,483.458,486.775,489.4642,493.963,501.6322,506.209,513.362" svgx:width="0.5,0.82,0.55,0.27,0.27,0.33,0.55,0.55,0.44,0.27,0.55,0.33,0.38,0.44,0.55,0.55,0.44,0.55,0.44,0.5,0.55,0.5,0.55,0.55,0.55,0.55,0.55,0.38,0.5,0.33,0.27,0.55,0.55,0.55,0.33,0.5,0.27,0.5,0.33,0.27,0.55,0.77,0.55,0.72,0.5" style="fill:rgb(23,22,21);font-family:AdvTimes;font-size:9.96px;stroke:none;">amplitude, frequency and duration (3,4). A Ca</text>
   <text y="493.022" x="518.343" svgx:width="0.5" style="fill:rgb(23,22,21);font-family:AdvTimes;font-size:6.64px;stroke:none;">2</text>
   <text y="493.022" x="522.085" svgx:width="0.77" style="fill:rgb(23,22,21);font-family:AdvMT_SY;font-size:6.64px;stroke:none;">þ</text>
   <text y="497.444" x="532.346,535.036,540.536,546.035,551.534" svgx:width="0.27,0.55,0.55,0.55,0.5" style="fill:rgb(23,22,21);font-family:AdvTimes;font-size:9.96px;stroke:none;">inﬂux</text>
   <text y="508.556" x="309.431,314.931,319.912,323.6968,329.784,335.283,339.637,343.99,349.468,355.522,359.358,364.857,370.356,377.51,382.988,389.084,392.402,397.88,403.937,409.437,413.81940000000003,419.811,424.164,428.0,431.836,436.189,441.689,445.006,447.696,452.677,455.36620000000005,461.423,464.74,470.24,474.0248,480.131,483.449,488.948,493.3304,499.293,504.275,508.628,511.946,514.636,519.617,524.599,527.916,530.606,536.105,541.583,547.709,553.208" svgx:width="0.55,0.5,0.38,0.55,0.55,0.44,0.44,0.55,0.55,0.38,0.55,0.55,0.72,0.55,0.55,0.33,0.55,0.55,0.55,0.44,0.55,0.44,0.38,0.38,0.44,0.55,0.33,0.27,0.5,0.27,0.55,0.33,0.55,0.38,0.55,0.33,0.55,0.44,0.55,0.5,0.44,0.33,0.27,0.5,0.5,0.33,0.27,0.55,0.55,0.55,0.55,0.33" style="fill:rgb(23,22,21);font-family:AdvTimes;font-size:9.96px;stroke:none;">has been shown to be essential for the activation of</text>
   <text y="519.667" x="309.431,314.931,319.284,322.602,326.955,332.455,336.29,340.644,343.962,347.797,352.151,354.841,359.822,363.14,367.493,372.971,375.591,380.572,384.926,390.425,394.779,398.614,401.3032,403.824,409.323,414.823,419.804,423.121,428.621,433.602,436.292,440.646,445.627,448.317,453.795,456.378,461.877,464.567,470.066,473.902,478.883,484.382,487.7,493.199,497.553,501.389,504.079,507.8638,510.518,515.5,520.999,526.477,529.0,534.499,539.481,544.98,549.333,553.169" svgx:width="0.55,0.44,0.33,0.44,0.55,0.38,0.44,0.33,0.38,0.44,0.27,0.5,0.33,0.44,0.55,0.55,0.5,0.44,0.55,0.44,0.38,0.27,0.55,0.55,0.55,0.5,0.33,0.55,0.5,0.27,0.44,0.5,0.27,0.55,0.55,0.55,0.27,0.55,0.38,0.5,0.55,0.33,0.55,0.44,0.38,0.27,0.38,0.55,0.5,0.55,0.55,0.55,0.55,0.5,0.55,0.44,0.38,0.33" style="fill:rgb(23,22,21);font-family:AdvTimes;font-size:9.96px;stroke:none;">defense-related genes, phytoalexin biosynthesis and hyper-</text>
   <text y="530.778" x="309.431,313.267,317.62,323.12,326.955,329.645,332.963,335.653,340.634,345.01640000000003,352.29,356.644,360.998,363.688,366.3772,373.663,379.162,383.516,388.497,391.815,397.293,404.617,407.934,412.916,416.233,418.92220000000003,426.217,433.37" svgx:width="0.38,0.44,0.55,0.38,0.27,0.33,0.27,0.5,0.44,0.55,0.44,0.44,0.27,0.27,0.55,0.55,0.44,0.5,0.33,0.55,0.55,0.33,0.5,0.33,0.27,0.55,0.72,0.5" style="fill:rgb(23,22,21);font-family:AdvTimes;font-size:9.96px;stroke:none;">sensitive cell death (5). Ca</text>
   <text y="526.358" x="438.349" svgx:width="0.5" style="fill:rgb(23,22,21);font-family:AdvTimes;font-size:6.64px;stroke:none;">2</text>
   <text y="526.358" x="442.091" svgx:width="0.77" style="fill:rgb(23,22,21);font-family:AdvMT_SY;font-size:6.64px;stroke:none;">þ</text>
   <text y="530.78" x="455.131,458.966,461.656,466.637,472.137,477.118,479.808,483.5928,490.903,495.885,499.72,504.10240000000005,511.37,515.205,519.559,525.058,528.894,533.247,538.7249999999999,546.008,551.508" svgx:width="0.38,0.27,0.5,0.55,0.5,0.27,0.38,0.55,0.5,0.38,0.44,0.55,0.38,0.44,0.55,0.38,0.44,0.55,0.55,0.55,0.5" style="fill:rgb(23,22,21);font-family:AdvTimes;font-size:9.96px;stroke:none;">signals are sensed by</text>
   <text y="541.948" x="309.431,312.121,317.62,320.937,324.773,329.754,334.108,338.462,341.152,343.841,349.341,352.031,357.012,360.7968,367.029,374.183" svgx:width="0.27,0.55,0.33,0.38,0.5,0.44,0.44,0.27,0.27,0.55,0.27,0.5,0.38,0.55,0.72,0.5" style="fill:rgb(23,22,21);font-family:AdvTimes;font-size:9.96px;stroke:none;">intracellular Ca</text>
   <text y="537.526" x="379.162" svgx:width="0.5" style="fill:rgb(23,22,21);font-family:AdvTimes;font-size:6.64px;stroke:none;">2</text>
   <text y="537.526" x="382.904" svgx:width="0.77" style="fill:rgb(23,22,21);font-family:AdvMT_SY;font-size:6.64px;stroke:none;">þ</text>
   <text y="541.948" x="388.686,392.004,397.503,400.193,405.693,411.192,413.882,419.381,424.361,430.469,435.968,439.804,445.303,448.621,452.974,455.664,461.163,464.94780000000003,471.117,476.098,481.598,487.076,493.227,496.545,500.38,505.362,510.861,514.696,520.196,525.695,530.049,534.402,539.88,546.008,551.507" svgx:width="0.33,0.55,0.27,0.55,0.55,0.27,0.55,0.5,0.55,0.55,0.38,0.55,0.33,0.44,0.27,0.55,0.38,0.55,0.5,0.55,0.55,0.55,0.33,0.38,0.5,0.55,0.38,0.55,0.55,0.44,0.44,0.55,0.55,0.55,0.5" style="fill:rgb(23,22,21);font-family:AdvTimes;font-size:9.96px;stroke:none;">-binding proteins and transduced by</text>
   <text y="553.06" x="309.43,314.929,320.429,327.582,333.081,336.917,340.234,344.07,348.424,353.405,361.57219999999995,366.349,370.703,376.72,381.074,385.428,388.745,394.245,398.0298,402.746,408.245,412.081,417.58,420.898,425.251,427.941,433.441,437.2258,441.977,445.294,450.793,455.775,459.0618,463.804,467.639,471.993,476.974,482.473,485.163,490.145,493.462,497.8444,502.524,506.878,511.232,513.921,516.611,522.111,524.8,529.782,533.5668000000001,538.354,543.853,547.688,553.188" svgx:width="0.55,0.55,0.72,0.55,0.38,0.33,0.38,0.44,0.5,0.82,0.55,0.44,0.6,0.44,0.44,0.33,0.55,0.38,0.55,0.55,0.38,0.55,0.33,0.44,0.27,0.55,0.38,0.55,0.33,0.55,0.5,0.33,0.55,0.38,0.44,0.5,0.55,0.27,0.5,0.33,0.44,0.55,0.44,0.44,0.27,0.27,0.55,0.27,0.5,0.38,0.55,0.55,0.38,0.55,0.33" style="fill:rgb(23,22,21);font-family:AdvTimes;font-size:9.96px;stroke:none;">downstream eﬀector proteins that regulate cellular pro-</text>
   <text y="564.173" x="309.43,313.784,318.137,321.973,325.809,330.162,333.9468,337.379,340.697,345.678,348.368,353.349,356.667" svgx:width="0.44,0.44,0.38,0.38,0.44,0.38,0.55,0.33,0.5,0.27,0.5,0.33,0.27" style="fill:rgb(23,22,21);font-family:AdvTimes;font-size:9.96px;stroke:none;">cesses (6,7).</text>
   <text y="575.115" x="319.408,326.561,331.542,334.232,342.421,347.921,353.42,358.919,361.609,364.299,369.777,372.642,375.959,383.112,388.094,397.947,401.264,403.95320000000004,406.771,412.27,417.769,422.1514,424.913,430.412,433.6988,436.535,439.852,445.352,449.7344,452.522,458.021,462.375,466.211,469.49780000000004,472.308,476.661,482.161,487.142,490.978,495.959,500.313,503.63,507.984,511.819,514.509,518.863,523.216,528.694,531.551,538.704" svgx:width="0.72,0.5,0.27,0.82,0.55,0.55,0.55,0.27,0.27,0.55,0.55,0.33,0.72,0.5,0.99,0.33,0.27,0.55,0.55,0.55,0.44,0.55,0.55,0.33,0.55,0.33,0.55,0.44,0.55,0.55,0.44,0.38,0.33,0.55,0.44,0.55,0.5,0.38,0.5,0.44,0.33,0.44,0.38,0.27,0.44,0.44,0.55,0.55,0.72,0.5" style="fill:rgb(23,22,21);font-family:AdvTimes;font-size:9.96px;stroke:none;">Calmodulin (CaM), one of the best characterized Ca</text>
   <text y="570.691" x="543.685" svgx:width="0.5" style="fill:rgb(23,22,21);font-family:AdvTimes;font-size:6.64px;stroke:none;">2</text>
   <text y="570.691" x="547.427" svgx:width="0.77" style="fill:rgb(23,22,21);font-family:AdvMT_SY;font-size:6.64px;stroke:none;">þ</text>
   <text y="575.113" x="553.209" svgx:width="0.33" style="fill:rgb(23,22,21);font-family:AdvTimes;font-size:9.96px;stroke:none;">-</text>
   <text y="586.281" x="309.431,314.93,317.62,323.119,328.619,331.308,336.808,341.788,347.641,353.141,356.976,362.475,365.793,370.147,372.837,378.336,382.172,384.86120000000005,390.671,395.024,400.524,406.023,409.341,414.322,417.012,422.511,426.29580000000004,432.169,435.486,440.986,446.485,450.26980000000003,456.093,461.592,465.946,468.636,471.326,476.307,481.289,483.978,489.478,494.977,500.477,505.458,510.957,515.311,518.001,520.691,525.671,531.55,538.703" svgx:width="0.55,0.27,0.55,0.55,0.27,0.55,0.5,0.55,0.55,0.38,0.55,0.33,0.44,0.27,0.55,0.38,0.27,0.55,0.44,0.55,0.55,0.33,0.5,0.27,0.55,0.38,0.55,0.33,0.55,0.55,0.38,0.55,0.55,0.44,0.27,0.27,0.5,0.5,0.27,0.55,0.55,0.55,0.5,0.55,0.44,0.27,0.27,0.5,0.55,0.72,0.5" style="fill:rgb(23,22,21);font-family:AdvTimes;font-size:9.96px;stroke:none;">binding proteins, contains four helix–loop–helix Ca</text>
   <text y="581.86" x="543.685" svgx:width="0.5" style="fill:rgb(23,22,21);font-family:AdvTimes;font-size:6.64px;stroke:none;">2</text>
   <text y="581.86" x="547.427" svgx:width="0.77" style="fill:rgb(23,22,21);font-family:AdvMT_SY;font-size:6.64px;stroke:none;">þ</text>
   <text y="586.282" x="553.209" svgx:width="0.33" style="fill:rgb(23,22,21);font-family:AdvTimes;font-size:9.96px;stroke:none;">-</text>
   <text y="597.393" x="309.431,314.93,317.62,323.119,328.619,331.308,336.808,341.788,344.466,352.655,358.155,361.472,364.162,367.48,371.26480000000004,373.946,377.782,382.136,385.453,389.807,393.642,397.478,401.832,407.31,410.003,413.321,418.79900000000004,421.455,426.436,430.2208,432.85,439.485,446.1582,448.78,454.28,459.261,464.76,470.26,474.095,476.78420000000006,479.451,486.604" svgx:width="0.55,0.27,0.55,0.55,0.27,0.55,0.5,0.55,0.82,0.55,0.33,0.27,0.33,0.38,0.55,0.38,0.44,0.33,0.44,0.38,0.38,0.44,0.55,0.55,0.33,0.55,0.55,0.5,0.38,0.55,0.67,0.67,0.55,0.55,0.5,0.55,0.55,0.38,0.27,0.55,0.72,0.5" style="fill:rgb(23,22,21);font-family:AdvTimes;font-size:9.96px;stroke:none;">binding motifs referred to as EF hands. Ca</text>
   <text y="592.972" x="491.584" svgx:width="0.5" style="fill:rgb(23,22,21);font-family:AdvTimes;font-size:6.64px;stroke:none;">2</text>
   <text y="592.972" x="495.326" svgx:width="0.77" style="fill:rgb(23,22,21);font-family:AdvMT_SY;font-size:6.64px;stroke:none;">þ</text>
   <text y="597.394" x="501.052,504.369,509.869,515.368,520.867,526.367,531.8449999999999,534.5,541.653,546.635" svgx:width="0.33,0.55,0.55,0.55,0.55,0.55,0.55,0.72,0.5,0.99" style="fill:rgb(23,22,21);font-family:AdvTimes;font-size:9.96px;stroke:none;">-bound CaM</text>
   <text y="710.496" x="42.463,47.771,52.171,55.6778,58.847,62.832,67.232,69.886,74.286,78.685,81.754,84.7826,87.988,93.711,95.863,98.931,103.3145,106.527,108.679,111.3091,114.577,117.231,121.61449999999999,124.782,129.182,132.6888,135.894,140.294,144.694,149.093,154.816,159.1995,162.37,165.024,169.424,173.409,176.063,178.2149,181.419,183.571,187.9545,191.17,193.824,198.224,201.707,203.859,206.88760000000002,210.162,214.562,218.962,221.113,225.513,227.665,232.065,236.464,238.6159,241.797,244.451,248.851,252.3578,255.517,258.171,260.323,263.391,266.46,269.0901,272.355,275.009,280.731,285.1145,288.342,292.327,296.727,299.381,303.78,308.18,311.248,314.2766,317.483,320.551,324.951,329.35,333.75,335.902,340.2855,343.504,347.904,351.4108,354.616,357.685,361.168,365.153,369.138,372.207,376.606,380.089,384.4725,387.669,391.654,394.6826,397.93,400.082,404.482,406.634,411.033,413.66310000000004,416.866,422.174,424.326,427.395,430.463,433.09310000000005,436.312,442.449,446.848,449.502,453.902,458.301,461.37" svgx:width="0.67,0.55,0.44,0.55,0.5,0.55,0.33,0.55,0.55,0.38,0.38,0.55,0.72,0.27,0.38,0.55,0.55,0.27,0.33,0.55,0.33,0.55,0.55,0.55,0.44,0.55,0.55,0.55,0.55,0.72,0.55,0.55,0.33,0.55,0.5,0.33,0.27,0.55,0.27,0.55,0.55,0.33,0.55,0.44,0.27,0.38,0.55,0.55,0.55,0.27,0.55,0.27,0.55,0.55,0.27,0.55,0.33,0.55,0.44,0.55,0.33,0.27,0.38,0.38,0.33,0.55,0.33,0.72,0.55,0.55,0.5,0.55,0.33,0.55,0.55,0.38,0.38,0.55,0.38,0.55,0.55,0.55,0.27,0.55,0.55,0.55,0.44,0.55,0.38,0.44,0.5,0.5,0.38,0.55,0.44,0.55,0.55,0.5,0.38,0.55,0.27,0.55,0.27,0.55,0.33,0.55,0.67,0.27,0.38,0.38,0.33,0.55,0.77,0.55,0.33,0.55,0.55,0.38,0.38" style="fill:rgb(23,22,21);font-family:AdvTimes;font-size:7.97px;stroke:none;">The authors wish it to be known that, in their opinion, the first two authors should be regarded as joint First Authors</text>
  </g>
  <g begin="text">
   <text y="647.68" x="42.463,46.448,51.756,56.1395,59.301,65.023,69.423,73.823,80.35839999999999,83.622,87.105,91.504,94.573,97.642,101.124,104.193,108.593,112.992,117.392,121.791,125.274,129.674,133.157,136.6638,139.862,142.931,147.33,151.73,156.129,158.281,162.6645,165.884,170.283,173.78979999999999,176.939,180.924,185.324,189.724,192.792,196.275,199.344,202.412,205.895,210.295,212.4469,215.661,220.969,224.452,226.604" svgx:width="0.5,0.67,0.55,0.55,0.72,0.55,0.55,0.82,0.55,0.44,0.55,0.38,0.38,0.44,0.38,0.55,0.55,0.55,0.55,0.44,0.55,0.44,0.44,0.55,0.38,0.55,0.55,0.55,0.27,0.55,0.55,0.55,0.44,0.55,0.5,0.55,0.55,0.38,0.44,0.38,0.38,0.44,0.55,0.27,0.55,0.67,0.44,0.27,0.27" style="fill:rgb(23,22,21);font-family:AdvTimes;font-size:7.97px;stroke:none;">*To whom correspondence should be addressed. Tel:</text>
   <text y="647.68" x="231.988" svgx:width="0.77" style="fill:rgb(23,22,21);font-family:AdvMT_SY;font-size:7.97px;stroke:none;">þ</text>
   <text y="647.68" x="238.111,242.096,246.08100000000002,249.279,253.264,257.249,260.448,264.433,268.418,272.403,275.585,279.57,283.555,287.54,291.525,293.6769,296.845,302.153,306.138,310.123" svgx:width="0.5,0.5,0.55,0.5,0.5,0.55,0.5,0.5,0.5,0.55,0.5,0.5,0.5,0.5,0.27,0.55,0.67,0.5,0.5,0.27" style="fill:rgb(23,22,21);font-family:AdvTimes;font-size:7.97px;stroke:none;">82 55 751 6254; Fax:</text>
   <text y="647.68" x="315.497" svgx:width="0.77" style="fill:rgb(23,22,21);font-family:AdvMT_SY;font-size:7.97px;stroke:none;">þ</text>
   <text y="647.68" x="321.619,325.604,329.589,332.788,336.773,340.75800000000004,343.957,347.942,351.927,355.91200000000003,359.094,363.079,367.064,371.049,375.034,377.1859,380.353,385.662,392.213,396.198,398.35,400.502,402.6539,405.922,409.405,413.804,418.204,422.603,426.588,432.311,435.38,443.35,447.335,451.734,456.134,458.286,462.271,465.754,467.906,472.305" svgx:width="0.5,0.5,0.55,0.5,0.5,0.55,0.5,0.5,0.5,0.55,0.5,0.5,0.5,0.5,0.27,0.55,0.67,0.82,0.5,0.27,0.27,0.27,0.55,0.44,0.55,0.55,0.55,0.5,0.72,0.38,1.0,0.5,0.55,0.55,0.27,0.5,0.44,0.27,0.55,0.38" style="fill:rgb(23,22,21);font-family:AdvTimes;font-size:7.97px;stroke:none;">82 55 759 9363; Email: chungws@gnu.ac.kr</text>
   <text y="656.695" x="42.462,48.185,52.584,55.653,58.721,62.204,65.273,69.672,74.072,78.472,82.871,86.354,90.754,94.237,97.7438,100.913,107.465,111.45,115.435,118.658,122.643,124.795,127.864,132.2475,135.439,139.839,143.3458,146.495,150.48,154.879,159.279,162.348,165.831,168.899,171.968,175.451,179.8345,183.062,185.716,190.0995,193.324,201.206,205.606,209.9895,213.223,216.706,220.2128,223.371,229.094,233.494,237.893,240.0449,243.214,248.522,252.005,254.157" svgx:width="0.72,0.55,0.38,0.38,0.44,0.38,0.55,0.55,0.55,0.55,0.44,0.55,0.44,0.44,0.55,0.82,0.5,0.5,0.55,0.5,0.27,0.38,0.55,0.55,0.55,0.44,0.55,0.5,0.55,0.55,0.38,0.44,0.38,0.38,0.44,0.55,0.55,0.33,0.55,0.55,0.99,0.55,0.55,0.55,0.44,0.44,0.55,0.72,0.55,0.55,0.27,0.55,0.67,0.44,0.27,0.27" style="fill:rgb(23,22,21);font-family:AdvTimes;font-size:7.97px;stroke:none;">Correspondence may also be addressed to Moo Je Cho. Tel:</text>
   <text y="656.695" x="259.54" svgx:width="0.77" style="fill:rgb(23,22,21);font-family:AdvMT_SY;font-size:7.97px;stroke:none;">þ</text>
   <text y="656.695" x="265.663,269.648,273.633,276.287,280.272,284.257,286.911,290.897,294.882,298.867,301.521,305.506,309.491,313.476,317.461,319.6129,322.867,328.175,332.16,336.145" svgx:width="0.5,0.5,0.33,0.5,0.5,0.33,0.5,0.5,0.5,0.33,0.5,0.5,0.5,0.5,0.27,0.55,0.67,0.5,0.5,0.27" style="fill:rgb(23,22,21);font-family:AdvTimes;font-size:7.97px;stroke:none;">82-55-751-6254; Fax:</text>
   <text y="656.695" x="341.462" svgx:width="0.77" style="fill:rgb(23,22,21);font-family:AdvMT_SY;font-size:7.97px;stroke:none;">þ</text>
   <text y="656.695" x="347.641,351.626,355.611,358.265,362.251,366.236,368.89,372.875,376.86,380.845,383.499,387.484,391.469,395.454,399.44,401.5919,404.788,410.097,416.648,420.633,422.785,424.937,427.0889,430.3,433.783,438.183,442.582,445.651,447.803,451.788,456.187,464.158,468.143,472.542,476.942,479.094,483.079,486.562,488.714,493.113" svgx:width="0.5,0.5,0.33,0.5,0.5,0.33,0.5,0.5,0.5,0.33,0.5,0.5,0.5,0.5,0.27,0.55,0.67,0.82,0.5,0.27,0.27,0.27,0.55,0.44,0.55,0.55,0.38,0.27,0.5,0.55,1.0,0.5,0.55,0.55,0.27,0.5,0.44,0.27,0.55,0.38" style="fill:rgb(23,22,21);font-family:AdvTimes;font-size:7.97px;stroke:none;">82-55-759-9363; Email: choslab@gnu.ac.kr</text>
   <text y="665.652" x="42.462,47.276,50.345,53.828,56.896,60.379,64.779,67.4091,70.638,74.624,79.023,83.423,86.491,89.974,93.043,96.111,99.594,102.663" svgx:width="0.6,0.38,0.44,0.38,0.44,0.55,0.33,0.55,0.5,0.55,0.55,0.38,0.44,0.38,0.38,0.44,0.38,0.27" style="fill:rgb(23,22,21);font-family:AdvTimes;font-size:7.97px;stroke:none;">Present addresses:</text>
   <text y="674.61" x="42.462,49.014,52.999,56.482,60.881,65.281,69.266,72.17,77.892,82.292,85.775,90.174,92.3259,95.301,100.115,104.1,107.168,111.568,113.7199,116.674,122.397,125.88,130.279,132.934,136.417,139.4456,142.47,145.124,149.523,152.5516,155.509,160.323,162.475,166.46,170.86,173.4901,176.486,181.794,186.194,190.179,192.331,195.399,199.799,204.198,210.75,214.233,218.632,221.286,225.271,227.4229,230.401,234.801,237.455,240.523,244.006,247.075,250.1036,253.079,257.893,262.292,266.277,269.346,271.498,275.897,278.049,282.449,286.434,290.419,292.5709,295.542,302.094,305.577,309.976,313.961,317.03,319.684,326.236,329.719,334.118,336.7481,339.707,344.106,346.7361,349.741,356.293,360.692,363.761,366.415,368.567,372.05,376.449,378.601,381.255,385.655,388.723,392.2298,395.153,401.28990000000005,404.224,409.532,413.517,417.917,422.316,425.385,428.868,432.853,437.252,440.7588,443.739,449.876,452.945,456.428,460.827,462.979,465.633,469.116,472.599,475.253,479.653,482.721,486.204,488.3559,491.305,496.119,500.519,503.587,507.987,512.386,515.8928,518.802,525.353,529.753,531.905,535.89,539.373,542.441,545.51,547.662,550.316,554.301" svgx:width="0.82,0.5,0.44,0.55,0.55,0.5,0.55,0.72,0.55,0.44,0.55,0.27,0.55,0.6,0.5,0.38,0.55,0.27,0.55,0.72,0.44,0.55,0.33,0.44,0.38,0.55,0.33,0.55,0.38,0.55,0.6,0.27,0.5,0.55,0.33,0.55,0.67,0.55,0.5,0.27,0.38,0.55,0.55,0.82,0.44,0.55,0.33,0.5,0.27,0.55,0.55,0.33,0.38,0.44,0.38,0.38,0.55,0.6,0.55,0.5,0.38,0.27,0.55,0.27,0.55,0.5,0.5,0.27,0.55,0.82,0.44,0.55,0.5,0.38,0.33,0.82,0.44,0.55,0.33,0.55,0.55,0.33,0.55,0.82,0.55,0.38,0.33,0.27,0.44,0.55,0.27,0.33,0.55,0.38,0.44,0.55,0.77,0.55,0.67,0.5,0.55,0.55,0.38,0.44,0.5,0.55,0.44,0.55,0.77,0.38,0.44,0.55,0.27,0.33,0.44,0.44,0.33,0.55,0.38,0.44,0.27,0.55,0.6,0.55,0.38,0.55,0.55,0.44,0.55,0.82,0.55,0.27,0.5,0.44,0.38,0.38,0.27,0.33,0.5,0.27" style="fill:rgb(23,22,21);font-family:AdvTimes;font-size:7.97px;stroke:none;">Hyeong Cheol Park, Center for Plant Environmental Stress Physiology, Department of Horticulture &amp; Landscape Architecture, Purdue University,</text>
   <text y="683.568" x="42.462,50.345,53.828,56.896,59.5261,62.758,68.066,72.052,74.706,78.691,82.676,86.159,88.813,91.467,94.95,97.1019,100.289,103.358,107.757,112.157,114.309,118.294,122.693,126.678,129.883,133.868,137.854,141.839,145.824,149.809,151.9609,155.169,161.72,166.12" svgx:width="0.99,0.44,0.38,0.33,0.55,0.67,0.5,0.33,0.5,0.5,0.44,0.33,0.33,0.44,0.27,0.55,0.38,0.55,0.55,0.27,0.5,0.55,0.5,0.55,0.5,0.5,0.5,0.5,0.5,0.27,0.55,0.82,0.55,0.77" style="fill:rgb(23,22,21);font-family:AdvTimes;font-size:7.97px;stroke:none;">West Lafayette, Indiana 47907, USA</text>
   <text y="692.525" x="42.462,50.345,54.33,58.713499999999996,61.908,67.216,71.201,75.186,79.586,83.571,86.74,93.291,95.443,101.995,104.1469,107.376,113.928,117.411,121.81,125.795,128.864,131.518,138.07,141.552,145.952,148.5821,151.824,156.223,158.8531,162.085,165.154,169.553,172.208,175.69,179.173,181.828,183.979,188.379,192.7625,195.988,201.296,203.448,207.848,210.0,214.399,218.384,222.37,224.52190000000002,227.737,233.045,235.197,239.596,243.079,246.562,250.962,253.616,256.684,261.084,267.635,269.7869,273.034,279.586,283.986,286.137,290.123,293.606,296.674,299.743,301.895,304.549,308.534,311.756,316.156,318.78610000000003,321.961,327.269,331.254,334.323,337.806,339.958,342.10990000000004,345.319,351.87,354.022,356.174,360.574,364.559,368.042,370.194,374.593,378.076,381.145,385.13,388.198,390.852,393.921,397.906,400.974,404.043,407.5498,410.799,414.784,418.769,420.9209,424.122,429.845,436.396,439.05,443.036,447.021,451.006,454.991,458.195,463.503,467.488,470.557,474.04,476.192,478.3439,481.552,485.952,491.674,493.826,496.48,499.963,503.446,506.515,508.667,512.652,517.052" svgx:width="0.99,0.5,0.55,0.55,0.67,0.5,0.5,0.55,0.5,0.55,0.82,0.27,0.82,0.27,0.55,0.82,0.44,0.55,0.5,0.38,0.33,0.82,0.44,0.55,0.33,0.55,0.55,0.33,0.55,0.38,0.55,0.33,0.44,0.44,0.33,0.27,0.55,0.55,0.55,0.67,0.27,0.55,0.27,0.55,0.5,0.5,0.27,0.55,0.67,0.27,0.55,0.44,0.44,0.55,0.33,0.38,0.55,0.82,0.27,0.55,0.82,0.55,0.27,0.5,0.44,0.38,0.38,0.27,0.33,0.5,0.55,0.55,0.33,0.55,0.67,0.5,0.38,0.44,0.27,0.27,0.55,0.82,0.27,0.27,0.55,0.5,0.44,0.27,0.55,0.44,0.38,0.5,0.38,0.33,0.38,0.5,0.38,0.38,0.44,0.55,0.5,0.5,0.27,0.55,0.72,0.82,0.33,0.5,0.5,0.5,0.5,0.55,0.67,0.5,0.38,0.44,0.27,0.27,0.55,0.55,0.72,0.27,0.33,0.44,0.44,0.38,0.27,0.5,0.55,0.55" style="fill:rgb(23,22,21);font-family:AdvTimes;font-size:7.97px;stroke:none;">Man Lyang Kim, Department of Infection Biology, Biozentrum, University of Basel, Klingelbergstrasse 70, CH-4056 Basel, Switzerland</text>
   <text y="728.411" code="1" x="42.463" svgx:width="0.77" style="fill:rgb(23,22,21);font-family:AdvT001;font-size:7.47px;stroke:none;">?</text>
   <text y="728.411" x="50.74,54.476,58.212,61.948,65.683,68.202,73.178,77.303,80.5898,83.056,88.809,92.934,95.422,99.546,103.67,106.547,109.035,111.912" svgx:width="0.5,0.5,0.5,0.5,0.55,0.67,0.55,0.44,0.55,0.77,0.55,0.33,0.55,0.55,0.38,0.33,0.38,0.33" style="fill:rgb(23,22,21);font-family:AdvTimes;font-size:7.47px;stroke:none;">2007 The Author(s)</text>
   <text y="737.595" x="42.463,47.439,51.564,53.581,56.4196,58.564,60.581,63.4196,65.594,69.33,73.4385,75.572,81.325,85.45,88.715,92.82350000000001,95.018,100.771,104.037,107.302,110.567,113.444,116.2826,118.433,122.168,125.045,127.533,129.551,132.816,134.833,138.1198,140.26,144.384,146.402,149.278,151.766,154.643,156.66,160.785,164.909,167.397,170.663,174.7715,176.941,181.066,185.19,189.315,192.58,195.41860000000003,197.578,200.066,204.19,207.4768,209.597,212.085,215.35,218.227,224.368,227.2066,229.383,233.507,235.9721,238.114,240.602,244.726,248.0128,250.133,255.498,258.374,261.639,265.375,267.863,269.881,273.617,276.90380000000005,279.046,284.411,288.536,294.677,300.819,304.944,309.068,311.90659999999997,314.083,319.836,322.324,324.813,327.689,329.707,333.831,337.955,340.444,342.461,346.585,350.6935,352.862,359.004,363.128,367.252,369.74,375.105,379.23,385.371,391.513,394.778,397.655,400.92,402.938,406.674,408.6909,410.86,415.836,417.854,421.119,424.384,428.508,431.385,434.6718,436.826,439.314,443.438,445.927,448.415,452.539,454.556,457.045,459.533,462.798,465.674,468.94,472.676,475.164,477.181,480.917,484.182,487.447,491.572,497.714,503.855,507.98,512.104,514.981,516.998,521.123,523.988,527.724,530.212,532.229,534.246,537.512,540.777,544.901,547.778,551.043,553.92" svgx:width="0.67,0.55,0.27,0.38,0.55,0.27,0.38,0.55,0.5,0.55,0.55,0.77,0.55,0.44,0.55,0.55,0.77,0.44,0.44,0.44,0.38,0.38,0.55,0.5,0.38,0.33,0.27,0.44,0.27,0.44,0.55,0.55,0.27,0.38,0.33,0.38,0.27,0.55,0.55,0.33,0.44,0.55,0.55,0.55,0.55,0.55,0.44,0.38,0.55,0.33,0.55,0.44,0.55,0.33,0.44,0.38,0.82,0.38,0.55,0.55,0.33,0.55,0.33,0.55,0.44,0.55,0.72,0.38,0.44,0.5,0.33,0.27,0.5,0.44,0.55,0.72,0.55,0.82,0.82,0.55,0.55,0.38,0.55,0.77,0.33,0.33,0.38,0.27,0.55,0.55,0.33,0.27,0.55,0.55,0.55,0.82,0.55,0.55,0.33,0.72,0.55,0.82,0.82,0.44,0.38,0.44,0.27,0.5,0.27,0.55,0.67,0.27,0.44,0.44,0.55,0.38,0.44,0.55,0.33,0.55,0.33,0.33,0.55,0.27,0.33,0.33,0.44,0.38,0.44,0.5,0.33,0.27,0.5,0.44,0.44,0.55,0.82,0.82,0.55,0.55,0.38,0.27,0.55,0.38,0.5,0.33,0.27,0.27,0.44,0.44,0.55,0.38,0.44,0.38,0.33" style="fill:rgb(23,22,21);font-family:AdvTimes;font-size:7.47px;stroke:none;">This is an Open Access article distributed under the terms of the Creative Commons Attribution Non-Commercial License (http://creativecommons.org/licenses/</text>
   <text y="746.836" x="42.463,46.587,50.323,52.811,56.936,60.201,62.689,66.425,68.442,72.178,74.666,78.791,82.915,85.403,87.86810000000001,90.369,95.734,99.858,101.876,105.141,109.24950000000001,111.799,115.923,119.189,122.065,128.207,130.224,132.713,135.5516,138.105,142.229,146.354,149.231,152.496,155.372,157.86,160.737,162.755,166.02,168.508,171.773,175.8815,178.415,182.539,186.664,190.788,193.276,196.541,200.666,206.808,212.949,216.215,219.091,222.356,224.374,228.11,230.1269,232.671,236.796,239.672,242.937,244.9539,247.468,251.593,253.61,256.487,258.975,261.852,263.869,267.993,272.118,274.606,276.623,280.748,284.872,286.88890000000004,289.422,293.158,297.282,301.3905,303.879,306.755,310.021,314.145,317.022,321.146,325.271,329.395,332.66,335.148,337.166,341.29,345.3985,347.93,349.948,354.05649999999997,356.547,360.283,364.408,368.14300000000003,370.664,376.806,380.071,384.195,386.213,390.337,396.479,398.4959,400.995,405.119,407.996,412.12,415.856,417.874,421.998,425.263,429.37149999999997,431.893,434.381,438.505,441.7918,444.309,448.433,451.31,453.327,457.063,459.081,463.205,466.941,468.9579,471.465,476.83,480.954,483.831,487.9395,490.458,492.475,495.3136,497.828,501.952,504.829,508.953,513.078,516.343,519.209,521.227,524.962,527.469,530.734,532.751,535.239,538.505,542.629" svgx:width="0.55,0.5,0.33,0.55,0.44,0.33,0.5,0.27,0.5,0.33,0.55,0.55,0.33,0.33,0.55,0.72,0.55,0.27,0.44,0.55,0.55,0.55,0.44,0.38,0.82,0.27,0.33,0.38,0.55,0.55,0.55,0.38,0.44,0.38,0.33,0.38,0.27,0.44,0.33,0.44,0.55,0.55,0.55,0.55,0.55,0.33,0.44,0.55,0.82,0.82,0.44,0.38,0.44,0.27,0.5,0.27,0.55,0.55,0.38,0.44,0.27,0.55,0.55,0.27,0.38,0.33,0.38,0.27,0.55,0.55,0.33,0.27,0.55,0.55,0.27,0.55,0.5,0.55,0.55,0.55,0.38,0.44,0.55,0.38,0.55,0.55,0.55,0.44,0.33,0.27,0.55,0.55,0.55,0.27,0.55,0.55,0.5,0.55,0.5,0.55,0.82,0.44,0.55,0.27,0.55,0.82,0.27,0.55,0.55,0.38,0.55,0.5,0.27,0.55,0.44,0.55,0.55,0.33,0.55,0.44,0.55,0.55,0.38,0.27,0.5,0.27,0.55,0.5,0.27,0.55,0.72,0.55,0.38,0.55,0.55,0.27,0.38,0.55,0.55,0.38,0.55,0.55,0.44,0.38,0.27,0.5,0.55,0.44,0.27,0.33,0.44,0.55,0.27" style="fill:rgb(23,22,21);font-family:AdvTimes;font-size:7.47px;stroke:none;">by-nc/2.0/uk/) which permits unrestricted non-commercial use, distribution, and reproduction in any medium, provided the original work is properly cited.</text>
  </g>
 </g>
</svg>
