<?xml version="1.0" encoding="UTF-8"?>
<svg height="747.882" width="4071.172" xmlns="http://www.w3.org/2000/svg">
 <g id="page" xmlns:svgx="http://www.xml-cml.org/schema/svgx">
  <g begin="text">
   <text y="79.844" x="309.43,312.747,318.247,323.228,326.51480000000004,332.277,335.595,341.094,343.784,347.5688,353.367,357.721,363.22,371.409,376.909,379.598,383.952,388.932,394.696,398.013,403.513,407.348,415.538,419.32280000000003,425.083,432.236,437.735,442.089,447.567,453.316,457.669,462.023,464.713,467.403,471.18780000000004,477.013,481.994,485.83,490.2124,495.891,499.727,503.044,505.734,513.923,519.423,522.112,527.094,530.411,534.765,540.2429999999999,546.007,551.506" svgx:width="0.33,0.55,0.5,0.33,0.55,0.33,0.55,0.27,0.38,0.55,0.44,0.55,0.82,0.55,0.27,0.44,0.5,0.55,0.33,0.55,0.38,0.82,0.38,0.55,0.72,0.55,0.44,0.55,0.55,0.44,0.44,0.27,0.27,0.38,0.55,0.5,0.38,0.44,0.55,0.38,0.33,0.27,0.82,0.55,0.27,0.5,0.33,0.44,0.55,0.55,0.55,0.5" style="fill:rgb(23,22,21);font-family:AdvTimes;font-size:9.96px;stroke:none;">that this complex forms when cells are stimulated by</text>
   <text y="90.9" x="309.43,314.929,319.91,323.228,328.727,334.227,339.208,343.562,349.061,352.897,355.5862,358.922,364.421,369.921,373.2078,376.61,382.109,387.608,390.89480000000003,394.24,399.74,405.239,410.738,415.092,418.8768,422.246,427.746,432.727,436.563,441.544,444.2332,447.588,451.942,457.441,462.941,468.44,471.13,474.447,477.137,482.637,488.136,491.972" svgx:width="0.55,0.5,0.33,0.55,0.55,0.5,0.44,0.55,0.38,0.27,0.55,0.55,0.55,0.33,0.55,0.55,0.55,0.33,0.55,0.55,0.55,0.55,0.44,0.38,0.55,0.55,0.5,0.38,0.5,0.27,0.55,0.44,0.55,0.55,0.55,0.27,0.33,0.27,0.55,0.55,0.38,0.27" style="fill:rgb(23,22,21);font-family:AdvTimes;font-size:9.96px;stroke:none;">pathogens, but not under basal conditions.</text>
   <text y="101.842" x="319.407,327.079,330.396,333.714,338.067,341.8518,345.656,351.155,355.509,363.698,369.197,374.697,378.532,381.85,385.686,390.667,393.984,396.674,402.174,407.154,410.908,414.225,419.725,424.706,427.99280000000005,431.714,439.903,448.092,454.727,461.362,464.68,472.869,481.059,486.03900000000004,489.824,492.514,496.2988,500.085,505.065,508.76,513.113,518.612,526.802,532.301,537.8,543.3,547.653,553.153" svgx:width="0.77,0.33,0.33,0.44,0.38,0.55,0.55,0.44,0.82,0.55,0.55,0.38,0.33,0.38,0.5,0.33,0.27,0.55,0.5,0.55,0.33,0.55,0.5,0.33,0.55,0.82,0.82,0.67,0.67,0.33,0.82,0.82,0.5,0.55,0.27,0.38,0.55,0.5,0.55,0.44,0.55,0.82,0.55,0.55,0.55,0.44,0.55,0.33" style="fill:rgb(23,22,21);font-family:AdvTimes;font-size:9.96px;stroke:none;">After demonstrating that GmZF-HD1 is a component</text>
   <text y="112.897" x="309.43,314.929,318.2158,324.51,327.828,333.327,336.017,339.8018,346.11,351.609,356.591,359.908,365.408,370.907,375.888,380.242,385.741,389.059,391.749,397.248,402.747,408.247,412.601,416.954,422.432,428.71,433.064,438.563,446.752,452.252,454.942,459.295,464.277,466.9662,473.27,480.423,484.8054,491.014,494.332,499.831,504.185,509.663,515.959,520.312,525.294,530.275,538.464,541.154,546.653,551.007" svgx:width="0.55,0.33,0.55,0.33,0.55,0.27,0.38,0.55,0.55,0.5,0.33,0.55,0.55,0.5,0.44,0.55,0.33,0.27,0.55,0.55,0.55,0.44,0.44,0.55,0.55,0.44,0.55,0.82,0.55,0.27,0.44,0.5,0.27,0.55,0.72,0.44,0.55,0.33,0.55,0.44,0.55,0.55,0.44,0.5,0.5,0.82,0.27,0.55,0.44,0.55" style="fill:rgb(23,22,21);font-family:AdvTimes;font-size:9.96px;stroke:none;">of this pathogen-induced complex, we then examined</text>
   <text y="123.953" x="309.43,316.583,322.082,326.436,329.754,335.253,339.607,343.39180000000005,346.393,349.711,355.21,359.5924,362.494,367.993,371.829,377.328,380.645,384.999,387.689,393.16700000000003,396.112,401.094,405.447,408.765,411.455,416.436,421.417,424.735,429.089,432.8738,435.91,441.409,446.909,454.062,459.561,463.397,466.714,470.55,474.904,479.885,488.05219999999997,491.015,494.333,498.168,503.15,508.649,512.484,516.838,520.674,523.364,528.863,532.18,534.87,540.37" svgx:width="0.72,0.55,0.44,0.33,0.55,0.44,0.38,0.55,0.33,0.55,0.44,0.55,0.55,0.38,0.55,0.33,0.44,0.27,0.55,0.55,0.5,0.44,0.33,0.27,0.5,0.5,0.33,0.44,0.38,0.55,0.55,0.55,0.72,0.55,0.38,0.33,0.38,0.44,0.5,0.82,0.55,0.33,0.38,0.5,0.55,0.38,0.44,0.38,0.27,0.55,0.33,0.27,0.55,0.55" style="fill:rgb(23,22,21);font-family:AdvTimes;font-size:9.96px;stroke:none;">whether the protein activates downstream transcription</text>
   <text y="123.953" x="548.843,551.533" svgx:width="0.27,0.5" style="fill:rgb(23,22,21);font-family:AdvTimes-i;font-size:9.96px;stroke:none;">in</text>
   <text y="135.008" x="309.43,313.783,316.473,320.827" svgx:width="0.44,0.27,0.44,0.5" style="fill:rgb(23,22,21);font-family:AdvTimes-i;font-size:9.96px;stroke:none;">vivo</text>
   <text y="135.008" x="328.988,331.678,337.156,340.27,345.25,348.433,356.623,361.604,367.103,372.603,376.956,380.74080000000004,383.923,389.423,393.776,399.276,403.629,409.129,414.628,418.982,424.481,427.7678,430.978,436.477,441.955,445.094,448.411,453.91,458.29240000000004,461.421,466.403,471.384,474.701,480.201,483.48780000000005,486.65,490.485,494.839,500.338,505.838,510.191,515.691,520.044,524.398,527.0872,530.246,536.881,542.3589999999999,545.497,550.996" svgx:width="0.27,0.55,0.55,0.5,0.55,0.82,0.5,0.55,0.55,0.44,0.38,0.55,0.55,0.44,0.55,0.44,0.55,0.55,0.44,0.55,0.33,0.55,0.55,0.55,0.55,0.33,0.55,0.44,0.55,0.5,0.5,0.33,0.55,0.33,0.55,0.38,0.44,0.55,0.55,0.44,0.55,0.44,0.44,0.27,0.55,0.67,0.55,0.55,0.55,0.55" style="fill:rgb(23,22,21);font-family:AdvTimes;font-size:9.96px;stroke:none;">in a manner dependent on the 30-nt sequence. To do</text>
   <text y="146.063" x="309.43,312.747,318.247,320.937,324.772,327.4612,334.658,341.811,346.1934,353.31,358.809,362.645,366.999" svgx:width="0.33,0.55,0.27,0.38,0.27,0.55,0.72,0.44,0.55,0.55,0.38,0.44,0.55" style="fill:rgb(23,22,21);font-family:AdvTimes;font-size:9.96px;stroke:none;">this, we used</text>
   <text y="146.063" x="379.615,386.768,390.604,395.585,400.567,403.257,408.238,413.219,418.2,422.036,424.726" svgx:width="0.72,0.38,0.5,0.5,0.27,0.5,0.5,0.5,0.38,0.27,0.38" style="fill:rgb(23,22,21);font-family:AdvTimes-i;font-size:9.96px;stroke:none;">Arabidopsis</text>
   <text y="146.063" x="435.741,438.431,442.784,447.765,451.0518,458.247,466.436,470.79,474.626,480.125,485.624,491.124,496.105,498.795,501.48420000000004,508.646,514.145,517.981,523.48,526.798,532.297,537.796,540.486,545.468,549.303,552.621" svgx:width="0.27,0.44,0.5,0.33,0.55,0.82,0.44,0.38,0.55,0.55,0.55,0.5,0.27,0.27,0.55,0.55,0.38,0.55,0.33,0.55,0.55,0.27,0.5,0.38,0.33,0.38" style="fill:rgb(23,22,21);font-family:AdvTimes;font-size:9.96px;stroke:none;">leaf mesophyll protoplasts</text>
   <text y="157.119" x="309.43,314.929,319.91,323.746,329.245,334.745,338.58,341.27,346.77,351.75,354.16,359.14000000000004,361.473,369.663,377.852,383.33,385.737,389.573,393.927,399.426,404.925,408.761,412.078,416.432,420.21680000000003,422.701,428.2,430.89,435.871,439.707,447.896,450.586,456.085,458.7742,461.194,468.347,473.847,476.537,480.89,486.368,488.747,495.9,500.881,504.6658,507.115,511.468,516.968,522.467,526.303,529.62,533.456,538.955,543.309,546.626,550.98" svgx:width="0.55,0.5,0.38,0.55,0.55,0.38,0.27,0.55,0.5,0.55,0.5,0.55,0.82,0.82,0.55,0.55,0.38,0.44,0.55,0.55,0.38,0.33,0.44,0.38,0.55,0.55,0.27,0.5,0.38,0.82,0.27,0.55,0.27,0.55,0.72,0.55,0.27,0.44,0.55,0.55,0.72,0.5,0.38,0.55,0.44,0.55,0.55,0.38,0.33,0.38,0.55,0.44,0.33,0.44,0.55" style="fill:rgb(23,22,21);font-family:AdvTimes;font-size:9.96px;stroke:none;">harboring a GUS reporter plasmid, which was constructed</text>
   <text y="168.174" x="309.43,314.929,319.909,322.298,325.616,331.115,334.951,337.641,343.14,348.618,351.042,356.541,359.8278,362.266,365.584,371.083,375.46540000000005,377.8,385.989,394.179,399.657,402.121,407.102,411.456,416.955,421.3374,423.664,430.817,433.507,436.825,442.303,444.754,448.071,453.571,459.07,462.8548,465.277,468.594,473.576,479.075,484.574,488.928,499.519,503.355,507.708,513.208,517.561,522.543,525.86,529.6448,532.117,537.616,540.9028,543.342,546.659,552.159" svgx:width="0.55,0.5,0.55,0.33,0.55,0.38,0.27,0.55,0.55,0.55,0.55,0.33,0.55,0.33,0.55,0.44,0.55,0.82,0.82,0.55,0.55,0.5,0.44,0.55,0.44,0.55,0.72,0.27,0.33,0.55,0.55,0.33,0.55,0.55,0.38,0.55,0.33,0.5,0.55,0.55,0.44,0.82,0.38,0.44,0.55,0.44,0.5,0.33,0.38,0.55,0.55,0.33,0.55,0.33,0.55,0.44" style="fill:rgb(23,22,21);font-family:AdvTimes;font-size:9.96px;stroke:none;">by fusion of the GUS gene with four tandemrepeats of the</text>
   <text y="179.23" x="309.43,317.101,322.081,325.53,329.366,333.72,338.701,341.391,346.89,352.368,355.804,361.303,364.5898,368.05,371.367,376.867" svgx:width="0.77,0.5,0.55,0.38,0.44,0.5,0.27,0.55,0.55,0.55,0.55,0.33,0.55,0.33,0.55,0.44" style="fill:rgb(23,22,21);font-family:AdvTimes;font-size:9.96px;stroke:none;">A2 region of the</text>
   <text y="179.23" x="384.661,391.814,399.486,406.639,411.62,421.473" svgx:width="0.72,0.77,0.72,0.5,0.99,0.5" style="fill:rgb(23,22,21);font-family:AdvTimes-i;font-size:9.96px;stroke:none;">GmCaM4</text>
   <text y="179.23" x="429.902,435.402,439.237,444.737,452.926,458.425,461.743,466.097,469.8818,473.385,477.739,480.429,485.928,491.428,495.781,501.259,504.736,510.235,515.734,519.57,522.887,526.723,531.077,536.058,544.2252,547.708,553.208" svgx:width="0.55,0.38,0.55,0.82,0.55,0.33,0.44,0.38,0.55,0.44,0.27,0.55,0.55,0.44,0.55,0.55,0.55,0.55,0.38,0.33,0.38,0.44,0.5,0.82,0.55,0.55,0.33" style="fill:rgb(23,22,21);font-family:AdvTimes;font-size:9.96px;stroke:none;">promoter cloned upstream of</text>
   <text y="190.285" x="309.431,312.748,318.248,322.6304,330.69,335.044,340.025,345.524,348.214,350.904,356.403,361.903,369.056,373.41,377.19480000000004,385.341,393.53,399.029,402.865,407.846,410.536,414.9184,422.985,427.966,430.656,434.491,439.991,443.7758,451.954" svgx:width="0.33,0.55,0.44,0.55,0.44,0.5,0.55,0.27,0.27,0.55,0.55,0.72,0.44,0.38,0.55,0.82,0.55,0.38,0.5,0.27,0.44,0.55,0.5,0.27,0.38,0.55,0.38,0.55,0.33" style="fill:rgb(23,22,21);font-family:AdvTimes;font-size:9.96px;stroke:none;">the cauliﬂower mosaic virus (</text>
   <text y="190.285" x="455.244,462.397,467.379,477.232,484.385,489.365,497.48,502.461,507.442" svgx:width="0.72,0.5,0.99,0.72,0.5,0.55,0.5,0.5,0.6" style="fill:rgb(23,22,21);font-family:AdvTimes-i;font-size:9.96px;stroke:none;">CaMV) 35S</text>
   <text y="190.285" x="521.518,529.707,532.397,537.896,540.586,548.775,553.757" svgx:width="0.82,0.27,0.55,0.27,0.82,0.5,0.27" style="fill:rgb(23,22,21);font-family:AdvTimes;font-size:9.96px;stroke:none;">minimal</text>
   <text y="201.341" x="309.431,314.93,318.766,324.265,332.454,337.954,341.271,345.625,349.4098,357.505,360.195" svgx:width="0.55,0.38,0.55,0.82,0.55,0.33,0.44,0.38,0.55,0.27,0.55" style="fill:rgb(23,22,21);font-family:AdvTimes;font-size:9.96px;stroke:none;">promoter in</text>
   <text y="201.341" x="373.664,378.645,386.316,390.67,393.35920000000004,401.387,406.368,411.349,416.33,419.648" svgx:width="0.5,0.77,0.44,0.27,0.55,0.5,0.5,0.5,0.33,0.5" style="fill:rgb(23,22,21);font-family:AdvTimes-i;font-size:9.96px;stroke:none;">pDel 151-8</text>
   <text y="201.341" x="432.624,435.942,440.923,445.904,449.222,451.9112,459.893,469.746,474.1284,482.116,487.098,489.788,493.623,499.101,507.118,511.471,516.971,522.47,526.306,529.623,533.459,538.958,543.312,546.629,550.983" svgx:width="0.33,0.5,0.5,0.33,0.27,0.55,0.99,0.44,0.55,0.5,0.27,0.38,0.55,0.55,0.44,0.55,0.55,0.38,0.33,0.38,0.55,0.44,0.33,0.44,0.55" style="fill:rgb(23,22,21);font-family:AdvTimes;font-size:9.96px;stroke:none;">(34). We also constructed</text>
   <text y="212.396" x="309.431,314.412,319.89,325.021,329.375,335.392,339.746,344.1,347.417,352.917,356.7018,361.928,367.427,370.117,375.098,378.934,387.123,389.813,395.291,400.422,405.922,410.90200000000004,416.013,418.703,424.202,428.038,432.391,436.227,439.544,442.234,447.734,452.714,457.852,461.169,466.669,471.0514,476.163,479.48,484.98,487.67,490.36,493.677,496.367,500.721,506.22,511.201,514.519" svgx:width="0.5,0.55,0.55,0.44,0.6,0.44,0.44,0.33,0.55,0.38,0.55,0.55,0.27,0.5,0.38,0.82,0.27,0.55,0.55,0.55,0.5,0.55,0.27,0.55,0.38,0.44,0.38,0.33,0.27,0.55,0.5,0.55,0.33,0.55,0.44,0.55,0.33,0.55,0.27,0.27,0.33,0.27,0.44,0.55,0.5,0.33,0.55" style="fill:rgb(23,22,21);font-family:AdvTimes;font-size:9.96px;stroke:none;">an eﬀector plasmid by inserting the full-length</text>
   <text y="212.396" x="525.146,532.299,539.97,547.123,553.141" svgx:width="0.72,0.77,0.72,0.6,0.33" style="fill:rgb(23,22,21);font-family:AdvTimes-i;font-size:9.96px;stroke:none;">GmZF-</text>
   <text y="223.452" x="309.431,317.62,325.291" svgx:width="0.82,0.77,0.5" style="fill:rgb(23,22,21);font-family:AdvTimes-i;font-size:9.96px;stroke:none;">HD1</text>
   <text y="223.452" x="336.36,340.713,348.903,357.092,364.7612,370.828,374.664,379.018,384.517,390.016,394.37,399.869,404.223,408.60540000000003,414.651,419.632,422.95,426.267,430.621,434.4058,440.503,443.82,449.32" svgx:width="0.44,0.82,0.82,0.77,0.55,0.38,0.44,0.55,0.55,0.44,0.55,0.44,0.44,0.55,0.5,0.33,0.33,0.44,0.38,0.55,0.33,0.55,0.44" style="fill:rgb(23,22,21);font-family:AdvTimes;font-size:9.96px;stroke:none;">cDNA sequence after the</text>
   <text y="223.452" x="459.723,466.876,471.857,481.71" svgx:width="0.72,0.5,0.99,0.72" style="fill:rgb(23,22,21);font-family:AdvTimes-i;font-size:9.96px;stroke:none;">CaMV</text>
   <text y="223.452" x="494.928,499.91,504.891,510.369,516.471,521.971,525.806,531.306,539.495,544.994,548.312,552.666" svgx:width="0.5,0.5,0.55,0.55,0.55,0.38,0.55,0.82,0.55,0.33,0.44,0.38" style="fill:rgb(23,22,21);font-family:AdvTimes;font-size:9.96px;stroke:none;">35S promoter</text>
   <text y="234.507" x="309.43,312.747,319.382,322.072,327.054,332.553,336.389,340.7714,343.502,348.483,355.118,358.436,361.1252,363.911,371.583,375.36780000000005,378.141,381.977,387.476,392.975,400.128,405.606,408.414,411.104,416.582,419.356,425.991,428.681,433.662,439.162,442.997,447.37940000000003,450.14,455.121,462.274,464.96320000000003,467.715,472.068,476.422,479.112,481.802,485.58680000000004,488.407,491.725,495.56,500.541,506.041,509.876,513.194,517.548,521.901,525.219,529.572,535.05,537.842,544.995,547.685,551.003" svgx:width="0.33,0.67,0.27,0.5,0.55,0.38,0.44,0.55,0.5,0.67,0.33,0.27,0.55,0.77,0.38,0.55,0.38,0.55,0.55,0.72,0.55,0.55,0.27,0.55,0.55,0.67,0.27,0.5,0.55,0.38,0.44,0.55,0.5,0.72,0.27,0.55,0.44,0.44,0.27,0.27,0.38,0.55,0.33,0.38,0.5,0.55,0.38,0.33,0.44,0.44,0.33,0.44,0.55,0.55,0.72,0.27,0.33,0.55" style="fill:rgb(23,22,21);font-family:AdvTimes;font-size:9.96px;stroke:none;">(Figure 8B). As shown in Figure 8C, cells transfected with</text>
   <text y="245.563" x="309.43,312.747,318.247,322.62940000000003,325.53,329.366,333.72,339.219,344.718,348.554,351.871,356.225,360.00980000000004,363.004,367.357,372.857,378.356,382.192,385.509,389.345,394.844,399.198,402.4848,405.466,410.448,413.138,418.637,424.136,428.51840000000004,431.431,435.785,440.766,446.265,448.955,454.454,457.144,460.462,464.816,470.294,473.27,478.251,483.729,486.65,489.34,494.839,499.193,503.028,507.382,512.363,516.199,520.5813999999999,523.499,526.189,531.6669999999999,534.611,542.8,550.989" svgx:width="0.33,0.55,0.44,0.55,0.38,0.44,0.55,0.55,0.38,0.33,0.44,0.38,0.55,0.44,0.55,0.55,0.38,0.33,0.38,0.55,0.44,0.33,0.55,0.5,0.27,0.55,0.55,0.44,0.55,0.44,0.5,0.55,0.27,0.55,0.27,0.33,0.44,0.55,0.55,0.5,0.55,0.55,0.27,0.55,0.44,0.38,0.44,0.5,0.38,0.44,0.55,0.27,0.55,0.55,0.82,0.82,0.55" style="fill:rgb(23,22,21);font-family:AdvTimes;font-size:9.96px;stroke:none;">the reporter construct alone exhibited an increase in GUS</text>
   <text y="256.618" x="309.43,314.411,318.765,322.082,324.772,329.754,332.443,335.761,340.74100000000004,347.47,352.969,356.2558,362.947,367.928,373.428,378.927,384.426,387.7128,394.411,399.392,402.082,407.063,410.381,413.698,419.198,421.888,427.387,430.07620000000003,436.76,441.113,446.613,454.802,460.301,465.283,469.118,473.472,478.95,485.685,489.003,494.481,501.162,505.516,511.015,516.514,519.832,523.668,529.167,531.8562000000001,538.522,542.875,547.229,549.919,552.609" svgx:width="0.5,0.44,0.33,0.27,0.5,0.27,0.33,0.5,0.55,0.55,0.33,0.55,0.5,0.55,0.55,0.55,0.33,0.55,0.5,0.27,0.5,0.33,0.33,0.55,0.27,0.55,0.27,0.55,0.44,0.55,0.82,0.55,0.5,0.38,0.44,0.55,0.55,0.33,0.55,0.55,0.44,0.55,0.55,0.33,0.38,0.55,0.27,0.55,0.44,0.44,0.27,0.27,0.38" style="fill:rgb(23,22,21);font-family:AdvTimes;font-size:9.96px;stroke:none;">activity of about 2.9-fold, compared to control cells</text>
   <text y="267.674" x="309.43,312.747,316.583,321.564,327.064,330.899,334.217,338.57,342.924,346.242,350.595,356.07300000000004,361.076,368.229,370.919,374.237,379.71500000000003,384.659,387.977,393.476,397.8584,402.801,407.783,412.136,416.49,419.807,425.307,429.142,431.8312,436.76,439.45,444.949,450.448,453.138,457.492,462.473,465.791,468.481,473.98,478.96000000000004,483.928,487.245,492.745,497.726,501.0128,505.981,510.335,515.834,521.333,526.833,531.814,536.168,541.667,547.166,552.666" svgx:width="0.33,0.38,0.5,0.55,0.38,0.33,0.44,0.44,0.33,0.44,0.55,0.55,0.72,0.27,0.33,0.55,0.55,0.33,0.55,0.44,0.55,0.5,0.44,0.44,0.33,0.55,0.38,0.27,0.55,0.27,0.55,0.55,0.27,0.44,0.5,0.33,0.27,0.55,0.5,0.55,0.33,0.55,0.5,0.33,0.55,0.44,0.55,0.55,0.55,0.5,0.44,0.55,0.55,0.55,0.38" style="fill:rgb(23,22,21);font-family:AdvTimes;font-size:9.96px;stroke:none;">transfected with the vector, indicating that endogenous</text>
   <text y="278.729" x="309.43,316.583,320.419,325.4,330.381,333.071,338.052,343.034,348.015,351.851,354.54" svgx:width="0.72,0.38,0.5,0.5,0.27,0.5,0.5,0.5,0.38,0.27,0.38" style="fill:rgb(23,22,21);font-family:AdvTimes-i;font-size:9.96px;stroke:none;">Arabidopsis</text>
   <text y="278.729" x="360.85,366.349,370.185,375.684,379.002,383.355,386.045,391.545,395.32980000000003,397.756,405.946,410.927,415.90700000000004,418.335,422.171,426.524,430.878,436.377,441.359,446.858,449.548,453.902,458.2844,460.684,464.002,469.501,473.8834,476.275,481.774,485.61,491.109,499.298,504.798,508.115,512.469,516.2538000000001,518.737,522.573,526.926,532.426,537.925,542.279,547.778,552.132" svgx:width="0.55,0.38,0.55,0.33,0.44,0.27,0.55,0.38,0.55,0.82,0.5,0.5,0.55,0.38,0.44,0.44,0.55,0.5,0.55,0.27,0.44,0.44,0.55,0.33,0.55,0.44,0.55,0.55,0.38,0.55,0.82,0.55,0.33,0.44,0.38,0.55,0.38,0.44,0.55,0.55,0.44,0.55,0.44,0.44" style="fill:rgb(23,22,21);font-family:AdvTimes;font-size:9.96px;stroke:none;">proteins may recognize the promoter sequence</text>
   <text y="289.785" x="309.43,312.12,317.598,321.165,324.482,329.982,334.36440000000005,337.946,341.781,346.135,351.634,357.134,360.969,364.287,368.641,372.42580000000004,376.043,380.396,385.896,391.395,395.231,398.548,402.384,407.883,412.237,415.554,418.2432,421.85,429.003,434.502,437.82,442.174,447.155,452.654,456.49,460.843,464.679,468.515,471.205,476.704,482.182,485.799,492.952,495.642,498.959,504.437,508.022,511.34,516.839,521.2214,524.747,529.1,535.118,539.471,543.825,547.142,552.642" svgx:width="0.27,0.55,0.55,0.33,0.55,0.44,0.55,0.38,0.44,0.55,0.55,0.38,0.33,0.44,0.38,0.55,0.44,0.55,0.55,0.38,0.33,0.38,0.55,0.44,0.33,0.27,0.55,0.72,0.55,0.33,0.44,0.5,0.55,0.38,0.44,0.38,0.38,0.27,0.55,0.55,0.55,0.72,0.27,0.33,0.55,0.55,0.33,0.55,0.44,0.55,0.44,0.6,0.44,0.44,0.33,0.55,0.38" style="fill:rgb(23,22,21);font-family:AdvTimes;font-size:9.96px;stroke:none;">in the reporter construct. Co-expression with the eﬀector</text>
   <text y="300.84" x="309.43,314.929,318.765,324.264,327.582,331.935,334.625,340.103,344.919,353.108,361.297,367.932,374.567,377.885,386.074,394.263,399.243,404.049,406.739,412.238,416.592,420.427,424.781,429.762,433.598,437.951,443.42900000000003,448.212,456.401,464.59,470.068,474.857,479.838,484.192,487.509,490.199,495.181,497.871,501.188,506.168,510.969,515.951,521.45,526.949,532.449,535.7357999999999,540.505,545.487,548.177,553.158" svgx:width="0.55,0.38,0.55,0.33,0.44,0.27,0.55,0.55,0.82,0.82,0.67,0.67,0.33,0.82,0.82,0.5,0.55,0.27,0.55,0.44,0.38,0.44,0.5,0.38,0.44,0.55,0.55,0.82,0.82,0.55,0.55,0.5,0.44,0.33,0.27,0.5,0.27,0.33,0.5,0.55,0.5,0.55,0.55,0.55,0.33,0.55,0.5,0.27,0.5,0.33" style="fill:rgb(23,22,21);font-family:AdvTimes;font-size:9.96px;stroke:none;">protein GmZF-HD1 increased GUS activity about 5.1-</text>
   <text y="311.896" x="309.43,312.747,318.247,320.937,326.436,329.1252,331.71,338.345,343.845,348.198,352.034,356.4164,358.922,362.758,367.111,370.947,376.446,379.136,382.454,386.2388,388.856,392.691,398.191,403.69,409.189,414.689,418.524,421.81080000000003,424.401,427.719,433.218,437.60040000000004,440.105,444.459,449.958,455.458,459.811,462.501,468.001,471.836,474.526,480.026,485.504,488.123,491.441,496.94,501.921,505.2078,507.795,511.113,516.612,520.9943999999999,523.499,531.689,539.878,546.513,553.148" svgx:width="0.33,0.55,0.27,0.55,0.27,0.55,0.67,0.55,0.44,0.38,0.44,0.55,0.38,0.44,0.38,0.55,0.27,0.33,0.38,0.55,0.38,0.55,0.55,0.55,0.55,0.38,0.33,0.55,0.33,0.55,0.44,0.55,0.44,0.55,0.55,0.44,0.27,0.55,0.38,0.27,0.55,0.55,0.55,0.33,0.55,0.5,0.33,0.55,0.33,0.55,0.44,0.55,0.82,0.82,0.67,0.67,0.33" style="fill:rgb(23,22,21);font-family:AdvTimes;font-size:9.96px;stroke:none;">fold. These results support the conclusion that the GmZF-</text>
   <text y="322.951" x="309.43,317.619,325.808,330.788,338.569,344.069,347.904,353.404,356.721,361.075,363.765,369.243,377.12,382.101,386.455,389.772,392.462,397.443,401.797,404.487,409.46700000000004,417.258,420.576,426.075,431.574,435.928,439.246,441.935,447.435,452.934,456.71880000000004,464.596,469.578,473.3628,481.15,486.13,493.906,497.224,501.059,506.041,511.54,515.376,519.729,523.565,526.255,531.754,535.072,537.762,543.261,548.76,553.742" svgx:width="0.82,0.82,0.5,0.55,0.55,0.38,0.55,0.33,0.44,0.27,0.55,0.55,0.5,0.44,0.33,0.27,0.5,0.44,0.27,0.5,0.55,0.33,0.55,0.55,0.44,0.33,0.27,0.55,0.55,0.38,0.55,0.5,0.38,0.55,0.5,0.55,0.33,0.38,0.5,0.55,0.38,0.44,0.38,0.27,0.55,0.33,0.27,0.55,0.55,0.5,0.27" style="fill:rgb(23,22,21);font-family:AdvTimes;font-size:9.96px;stroke:none;">HD1 protein actively functions as a transcriptional</text>
   <text y="334.007" x="309.43,313.265,317.619,322.6,328.1,330.79,335.771,339.088,344.588,348.37280000000004,354.387,359.368,364.868,370.346,376.327,379.644,385.144,390.125,393.4118,399.4,402.09,405.3768,411.362,414.052,417.83680000000004,423.834,426.524,432.024,437.005,442.504,445.194,450.175,454.529,460.007,466.013,468.703,474.181,480.129,485.628,490.61,493.927,499.427,504.926,509.907,514.261,519.76,523.078,525.768,531.267,536.766,542.266,546.619,550.973" svgx:width="0.38,0.44,0.5,0.55,0.27,0.5,0.33,0.55,0.38,0.55,0.5,0.55,0.55,0.55,0.33,0.55,0.5,0.33,0.55,0.27,0.33,0.55,0.27,0.38,0.55,0.27,0.55,0.5,0.55,0.27,0.5,0.44,0.55,0.55,0.27,0.55,0.55,0.55,0.5,0.33,0.55,0.55,0.5,0.44,0.55,0.33,0.27,0.55,0.55,0.55,0.44,0.44,0.55" style="fill:rgb(23,22,21);font-family:AdvTimes;font-size:9.96px;stroke:none;">regulator and that it is involved in pathogen-induced</text>
   <text y="345.062" x="309.43,316.583,324.254,331.407,336.389,346.242" svgx:width="0.72,0.77,0.72,0.5,0.99,0.5" style="fill:rgb(23,22,21);font-family:AdvTimes-i;font-size:9.96px;stroke:none;">GmCaM4</text>
   <text y="345.062" x="354.557,359.539,363.892,369.392,373.7744,377.121,381.474,386.456,391.955,395.791,400.144,403.98,407.816,410.505,416.005,421.504" svgx:width="0.5,0.44,0.55,0.44,0.55,0.44,0.5,0.55,0.38,0.44,0.38,0.38,0.27,0.55,0.55,0.27" style="fill:rgb(23,22,21);font-family:AdvTimes;font-size:9.96px;stroke:none;">gene expression.</text>
   <text y="379.021" x="309.43,316.792,319.691,326.117,333.48,340.842,347.268,353.694,356.593,364.374" svgx:width="0.74,0.29,0.64,0.74,0.74,0.64,0.64,0.29,0.78,0.74" style="fill:rgb(23,22,21);font-family:AdvP47D4A3;font-size:9.96px;stroke:none;">DISCUSSION</text>
   <text y="394.781" x="309.43,313.265,316.5518,320.825,323.515,327.2998,331.597,334.286,342.476,347.975,353.474,357.31,360.628,365.609,371.108,374.39480000000003,378.708,382.025,387.503,391.747,397.246,402.745,408.245,412.599,416.434,420.27,423.587,428.569,434.068,439.546,443.847,449.347,454.846,462.0172,466.241,471.74,474.43,479.412,484.911,488.229,492.0138,496.345,500.181,504.534,508.888,514.387,519.369,524.868,527.558,531.912,536.2944,540.508,545.49,550.989" svgx:width="0.38,0.33,0.55,0.27,0.38,0.55,0.27,0.82,0.55,0.55,0.38,0.33,0.5,0.55,0.33,0.55,0.33,0.55,0.55,0.55,0.55,0.55,0.44,0.38,0.38,0.33,0.5,0.55,0.55,0.55,0.55,0.55,0.72,0.55,0.55,0.27,0.5,0.55,0.33,0.38,0.55,0.38,0.44,0.44,0.55,0.5,0.55,0.27,0.44,0.44,0.55,0.5,0.55,0.55" style="fill:rgb(23,22,21);font-family:AdvTimes;font-size:9.96px;stroke:none;">It is important to understand how plants recognize and</text>
   <text y="405.837" x="309.43,312.747,316.583,321.564,327.064,330.899,336.399,341.898,346.252,350.6344,355.633,359.469,362.787,366.622,370.976,374.811,378.647,383.001,386.7858,391.916,395.752,401.251,405.605,411.083,416.123,421.105,424.88980000000004,429.9,435.399,440.38,443.698,449.197,454.697,459.678,464.031,469.509,474.573,477.263,482.762,486.08,490.433,494.787,498.105,500.795,506.294,511.772,516.865,521.846,527.346,532.824,537.841,543.341,546.031,551.012" svgx:width="0.33,0.38,0.5,0.55,0.38,0.55,0.55,0.44,0.44,0.55,0.38,0.33,0.38,0.44,0.38,0.38,0.44,0.38,0.55,0.38,0.55,0.44,0.55,0.55,0.5,0.38,0.55,0.55,0.5,0.33,0.55,0.55,0.5,0.44,0.55,0.55,0.27,0.55,0.33,0.44,0.44,0.33,0.27,0.55,0.55,0.55,0.5,0.55,0.55,0.55,0.55,0.27,0.5,0.55" style="fill:rgb(23,22,21);font-family:AdvTimes;font-size:9.96px;stroke:none;">transduce stresses such as pathogen infection and high</text>
   <text y="416.892" x="309.43,313.783,319.283,324.264,326.954,330.79,336.289,341.788,349.978,354.331,359.831,363.148,368.129,370.81820000000005,376.61,380.445,385.427,388.116,390.806,396.306,398.996,402.313,407.293,413.12,416.437,421.915,427.69,432.671,437.025,440.342,443.032,448.014,452.995,456.312,460.69440000000003,466.411,469.728,473.564,478.545,484.044,487.88,492.234,496.069,498.759,504.258,507.576,510.266,515.765,521.2429999999999,527.071,532.57,535.8568,541.641,547.14,551.494" svgx:width="0.44,0.55,0.5,0.27,0.38,0.55,0.55,0.82,0.44,0.55,0.33,0.5,0.27,0.55,0.38,0.5,0.27,0.27,0.55,0.27,0.33,0.5,0.55,0.33,0.55,0.55,0.5,0.44,0.33,0.27,0.5,0.5,0.33,0.44,0.55,0.33,0.38,0.5,0.55,0.38,0.44,0.38,0.27,0.55,0.33,0.27,0.55,0.55,0.55,0.55,0.33,0.55,0.55,0.44,0.5" style="fill:rgb(23,22,21);font-family:AdvTimes;font-size:9.96px;stroke:none;">environmental salinity to activate transcription of key</text>
   <text y="427.948" x="309.43,313.783,318.137,320.827,323.517,329.016,331.706,336.688,340.523,343.841,347.676,352.03,355.866,361.365,366.864,372.364,376.199,380.58140000000003,388.742,396.931,401.285,406.784,409.474,414.456,417.773,423.273,427.108,430.8928,439.028,442.864,448.363,452.717,458.195,466.354,471.335,475.1198,483.248,487.602,492.583,495.273,499.627,502.317,507.816,515.9832,524.124,529.623,532.313,537.813,543.312,546.002,551.501" svgx:width="0.44,0.44,0.27,0.27,0.55,0.27,0.5,0.38,0.33,0.38,0.44,0.38,0.55,0.55,0.55,0.38,0.44,0.55,0.82,0.44,0.55,0.27,0.5,0.33,0.55,0.38,0.38,0.55,0.38,0.55,0.44,0.55,0.55,0.5,0.38,0.55,0.44,0.5,0.27,0.44,0.27,0.55,0.82,0.55,0.55,0.27,0.55,0.55,0.27,0.55,0.5" style="fill:rgb(23,22,21);font-family:AdvTimes;font-size:9.96px;stroke:none;">cellular-response mediators such as calcium binding</text>
   <text y="439.003" x="309.43,314.929,318.765,324.264,327.582,331.935,334.625,340.125,343.96,346.6492,357.504,363.004,366.78880000000004,377.63,384.783,389.764,399.617,403.453,406.1422,416.974,426.827,431.2094,442.032,447.531,451.367,455.721,460.702,463.392,468.891,474.391,478.226,480.916,485.896,496.74,500.575,506.075,511.574,518.727,523.081,528.559,539.373,542.69,548.189,553.171" svgx:width="0.55,0.38,0.55,0.33,0.44,0.27,0.55,0.38,0.27,0.55,0.55,0.38,0.55,0.72,0.5,0.99,0.38,0.27,0.55,0.99,0.44,0.55,0.55,0.38,0.44,0.5,0.27,0.55,0.55,0.38,0.27,0.5,0.55,0.38,0.55,0.55,0.72,0.44,0.55,0.55,0.33,0.55,0.5,0.33" style="fill:rgb(23,22,21);font-family:AdvTimes;font-size:9.96px;stroke:none;">proteins, or CaMs. We previously showed that</text>
   <text y="450.059" x="309.43,316.583,324.254,331.407,336.389,346.242" svgx:width="0.72,0.77,0.72,0.5,0.99,0.5" style="fill:rgb(23,22,21);font-family:AdvTimes-i;font-size:9.96px;stroke:none;">GmCaM4</text>
   <text y="450.059" x="358.526,363.507,367.86,373.36,377.74240000000003,385.001,389.355,394.336,399.835,403.671,408.025,411.86,415.696,418.386,423.885,429.363,436.647,439.337,444.837,450.336,455.835,460.189,464.543,470.021,477.353,482.852,487.832,495.097,499.451,504.95,509.931,512.621,516.457,521.956,527.455,535.645,539.998,545.498,548.815,553.796" svgx:width="0.5,0.44,0.55,0.44,0.55,0.44,0.5,0.55,0.38,0.44,0.38,0.38,0.27,0.55,0.55,0.55,0.27,0.55,0.55,0.55,0.44,0.44,0.55,0.55,0.55,0.5,0.55,0.44,0.55,0.5,0.27,0.38,0.55,0.55,0.82,0.44,0.55,0.33,0.5,0.27" style="fill:rgb(23,22,21);font-family:AdvTimes;font-size:9.96px;stroke:none;">gene expression induced by environmental</text>
   <text y="461.114" x="309.43,313.265,316.583,320.419,324.772,328.608,332.443,336.797,340.58180000000004,343.218,347.054,352.553,356.907,362.385,364.931,369.913,373.69780000000003,376.327,381.826,386.807,390.125,395.624,401.124,406.105,410.459,415.937,418.505,423.487,428.986,434.464,437.044,440.879,445.861,448.551,451.24,456.74,459.43,462.747,467.72700000000003,470.265,472.955,476.7398,479.336,484.835,489.817,493.652,496.97,499.66,504.641,507.331,510.021,515.001,517.603,525.793,530.146,535.646,538.336,543.317,546.634,550.988" svgx:width="0.38,0.33,0.38,0.44,0.38,0.38,0.44,0.38,0.55,0.38,0.55,0.44,0.55,0.55,0.5,0.38,0.55,0.55,0.5,0.33,0.55,0.55,0.5,0.44,0.55,0.55,0.5,0.55,0.55,0.55,0.38,0.5,0.27,0.27,0.55,0.27,0.33,0.5,0.55,0.27,0.38,0.55,0.55,0.5,0.38,0.33,0.27,0.5,0.27,0.27,0.5,0.55,0.82,0.44,0.55,0.27,0.5,0.33,0.44,0.55" style="fill:rgb(23,22,21);font-family:AdvTimes;font-size:9.96px;stroke:none;">stresses such as pathogen and salinity is partially mediated</text>
   <text y="472.17" x="309.43,314.929,319.909,323.603,326.92,332.419,336.8014,340.497,345.997,348.686,354.186,359.685,362.375,367.874,372.85400000000004,376.554,382.053,385.3398,389.083,394.06300000000005,397.757,405.947,412.582,415.899,420.88,424.198,426.888,429.578,435.077,439.4594,443.168,446.485,450.321,455.302,460.802,464.637,468.991,472.826,475.516,481.016,484.333,487.023,492.523,498.00100000000003,501.788,505.105,510.087,514.44,517.758,523.257,527.0418,530.814,534.131,539.6089999999999,543.343,546.66,552.16" svgx:width="0.55,0.5,0.55,0.33,0.55,0.44,0.55,0.55,0.27,0.55,0.55,0.27,0.55,0.5,0.55,0.55,0.33,0.55,0.5,0.55,0.82,0.67,0.33,0.5,0.33,0.27,0.27,0.55,0.44,0.55,0.33,0.38,0.5,0.55,0.38,0.44,0.38,0.27,0.55,0.33,0.27,0.55,0.55,0.55,0.33,0.5,0.44,0.33,0.55,0.38,0.55,0.33,0.55,0.55,0.33,0.55,0.44" style="fill:rgb(23,22,21);font-family:AdvTimes;font-size:9.96px;stroke:none;">by the binding of a GT-1-like transcription factor to the</text>
   <text y="483.225" x="309.43,316.583,323.218,326.536,331.516,334.488,338.841,341.531" svgx:width="0.72,0.67,0.33,0.5,0.55,0.44,0.27,0.38" style="fill:rgb(23,22,21);font-family:AdvTimes-i;font-size:9.96px;stroke:none;">GT-1 cis</text>
   <text y="483.225" x="345.373,348.69,353.672,358.025,361.343,364.033,369.532,374.512,377.46,381.814,384.504,388.858,397.047,401.401,406.9,410.1868,413.176,416.494,424.683,432.354,440.026,447.697,455.368,463.039,466.3258,469.358,472.048,477.526,480.47,483.787,489.287" svgx:width="0.33,0.5,0.44,0.33,0.27,0.55,0.5,0.55,0.44,0.27,0.44,0.82,0.44,0.55,0.33,0.55,0.33,0.82,0.77,0.77,0.77,0.77,0.77,0.33,0.55,0.27,0.55,0.55,0.33,0.55,0.44" style="fill:rgb(23,22,21);font-family:AdvTimes;font-size:9.96px;stroke:none;">-acting element (GAAAAA) in the</text>
   <text y="483.225" code="1" x="496.572" svgx:width="0.77" style="fill:rgb(23,22,21);font-family:AdvMT_SY;font-size:9.96px;stroke:none;">?</text>
   <text y="483.225" x="504.282,509.264,514.245,519.225,522.14,525.458" svgx:width="0.5,0.5,0.5,0.55,0.33,0.55" style="fill:rgb(23,22,21);font-family:AdvTimes;font-size:9.96px;stroke:none;">858 to</text>
   <text y="483.225" code="1" x="533.876" svgx:width="0.77" style="fill:rgb(23,22,21);font-family:AdvMT_SY;font-size:9.96px;stroke:none;">?</text>
   <text y="483.225" x="541.586,546.568,551.549" svgx:width="0.5,0.5,0.5" style="fill:rgb(23,22,21);font-family:AdvTimes;font-size:9.96px;stroke:none;">728</text>
   <text y="494.281" x="309.43,313.265,317.619,322.6,325.29,330.79,336.26800000000003,341.064,346.563,349.8498,354.556,357.874,363.373" svgx:width="0.38,0.44,0.5,0.27,0.55,0.55,0.55,0.55,0.33,0.55,0.33,0.55,0.44" style="fill:rgb(23,22,21);font-family:AdvTimes;font-size:9.96px;stroke:none;">region of the</text>
   <text y="494.281" x="372.472,379.625,387.297,394.45,399.431,409.284" svgx:width="0.72,0.77,0.72,0.5,0.99,0.5" style="fill:rgb(23,22,21);font-family:AdvTimes-i;font-size:9.96px;stroke:none;">GmCaM4</text>
   <text y="494.281" x="419.016,424.516,428.351,433.851,442.04,447.539,450.857,455.211,458.99580000000003,463.803,467.121,472.102,477.083,480.401,483.09020000000004,487.841,491.677,497.15500000000003,501.9,506.882,512.381,517.88,520.57,523.888,526.578,532.077,537.576,540.2652,544.986,552.14" svgx:width="0.55,0.38,0.55,0.82,0.55,0.33,0.44,0.38,0.55,0.33,0.5,0.5,0.33,0.27,0.55,0.38,0.55,0.55,0.5,0.55,0.55,0.27,0.33,0.27,0.55,0.55,0.27,0.55,0.72,0.44" style="fill:rgb(23,22,21);font-family:AdvTimes;font-size:9.96px;stroke:none;">promoter (13). In addition, we</text>
   <text y="505.336" x="309.43,313.265,317.619,323.118,328.618,332.453,335.771,340.125,345.603,348.774,352.092,357.591,362.572,365.85880000000003,369.013,372.331,377.83" svgx:width="0.38,0.44,0.55,0.55,0.38,0.33,0.44,0.55,0.55,0.33,0.55,0.5,0.33,0.55,0.33,0.55,0.44" style="fill:rgb(23,22,21);font-family:AdvTimes;font-size:9.96px;stroke:none;">reported that the</text>
   <text y="505.336" code="1" x="385.341" svgx:width="0.77" style="fill:rgb(23,22,21);font-family:AdvMT_SY;font-size:9.96px;stroke:none;">?</text>
   <text y="505.336" x="392.994,397.975,402.957,407.938,412.918,416.068,419.385" svgx:width="0.5,0.5,0.5,0.5,0.55,0.33,0.55" style="fill:rgb(23,22,21);font-family:AdvTimes;font-size:9.96px;stroke:none;">1286 to</text>
   <text y="505.336" code="1" x="427.974" svgx:width="0.77" style="fill:rgb(23,22,21);font-family:AdvMT_SY;font-size:9.96px;stroke:none;">?</text>
   <text y="505.336" x="435.684,440.665,445.646,450.628,455.608,458.7,462.536,466.89,471.871,474.561,480.06,485.538,488.748,494.247,499.746,503.582,506.9,510.735,515.089,520.07,528.2372,531.381,536.88,540.1668,543.343,546.66,552.16" svgx:width="0.5,0.5,0.5,0.5,0.55,0.38,0.44,0.5,0.27,0.55,0.55,0.55,0.55,0.55,0.38,0.33,0.38,0.44,0.5,0.82,0.55,0.55,0.33,0.55,0.33,0.55,0.44" style="fill:rgb(23,22,21);font-family:AdvTimes;font-size:9.96px;stroke:none;">1065 region upstream of the</text>
   <text y="516.392" x="309.429,317.618,324.253,327.571" svgx:width="0.82,0.67,0.33,0.5" style="fill:rgb(23,22,21);font-family:AdvTimes;font-size:9.96px;stroke:none;">GT-1</text>
   <text y="516.392" x="338.342,342.696,345.386" svgx:width="0.44,0.27,0.38" style="fill:rgb(23,22,21);font-family:AdvTimes-i;font-size:9.96px;stroke:none;">cis</text>
   <text y="516.392" x="349.227,352.545,357.526,361.88,365.197,367.887,373.387,378.367,384.094,388.447,391.137,395.491,403.68,408.034,413.533,416.81980000000004,422.644,425.334,429.1188,434.89,439.871,442.561,446.397,451.875,457.68,460.37,465.87,470.851,476.35,479.04,484.021,488.375,493.853,499.633,502.323,507.801,513.523,519.022,524.003,527.321,532.82,538.32,543.301,547.655,553.154" svgx:width="0.33,0.5,0.44,0.33,0.27,0.55,0.5,0.55,0.44,0.27,0.44,0.82,0.44,0.55,0.33,0.55,0.27,0.38,0.55,0.5,0.27,0.38,0.55,0.55,0.27,0.55,0.5,0.55,0.27,0.5,0.44,0.55,0.55,0.27,0.55,0.55,0.55,0.5,0.33,0.55,0.55,0.5,0.44,0.55,0.33" style="fill:rgb(23,22,21);font-family:AdvTimes;font-size:9.96px;stroke:none;">-acting element is also involved in pathogen-</text>
   <text y="527.447" x="309.429,313.264,316.582,319.272,327.461,332.961,335.65,340.632,343.949,348.303" svgx:width="0.38,0.33,0.27,0.82,0.55,0.27,0.5,0.33,0.44,0.55" style="fill:rgb(23,22,21);font-family:AdvTimes;font-size:9.96px;stroke:none;">stimulated</text>
   <text y="527.447" x="357.448,364.601,372.272,379.425,384.406,394.259" svgx:width="0.72,0.77,0.72,0.5,0.99,0.5" style="fill:rgb(23,22,21);font-family:AdvTimes-i;font-size:9.96px;stroke:none;">GmCaM4</text>
   <text y="527.447" x="402.858,407.839,412.193,417.692,422.0744,425.649,429.484,433.838,438.819,444.318,447.008,451.99,455.307,457.997,463.496,468.974,472.646,475.964,480.945,485.926,489.244,491.93320000000006,495.55,499.386,504.86400000000003,508.476,511.793,517.292,519.982,523.7668,527.467,531.303,535.656,541.156,546.655,550.491,553.808" svgx:width="0.5,0.44,0.55,0.44,0.55,0.38,0.44,0.5,0.55,0.27,0.5,0.33,0.27,0.55,0.55,0.55,0.33,0.5,0.5,0.33,0.27,0.55,0.38,0.55,0.55,0.33,0.55,0.27,0.38,0.55,0.38,0.44,0.55,0.55,0.38,0.33,0.27" style="fill:rgb(23,22,21);font-family:AdvTimes;font-size:9.96px;stroke:none;">gene regulation (13). In this report,</text>
   <text y="538.503" x="309.429,316.582,320.9644,328.477,331.167,336.667,341.02,346.52,349.837,352.527,358.026,362.38,367.858,375.418,379.254,383.607,389.107,393.46,398.442,401.759,405.54380000000003,413.119,418.618,421.9048,429.503,434.483,441.975,446.329,451.828,457.328,461.163,465.517,469.353,474.334,478.688,484.166,491.751,497.251,502.75,510.939,515.293,520.792,526.292,531.791,539.98,544.962,547.652,553.151" svgx:width="0.72,0.44,0.55,0.27,0.55,0.44,0.55,0.33,0.27,0.55,0.44,0.55,0.55,0.38,0.44,0.55,0.44,0.5,0.33,0.38,0.55,0.55,0.33,0.55,0.5,0.55,0.44,0.55,0.55,0.38,0.44,0.38,0.5,0.44,0.55,0.55,0.55,0.55,0.82,0.44,0.55,0.55,0.55,0.82,0.5,0.27,0.55,0.33" style="fill:rgb(23,22,21);font-family:AdvTimes;font-size:9.96px;stroke:none;">we identiﬁed repeats of a conserved homeodomain-</text>
   <text y="549.558" x="309.429,314.928,317.618,323.117,328.617,331.307,336.806,341.786,345.939,349.774,352.464,355.782,360.136,362.82520000000005,366.972,374.643,381.278,387.913,395.584,398.27320000000003,402.405,405.095,410.57300000000004,414.707,418.024,423.524" svgx:width="0.55,0.27,0.55,0.55,0.27,0.55,0.5,0.55,0.38,0.27,0.33,0.44,0.27,0.55,0.77,0.67,0.67,0.77,0.27,0.55,0.27,0.55,0.55,0.33,0.55,0.44" style="fill:rgb(23,22,21);font-family:AdvTimes;font-size:9.96px;stroke:none;">binding site, ATTA, in the</text>
   <text y="549.558" x="431.999,439.152,446.823,453.976,458.957,468.81" svgx:width="0.72,0.77,0.72,0.5,0.99,0.5" style="fill:rgb(23,22,21);font-family:AdvTimes-i;font-size:9.96px;stroke:none;">GmCaM4</text>
   <text y="549.558" x="477.919,483.419,487.254,492.754,500.943,506.442,509.76,514.113,517.8978000000001,522.083,525.4,530.899,535.881,539.1677999999999,543.342,548.323,552.159" svgx:width="0.55,0.38,0.55,0.82,0.55,0.33,0.44,0.38,0.55,0.33,0.55,0.5,0.33,0.55,0.5,0.38,0.44" style="fill:rgb(23,22,21);font-family:AdvTimes;font-size:9.96px;stroke:none;">promoter that are</text>
   <text y="560.614" x="309.429,313.264,317.618,320.308,324.662,329.643,334.624,340.124,343.41080000000005,347.979,351.297,356.77500000000003,361.245,366.745,371.726,375.044,380.543,386.042,391.024,395.377,400.855,405.352,409.187,413.541,417.377,422.876,428.375,433.875,437.71,442.064,445.9,448.5892,453.143,459.779,465.257,469.754,472.444,476.28,481.779,484.469,489.45,492.768,497.1504,501.615,504.933,508.769,513.75,519.249,523.085,527.438,531.274,533.964,539.463,542.781,545.471,550.97" svgx:width="0.38,0.44,0.27,0.44,0.5,0.5,0.55,0.33,0.55,0.33,0.55,0.55,0.55,0.5,0.33,0.55,0.55,0.5,0.44,0.55,0.55,0.38,0.44,0.38,0.55,0.55,0.55,0.38,0.44,0.38,0.27,0.55,0.67,0.55,0.55,0.27,0.38,0.55,0.27,0.5,0.33,0.44,0.55,0.33,0.38,0.5,0.55,0.38,0.44,0.38,0.27,0.55,0.33,0.27,0.55,0.55" style="fill:rgb(23,22,21);font-family:AdvTimes;font-size:9.96px;stroke:none;">relevant to pathogen responses. To isolate transcription</text>
   <text y="571.669" x="309.429,312.746,317.728,322.081,325.399,330.898,334.734,338.5188,345.088,348.406,353.905,358.886,362.17280000000005,368.616,374.115,376.805,382.304,387.782,394.297,397.615,403.114" svgx:width="0.33,0.5,0.44,0.33,0.55,0.38,0.38,0.55,0.33,0.55,0.5,0.33,0.55,0.55,0.27,0.55,0.55,0.55,0.33,0.55,0.44" style="fill:rgb(23,22,21);font-family:AdvTimes;font-size:9.96px;stroke:none;">factors that bind the</text>
   <text y="571.669" x="413.97,418.324,421.014" svgx:width="0.44,0.27,0.38" style="fill:rgb(23,22,21);font-family:AdvTimes-i;font-size:9.96px;stroke:none;">cis</text>
   <text y="571.669" x="424.856,428.173,433.154,437.508,440.826,443.515,449.015,453.995,460.458,464.812,467.501,471.855,480.044,484.398,489.897,493.215,495.9042,502.41,509.564,513.9464,520.382,524.218,528.571,532.407,536.76,541.114,546.613,550.967" svgx:width="0.33,0.5,0.44,0.33,0.27,0.55,0.5,0.55,0.44,0.27,0.44,0.82,0.44,0.55,0.33,0.27,0.55,0.72,0.44,0.55,0.38,0.44,0.38,0.44,0.44,0.55,0.44,0.55" style="fill:rgb(23,22,21);font-family:AdvTimes;font-size:9.96px;stroke:none;">-acting element, we screened</text>
   <text y="582.725" x="309.429,313.264,318.764,323.745,329.244,333.598,338.579,344.057,347.696,352.05,360.239,368.428,376.0972,379.784,382.474,385.164,390.663,394.499,399.48,403.315,406.005,410.359,414.1438,417.824,423.323,427.159,429.849,435.348,440.32800000000003,443.959,448.939,452.577,457.558,461.911,466.893,470.728,474.01480000000004,477.634,483.134,488.633,492.987,496.304,501.804,506.785,512.284,516.12,518.81,524.2879999999999,527.977,531.813,536.794,540.63,543.947,548.301" svgx:width="0.38,0.55,0.5,0.55,0.44,0.5,0.55,0.55,0.44,0.82,0.82,0.77,0.55,0.27,0.27,0.55,0.38,0.5,0.38,0.27,0.44,0.38,0.55,0.55,0.38,0.27,0.55,0.5,0.55,0.5,0.55,0.5,0.44,0.5,0.38,0.33,0.55,0.55,0.55,0.44,0.33,0.55,0.5,0.55,0.38,0.27,0.55,0.55,0.38,0.5,0.38,0.33,0.44,0.82" style="fill:rgb(23,22,21);font-family:AdvTimes;font-size:9.96px;stroke:none;">soybean cDNA libraries using a yeast one-hybrid system</text>
   <text y="593.78" x="309.429,314.41,319.909,325.387,329.725,334.078,336.768,342.268,347.767,352.121,357.599,361.983,365.3,372.453,377.931,382.278,386.632,394.821,403.011,410.682,414.517" svgx:width="0.5,0.55,0.55,0.55,0.44,0.27,0.55,0.55,0.44,0.55,0.55,0.33,0.72,0.55,0.55,0.44,0.82,0.82,0.77,0.38,0.27" style="fill:rgb(23,22,21);font-family:AdvTimes;font-size:9.96px;stroke:none;">and cloned two cDNAs,</text>
   <text y="593.78" x="421.567,428.72,436.391,443.544,449.562,452.879,461.069,468.74" svgx:width="0.72,0.77,0.72,0.6,0.33,0.82,0.77,0.5" style="fill:rgb(23,22,21);font-family:AdvTimes-i;font-size:9.96px;stroke:none;">GmZF-HD1</text>
   <text y="593.78" x="478.146,483.128,488.627" svgx:width="0.5,0.55,0.55" style="fill:rgb(23,22,21);font-family:AdvTimes;font-size:9.96px;stroke:none;">and</text>
   <text y="593.78" code="1" x="498.442" svgx:width="0.77" style="fill:rgb(23,22,21);font-family:AdvMT_SY;font-size:9.96px;stroke:none;">?</text>
   <text y="593.78" x="506.096" svgx:width="0.5" style="fill:rgb(23,22,21);font-family:AdvTimes-i;font-size:9.96px;stroke:none;">2</text>
   <text y="593.78" x="511.085,513.7742,518.114,522.468,527.967,532.321,537.82,543.32,546.01,551.509" svgx:width="0.27,0.55,0.44,0.55,0.44,0.55,0.55,0.27,0.55,0.5" style="fill:rgb(23,22,21);font-family:AdvTimes;font-size:9.96px;stroke:none;">, encoding</text>
   <text y="604.836" x="309.429,314.928,320.428,328.617,332.97,338.47,343.969,349.469,357.658,362.639,365.329,370.807,377.176,385.365,393.554,401.22319999999996,407.563,413.062,415.752,421.251,426.75,429.44,434.94,439.92,446.226,451.726,455.561,461.061,464.378,468.732,471.422,476.921,480.7058,487.101,490.418,495.918,500.899,504.18580000000003,510.515,514.351,519.85,524.204,528.557,531.247,536.746,541.1,546.081,548.771,551.461" svgx:width="0.55,0.55,0.82,0.44,0.55,0.55,0.55,0.82,0.5,0.27,0.55,0.55,0.82,0.82,0.77,0.55,0.55,0.27,0.55,0.55,0.27,0.55,0.5,0.55,0.55,0.38,0.55,0.33,0.44,0.27,0.55,0.38,0.55,0.33,0.55,0.5,0.33,0.55,0.38,0.55,0.44,0.44,0.27,0.55,0.44,0.5,0.27,0.27,0.5" style="fill:rgb(23,22,21);font-family:AdvTimes;font-size:9.96px;stroke:none;">homeodomain DNA binding proteins that speciﬁcally</text>
   <text y="615.891" x="309.429,312.119,317.618,320.936,325.289,329.125,334.106,338.46,341.7468,348.093,355.246,357.936,361.253,366.731,373.037,376.355,381.854,386.2364,392.482,400.153,405.13300000000004,411.417,415.253,419.606,424.587,427.277,432.777,438.255,444.581,447.899,452.88,457.86,459.548,465.048,470.547,473.83380000000005,480.128,485.627,488.91380000000004,495.208,498.526,504.025" svgx:width="0.27,0.55,0.33,0.44,0.38,0.5,0.44,0.33,0.55,0.72,0.27,0.33,0.55,0.55,0.33,0.55,0.44,0.55,0.77,0.5,0.55,0.38,0.44,0.5,0.27,0.55,0.55,0.55,0.33,0.5,0.5,0.55,0.55,0.55,0.33,0.55,0.55,0.33,0.55,0.33,0.55,0.44" style="fill:rgb(23,22,21);font-family:AdvTimes;font-size:9.96px;stroke:none;">interact with the A2 region (80 bp) of the</text>
   <text y="615.891" x="514.713,521.866,529.537,536.691,541.672,551.525" svgx:width="0.72,0.77,0.72,0.5,0.99,0.5" style="fill:rgb(23,22,21);font-family:AdvTimes-i;font-size:9.96px;stroke:none;">GmCaM4</text>
   <text y="626.947" x="309.429,314.928,318.764,324.263,332.452,337.952,341.269,345.623,349.4078,352.798,356.116,362.751,365.441,370.422,375.921,379.757,384.1394,387.437,392.418,395.736,398.4252,401.723,409.3922,412.665,418.165,422.0,426.354,431.335,434.025,439.524,445.024,448.8088,452.18,457.161,461.515,466.496,470.332,473.6188,476.954,482.453,487.953,492.306,495.624,501.123,506.104,511.604,515.439,518.129,523.607,526.956,530.792,535.145,538.981,543.335,547.688,553.188" svgx:width="0.55,0.38,0.55,0.82,0.55,0.33,0.44,0.38,0.55,0.33,0.67,0.27,0.5,0.55,0.38,0.44,0.55,0.5,0.33,0.27,0.55,0.77,0.55,0.55,0.38,0.44,0.5,0.27,0.55,0.55,0.38,0.55,0.5,0.44,0.5,0.38,0.33,0.55,0.55,0.55,0.44,0.33,0.55,0.5,0.55,0.38,0.27,0.55,0.55,0.38,0.44,0.38,0.44,0.44,0.55,0.33" style="fill:rgb(23,22,21);font-family:AdvTimes;font-size:9.96px;stroke:none;">promoter (Figure 3). A previous yeast one-hybrid screen-</text>
   <text y="638.002" x="309.429,312.119,317.618,322.598,326.437,331.936,336.29,340.126,343.443,348.942,352.778,360.967,365.321,370.79900000000004,374.682,377.372,382.85,386.701,392.2,394.89,399.871,405.371,408.688,412.4728,416.35,421.85,426.831,432.309,436.136,441.11600000000004,444.923,448.759,454.258,458.612,462.965,467.319,471.155,474.9398,478.825,482.661,487.642,490.959,495.3414,499.178,504.677,507.96380000000005,511.82,516.801,521.783,524.473,529.454,539.414,543.227,546.545,551.526" svgx:width="0.27,0.55,0.5,0.55,0.55,0.44,0.38,0.33,0.55,0.38,0.82,0.44,0.55,0.55,0.27,0.55,0.55,0.55,0.27,0.5,0.55,0.33,0.38,0.55,0.55,0.5,0.55,0.55,0.5,0.55,0.38,0.55,0.44,0.44,0.44,0.38,0.38,0.55,0.38,0.5,0.33,0.44,0.55,0.55,0.33,0.55,0.5,0.5,0.27,0.5,1.0,0.55,0.33,0.5,0.5" style="fill:rgb(23,22,21);font-family:AdvTimes;font-size:9.96px;stroke:none;">ing performed in plants had a success rate of 87.8% (36</text>
   <text y="649.058" x="309.429,312.746,316.582,322.081,326.435,329.752,334.734,339.714,344.578,347.895,353.395,356.712,361.694,364.38320000000004,369.239,373.593,376.283,381.782,387.281,391.635,395.471,398.75780000000003,403.708,407.025,412.007,416.988,420.305,422.99420000000003,427.858,431.694,437.172,442.031,445.348,450.848,453.538,457.32280000000003,462.27,466.106,469.423,474.922,480.422,485.403,488.09220000000005,492.941,500.094,504.4764,509.325,514.825,520.324,523.642,528.623,531.313,536.812,541.166,546.644,551.504" svgx:width="0.33,0.38,0.55,0.44,0.33,0.5,0.5,0.55,0.33,0.55,0.33,0.5,0.27,0.55,0.44,0.27,0.55,0.55,0.44,0.38,0.33,0.55,0.33,0.5,0.5,0.33,0.27,0.55,0.38,0.55,0.55,0.33,0.55,0.27,0.38,0.55,0.38,0.33,0.55,0.55,0.5,0.27,0.55,0.72,0.44,0.55,0.55,0.55,0.33,0.5,0.27,0.55,0.44,0.55,0.55,0.5" style="fill:rgb(23,22,21);font-family:AdvTimes;font-size:9.96px;stroke:none;">true/41 total clones) (31). In this study, we obtained a</text>
   <text y="660.113" x="309.429,313.264,318.764,323.117,327.471,331.825,335.66,339.44480000000004,342.82,346.656,351.637,354.955,359.3374,362.549,368.049,371.3358,374.682,379.663,384.644,387.334,392.316,402.27599999999995,405.522,408.84,413.821,418.80100000000004,422.076,425.393,429.229,434.728,439.082,442.4,447.381,452.361,455.638,458.955,464.455,467.772,472.754,475.44320000000005,478.711,483.065,485.755,491.254,496.754,501.107,504.943,508.26,510.9492,514.257,516.947,522.446,527.945,530.635,534.989,539.97,543.288,545.978,551.477" svgx:width="0.38,0.55,0.44,0.44,0.44,0.38,0.38,0.55,0.38,0.5,0.33,0.44,0.55,0.55,0.33,0.55,0.5,0.5,0.27,0.5,1.0,0.55,0.33,0.5,0.5,0.55,0.33,0.38,0.55,0.44,0.33,0.5,0.5,0.55,0.33,0.55,0.33,0.5,0.27,0.55,0.44,0.27,0.55,0.55,0.44,0.38,0.33,0.27,0.55,0.27,0.55,0.55,0.27,0.44,0.5,0.33,0.27,0.55,0.5" style="fill:rgb(23,22,21);font-family:AdvTimes;font-size:9.96px;stroke:none;">success rate of 66.7% (28 true/42 total clones), indicating</text>
   <text y="671.169" x="309.429,312.746,318.246,323.227,326.5138,331.312,336.811,342.31,346.0948,350.87,354.706,359.059,362.895,367.249,371.602,377.08,381.881,389.034,394.015,397.7998,402.63,406.984,413.001,417.355,421.708,425.026,427.716,432.697,437.0794,441.804,445.121,450.621,454.4058,459.208,461.898,465.734,471.233,473.923,478.905,482.222,484.912,490.411,495.391,500.197,505.696,510.05,517.2212000000001,521.967,527.466,531.302,536.801,540.119,544.472,547.162,552.662" svgx:width="0.33,0.55,0.5,0.33,0.55,0.55,0.55,0.38,0.55,0.38,0.44,0.38,0.44,0.44,0.55,0.55,0.72,0.5,0.38,0.55,0.44,0.6,0.44,0.44,0.33,0.27,0.5,0.44,0.55,0.33,0.55,0.38,0.55,0.27,0.38,0.55,0.27,0.5,0.33,0.27,0.55,0.5,0.55,0.55,0.44,0.72,0.55,0.55,0.38,0.55,0.33,0.44,0.27,0.55,0.38" style="fill:rgb(23,22,21);font-family:AdvTimes;font-size:9.96px;stroke:none;">that our screen was eﬀective for isolating new proteins</text>
   <text y="682.224" x="309.429,312.746,318.246,323.227,326.5138,329.895,335.394,338.084,343.584,349.062,352.401,355.719,361.197,364.534,367.851,373.351" svgx:width="0.33,0.55,0.5,0.33,0.55,0.55,0.27,0.55,0.55,0.55,0.33,0.55,0.55,0.33,0.55,0.44" style="fill:rgb(23,22,21);font-family:AdvTimes;font-size:9.96px;stroke:none;">that bind to the</text>
   <text y="682.224" x="381.032,388.185,395.856,403.009,407.991,417.844" svgx:width="0.72,0.77,0.72,0.5,0.99,0.5" style="fill:rgb(23,22,21);font-family:AdvTimes-i;font-size:9.96px;stroke:none;">GmCaM4</text>
   <text y="682.224" x="426.16,431.659,435.495,440.994,449.183,454.683,458.0,462.354,466.189" svgx:width="0.55,0.38,0.55,0.82,0.55,0.33,0.44,0.38,0.27" style="fill:rgb(23,22,21);font-family:AdvTimes;font-size:9.96px;stroke:none;">promoter.</text>
   <text y="693.166" x="319.407,326.042,331.542,335.9244,338.909,344.409,349.908,358.097,362.451,367.95,373.45,378.949,387.138,392.119,394.809,400.28700000000003,403.368,406.058,409.8428,412.949,418.449,423.948,428.3304,431.317,436.817,440.10380000000004,443.166,446.483,451.983,456.3654,459.38,467.569,473.069,476.904,480.1908,483.247,485.937,494.127,499.626,505.125,508.961,512.278,517.26,522.759,526.0458,529.111,537.301,545.49,553.161" svgx:width="0.67,0.55,0.44,0.55,0.55,0.55,0.82,0.44,0.55,0.55,0.55,0.82,0.5,0.27,0.55,0.55,0.27,0.38,0.55,0.55,0.55,0.44,0.55,0.55,0.33,0.55,0.33,0.55,0.44,0.55,0.82,0.55,0.38,0.33,0.55,0.27,0.82,0.55,0.55,0.38,0.33,0.5,0.55,0.33,0.55,0.82,0.82,0.77,0.33" style="fill:rgb(23,22,21);font-family:AdvTimes;font-size:9.96px;stroke:none;">The homeodomain is one of the most important DNA-</text>
   <text y="704.222" x="309.43,314.929,317.619,323.118,328.618,331.308,336.807,341.78700000000003,347.868,356.057,361.556,364.874,367.564,370.881,374.6658,380.806,383.496,388.974,395.092,400.592,403.282,408.263,412.617,416.452,420.288,424.67040000000003,430.695,436.194,440.03,445.011,449.992,455.492,458.181,462.017,470.206,473.99080000000004,480.13,483.966,489.465,493.819,499.297,505.415,510.396,514.1808,520.268,525.768,531.267,539.456,544.438,549.937,553.773" svgx:width="0.55,0.27,0.55,0.55,0.27,0.55,0.5,0.55,0.82,0.55,0.33,0.27,0.33,0.38,0.55,0.27,0.55,0.55,0.55,0.27,0.5,0.44,0.38,0.38,0.44,0.55,0.55,0.38,0.5,0.5,0.55,0.27,0.38,0.82,0.38,0.55,0.38,0.55,0.44,0.55,0.55,0.5,0.38,0.55,0.55,0.55,0.82,0.5,0.55,0.38,0.27" style="fill:rgb(23,22,21);font-family:AdvTimes;font-size:9.96px;stroke:none;">binding motifs in diverse organisms such as humans,</text>
   <text y="715.277" x="309.43,317.101,320.937,325.918,329.754,334.735,339.716,344.697,347.387,350.077" svgx:width="0.77,0.38,0.5,0.38,0.5,0.5,0.5,0.27,0.27,0.5" style="fill:rgb(23,22,21);font-family:AdvTimes-i;font-size:9.96px;stroke:none;">Drosophila</text>
   <text y="715.277" x="355.124" svgx:width="0.27" style="fill:rgb(23,22,21);font-family:AdvTimes;font-size:9.96px;stroke:none;">,</text>
   <text y="715.277" x="361.361,368.514,373.495,377.849,382.83,387.812,391.647,396.628,401.61,406.591,411.572,414.262,417.58,420.27,424.0548,427.691,432.044,434.734,439.088,444.069,449.051,454.032" svgx:width="0.72,0.5,0.44,0.5,0.5,0.38,0.5,0.5,0.5,0.5,0.27,0.33,0.27,0.38,0.55,0.44,0.27,0.44,0.5,0.5,0.5,0.38" style="fill:rgb(23,22,21);font-family:AdvTimes-i;font-size:9.96px;stroke:none;">Caenorhabditis elegans</text>
   <text y="715.277" x="461.423,466.405,471.904,477.382,480.982,486.481,489.171,494.152,499.652,502.969,506.805,509.49420000000003,513.069,518.051,523.55,529.0279999999999,532.628,535.318,538.6048,542.209,547.708,552.69" svgx:width="0.5,0.55,0.55,0.55,0.55,0.27,0.5,0.55,0.33,0.38,0.27,0.55,0.5,0.55,0.55,0.55,0.27,0.33,0.55,0.55,0.5,0.38" style="fill:rgb(23,22,21);font-family:AdvTimes;font-size:9.96px;stroke:none;">and plants, and it has</text>
   <text y="726.333" x="309.43,314.929,319.283,323.637,329.115,332.674,339.827,342.517,348.016,352.37,355.06,360.04,363.627,367.463,370.781,376.28,381.779,384.469,388.823,394.301,397.87,402.851,406.6358,410.172,415.15200000000004,418.676,426.865,432.364,437.864,442.217,444.9062,448.496,452.331,457.313,461.148,464.466,468.82,476.9872,480.527,483.844,489.344,493.1288,496.741,502.24,506.076,511.575,514.893,519.246,521.936,527.435,532.417,540.606,548.795" svgx:width="0.55,0.44,0.44,0.55,0.55,0.72,0.27,0.55,0.44,0.27,0.5,0.55,0.38,0.33,0.55,0.55,0.27,0.44,0.55,0.55,0.5,0.38,0.55,0.5,0.55,0.82,0.55,0.55,0.44,0.27,0.55,0.38,0.5,0.38,0.33,0.44,0.82,0.55,0.33,0.55,0.38,0.55,0.55,0.38,0.55,0.33,0.44,0.27,0.55,0.5,0.82,0.82,0.77" style="fill:rgb(23,22,21);font-family:AdvTimes;font-size:9.96px;stroke:none;">been widely studied as a model system for protein–DNA</text>
   <text y="737.388" x="309.43,312.12,317.619,320.937,325.29,329.126,334.107,338.461,341.778,344.468,349.968,355.467,359.2518,367.483,370.8,375.782,380.763,384.081,386.77020000000005,394.922,401.557,407.056,411.4384,419.583,425.083,428.918,432.754,436.04080000000005,444.188,448.542,452.377,457.358,461.194,464.512,469.493,472.1822,480.357,484.193,487.51,491.346,496.845,501.199,504.516,510.016,513.851,518.2334,526.334,531.834,535.1207999999999,543.343,546.66,552.159" svgx:width="0.27,0.55,0.33,0.44,0.38,0.5,0.44,0.33,0.27,0.55,0.55,0.38,0.55,0.33,0.5,0.5,0.33,0.27,0.55,0.67,0.55,0.44,0.55,0.55,0.38,0.38,0.33,0.55,0.44,0.38,0.5,0.38,0.33,0.5,0.27,0.55,0.38,0.33,0.38,0.55,0.44,0.33,0.55,0.38,0.44,0.55,0.55,0.33,0.55,0.33,0.55,0.44" style="fill:rgb(23,22,21);font-family:AdvTimes;font-size:9.96px;stroke:none;">interactions (35). The ﬁrst crystal structure of the</text>
  </g>
  <rect style="stroke:blue;stroke-width:0.3;" x="61.172" y="80.851" height="399.231" width="209.65" title="9"/>
  <text y="80.851" class="image" id="image.9.1" width="209" height="399" x="61.172">image.9.1.61_271.81_480</text>
  <g begin="text">
   <text y="486.843" x="42.463,47.277,49.429,53.414,57.399,60.468,63.9748,70.356,74.341" svgx:width="0.6,0.27,0.5,0.5,0.38,0.44,0.55,0.5,0.27" style="fill:rgb(23,22,21);font-family:AdvTimes-b;font-size:7.97px;stroke:none;">Figure 8.</text>
   <text y="486.843" x="80.447,86.999,89.151,92.219,95.702,99.185,101.8151,107.32,109.472,113.871,116.525,120.008,123.077,127.062,130.545,133.199,135.351,139.75,144.1335,149.613,155.335,157.487,160.141,164.5245,170.022,174.007,178.407,182.7905,188.22,192.206,195.689,198.343,200.495,204.48,208.465,211.119,213.271,217.67,222.05349999999999,227.565,231.965,234.5951,240.038,242.692,247.092" svgx:width="0.82,0.27,0.38,0.44,0.44,0.33,0.55,0.27,0.55,0.33,0.44,0.38,0.5,0.44,0.33,0.27,0.55,0.55,0.55,0.72,0.27,0.33,0.55,0.55,0.5,0.55,0.55,0.55,0.5,0.44,0.33,0.27,0.5,0.5,0.33,0.27,0.55,0.55,0.55,0.55,0.33,0.55,0.33,0.55,0.44" style="fill:rgb(23,22,21);font-family:AdvTimes;font-size:7.97px;stroke:none;">Direct interaction with and activation of the</text>
   <text y="486.843" x="256.026,261.749,267.886,273.608,277.593,285.476" svgx:width="0.72,0.77,0.72,0.5,0.99,0.5" style="fill:rgb(23,22,21);font-family:AdvTimes-i;font-size:7.97px;stroke:none;">GmCaM4</text>
   <text y="495.8" x="42.463,46.863,49.931,54.331,60.882,65.282,67.936,71.419,74.4476,79.257,83.656,87.641,92.41,95.064,99.463,102.96979999999999,107.717,114.268,120.82,126.128,131.436,134.09,140.642,147.193,151.17800000000003,155.963,160.362,163.431,167.83,170.484,173.967,176.119,180.519,182.67090000000002,187.484" svgx:width="0.55,0.38,0.55,0.82,0.55,0.33,0.44,0.38,0.55,0.55,0.5,0.55,0.33,0.55,0.44,0.55,0.82,0.82,0.67,0.67,0.33,0.82,0.82,0.5,0.55,0.55,0.38,0.55,0.33,0.44,0.27,0.55,0.27,0.55,0.33" style="fill:rgb(23,22,21);font-family:AdvTimes;font-size:7.97px;stroke:none;">promoter by the GmZF-HD1 protein. (</text>
   <text y="495.8" x="190.148" svgx:width="0.72" style="fill:rgb(23,22,21);font-family:AdvTimes-b;font-size:7.97px;stroke:none;">A</text>
   <text y="495.8" x="195.874,198.5041,203.301,209.852,213.335,215.48690000000002,220.252,226.803,231.203,235.602,237.754,239.906,242.058,244.712,248.697,253.474,256.543,260.942,265.342,268.825,271.893,274.547,277.616,282.015,284.167,286.821" svgx:width="0.33,0.55,0.82,0.44,0.27,0.55,0.82,0.55,0.55,0.27,0.27,0.27,0.33,0.5,0.55,0.38,0.55,0.55,0.44,0.38,0.33,0.38,0.55,0.27,0.33,0.33" style="fill:rgb(23,22,21);font-family:AdvTimes;font-size:7.97px;stroke:none;">) Gel mobility super-shift</text>
   <text y="504.758" x="42.463,46.448,49.517,52.585,56.57,60.555,64.347,68.746,71.815,73.967,78.366,82.351,86.174,90.159,94.5425,98.419,102.404,106.804,109.458,111.61,114.264,120.816,127.367,132.675,137.983,140.638,147.189,153.741,157.72600000000003,161.576,165.561,169.961,172.615,174.767,179.166,183.566,187.965,191.95,194.1019,197.916,203.639,207.624,210.692,212.844,217.244,221.643,224.6716,228.587,232.07,236.47,240.869,244.352,247.835,252.235,254.889,257.957,261.942,264.596,266.748,271.148,275.547,278.5756,282.446,286.845" svgx:width="0.5,0.38,0.38,0.5,0.5,0.55,0.55,0.38,0.27,0.55,0.5,0.55,0.5,0.55,0.55,0.5,0.55,0.33,0.27,0.33,0.82,0.82,0.67,0.67,0.33,0.82,0.82,0.5,0.55,0.5,0.55,0.33,0.27,0.55,0.55,0.55,0.5,0.27,0.55,0.72,0.5,0.38,0.27,0.55,0.55,0.38,0.55,0.44,0.55,0.55,0.44,0.44,0.55,0.33,0.38,0.5,0.33,0.27,0.55,0.55,0.38,0.55,0.55,0.33" style="fill:rgb(23,22,21);font-family:AdvTimes;font-size:7.97px;stroke:none;">assay using an anti-GmZF-HD1 antibody. Various concentrations of</text>
   <text y="513.716" x="42.463,46.863,51.262,53.414,57.399,60.882,63.034,67.434,71.833,75.818,77.9699,80.391,84.376,88.775,91.429,93.581,97.981,102.381,106.78,108.932,112.415,115.4436,117.978,121.047,125.032,127.184,130.252,133.735,138.1185,140.542,144.527,148.512,152.497,154.649,159.049,162.117,164.7471,167.244,169.899,174.298,177.8048,180.227,186.779,191.178,196.486,198.638,200.79,207.342,213.893,219.201,224.51,227.164,233.715,240.267,244.252,246.729,251.128,254.197,258.596,261.251,264.734,266.885,271.2685,273.715,279.438,282.921,285.989" svgx:width="0.55,0.55,0.27,0.5,0.44,0.27,0.55,0.55,0.5,0.27,0.55,0.5,0.55,0.33,0.27,0.55,0.55,0.55,0.27,0.44,0.38,0.55,0.38,0.5,0.27,0.38,0.44,0.55,0.55,0.5,0.5,0.5,0.27,0.55,0.38,0.33,0.55,0.33,0.55,0.44,0.55,0.82,0.55,0.67,0.27,0.27,0.82,0.82,0.67,0.67,0.33,0.82,0.82,0.5,0.55,0.55,0.38,0.55,0.33,0.44,0.27,0.55,0.55,0.72,0.44,0.38,0.44" style="fill:rgb(23,22,21);font-family:AdvTimes;font-size:7.97px;stroke:none;">polyclonal antibodies raised against the GST::GmZF-HD1 protein were</text>
   <text y="522.673" x="42.463,44.615,49.014,52.497,56.897,61.297,65.282,67.936,71.419,75.8025,78.86,84.583,86.735,89.389,93.7725,96.832,99.487,103.886,107.3928,110.439,114.839,117.907,122.307,124.961,128.444,130.596,134.995,138.98,145.532,152.083,158.2199,161.293,164.776,169.176,175.727,180.127,182.279,185.762,189.747,192.814,195.468,199.868,202.937,209.488,212.971,217.3545,220.424,226.147,228.299,230.953,235.3365,238.396,241.05,245.45" svgx:width="0.27,0.55,0.44,0.55,0.55,0.5,0.33,0.44,0.55,0.55,0.72,0.27,0.33,0.55,0.55,0.33,0.55,0.44,0.55,0.55,0.38,0.55,0.33,0.44,0.27,0.55,0.5,0.82,0.82,0.77,0.55,0.44,0.55,0.82,0.55,0.27,0.44,0.5,0.55,0.33,0.55,0.38,0.82,0.44,0.55,0.55,0.72,0.27,0.33,0.55,0.55,0.33,0.55,0.44" style="fill:rgb(23,22,21);font-family:AdvTimes;font-size:7.97px;stroke:none;">incubated with the protein–DNA complex formed with the</text>
   <text y="519.158" x="252.0,254.989" svgx:width="0.5,0.5" style="fill:rgb(23,22,21);font-family:AdvTimes;font-size:5.31px;stroke:none;">32</text>
   <text y="522.672" x="257.953,262.767,265.421,267.573,271.558,275.957,279.44,281.592,285.075" svgx:width="0.6,0.33,0.27,0.5,0.55,0.44,0.27,0.44,0.55" style="fill:rgb(23,22,21);font-family:AdvTimes;font-size:7.97px;stroke:none;">P-labeled</text>
   <text y="531.63" x="42.462,46.447,50.433,53.087,57.486,60.116099999999996,65.423,68.077,71.146,75.131,79.116,85.667,89.15,93.55,96.1801,101.537,105.936" svgx:width="0.5,0.5,0.33,0.55,0.33,0.55,0.33,0.38,0.5,0.5,0.82,0.44,0.55,0.33,0.55,0.55,0.33" style="fill:rgb(23,22,21);font-family:AdvTimes;font-size:7.97px;stroke:none;">30-nt fragment of</text>
   <text y="531.63" x="113.895,119.618,125.755,131.478,135.463,143.345,145.999" svgx:width="0.72,0.77,0.72,0.5,0.99,0.33,0.5" style="fill:rgb(23,22,21);font-family:AdvTimes-i;font-size:7.97px;stroke:none;">GmCaM-4</text>
   <text y="531.63" x="155.338,159.738,162.806,167.206,173.757,178.157,180.811,184.294,187.32260000000002,192.699,196.684,201.084,205.4675,210.784,215.184,219.583,223.066,225.218,228.701,232.686,235.71460000000002,241.115,244.598,248.583,251.237,254.306,258.291,261.774,264.428,267.4566,272.807,275.461,278.529,282.929" svgx:width="0.55,0.38,0.55,0.82,0.55,0.33,0.44,0.38,0.55,0.5,0.55,0.55,0.55,0.55,0.55,0.44,0.27,0.44,0.5,0.38,0.55,0.44,0.5,0.33,0.38,0.5,0.44,0.33,0.38,0.55,0.33,0.38,0.55,0.82" style="fill:rgb(23,22,21);font-family:AdvTimes;font-size:7.97px;stroke:none;">promoter and nuclear extracts from</text>
   <text y="540.588" x="42.462,46.862,50.847,53.501,57.901,62.3,66.285,69.768,74.168,76.822,79.476,82.545,86.028,90.013,92.667,96.15,100.5335,105.448,108.517,112.917,116.902,121.301,124.784,128.769,133.1525,138.104,141.173,145.572,148.641,153.04,156.523,160.923,163.991,166.143,170.543,174.9265,179.887,183.37,187.77,189.921,192.576,196.975,200.044,203.5508,208.46,211.943,215.426,217.578,219.73,222.798,224.9499,229.947,235.255,239.24,243.64,247.14679999999998,252.057,256.042,260.958,264.441,268.841,273.24,275.894,279.879,282.031,286.431" svgx:width="0.55,0.5,0.33,0.55,0.55,0.5,0.44,0.55,0.33,0.33,0.38,0.44,0.5,0.33,0.44,0.55,0.55,0.38,0.55,0.5,0.55,0.44,0.5,0.55,0.55,0.38,0.55,0.38,0.55,0.44,0.55,0.38,0.27,0.55,0.55,0.55,0.44,0.55,0.27,0.33,0.55,0.38,0.44,0.55,0.44,0.44,0.27,0.27,0.38,0.27,0.55,0.67,0.5,0.55,0.44,0.55,0.5,0.55,0.44,0.55,0.55,0.33,0.5,0.27,0.55,0.38" style="fill:rgb(23,22,21);font-family:AdvTimes;font-size:7.97px;stroke:none;">pathogen-treated soybean suspension culture cells. Lane 1 contains</text>
   <text y="549.602" x="42.462,46.862,49.93,53.413,55.565,62.117,68.668,73.068,77.468,80.9748,85.152,88.221,91.704,94.772,99.172,105.723,107.8749,112.082,114.234,118.219,122.619,126.1258,130.28,134.26500000000001,138.501,141.984,146.383,150.783,153.437,157.422,159.574,163.974,167.0026,171.213" svgx:width="0.55,0.38,0.44,0.27,0.82,0.82,0.55,0.55,0.44,0.55,0.38,0.44,0.38,0.55,0.82,0.27,0.55,0.27,0.5,0.55,0.44,0.55,0.5,0.55,0.44,0.55,0.55,0.33,0.5,0.27,0.55,0.38,0.55,0.5" style="fill:rgb(23,22,21);font-family:AdvTimes;font-size:7.97px;stroke:none;">preimmune serum, lane 2 contains 1</text>
   <text y="549.602" x="176.542" svgx:width="0.55" style="fill:rgb(23,22,21);font-family:AdvPi1;font-size:7.97px;stroke:none;">m</text>
   <text y="549.602" x="180.907,184.89200000000002,189.128,193.113,199.664,204.064,206.216,208.87,212.855,215.509,219.909,224.308,227.377,229.529,233.928,237.411,241.7945,245.991,252.543,259.094,264.402,269.71,272.364,278.916,285.467" svgx:width="0.5,0.55,0.5,0.82,0.55,0.27,0.33,0.5,0.33,0.55,0.55,0.38,0.27,0.55,0.44,0.55,0.55,0.82,0.82,0.67,0.67,0.33,0.82,0.82,0.5" style="fill:rgb(23,22,21);font-family:AdvTimes;font-size:7.97px;stroke:none;">g aﬃnity-puriﬁed GmZF-HD1</text>
   <text y="558.56" x="42.462,46.447,50.847,53.501,55.653,60.053,64.452,68.852,72.837,74.9889,78.292,82.278,86.677,91.0605,94.336,96.488,100.473,104.873,108.3798,111.684,115.669,118.941,122.424,126.824,131.223,133.877,137.863,140.014,144.414,147.4426,150.803,155.202,159.602,163.085,165.237,168.72,172.705,175.73360000000002,179.093,182.576,186.561,189.215,192.284,196.269,199.752,202.406,205.43460000000002,208.8,212.786,214.938,219.337,223.737,227.22,229.3719,232.668,239.22,243.619,247.102,249.254,252.737,256.722,259.75059999999996,263.113,266.596,270.581,273.235,276.303,280.288,283.771,286.425" svgx:width="0.5,0.55,0.33,0.27,0.55,0.55,0.55,0.5,0.27,0.55,0.5,0.55,0.55,0.55,0.27,0.5,0.55,0.44,0.55,0.5,0.55,0.44,0.55,0.55,0.33,0.5,0.27,0.55,0.38,0.55,0.55,0.55,0.44,0.27,0.44,0.5,0.38,0.55,0.44,0.5,0.33,0.38,0.5,0.44,0.33,0.38,0.55,0.5,0.27,0.55,0.55,0.44,0.27,0.55,0.82,0.55,0.44,0.27,0.44,0.5,0.38,0.55,0.44,0.5,0.33,0.38,0.5,0.44,0.33,0.38" style="fill:rgb(23,22,21);font-family:AdvTimes;font-size:7.97px;stroke:none;">antibody, and lane 3 contains nuclear extracts alone. Nuclear extracts</text>
   <text y="567.518" x="42.462,45.116,48.185,52.585,59.120400000000004,61.114,65.514,69.499,72.153,76.553,80.952,84.937,88.42,92.82,95.474,98.128,101.196,104.679,108.664,111.319,114.802,119.1855,121.152,124.635,128.118,130.27,132.422,135.4506,137.48,143.203,146.686,149.754,153.2608,155.225,159.624,162.693,166.176,168.328,172.727,176.21,180.61,185.009,188.994,191.649,195.132,199.5155,201.544,207.266,209.418,212.072,216.4555,218.438,222.423,224.575" svgx:width="0.33,0.38,0.55,0.82,0.55,0.55,0.5,0.33,0.55,0.55,0.5,0.44,0.55,0.33,0.33,0.38,0.44,0.5,0.33,0.44,0.55,0.55,0.44,0.44,0.27,0.27,0.38,0.55,0.72,0.44,0.38,0.44,0.55,0.55,0.38,0.44,0.27,0.55,0.44,0.55,0.55,0.5,0.33,0.44,0.55,0.55,0.72,0.27,0.33,0.55,0.55,0.5,0.27,0.5" style="fill:rgb(23,22,21);font-family:AdvTimes;font-size:7.97px;stroke:none;">from pathogen-treated cells were preincubated with 0.1</text>
   <text y="567.518" x="229.89" svgx:width="0.55" style="fill:rgb(23,22,21);font-family:AdvPi1;font-size:7.97px;stroke:none;">m</text>
   <text y="567.518" x="234.311,238.29600000000002,240.264,242.919,245.07,249.056,253.455,256.96180000000004,258.916,262.901,265.556,267.7079,269.688,273.673,275.825" svgx:width="0.5,0.55,0.33,0.27,0.5,0.55,0.44,0.55,0.5,0.33,0.27,0.55,0.5,0.27,0.5" style="fill:rgb(23,22,21);font-family:AdvTimes;font-size:7.97px;stroke:none;">g (lane 4), 0.3</text>
   <text y="567.518" x="281.14" svgx:width="0.55" style="fill:rgb(23,22,21);font-family:AdvPi1;font-size:7.97px;stroke:none;">m</text>
   <text y="567.518" x="285.505" svgx:width="0.5" style="fill:rgb(23,22,21);font-family:AdvTimes;font-size:7.97px;stroke:none;">g</text>
   <text y="576.475" x="42.462,45.116,47.268,51.253,55.652,59.1588,62.134,66.12,68.774,70.9259,73.926,77.911,80.063" svgx:width="0.33,0.27,0.5,0.55,0.44,0.55,0.5,0.33,0.27,0.55,0.5,0.27,0.5" style="fill:rgb(23,22,21);font-family:AdvTimes;font-size:7.97px;stroke:none;">(lane 5), 0.5</text>
   <text y="576.475" x="85.378" svgx:width="0.55" style="fill:rgb(23,22,21);font-family:AdvPi1;font-size:7.97px;stroke:none;">m</text>
   <text y="576.475" x="89.743,93.728,96.716,99.37,101.522,105.507,109.907,113.4138,116.389,120.374,123.028,125.1799,128.181,132.166,134.318,138.30300000000003,139.633,144.033,148.018,151.028,153.683,155.835,159.82,164.219,167.7258,170.701,174.686,177.3161,180.339,184.738,187.7666,190.77" svgx:width="0.5,0.55,0.33,0.27,0.5,0.55,0.44,0.55,0.5,0.33,0.27,0.55,0.5,0.27,0.5,0.55,0.55,0.5,0.55,0.33,0.27,0.5,0.55,0.44,0.55,0.5,0.33,0.55,0.55,0.38,0.55,0.5" style="fill:rgb(23,22,21);font-family:AdvTimes;font-size:7.97px;stroke:none;">g (lane 6), 0.7 ug (lane 7) or 1</text>
   <text y="576.475" x="196.099" svgx:width="0.55" style="fill:rgb(23,22,21);font-family:AdvPi1;font-size:7.97px;stroke:none;">m</text>
   <text y="576.475" x="200.521,204.506,207.494,210.148,212.3,216.285,220.685,224.1918,227.167,231.152,233.78209999999999,236.805,240.79,247.341,251.741,253.893,256.547,260.532,263.186,267.585,271.985,275.053,277.205,281.605,285.088" svgx:width="0.5,0.55,0.33,0.27,0.5,0.55,0.44,0.55,0.5,0.33,0.55,0.5,0.82,0.55,0.27,0.33,0.5,0.33,0.55,0.55,0.38,0.27,0.55,0.44,0.55" style="fill:rgb(23,22,21);font-family:AdvTimes;font-size:7.97px;stroke:none;">g (lane 8) aﬃnity-puriﬁed</text>
   <text y="585.433" x="42.461,49.012,55.564,60.872,66.18,68.834,75.386,81.937,85.922,89.063,93.048,97.447,100.101,102.253,106.653,111.052,115.452,119.437,122.512,126.911,130.394,133.048,137.448,140.517,144.0238,147.117,151.102,155.501,159.901,162.053,166.452,170.437,173.536,176.19,180.589" svgx:width="0.82,0.82,0.67,0.67,0.33,0.82,0.82,0.5,0.55,0.5,0.55,0.33,0.27,0.55,0.55,0.55,0.5,0.55,0.55,0.44,0.33,0.55,0.38,0.44,0.55,0.5,0.55,0.55,0.27,0.55,0.5,0.55,0.33,0.55,0.44" style="fill:rgb(23,22,21);font-family:AdvTimes;font-size:7.97px;stroke:none;">GmZF-HD1 antibody before adding the</text>
   <text y="581.917" x="187.143,190.132" svgx:width="0.5,0.5" style="fill:rgb(23,22,21);font-family:AdvTimes;font-size:5.31px;stroke:none;">32</text>
   <text y="585.432" x="193.153,197.967,200.621,202.773,206.758,211.157,214.64,216.792,220.275,224.6585,227.792,231.777,235.762,238.416,242.816,245.4461,248.542,251.196,254.264,258.249,262.234,268.786,272.269,276.668,279.29810000000003,282.444,286.844" svgx:width="0.6,0.33,0.27,0.5,0.55,0.44,0.27,0.44,0.55,0.55,0.5,0.5,0.33,0.55,0.33,0.55,0.33,0.38,0.5,0.5,0.82,0.44,0.55,0.33,0.55,0.55,0.33" style="fill:rgb(23,22,21);font-family:AdvTimes;font-size:7.97px;stroke:none;">P-labeled 30-nt fragment of</text>
   <text y="594.389" x="42.463,48.185,54.322,60.045,64.03,71.912,74.566" svgx:width="0.72,0.77,0.72,0.5,0.99,0.33,0.5" style="fill:rgb(23,22,21);font-family:AdvTimes-i;font-size:7.97px;stroke:none;">GmCaM-4</text>
   <text y="594.389" x="82.148,86.547,89.616,94.015,100.567,104.966,107.62,111.103,114.13159999999999,117.751,121.737,124.76559999999999,128.41,132.395,135.95,140.349,143.418,147.817,152.217,155.7,157.8519,161.462,166.77,169.838,173.321,176.8278,180.397,183.051,187.036,190.105,193.173,197.573,203.296,205.9261,209.538,213.523,217.923,222.3065,225.922,230.322,233.39,237.79,240.444,243.927,246.079,250.478,253.132,256.615,261.015,267.566,271.966,274.118,277.601,281.586,285.069" svgx:width="0.55,0.38,0.55,0.82,0.55,0.33,0.44,0.38,0.55,0.5,0.38,0.55,0.5,0.55,0.55,0.38,0.55,0.55,0.44,0.27,0.55,0.67,0.38,0.44,0.44,0.55,0.33,0.5,0.38,0.38,0.55,0.72,0.33,0.55,0.5,0.55,0.55,0.55,0.55,0.38,0.55,0.33,0.44,0.27,0.55,0.33,0.44,0.55,0.82,0.55,0.27,0.44,0.5,0.44,0.55" style="fill:rgb(23,22,21);font-family:AdvTimes;font-size:7.97px;stroke:none;">promoter as a probe. Free (arrow) and protein-complexed</text>
   <text y="603.404" x="42.463,45.117,49.102,52.17,55.239,59.638,65.361,69.76,73.243,77.229,81.628,84.2581,87.647,92.047,95.115,99.515,103.914,107.397,110.4256,113.84,119.562,123.045,126.114,129.6208,133.002,136.07,139.553,143.953,147.938,151.006,154.991,157.645,161.128,165.51149999999998,168.888,173.288,177.6715,181.077,185.062,189.4455,192.812,196.798,204.768,208.119,212.519,216.918,219.07,223.055,227.04,230.523,233.592,237.577,239.729,243.714,250.266,252.418,256.817,260.3238,263.735,267.72,271.203,273.3549,276.718,280.703,285.103" svgx:width="0.33,0.5,0.38,0.38,0.55,0.72,0.55,0.44,0.5,0.55,0.33,0.55,0.55,0.38,0.55,0.55,0.44,0.38,0.55,0.72,0.44,0.38,0.44,0.55,0.38,0.44,0.55,0.5,0.38,0.5,0.33,0.44,0.55,0.55,0.55,0.55,0.55,0.5,0.55,0.55,0.5,1.0,0.55,0.55,0.55,0.27,0.5,0.5,0.44,0.38,0.5,0.27,0.5,0.82,0.27,0.55,0.44,0.55,0.5,0.44,0.27,0.55,0.5,0.55,0.55" style="fill:rgb(23,22,21);font-family:AdvTimes;font-size:7.97px;stroke:none;">(arrowhead) probes were separated on an 8% polyacrylamide gel and</text>
   <text y="612.361" x="42.463,46.448,48.6,51.668,56.068,60.053,62.205,64.357,67.84,71.323,75.70649999999999,80.617,85.017,89.002,93.94,97.926,102.325,104.979,109.379,112.447,116.432,120.832,122.984,127.383,131.369,134.437,138.422,142.822,147.221,151.206,153.3579,158.287" svgx:width="0.5,0.27,0.38,0.55,0.5,0.27,0.27,0.44,0.44,0.55,0.55,0.55,0.5,0.55,0.5,0.55,0.33,0.55,0.38,0.5,0.55,0.27,0.55,0.5,0.38,0.5,0.55,0.55,0.5,0.27,0.55,0.33" style="fill:rgb(23,22,21);font-family:AdvTimes;font-size:7.97px;stroke:none;">visualized by autoradiography. (</text>
   <text y="612.361" x="160.951" svgx:width="0.67" style="fill:rgb(23,22,21);font-family:AdvTimes-b;font-size:7.97px;stroke:none;">B</text>
   <text y="612.361" x="166.28,168.9101,173.819,178.219,181.702,186.101,189.584,196.136,200.121,202.775,204.927,208.4338,213.335,216.403,219.886,224.286,227.354,230.837,233.906,237.389,241.788,244.442,248.428,251.082,253.234,257.633,262.0165,267.024,271.423,274.05310000000003,278.986,281.64,286.04" svgx:width="0.33,0.55,0.55,0.44,0.55,0.44,0.82,0.5,0.33,0.27,0.44,0.55,0.38,0.44,0.55,0.38,0.44,0.38,0.44,0.55,0.33,0.5,0.33,0.27,0.55,0.55,0.55,0.55,0.33,0.55,0.33,0.55,0.44" style="fill:rgb(23,22,21);font-family:AdvTimes;font-size:7.97px;stroke:none;">) Schematic representation of the</text>
   <text y="621.319" x="42.462,45.945,50.759,54.242,57.725,60.379,64.778,67.8066,71.319,75.304,79.703,84.0865,87.646,90.715,94.198,98.597,102.997,106.065,108.72,112.203,115.2316,118.771,122.254,126.653,131.053,134.121,136.775,139.844,144.244,147.727,150.381,153.4096,156.982,161.382,164.45,167.933,172.3165,175.805,177.957,182.3405,185.896,188.55,191.618,195.604,200.003,203.072,205.224,208.707,213.106,215.7361,219.231,222.714,226.699,231.099,234.167,237.65,240.719,243.787,245.939,250.339,254.7225,258.293,262.278,265.347,268.415,272.4,276.385,279.4136,282.954,285.106" svgx:width="0.44,0.6,0.44,0.44,0.33,0.55,0.38,0.55,0.5,0.55,0.55,0.55,0.38,0.44,0.55,0.55,0.38,0.33,0.44,0.38,0.55,0.44,0.55,0.55,0.38,0.33,0.38,0.55,0.44,0.33,0.38,0.55,0.55,0.38,0.44,0.55,0.55,0.27,0.55,0.55,0.33,0.38,0.5,0.55,0.38,0.27,0.44,0.55,0.33,0.55,0.44,0.5,0.55,0.38,0.44,0.38,0.38,0.27,0.55,0.55,0.55,0.5,0.38,0.38,0.5,0.5,0.38,0.55,0.27,0.55" style="fill:rgb(23,22,21);font-family:AdvTimes;font-size:7.97px;stroke:none;">eﬀector and reporter constructs used in transient expression assays in</text>
   <text y="630.277" x="42.462,48.184,51.253,55.238,59.223,61.375,65.36,69.345,73.33,76.399,78.551" svgx:width="0.72,0.38,0.5,0.5,0.27,0.5,0.5,0.5,0.38,0.27,0.38" style="fill:rgb(23,22,21);font-family:AdvTimes-i;font-size:7.97px;stroke:none;">Arabidopsis</text>
   <text y="630.277" x="83.224,87.623,90.692,95.091,97.745,102.145,106.545,108.696,112.682,115.75,118.404,121.473,123.6249,125.29,128.359,132.7425,134.361,137.015,141.415,144.9218,146.55,150.033,154.847,158.33,161.813,164.467,168.867,171.8956,173.593,177.076,181.476,185.875,188.944,191.598,194.666,199.066,202.549,205.203" svgx:width="0.55,0.38,0.55,0.33,0.55,0.55,0.27,0.5,0.38,0.33,0.38,0.27,0.55,0.38,0.55,0.55,0.33,0.55,0.44,0.55,0.44,0.6,0.44,0.44,0.33,0.55,0.38,0.55,0.44,0.55,0.55,0.38,0.33,0.38,0.55,0.44,0.33,0.27" style="fill:rgb(23,22,21);font-family:AdvTimes;font-size:7.97px;stroke:none;">protoplasts. In the eﬀector construct,</text>
   <text y="630.277" x="208.969,214.691,220.828,226.551,231.365,234.019,240.571,246.708" svgx:width="0.72,0.77,0.72,0.6,0.33,0.82,0.77,0.5" style="fill:rgb(23,22,21);font-family:AdvTimes-i;font-size:7.97px;stroke:none;">GmZF-HD1</text>
   <text y="630.277" x="252.339,255.822,262.373,268.925,276.717,282.44,286.425" svgx:width="0.44,0.82,0.82,0.77,0.72,0.5,0.38" style="fill:rgb(23,22,21);font-family:AdvTimes;font-size:7.97px;stroke:none;">cDNAwas</text>
   <text y="639.234" x="42.461,44.613,49.012,52.081,55.564,58.632,61.287,64.77,69.1535,70.921,75.32,78.803,81.458,87.18,90.663,94.146,98.5295,100.344,102.999,107.398,110.9048,112.647,118.37,122.355,130.238,135.9764,137.762,141.747,145.732,150.1155,151.879,156.279,159.347,163.747,170.298,174.698,177.352,180.835,183.86360000000002,185.725,189.71,194.11,198.4935,200.296,204.281,206.021,212.573,216.972,220.00060000000002,221.839,224.493,227.976,231.045,237.596,239.748,244.148,248.133,250.787,255.186,258.2146,260.051,262.705,269.256,273.656,276.724,279.378,284.686,287.341" svgx:width="0.27,0.55,0.38,0.44,0.38,0.33,0.44,0.55,0.55,0.55,0.44,0.33,0.72,0.44,0.44,0.55,0.55,0.33,0.55,0.44,0.55,0.72,0.5,0.99,0.72,0.55,0.5,0.5,0.55,0.55,0.55,0.38,0.55,0.82,0.55,0.33,0.44,0.38,0.55,0.5,0.55,0.55,0.55,0.5,0.55,0.82,0.55,0.38,0.55,0.33,0.44,0.38,0.82,0.27,0.55,0.5,0.33,0.55,0.38,0.55,0.33,0.82,0.55,0.38,0.33,0.67,0.33,0.27" style="fill:rgb(23,22,21);font-family:AdvTimes;font-size:7.97px;stroke:none;">inserted between the CaMV 35S promoter and a Nos terminator (Nos-T).</text>
   <text y="648.192" x="42.461,45.529,49.9125,55.33,57.984,62.384,65.8908,71.318,74.386,77.869,82.269,86.668,89.737,92.391,95.874,98.90259999999999,104.37,107.853,112.253,116.652,119.721,122.375,125.443,129.843,133.326,135.98,138.1319,143.545,146.199,150.599,154.999,158.0276,163.501,166.155,170.14,174.54,178.939,182.422,188.9574,194.456,197.524,201.007,205.407,208.89,212.875,215.529,218.5576,223.993,228.393,231.0231,236.466,239.12,243.52,247.0268,252.453,258.59,262.575,267.987,271.056,274.539,278.524,280.676,285.075" svgx:width="0.38,0.55,0.55,0.33,0.55,0.44,0.55,0.38,0.44,0.55,0.55,0.38,0.33,0.44,0.38,0.55,0.44,0.55,0.55,0.38,0.33,0.38,0.55,0.44,0.33,0.27,0.55,0.33,0.55,0.55,0.38,0.55,0.33,0.5,0.55,0.55,0.44,0.82,0.55,0.38,0.44,0.55,0.44,0.5,0.33,0.38,0.55,0.55,0.33,0.55,0.33,0.55,0.44,0.55,0.77,0.5,0.55,0.38,0.44,0.5,0.27,0.55,0.55" style="fill:rgb(23,22,21);font-family:AdvTimes;font-size:7.97px;stroke:none;">In the reporter construct, four tandem repeats of the A2 region</text>
   <text y="657.15" x="42.461,45.944,50.343,54.743,57.397,61.382,63.534,67.934,70.086,74.485,78.47,80.276,82.93,87.329,90.83579999999999,92.635,96.62,100.605,103.259,107.659,110.2891,112.137,114.791,117.86,121.845,125.83,132.382,135.864,140.264,142.8941,144.736,149.136,151.7661,153.581,156.235,160.634" svgx:width="0.44,0.55,0.55,0.33,0.5,0.27,0.55,0.27,0.55,0.5,0.55,0.33,0.55,0.44,0.55,0.5,0.5,0.33,0.55,0.33,0.55,0.33,0.38,0.5,0.5,0.82,0.44,0.55,0.33,0.55,0.55,0.33,0.55,0.33,0.55,0.44" style="fill:rgb(23,22,21);font-family:AdvTimes;font-size:7.97px;stroke:none;">containing the 30-nt fragment of the</text>
   <text y="657.15" x="165.938,171.661,177.798,183.521,187.506,195.388,198.042" svgx:width="0.72,0.77,0.72,0.5,0.99,0.33,0.5" style="fill:rgb(23,22,21);font-family:AdvTimes-i;font-size:7.97px;stroke:none;">GmCaM-4</text>
   <text y="657.15" x="203.866,208.266,211.334,215.734,222.285,226.685,229.339,232.822,235.85060000000001,237.712,243.435,246.918,249.987,253.4938,255.288,258.356,262.756,267.155,270.638,272.79,277.19,281.589,285.072" svgx:width="0.55,0.38,0.55,0.82,0.55,0.33,0.44,0.38,0.55,0.72,0.44,0.38,0.44,0.55,0.38,0.55,0.55,0.44,0.27,0.55,0.55,0.44,0.55" style="fill:rgb(23,22,21);font-family:AdvTimes;font-size:7.97px;stroke:none;">promoter were subcloned</text>
   <text y="666.164" x="42.461,46.86,51.26,54.329,56.983,60.051,63.534,67.519,75.967,80.366,82.9961,84.925,88.91,90.821,97.372,99.524,103.924,106.076,112.627,116.612,118.76389999999999,120.755,126.064,132.201,137.509,143.64589999999998,145.531,149.93,152.999,157.398,163.95,168.349,171.004,174.486,177.555,180.209,186.761,193.312,197.6955,199.673,203.156,207.556,211.955,215.024,217.678,220.746,225.146,228.629,231.283,233.4349,235.39" svgx:width="0.55,0.55,0.38,0.33,0.38,0.44,0.5,0.82,0.55,0.33,0.55,0.5,0.55,0.82,0.27,0.55,0.27,0.82,0.5,0.27,0.55,0.67,0.77,0.67,0.77,0.55,0.55,0.38,0.55,0.82,0.55,0.33,0.44,0.38,0.33,0.82,0.82,0.55,0.55,0.44,0.55,0.55,0.38,0.33,0.38,0.55,0.44,0.33,0.27,0.55,0.33" style="fill:rgb(23,22,21);font-family:AdvTimes;font-size:7.97px;stroke:none;">upstreamof a minimal TATA promoter-GUS construct. (</text>
   <text y="666.164" x="238.052" svgx:width="0.72" style="fill:rgb(23,22,21);font-family:AdvTimes-b;font-size:7.97px;stroke:none;">C</text>
   <text y="666.164" x="243.778,246.4081,248.313,253.621,258.435,261.918,265.401,268.03110000000004,270.026,274.426,277.0561,278.984,281.638,286.037" svgx:width="0.33,0.55,0.67,0.6,0.44,0.44,0.33,0.55,0.55,0.33,0.55,0.33,0.55,0.44" style="fill:rgb(23,22,21);font-family:AdvTimes;font-size:7.97px;stroke:none;">) Eﬀect of the</text>
   <text y="675.122" x="42.461,49.012,55.564,60.872,66.18,68.834,75.386,81.937,85.922,90.423,94.823,97.891,102.291,104.945,108.428,110.58,114.9635,119.45,123.849" svgx:width="0.82,0.82,0.67,0.67,0.33,0.82,0.82,0.5,0.55,0.55,0.38,0.55,0.33,0.44,0.27,0.55,0.55,0.55,0.55" style="fill:rgb(23,22,21);font-family:AdvTimes;font-size:7.97px;stroke:none;">GmZF-HD1 protein on</text>
   <text y="675.122" x="132.716,138.439,144.576,150.299,154.284,162.166,164.82" svgx:width="0.72,0.77,0.72,0.5,0.99,0.33,0.5" style="fill:rgb(23,22,21);font-family:AdvTimes-i;font-size:7.97px;stroke:none;">GmCaM-4</text>
   <text y="675.122" x="173.252,177.651,180.72,185.12,191.671,196.071,198.725,202.208,205.2366,209.763,213.748,217.231,219.885,222.037,226.022,228.174,230.828,234.81300000000002,239.3,241.452" svgx:width="0.55,0.38,0.55,0.82,0.55,0.33,0.44,0.38,0.55,0.5,0.44,0.33,0.27,0.5,0.27,0.33,0.5,0.55,0.27,0.55" style="fill:rgb(23,22,21);font-family:AdvTimes;font-size:7.97px;stroke:none;">promoter activity in</text>
   <text y="675.122" x="250.298,256.021,259.089,263.074,267.06,269.212,273.197,277.182,281.167,284.235,286.387" svgx:width="0.72,0.38,0.5,0.5,0.27,0.5,0.5,0.5,0.38,0.27,0.38" style="fill:rgb(23,22,21);font-family:AdvTimes-i;font-size:7.97px;stroke:none;">Arabidopsis</text>
   <text y="684.08" x="42.461,46.86,49.929,54.329,56.983,61.382,65.782,67.934,71.919,74.987,77.641,80.71,82.86189999999999,84.981,90.289,94.689,98.19579999999999,100.289,103.772,110.323,114.723,117.377,121.362,123.476,127.462,130.945,134.427,137.082,141.481,144.5096,146.664,152.387,154.539,157.193,161.592,165.992,170.391" svgx:width="0.55,0.38,0.55,0.33,0.55,0.55,0.27,0.5,0.38,0.33,0.38,0.27,0.55,0.67,0.55,0.44,0.55,0.44,0.82,0.55,0.33,0.5,0.55,0.5,0.44,0.44,0.33,0.55,0.38,0.55,0.72,0.27,0.33,0.55,0.55,0.55,0.33" style="fill:rgb(23,22,21);font-family:AdvTimes;font-size:7.97px;stroke:none;">protoplasts. The empty vector without</text>
   <text y="684.08" x="175.179,180.902,187.039,192.761,197.575,200.229,206.781,212.918" svgx:width="0.72,0.77,0.72,0.6,0.33,0.82,0.77,0.5" style="fill:rgb(23,22,21);font-family:AdvTimes-i;font-size:7.97px;stroke:none;">GmZF-HD1</text>
   <text y="684.08" x="219.06,223.045,227.445,231.8285,233.971,236.625,241.024,244.5308,246.613,252.75,256.735,258.858,261.927,265.41,269.395,271.547,275.946,280.32950000000005,282.443,286.842" svgx:width="0.5,0.55,0.55,0.55,0.33,0.55,0.44,0.55,0.77,0.5,0.55,0.38,0.44,0.5,0.27,0.55,0.55,0.55,0.55,0.33" style="fill:rgb(23,22,21);font-family:AdvTimes;font-size:7.97px;stroke:none;">and the A2 region of</text>
   <text y="693.037" x="42.461,45.115,49.515" svgx:width="0.33,0.55,0.44" style="fill:rgb(23,22,21);font-family:AdvTimes;font-size:7.97px;stroke:none;">the</text>
   <text y="693.037" x="57.938,63.661,69.798,75.521,79.506,87.388,90.042" svgx:width="0.72,0.77,0.72,0.5,0.99,0.33,0.5" style="fill:rgb(23,22,21);font-family:AdvTimes-i;font-size:7.97px;stroke:none;">GmCaM-4</text>
   <text y="693.037" x="99.041,103.44,106.509,110.908,117.46,121.859,124.513,127.996,131.0246,136.061,141.784,145.267,148.335,151.8418,156.811,161.211,164.279,167.762,172.1455,177.107,181.092,184.12060000000002,189.126,192.609,197.009,201.408,204.062,207.131,211.53,213.682,216.751,218.90290000000002,223.936,229.244,233.644,236.67260000000002,241.681,246.08,250.48,253.549,260.1,264.085,266.237,268.389,271.872,275.857,278.511,280.663,285.063" svgx:width="0.55,0.38,0.55,0.82,0.55,0.33,0.44,0.38,0.55,0.72,0.44,0.38,0.44,0.55,0.55,0.38,0.44,0.55,0.55,0.5,0.38,0.55,0.44,0.55,0.55,0.33,0.38,0.55,0.27,0.38,0.27,0.55,0.67,0.55,0.38,0.55,0.55,0.55,0.38,0.82,0.5,0.27,0.27,0.44,0.5,0.33,0.27,0.55,0.55" style="fill:rgb(23,22,21);font-family:AdvTimes;font-size:7.97px;stroke:none;">promoter were used as controls. For normalization</text>
   <text y="701.995" x="42.461,46.861,49.491099999999996,52.212,54.867,57.935,61.92,66.32,69.388,72.042,76.442,79.51,86.062,90.047,92.701,94.853,99.253,103.6365,106.411,109.894,116.446,119.929,122.081,125.564,129.963,133.446,137.431,139.58290000000002,142.355,145.009,149.408" svgx:width="0.55,0.33,0.55,0.33,0.38,0.5,0.55,0.38,0.33,0.55,0.38,0.82,0.5,0.33,0.27,0.55,0.55,0.55,0.44,0.82,0.44,0.27,0.44,0.55,0.44,0.5,0.27,0.55,0.33,0.55,0.44" style="fill:rgb(23,22,21);font-family:AdvTimes;font-size:7.97px;stroke:none;">of transformation eﬃciency, the</text>
   <text y="701.995" x="155.62,161.343,165.328,173.21,178.94840000000002,181.7,185.685,189.67" svgx:width="0.72,0.5,0.99,0.72,0.55,0.5,0.5,0.6" style="fill:rgb(23,22,21);font-family:AdvTimes-i;font-size:7.97px;stroke:none;">CaMV 35S</text>
   <text y="701.995" x="197.176,201.576,204.644,209.044,215.595,219.995,222.649,226.132,229.2,231.854,234.006,238.406,241.889,244.041,246.695,250.178,253.246,257.232,260.3,263.8068,266.625,269.279,274.587,281.139,286.862" svgx:width="0.55,0.38,0.55,0.82,0.55,0.33,0.44,0.38,0.33,0.27,0.55,0.44,0.27,0.33,0.44,0.38,0.5,0.38,0.44,0.55,0.33,0.67,0.82,0.72,0.33" style="fill:rgb(23,22,21);font-family:AdvTimes;font-size:7.97px;stroke:none;">promoter-luciferase (LUC)</text>
   <text y="710.953" x="42.461,46.861,49.012,52.998,56.066,62.618,64.77,69.1535,72.112,77.834,81.819,84.8476,87.873,91.356,95.755,98.409,101.063,104.132,108.117,112.517,115.585,118.239,121.722,125.205,127.859,131.342,135.7255,138.727,140.879,145.2625,148.251,151.734,155.719,159.202,163.5855,166.563,170.046,174.031,178.431,181.914,184.982,187.134,193.686,197.169,201.568,204.223,206.37490000000003,209.424,214.732,219.132,222.6388,225.582,229.981,233.966,236.621,240.60600000000002,243.554,247.539,250.607,254.1138,257.047,261.446,264.515,267.998,271.066,274.549,278.949,281.603,285.086" svgx:width="0.55,0.27,0.5,0.38,0.82,0.27,0.55,0.55,0.72,0.5,0.38,0.55,0.44,0.55,0.33,0.33,0.38,0.5,0.55,0.38,0.33,0.44,0.44,0.33,0.44,0.55,0.55,0.27,0.55,0.55,0.44,0.5,0.44,0.55,0.55,0.44,0.5,0.55,0.44,0.38,0.27,0.82,0.44,0.55,0.33,0.27,0.55,0.67,0.55,0.44,0.55,0.55,0.5,0.33,0.5,0.55,0.5,0.38,0.44,0.55,0.55,0.38,0.44,0.38,0.44,0.55,0.33,0.44,0.55" style="fill:rgb(23,22,21);font-family:AdvTimes;font-size:7.97px;stroke:none;">plasmid was co-transfected in each experiment. The data are presented</text>
   <text y="719.967" x="42.461,46.446,49.474599999999995,52.495,59.047,62.53,66.515" svgx:width="0.5,0.38,0.55,0.82,0.44,0.5,0.55" style="fill:rgb(23,22,21);font-family:AdvTimes;font-size:7.97px;stroke:none;">as mean</text>
   <text y="719.967" code="4" x="72.281" svgx:width="0.77" style="fill:rgb(23,22,21);font-family:AdvMT_SY;font-size:7.97px;stroke:none;">?</text>
   <text y="719.967" x="79.765,84.164,89.5039,92.464,96.863,99.4931,102.555,105.623,109.106,112.175,116.574,118.726,121.38,124.40859999999999,127.5,130.154,133.222,137.622,144.15740000000002,147.173,149.827,154.226,157.295,160.778,164.2848,167.299,169.451,173.85,178.25,181.733,186.133,189.616,194.015,198.415,201.898,206.297,208.9271,211.974,215.042,219.027,225.579,229.978,232.13,235.613,238.682,240.8339,243.892,249.2,253.599,257.1058,260.106,264.506,268.905,275.457,279.856,283.339,286.408" svgx:width="0.55,0.67,0.55,0.55,0.33,0.55,0.38,0.44,0.38,0.55,0.27,0.33,0.38,0.55,0.33,0.38,0.55,0.82,0.55,0.33,0.55,0.38,0.44,0.44,0.55,0.27,0.55,0.55,0.44,0.55,0.44,0.55,0.55,0.44,0.55,0.33,0.55,0.38,0.5,0.82,0.55,0.27,0.44,0.38,0.27,0.55,0.67,0.55,0.44,0.55,0.55,0.55,0.82,0.55,0.44,0.38,0.38" style="fill:rgb(23,22,21);font-family:AdvTimes;font-size:7.97px;stroke:none;">SE of results from three independent samples. The numbers</text>
   <text y="728.925" x="42.461,45.529,49.929,54.329,60.0674,62.587,65.241,69.641,73.1478,75.683,78.752,82.235,84.387,88.372,91.026,93.178,97.163,100.6698,103.18,105.332,109.731,113.214,116.283,119.766,123.751,126.819,130.32580000000002,132.887,135.039,139.42249999999999,141.958,145.441,149.426,153.825,156.894,160.377,163.445,166.514,168.666,173.065,177.4485,180.055,183.538,187.938,194.489,198.889,202.874,205.943,209.425,213.8085,216.395,219.049,223.4325,225.976,228.63,233.03,236.5368,239.072,243.057,247.042,249.194,253.594,257.1008,259.652,264.052,268.451,271.105,275.09,277.242,281.642,285.125" svgx:width="0.38,0.55,0.55,0.72,0.55,0.33,0.55,0.44,0.55,0.38,0.44,0.27,0.5,0.33,0.27,0.5,0.44,0.55,0.27,0.55,0.44,0.38,0.44,0.5,0.38,0.44,0.55,0.27,0.55,0.55,0.44,0.5,0.55,0.38,0.44,0.38,0.38,0.27,0.55,0.55,0.55,0.44,0.55,0.82,0.55,0.5,0.38,0.44,0.55,0.55,0.33,0.55,0.55,0.33,0.55,0.44,0.55,0.5,0.5,0.27,0.55,0.44,0.55,0.55,0.55,0.33,0.5,0.27,0.55,0.44,0.55" style="fill:rgb(23,22,21);font-family:AdvTimes;font-size:7.97px;stroke:none;">show the relative increase in expression compared to the value obtained</text>
   <text y="737.882" x="42.461,48.184,50.336,52.99,57.3735,59.639,62.293,66.693,70.1998,72.395,76.381,79.864,83.346,86.001,90.4,93.4286,95.696,99.179,103.579,107.978,110.632,113.701,118.101,120.253" svgx:width="0.72,0.27,0.33,0.55,0.55,0.33,0.55,0.44,0.55,0.5,0.44,0.44,0.33,0.55,0.38,0.55,0.44,0.55,0.55,0.33,0.38,0.55,0.27,0.27" style="fill:rgb(23,22,21);font-family:AdvTimes;font-size:7.97px;stroke:none;">with the vector control.</text>
   <text y="44.751" x="42.463,47.444,52.426,57.407" svgx:width="0.5,0.5,0.5,0.5" style="fill:rgb(23,22,21);font-family:AdvTimes-bi;font-size:9.96px;stroke:none;">3620</text>
   <text y="44.751" x="72.34,80.165,85.246,89.686,92.43,96.871,99.615,104.08539999999999,106.129,113.426,117.866,120.61,125.691,129.55180000000001,131.641,138.937,143.378,147.29,151.731,156.812,160.724,165.165,170.246,172.9892,175.068,180.149,185.23,190.311,195.392,198.1352,200.183,207.479,212.56,215.304,218.0472,220.082,225.163,230.244,232.9872,235.048,242.873,247.954,250.6972,252.736,257.817" svgx:width="0.77,0.5,0.44,0.27,0.44,0.27,0.44,0.55,0.72,0.44,0.27,0.5,0.38,0.55,0.72,0.44,0.38,0.44,0.5,0.38,0.44,0.5,0.27,0.55,0.5,0.5,0.5,0.5,0.27,0.55,0.72,0.5,0.27,0.27,0.55,0.5,0.5,0.27,0.55,0.77,0.5,0.27,0.55,0.5,0.5" style="fill:rgb(23,22,21);font-family:AdvTimes-i;font-size:10.16px;stroke:none;">Nucleic Acids Research, 2007, Vol. 35, No. 11</text>
  </g>
 </g>
</svg>
