<?xml version="1.0" encoding="UTF-8"?>
<svg height="747.365" width="4319.77" xmlns="http://www.w3.org/2000/svg">
 <g id="page" xmlns:svgx="http://www.xml-cml.org/schema/svgx">
  <g begin="text">
   <text y="624.776" x="42.463,45.781,50.762,54.079,61.751,68.386,71.703,74.3922,77.272,82.25200000000001,85.153,89.506,95.006,103.195,108.694,113.048,116.366,119.055,122.373,125.063,130.044,134.4264,137.366,140.056,145.555,151.054,153.744,159.244,161.933,165.251,170.75,174.5348,177.504,183.003,186.28979999999999,189.182,192.5,197.999" svgx:width="0.33,0.5,0.33,0.77,0.67,0.33,0.27,0.55,0.5,0.55,0.44,0.55,0.82,0.55,0.44,0.33,0.27,0.33,0.27,0.5,0.44,0.55,0.27,0.55,0.55,0.27,0.55,0.27,0.33,0.55,0.38,0.55,0.55,0.33,0.55,0.33,0.55,0.44" style="fill:rgb(23,22,21);font-family:AdvTimes;font-size:9.96px;stroke:none;">(3-AT), a competitive inhibitor of the</text>
   <text y="624.776" x="205.285,213.474,217.31,223.327" svgx:width="0.82,0.38,0.6,0.5" style="fill:rgb(23,22,21);font-family:AdvTimes-i;font-size:9.96px;stroke:none;">HIS3</text>
   <text y="624.776" x="231.193,236.175,240.528,246.028,250.41039999999998,253.303,258.803,262.638,268.138,273.637,279.137,283.49,286.808" svgx:width="0.5,0.44,0.55,0.44,0.55,0.55,0.38,0.55,0.55,0.55,0.44,0.33,0.27" style="fill:rgb(23,22,21);font-family:AdvTimes;font-size:9.96px;stroke:none;">gene product.</text>
   <text y="636.001" x="42.464,50.135,59.988,64.97,69.951,74.932,79.912,86.741,93.894,98.875,102.6598,109.531,112.849,118.348,122.702,128.18,135.042,138.36,142.196,147.177,152.676,156.512,159.829,165.329,169.164,177.354,181.707,187.185,194.059,201.212,203.902,207.22,212.698,219.57,223.406,228.905,233.886,239.386,243.739,248.721,254.199,261.068,265.422,273.611,281.801" svgx:width="0.77,0.99,0.5,0.5,0.5,0.5,0.55,0.72,0.5,0.38,0.55,0.33,0.55,0.44,0.55,0.55,0.33,0.38,0.5,0.55,0.38,0.33,0.55,0.38,0.82,0.44,0.55,0.55,0.72,0.27,0.33,0.55,0.55,0.38,0.55,0.5,0.55,0.44,0.5,0.55,0.55,0.44,0.82,0.82,0.77" style="fill:rgb(23,22,21);font-family:AdvTimes;font-size:9.96px;stroke:none;">YM4271 was then transformed with soybean cDNA</text>
   <text y="647.226" x="42.464,45.154,47.844,53.343,57.179,62.16,65.996,68.686,73.039,76.8238,84.529,90.028,95.00800000000001,102.614,105.932,111.431,115.8134,123.477,126.167,128.857,132.174,137.674,140.363,145.863,154.0302,161.687,166.669,171.022,175.376,178.694,183.675,186.992,191.346,194.664,200.163,205.662,208.352,213.334,217.687,221.005,226.504,231.485,234.175,238.529,244.028,248.41039999999998,256.08,261.061,263.751,268.733,273.086,277.44,281.275,286.775" svgx:width="0.27,0.27,0.55,0.38,0.5,0.38,0.27,0.44,0.38,0.55,0.55,0.5,0.55,0.33,0.55,0.44,0.55,0.27,0.27,0.33,0.55,0.27,0.55,0.82,0.55,0.5,0.44,0.44,0.33,0.5,0.33,0.44,0.33,0.55,0.55,0.27,0.5,0.44,0.33,0.55,0.5,0.27,0.44,0.55,0.44,0.55,0.5,0.27,0.5,0.44,0.44,0.38,0.55,0.27" style="fill:rgb(23,22,21);font-family:AdvTimes;font-size:9.96px;stroke:none;">libraries by the lithium acetate/polyethylene glycerol</text>
   <text y="658.394" x="42.464,50.653,55.007,58.324,63.824,69.323,74.823,77.51219999999999,82.092,87.074,92.573,98.05099999999999,102.615" svgx:width="0.82,0.44,0.33,0.55,0.55,0.55,0.27,0.55,0.5,0.55,0.55,0.55,0.5" style="fill:rgb(23,22,21);font-family:AdvTimes;font-size:9.96px;stroke:none;">method, and a</text>
   <text y="658.394" code="3" x="112.196" svgx:width="0.77" style="fill:rgb(23,22,21);font-family:AdvMT_SY;font-size:9.96px;stroke:none;">?</text>
   <text y="658.394" x="119.849,124.831,127.521" svgx:width="0.5,0.27,0.5" style="fill:rgb(23,22,21);font-family:AdvTimes;font-size:9.96px;stroke:none;">1.5</text>
   <text y="658.394" code="2" x="134.193" svgx:width="0.78" style="fill:rgb(23,22,21);font-family:AdvMT_SY;font-size:9.96px;stroke:none;">?</text>
   <text y="658.394" x="143.603,148.585" svgx:width="0.5,0.5" style="fill:rgb(23,22,21);font-family:AdvTimes;font-size:9.96px;stroke:none;">10</text>
   <text y="653.973" x="153.581" svgx:width="0.5" style="fill:rgb(23,22,21);font-family:AdvTimes;font-size:6.64px;stroke:none;">7</text>
   <text y="658.395" x="161.858,165.176,169.011,173.993,179.492,183.328,186.645,192.145,195.98,204.169,209.151,214.65,217.968,221.75279999999998,226.431,233.584,237.938,241.773,246.1554,250.695,254.53,258.884,262.72,267.073,271.427,276.926,281.28,286.779" svgx:width="0.33,0.38,0.5,0.55,0.38,0.33,0.55,0.38,0.82,0.5,0.55,0.33,0.38,0.55,0.72,0.44,0.38,0.44,0.55,0.38,0.44,0.38,0.44,0.44,0.55,0.44,0.55,0.27" style="fill:rgb(23,22,21);font-family:AdvTimes;font-size:9.96px;stroke:none;">transformants were screened.</text>
   <text y="669.62" x="42.463,49.099,54.598,58.433,61.751,66.732,70.05,73.367,80.521,85.999,93.656,99.156,104.655,108.491,111.18,114.498,117.188,122.169,126.5514,134.191,138.545,141.235,146.734,152.233,156.587,160.37179999999998,168.093,175.246,179.6,183.435,187.8174,195.475,199.311,203.664,206.354,210.708,215.061,218.379,222.733,228.211,235.896,241.396,246.874,254.548,262.737,265.427,270.927,273.617,281.806,286.787" svgx:width="0.67,0.55,0.38,0.33,0.5,0.33,0.33,0.72,0.55,0.55,0.55,0.55,0.38,0.27,0.33,0.27,0.5,0.44,0.55,0.44,0.27,0.55,0.55,0.44,0.38,0.55,0.72,0.44,0.38,0.44,0.55,0.38,0.44,0.27,0.44,0.44,0.33,0.44,0.55,0.55,0.55,0.55,0.55,0.82,0.27,0.55,0.27,0.82,0.5,0.27" style="fill:rgb(23,22,21);font-family:AdvTimes;font-size:9.96px;stroke:none;">Forty-two positive clones were selected on minimal</text>
   <text y="680.845" x="42.463,50.653,55.006,60.506,63.196,68.695,76.86219999999999,81.865,84.554,89.536,93.889,99.389,102.079,107.578,112.558,117.524,123.023,125.713,129.548,132.866,135.556,141.055,143.745,149.245,153.6274,158.625,163.607,169.106,174.584,179.545,183.898,189.398,194.897,198.215,203.196,205.886,211.385,214.075,219.575,224.55499999999998,229.547,234.528,239.50799999999998,241.169,249.359,259.2194,264.186,269.167,272.485,280.156,286.791" svgx:width="0.82,0.44,0.55,0.27,0.55,0.82,0.55,0.27,0.5,0.44,0.55,0.27,0.55,0.5,0.55,0.55,0.27,0.38,0.33,0.27,0.55,0.27,0.55,0.44,0.55,0.5,0.55,0.55,0.55,0.44,0.55,0.55,0.33,0.5,0.27,0.55,0.27,0.55,0.5,0.55,0.5,0.5,0.55,0.82,0.99,0.55,0.5,0.33,0.77,0.67,0.27" style="fill:rgb(23,22,21);font-family:AdvTimes;font-size:9.96px;stroke:none;">medium lacking histidine and containing 20 mM 3-AT.</text>
   <text y="692.07" x="42.463,48.481,51.171,56.152,59.988,68.177,70.867,76.366,80.1508,82.659,89.812,94.165,98.001,102.38340000000001,104.825,108.661,113.015,117.368,122.868,127.849,132.203,136.038,140.392,145.87,148.365,153.346,158.845,164.323,166.733,171.087,173.776,178.13,182.484,185.801,189.637,195.136,200.636,206.135,209.971,214.952,218.269,222.623,228.101,230.625,233.315,238.814,242.132,247.61,250.07,255.051" svgx:width="0.6,0.27,0.5,0.38,0.82,0.27,0.55,0.38,0.55,0.72,0.44,0.38,0.44,0.55,0.38,0.44,0.44,0.55,0.5,0.44,0.38,0.44,0.55,0.55,0.5,0.55,0.55,0.55,0.44,0.27,0.44,0.44,0.33,0.38,0.55,0.55,0.55,0.38,0.5,0.33,0.44,0.55,0.55,0.27,0.55,0.33,0.55,0.55,0.5,0.55" style="fill:rgb(23,22,21);font-family:AdvTimes;font-size:9.96px;stroke:none;">Plasmids were recovered and electroporated into an</text>
   <text y="692.07" x="262.998,269.633,272.3222,274.789,279.143,284.124,286.814" svgx:width="0.67,0.27,0.55,0.44,0.5,0.27,0.27" style="fill:rgb(23,22,21);font-family:AdvTimes-i;font-size:9.96px;stroke:none;">E. coli</text>
   <text y="703.238" x="42.463,47.963,53.462,57.298,60.5848,67.125,70.442,75.942,79.7268,86.287,91.786,95.622,101.121,106.621,111.602,116.583,121.564,124.882,127.572,133.071,138.571,141.2602,147.798,154.433,159.932,164.31439999999998,170.759,175.112,183.302,191.491,199.162,202.9468,209.593,212.911,216.746,222.245,230.4122,236.918,240.236,245.735,250.1174,256.591,259.28,263.116,268.615,271.305,276.287,279.604,283.958" svgx:width="0.55,0.55,0.38,0.33,0.55,0.33,0.55,0.38,0.55,0.55,0.38,0.55,0.55,0.5,0.5,0.5,0.33,0.27,0.55,0.55,0.27,0.55,0.67,0.55,0.44,0.55,0.44,0.82,0.82,0.77,0.38,0.55,0.33,0.38,0.55,0.82,0.55,0.33,0.55,0.44,0.55,0.27,0.38,0.55,0.27,0.5,0.33,0.44,0.55" style="fill:rgb(23,22,21);font-family:AdvTimes;font-size:9.96px;stroke:none;">host for propagation. The cDNAs from the isolated</text>
   <text y="714.463" x="42.463,47.963,50.653,55.634,59.47,67.659,70.349,75.848,79.6328,85.719,92.872,97.226,101.061,105.44340000000001,111.401,115.236,120.736,126.235,128.925,133.278,137.632,140.95,145.303,150.781,156.868,160.185,165.663,171.664,175.5,179.854,183.689,187.007,190.842,193.532,197.886,201.203,203.893,209.393,214.871,220.929,225.911,231.41,236.888,242.926,246.761,251.115,256.614,262.114,266.467,271.967,276.321,279.01,284.51" svgx:width="0.55,0.27,0.5,0.38,0.82,0.27,0.55,0.38,0.55,0.72,0.44,0.38,0.44,0.55,0.38,0.55,0.55,0.27,0.44,0.44,0.33,0.44,0.55,0.55,0.33,0.55,0.55,0.38,0.44,0.38,0.33,0.38,0.27,0.44,0.33,0.27,0.55,0.55,0.55,0.5,0.55,0.55,0.55,0.38,0.44,0.55,0.55,0.44,0.55,0.44,0.27,0.55,0.5" style="fill:rgb(23,22,21);font-family:AdvTimes;font-size:9.96px;stroke:none;">plasmids were subjected to restriction and sequencing</text>
   <text y="725.688" x="42.463,47.445,52.944,57.925,60.615,65.597,69.432,72.122,75.958,78.6472,85.663,92.816,98.316,101.006,105.359,110.83699999999999,117.921,122.902,125.592,128.282,133.782,140.935,145.288,150.76600000000002,157.832,161.15,166.649,171.0314,178.071,183.053,188.033,195.079,199.433,207.622,215.812,223.4812,230.512,234.866,237.556,243.055,248.555,252.908,256.6928,263.791,267.108,272.586,279.665,285.164" svgx:width="0.5,0.55,0.5,0.27,0.5,0.38,0.27,0.38,0.27,0.55,0.72,0.55,0.27,0.44,0.55,0.55,0.5,0.27,0.27,0.55,0.72,0.44,0.55,0.55,0.33,0.55,0.44,0.55,0.5,0.5,0.55,0.44,0.82,0.82,0.77,0.55,0.44,0.27,0.55,0.55,0.44,0.38,0.55,0.33,0.55,0.55,0.55,0.44" style="fill:rgb(23,22,21);font-family:AdvTimes;font-size:9.96px;stroke:none;">analysis, which allowed the 42 cDNA clones to be</text>
   <text y="736.856" x="42.463,46.817,49.507,54.488,58.324,62.159,64.849,70.349,74.702,80.17999999999999,83.508,86.198,91.698,95.015,100.493,103.861,108.842,113.822,117.184,122.683,125.373,129.209,132.526,135.216,140.716,145.069,148.3558,151.709,156.691,160.526,166.026,171.525,177.024,180.8088,184.194,187.512,194.147,199.128,204.628,207.318,211.7004,215.035,220.016,223.333" svgx:width="0.44,0.27,0.5,0.38,0.38,0.27,0.55,0.44,0.55,0.55,0.27,0.55,0.33,0.55,0.55,0.5,0.5,0.55,0.55,0.27,0.38,0.33,0.27,0.55,0.44,0.33,0.55,0.5,0.38,0.55,0.55,0.55,0.38,0.55,0.33,0.67,0.5,0.55,0.27,0.44,0.55,0.5,0.33,0.27" style="fill:rgb(23,22,21);font-family:AdvTimes;font-size:9.96px;stroke:none;">classiﬁed into 16 distinct groups (Table 1).</text>
   <text y="570.009" x="319.407,326.042,331.52,336.131,339.967,344.32,347.01,351.364,355.717,359.0038,363.627,366.944,370.78,376.279,380.6614,385.17,390.669,396.169,400.004,402.694,406.012,408.702,413.683,418.0654,422.643,426.997,435.186,443.375,451.047,454.83180000000004,459.493,462.811,468.31,473.291,476.5778,481.15,485.503,491.003,495.356,500.856,506.355,510.73740000000004,515.335,518.653,522.489,527.47,532.969,536.805,541.158,544.994,547.684,553.183" svgx:width="0.67,0.55,0.55,0.38,0.44,0.27,0.44,0.44,0.33,0.55,0.33,0.38,0.55,0.44,0.55,0.55,0.55,0.38,0.27,0.33,0.27,0.5,0.44,0.55,0.44,0.82,0.82,0.77,0.38,0.55,0.33,0.55,0.5,0.33,0.55,0.44,0.55,0.44,0.55,0.55,0.44,0.55,0.33,0.38,0.5,0.55,0.38,0.44,0.38,0.27,0.55,0.33" style="fill:rgb(23,22,21);font-family:AdvTimes;font-size:9.96px;stroke:none;">To select true positive cDNAs that encode transcrip-</text>
   <text y="581.177" x="309.429,312.747,315.437,320.936,326.435,331.417,334.1062,340.724,344.559,348.913,353.894,359.394,362.084,367.065,370.382,375.882,379.717,383.5018,390.159,395.14,403.33,408.829,414.328,419.308,425.932,429.249,434.749,439.13140000000004,445.661,450.642,455.622,462.215,466.05,470.404,475.903,479.739,484.093,487.928,492.282,497.781,501.099,506.08,509.398,512.087,517.069,521.4513999999999,528.09,532.444,540.633,548.823" svgx:width="0.33,0.27,0.55,0.55,0.5,0.27,0.55,0.38,0.44,0.5,0.55,0.27,0.5,0.33,0.55,0.38,0.38,0.55,0.5,0.82,0.55,0.55,0.5,0.55,0.33,0.55,0.44,0.55,0.5,0.5,0.55,0.38,0.44,0.55,0.38,0.44,0.38,0.44,0.55,0.33,0.5,0.33,0.27,0.5,0.44,0.55,0.44,0.82,0.82,0.77" style="fill:rgb(23,22,21);font-family:AdvTimes;font-size:9.96px;stroke:none;">tional regulators among the 16 representative cDNA</text>
   <text y="592.288" x="309.429,313.783,316.473,321.972,327.471,331.825,335.661,338.35020000000003,345.542,352.695,357.0774,364.25,368.604,373.585,378.567,386.756,389.446,394.945,399.299,404.777,411.928,415.246,420.745,425.099,427.789" svgx:width="0.44,0.27,0.55,0.55,0.44,0.38,0.27,0.55,0.72,0.44,0.55,0.44,0.5,0.5,0.82,0.27,0.55,0.44,0.55,0.55,0.33,0.55,0.44,0.27,0.38" style="fill:rgb(23,22,21);font-family:AdvTimes;font-size:9.96px;stroke:none;">clones, we examined their</text>
   <text y="592.288" x="438.858,441.548,446.53,450.883" svgx:width="0.27,0.5,0.44,0.72" style="fill:rgb(23,22,21);font-family:AdvTimes-i;font-size:9.96px;stroke:none;">lacZ</text>
   <text y="592.288" x="465.164,470.145,474.499,477.816,480.506,485.487,488.177,491.495,496.475,503.657,509.156,514.136,521.345,526.325,533.477,538.977,541.666,544.984,549.338,553.173" svgx:width="0.5,0.44,0.33,0.27,0.5,0.27,0.33,0.5,0.55,0.55,0.5,0.55,0.5,0.55,0.55,0.27,0.33,0.44,0.38,0.33" style="fill:rgb(23,22,21);font-family:AdvTimes;font-size:9.96px;stroke:none;">activity by a ﬁlter-</text>
   <text y="603.457" x="309.429,313.265,317.618,323.118,325.808,328.498,332.851,337.831,352.345,360.534,364.888,368.206,373.705,379.204,384.682,399.173,404.673,408.508,411.198,416.698,421.678,436.137,441.118,444.435,449.935,453.77,459.27,467.459,472.958,476.276,481.257,484.575,488.928,494.428,497.118,502.617,506.453,511.952,515.27,520.251,523.568,526.258,531.758,537.257,542.756,545.446,550.427,553.117" svgx:width="0.38,0.44,0.55,0.27,0.27,0.44,0.5,0.55,0.82,0.44,0.33,0.55,0.55,0.55,0.55,0.55,0.38,0.27,0.55,0.5,0.55,0.5,0.33,0.55,0.38,0.55,0.82,0.55,0.33,0.5,0.33,0.44,0.55,0.27,0.55,0.38,0.55,0.33,0.5,0.33,0.27,0.55,0.55,0.55,0.27,0.5,0.27,0.33" style="fill:rgb(23,22,21);font-family:AdvTimes;font-size:9.96px;stroke:none;">replica method using 5-bromo-4-chloro-3-indolyl-</text>
   <text y="614.625" x="309.429" svgx:width="0.55" style="fill:rgb(23,22,21);font-family:AdvPi1;font-size:9.96px;stroke:none;">b</text>
   <text y="614.625" x="314.929" svgx:width="0.33" style="fill:rgb(23,22,21);font-family:AdvTimes;font-size:9.96px;stroke:none;">-</text>
   <text y="614.628" x="318.274" svgx:width="0.82" style="fill:rgb(23,22,21);font-family:AdvTimes;font-size:6.97px;stroke:none;">D</text>
   <text y="614.628" x="324.0,327.317,332.299,337.28,339.97,344.951,349.305,352.622,358.122,363.621,368.602,372.438,377.419,382.919,388.418,392.254,394.944,400.443,404.8254,409.775,413.092,420.764,424.081,429.062,434.044,436.734,440.0208,444.981,449.962,453.7468,458.7,463.68,468.621,472.457,477.956,483.455,487.291,490.608,494.444,499.425,502.743,507.096,509.78520000000003,514.769,522.44,527.939,530.629,535.609,540.507,543.825,550.978" svgx:width="0.33,0.5,0.5,0.27,0.5,0.44,0.33,0.55,0.55,0.5,0.38,0.5,0.55,0.55,0.38,0.27,0.55,0.44,0.55,0.33,0.77,0.33,0.5,0.5,0.27,0.33,0.55,0.5,0.38,0.55,0.5,0.55,0.38,0.55,0.55,0.38,0.33,0.38,0.5,0.33,0.44,0.27,0.55,0.77,0.55,0.27,0.5,0.55,0.33,0.72,0.55" style="fill:rgb(23,22,21);font-family:AdvTimes;font-size:9.96px;stroke:none;">-galactopyranoside (X-gal) as a substrate. Only two</text>
   <text y="625.797" x="309.43,313.783,321.973,330.162,337.83119999999997,342.084,346.438,349.128,354.627,360.126,364.48,368.26480000000004,372.528,375.845,380.199,382.889,388.388,393.888,398.241,402.0258,406.316,411.296,415.5,420.482,425.981,431.459,435.683,440.664,443.9508,448.155,450.845,455.826,459.144,463.497,467.28180000000003,471.569,477.068,482.05,490.239,494.593" svgx:width="0.44,0.82,0.82,0.77,0.55,0.44,0.27,0.55,0.55,0.44,0.38,0.55,0.33,0.44,0.27,0.55,0.55,0.44,0.38,0.55,0.5,0.55,0.5,0.55,0.55,0.55,0.5,0.33,0.55,0.27,0.5,0.33,0.44,0.38,0.55,0.55,0.5,0.82,0.44,0.55" style="fill:rgb(23,22,21);font-family:AdvTimes;font-size:9.96px;stroke:none;">cDNA clones (clones 5 and 1) later named</text>
   <text y="625.797" x="504.282,511.435,519.106,526.26,532.277,535.595,543.784,551.455" svgx:width="0.72,0.77,0.72,0.6,0.33,0.82,0.77,0.5" style="fill:rgb(23,22,21);font-family:AdvTimes-i;font-size:9.96px;stroke:none;">GmZF-HD1</text>
   <text y="636.965" x="309.43,314.411,319.91" svgx:width="0.5,0.55,0.55" style="fill:rgb(23,22,21);font-family:AdvTimes;font-size:9.96px;stroke:none;">and</text>
   <text y="636.965" code="1" x="333.183" svgx:width="0.77" style="fill:rgb(23,22,21);font-family:AdvMT_SY;font-size:9.96px;stroke:none;">?</text>
   <text y="636.965" x="340.893" svgx:width="0.5" style="fill:rgb(23,22,21);font-family:AdvTimes-i;font-size:9.96px;stroke:none;">2</text>
   <text y="636.965" x="353.65,356.967,360.285,365.784" svgx:width="0.33,0.33,0.55,0.38" style="fill:rgb(23,22,21);font-family:AdvTimes;font-size:9.96px;stroke:none;">(for</text>
  </g>
  <g begin="text">
   <text y="636.965" x="377.405,384.558,387.248,392.229,396.583,399.273,404.254" svgx:width="0.72,0.27,0.5,0.44,0.27,0.5,0.44" style="fill:rgb(23,22,21);font-family:AdvTimes-i;font-size:9.96px;stroke:none;">Glycine</text>
  </g>
  <g begin="text">
   <text y="636.965" x="416.409,424.081,429.062" svgx:width="0.77,0.5,0.55" style="fill:rgb(23,22,21);font-family:AdvTimes-i;font-size:9.96px;stroke:none;">max</text>
  </g>
  <g begin="text">
   <text y="636.965" x="442.375,446.728,449.418,454.918" svgx:width="0.44,0.27,0.55,0.44" style="fill:rgb(23,22,21);font-family:AdvTimes;font-size:9.96px;stroke:none;">zinc</text>
  </g>
  <g begin="text">
   <text y="636.965" x="467.036,470.354,473.044,478.543,483.524,487.878,491.713" svgx:width="0.33,0.27,0.55,0.5,0.44,0.38,0.33" style="fill:rgb(23,22,21);font-family:AdvTimes;font-size:9.96px;stroke:none;">finger-</text>
  </g>
  <g begin="text">
   <text y="636.965" x="495.042,500.542,506.041,514.23,518.584" svgx:width="0.55,0.55,0.82,0.44,0.55" style="fill:rgb(23,22,21);font-family:AdvTimes;font-size:9.96px;stroke:none;">homeo</text>
  </g>
  <g begin="text">
   <text y="636.965" x="524.126,529.625,535.125,543.314,548.295,550.985" svgx:width="0.55,0.55,0.82,0.5,0.27,0.55" style="fill:rgb(23,22,21);font-family:AdvTimes;font-size:9.96px;stroke:none;">domain</text>
   <text y="648.133" x="309.431,314.93,318.766,324.265,327.583,331.936,334.626,340.126,345.106,349.852,354.833,360.333" svgx:width="0.55,0.38,0.55,0.33,0.44,0.27,0.55,0.5,0.55,0.5,0.55,0.55" style="fill:rgb(23,22,21);font-family:AdvTimes;font-size:9.96px;stroke:none;">protein1 and</text>
   <text y="648.133" code="1" x="370.602" svgx:width="0.77" style="fill:rgb(23,22,21);font-family:AdvMT_SY;font-size:9.96px;stroke:none;">?</text>
   <text y="648.133" x="378.256,383.237,385.92620000000005,390.728,394.563,398.917,402.753,408.252,412.606,416.959,420.277,422.967,427.948,432.302,434.992,439.973,443.25980000000004,448.044,451.361,456.86,460.696,468.885,473.239,478.717,483.533,489.033,491.723,497.222,501.6044,506.324,510.677,516.177,518.867,524.366,529.865,532.555,536.909,540.6938,545.498,550.997" svgx:width="0.5,0.27,0.55,0.38,0.44,0.38,0.55,0.44,0.44,0.33,0.27,0.5,0.44,0.27,0.5,0.33,0.55,0.33,0.55,0.38,0.82,0.44,0.55,0.55,0.55,0.27,0.55,0.44,0.55,0.44,0.55,0.27,0.55,0.55,0.27,0.44,0.38,0.55,0.55,0.55" style="fill:rgb(23,22,21);font-family:AdvTimes;font-size:9.96px;stroke:none;">2, respectively) formed blue colonies on</text>
   <text y="659.245" x="309.431,314.93,317.62,320.938,325.291,329.0758,335.907,341.406,346.387,351.887,356.24,360.076,363.86080000000004,370.602,374.956,380.455,385.955,389.272,394.254,396.943,402.443,405.133,410.632,415.612,422.419,430.09,433.408,438.389,443.37,446.05920000000003,452.806,456.123,462.758,465.448,470.43,475.929,479.764,484.1464,490.846,495.827,502.462,505.78,508.4692,515.223,525.076,527.766,531.084,536.5619999999999,543.343,546.66,552.16" svgx:width="0.55,0.27,0.33,0.44,0.38,0.55,0.55,0.5,0.55,0.44,0.38,0.38,0.55,0.44,0.55,0.55,0.33,0.5,0.27,0.55,0.27,0.55,0.5,0.55,0.77,0.33,0.5,0.5,0.27,0.55,0.33,0.67,0.27,0.5,0.55,0.38,0.44,0.55,0.5,0.67,0.33,0.27,0.55,0.99,0.27,0.33,0.55,0.55,0.33,0.55,0.44" style="fill:rgb(23,22,21);font-family:AdvTimes;font-size:9.96px;stroke:none;">ﬁlter papers containing X-gal (Figure 3B). With the</text>
   <text y="670.413" x="309.431,313.267,317.62,320.31,324.664,329.017,332.335,336.689,342.16700000000003,349.115,354.096,359.076,365.896,370.25,378.439,386.628,394.2972,401.215,405.569,408.259,413.758,419.258,423.611,427.447,430.13620000000003,437.045,444.198,448.5804,455.413,460.394,463.084,466.92,472.398,479.28,484.78,489.133,492.969,496.287,501.786,505.622,513.811,518.164,523.6419999999999,530.53,535.51,542.379,546.732,551.086,553.776" svgx:width="0.38,0.44,0.27,0.44,0.44,0.33,0.44,0.55,0.55,0.5,0.5,0.55,0.44,0.82,0.82,0.77,0.55,0.44,0.27,0.55,0.55,0.44,0.38,0.27,0.55,0.72,0.44,0.55,0.5,0.27,0.38,0.55,0.55,0.55,0.44,0.38,0.33,0.55,0.38,0.82,0.44,0.55,0.55,0.5,0.55,0.44,0.44,0.27,0.27" style="fill:rgb(23,22,21);font-family:AdvTimes;font-size:9.96px;stroke:none;">selected 16 cDNA clones, we also performed a cell</text>
   <text y="681.581" x="309.431,314.412,318.248,323.747,330.9,334.218,339.696,343.843,348.824,352.66,356.495,361.477,366.457,370.544,376.044,381.522,385.625,389.46,393.814,396.504,400.858,405.211,408.529,411.219,416.718,422.196,426.33,434.519,438.873,444.372,447.062,452.562,460.7292,464.88,472.034,474.723,478.041,483.54,489.04,494.539,497.8258,501.957,507.457,510.146,513.982,517.3,519.99,525.489,528.179,533.678,538.0604,542.209,547.708,553.208" svgx:width="0.5,0.38,0.55,0.72,0.33,0.55,0.55,0.5,0.38,0.38,0.5,0.5,0.55,0.55,0.55,0.55,0.38,0.44,0.27,0.44,0.44,0.33,0.27,0.55,0.55,0.55,0.82,0.44,0.55,0.27,0.55,0.82,0.55,0.72,0.27,0.33,0.55,0.55,0.55,0.33,0.55,0.55,0.27,0.38,0.33,0.27,0.55,0.27,0.55,0.44,0.55,0.55,0.55,0.33" style="fill:rgb(23,22,21);font-family:AdvTimes;font-size:9.96px;stroke:none;">growth assay on selection medium without histidine but</text>
   <text y="692.749" x="309.431,316.584,319.274,322.591,328.069,332.108,337.088,341.122,346.621,349.311,354.292,359.792,364.146,367.93080000000003,372.019,376.373,381.872,387.371,391.725,396.079,401.578,404.896,408.731,413.712,417.03,419.72,425.219,430.697,434.721,440.22,443.50680000000006,447.589,452.571,455.888,463.559,470.23220000000003,474.177,477.495,482.476,487.456,489.144,497.334,507.187,510.504,513.1932,517.207,523.842,529.341,533.7234,537.73,543.229,548.21,551.528" svgx:width="0.72,0.27,0.33,0.55,0.55,0.5,0.55,0.55,0.27,0.5,0.55,0.44,0.38,0.55,0.44,0.55,0.55,0.44,0.44,0.55,0.33,0.38,0.5,0.33,0.27,0.55,0.55,0.55,0.55,0.33,0.55,0.5,0.33,0.77,0.67,0.55,0.33,0.5,0.5,0.55,0.82,0.99,0.33,0.27,0.55,0.67,0.55,0.44,0.55,0.55,0.5,0.33,0.5" style="fill:rgb(23,22,21);font-family:AdvTimes;font-size:9.96px;stroke:none;">with a higher concentration of 3-AT (60 mM). The data</text>
   <text y="703.917" x="309.431,314.412,319.393,324.375,327.065,332.543,338.231,342.066,347.566,353.065,360.218,364.572,370.05,375.761,379.078,384.578,389.559,392.84580000000005,398.551,404.051,409.55,412.24,417.22,422.872,427.226,429.916,435.415,440.914,445.268,449.0528,454.79,459.77000000000004,465.391" svgx:width="0.5,0.5,0.5,0.27,0.55,0.55,0.38,0.55,0.55,0.72,0.44,0.55,0.55,0.33,0.55,0.5,0.33,0.55,0.55,0.55,0.27,0.5,0.55,0.44,0.27,0.55,0.55,0.44,0.38,0.55,0.5,0.55,0.33" style="fill:rgb(23,22,21);font-family:AdvTimes;font-size:9.96px;stroke:none;">again showed that only clones 5 (</text>
   <text y="703.917" x="468.737,475.89,483.561,490.714,496.732,500.049,508.239,515.91" svgx:width="0.72,0.77,0.72,0.6,0.33,0.82,0.77,0.5" style="fill:rgb(23,22,21);font-family:AdvTimes-i;font-size:9.96px;stroke:none;">GmZF-HD1</text>
   <text y="703.917" x="520.894,524.1808,529.908,534.89,540.389,545.867,551.508" svgx:width="0.33,0.55,0.5,0.55,0.55,0.55,0.5" style="fill:rgb(23,22,21);font-family:AdvTimes;font-size:9.96px;stroke:none;">) and 1</text>
   <text y="715.028" x="309.431" svgx:width="0.33" style="fill:rgb(23,22,21);font-family:AdvTimes;font-size:9.96px;stroke:none;">(</text>
   <text y="715.028" x="312.775,319.929,327.6,334.753,340.77,344.088,352.277,359.948" svgx:width="0.72,0.77,0.72,0.6,0.33,0.82,0.77,0.5" style="fill:rgb(23,22,21);font-family:AdvTimes-i;font-size:9.96px;stroke:none;">GmZF-HD2</text>
   <text y="715.028" x="364.933,368.2198,374.741,378.576,384.076,387.911,392.893,395.583,400.564,404.918,410.396,416.919,422.419,427.897,434.381,442.57,446.924,452.423,455.113,460.612,468.7792,475.312,479.666,485.165,490.665,493.982,498.964,501.653,507.153,509.843,515.342,520.322,526.846,531.827,536.807,538.468,546.658" svgx:width="0.33,0.55,0.38,0.55,0.38,0.5,0.27,0.5,0.44,0.55,0.55,0.55,0.55,0.55,0.82,0.44,0.55,0.27,0.55,0.82,0.55,0.44,0.55,0.55,0.33,0.5,0.27,0.55,0.27,0.55,0.5,0.55,0.5,0.5,0.55,0.82,0.99" style="fill:rgb(23,22,21);font-family:AdvTimes;font-size:9.96px;stroke:none;">) survived on medium containing 60 mM</text>
   <text y="726.196" x="309.431,314.412,317.73,325.401,332.036,334.72520000000003,338.514,345.149,350.648,355.002,358.838,363.22040000000004,366.973,370.809,375.162,378.998,384.497,387.187,390.505,394.2898,398.097,402.451,407.95,413.45,418.949,422.785,430.974,435.327,440.805,444.585,447.902,453.402,458.383,461.6698,465.447,468.765,474.264,478.6464,482.399,490.588,498.777,505.412,512.047,515.365,523.554,531.744,536.724,540.508,545.489,550.988" svgx:width="0.5,0.33,0.77,0.67,0.27,0.55,0.67,0.55,0.44,0.38,0.44,0.55,0.38,0.44,0.38,0.55,0.27,0.33,0.38,0.55,0.44,0.55,0.55,0.55,0.38,0.82,0.44,0.55,0.55,0.33,0.55,0.5,0.33,0.55,0.33,0.55,0.44,0.55,0.82,0.82,0.67,0.67,0.33,0.82,0.82,0.5,0.55,0.5,0.55,0.55" style="fill:rgb(23,22,21);font-family:AdvTimes;font-size:9.96px;stroke:none;">3-AT. These results conﬁrmed that the GmZF-HD1 and</text>
   <text y="737.365" code="1" x="309.431" svgx:width="0.77" style="fill:rgb(23,22,21);font-family:AdvMT_SY;font-size:9.96px;stroke:none;">?</text>
   <text y="737.365" x="317.141,322.12100000000004,329.784,335.283,339.118,344.618,347.935,352.289,354.979,360.478,364.2628,372.019,375.855,381.354,385.708,390.061,392.751,398.251,402.604,407.586,410.275,412.965,417.945,425.65,430.631,436.13,441.608,449.29,453.126,456.443,460.279,465.778,471.277,476.259,478.949,483.92900000000003,491.639,497.138,502.638,508.137,513.636,519.1139999999999,526.845,530.162,535.64,543.342,546.659,552.159" svgx:width="0.5,0.55,0.55,0.38,0.55,0.33,0.44,0.27,0.55,0.38,0.55,0.38,0.55,0.44,0.44,0.27,0.55,0.44,0.5,0.27,0.27,0.5,0.55,0.5,0.55,0.55,0.55,0.38,0.33,0.38,0.55,0.55,0.5,0.27,0.5,0.55,0.55,0.55,0.55,0.55,0.55,0.55,0.33,0.55,0.55,0.33,0.55,0.44" style="fill:rgb(23,22,21);font-family:AdvTimes;font-size:9.96px;stroke:none;">2 proteins speciﬁcally and strongly bound to the</text>
  </g>
  <rect style="stroke:blue;stroke-width:0.3;" x="79.654" y="80.851" height="431.206" width="172.573" title="5"/>
  <text y="80.851" class="image" id="image.5.1" width="172" height="431" x="79.654">image.5.1.80_252.81_512</text>
  <g begin="text">
   <text y="518.817" x="42.463,47.277,49.429,53.414,57.399,60.468,63.9748,66.501,70.486" svgx:width="0.6,0.27,0.5,0.5,0.38,0.44,0.55,0.5,0.27" style="fill:rgb(23,22,21);font-family:AdvTimes-b;font-size:7.97px;stroke:none;">Figure 2.</text>
   <text y="518.817" x="76.649,83.2,89.752,93.737,96.805,100.3118,102.841,105.86959999999999,108.454,111.108,115.507,119.907,122.561,126.961,130.029,132.181,136.581,139.2111,141.847,145.832,150.231,154.216,156.368,160.353,163.422,165.574,168.60260000000002,171.214,175.613,178.2431,180.851,183.505,187.905,191.4118,193.947,200.084,204.06900000000002,206.646,209.714,213.197,217.183,219.335,223.734,228.1175,230.684,235.084,237.7141,240.322,242.976,247.375" svgx:width="0.82,0.82,0.5,0.38,0.44,0.55,0.38,0.55,0.33,0.55,0.55,0.33,0.55,0.38,0.27,0.55,0.33,0.55,0.5,0.55,0.5,0.27,0.5,0.38,0.27,0.38,0.55,0.55,0.33,0.55,0.33,0.55,0.44,0.55,0.77,0.5,0.55,0.38,0.44,0.5,0.27,0.55,0.55,0.55,0.55,0.33,0.55,0.33,0.55,0.44" style="fill:rgb(23,22,21);font-family:AdvTimes;font-size:7.97px;stroke:none;">DNase I footprint analysis of the A2 region of the</text>
   <text y="518.817" x="253.418,259.141,265.278,271.0,274.986,282.868,285.522" svgx:width="0.72,0.77,0.72,0.5,0.99,0.33,0.5" style="fill:rgb(23,22,21);font-family:AdvTimes-i;font-size:7.97px;stroke:none;">GmCaM-4</text>
   <text y="527.775" x="42.463,46.863,49.931,54.331,60.882,65.282,67.936,71.419,74.4476,79.087,83.486,87.886,92.286,96.685,101.0685,105.733,110.132,114.117,118.715,123.115,127.1,129.754,134.154,138.553,142.538,146.021,150.421,153.075,156.144,159.627,162.695,167.095,171.494,175.894,178.962,181.114,185.099,188.6058,193.267,197.667,200.735,205.135,207.789,211.272,213.424,217.823,220.892,223.0439,227.68,232.988,237.388,241.787,244.441,246.593,250.578,254.978,258.461,260.613,264.096,268.47950000000003,273.148,275.803,278.871,282.856,286.841" svgx:width="0.55,0.38,0.55,0.82,0.55,0.33,0.44,0.38,0.55,0.55,0.55,0.55,0.55,0.55,0.55,0.55,0.5,0.55,0.55,0.5,0.33,0.55,0.55,0.5,0.44,0.55,0.33,0.38,0.44,0.38,0.55,0.55,0.55,0.38,0.27,0.5,0.44,0.55,0.55,0.38,0.55,0.33,0.44,0.27,0.55,0.38,0.27,0.55,0.67,0.55,0.55,0.33,0.27,0.5,0.55,0.44,0.27,0.44,0.55,0.55,0.33,0.38,0.5,0.5,0.33" style="fill:rgb(23,22,21);font-family:AdvTimes;font-size:7.97px;stroke:none;">promoter bound by pathogen-responsive proteins. End-labeled frag-</text>
   <text y="536.733" x="42.463,49.014,52.497,56.897,59.551,62.5796,65.424,71.146,74.629,77.698,81.20479999999999,84.019,88.418,90.57,94.555,98.038,101.107,103.761,107.244,111.6275,114.52,120.243,122.395,125.049,129.4325,132.265,138.816,145.368,149.353,152.421,155.9278,158.74,161.76860000000002,164.637,168.622,171.276,173.93,177.413,180.44160000000002,183.345,185.497,189.897,193.38,197.779,202.179,206.164,208.818,210.97,215.369,219.7525,222.577,228.299,230.451,233.105,237.4885,240.378,244.363,246.5149,249.336,253.321,255.4729,258.294,262.279,266.264,268.4159,271.276,275.261,279.24600000000004,282.048,286.448" svgx:width="0.82,0.44,0.55,0.33,0.38,0.55,0.72,0.44,0.38,0.44,0.55,0.55,0.27,0.5,0.44,0.38,0.33,0.44,0.55,0.55,0.72,0.27,0.33,0.55,0.55,0.82,0.82,0.5,0.38,0.44,0.55,0.38,0.55,0.5,0.33,0.33,0.44,0.38,0.55,0.27,0.55,0.44,0.55,0.55,0.5,0.33,0.27,0.55,0.55,0.55,0.72,0.27,0.33,0.55,0.55,0.5,0.27,0.55,0.5,0.27,0.55,0.5,0.5,0.27,0.55,0.5,0.5,0.55,0.55,0.38" style="fill:rgb(23,22,21);font-family:AdvTimes;font-size:7.97px;stroke:none;">ments were digested with DNase I after incubation with 0, 5, 10, 20 or</text>
   <text y="545.691" x="42.463,46.448" svgx:width="0.5,0.5" style="fill:rgb(23,22,21);font-family:AdvTimes;font-size:7.97px;stroke:none;">25</text>
   <text y="545.691" x="51.761" svgx:width="0.55" style="fill:rgb(23,22,21);font-family:AdvPi1;font-size:7.97px;stroke:none;">m</text>
   <text y="545.691" x="56.126,60.111,63.383,67.783,72.182,75.665,77.817,81.3,85.285,88.3136,91.673,96.073,99.141,103.541,106.195,109.678,111.83,116.23,119.2586,122.628,125.282,128.351,132.75" svgx:width="0.5,0.55,0.55,0.55,0.44,0.27,0.44,0.5,0.38,0.55,0.55,0.38,0.55,0.33,0.44,0.27,0.55,0.38,0.55,0.33,0.38,0.55,0.82" style="fill:rgb(23,22,21);font-family:AdvTimes;font-size:7.97px;stroke:none;">g nuclear proteins from</text>
   <text y="545.691" x="142.583,147.891,150.96,154.945,157.0969,160.384,164.37,167.853,170.921" svgx:width="0.67,0.38,0.5,0.27,0.55,0.5,0.44,0.38,0.72" style="fill:rgb(23,22,21);font-family:AdvTimes-i;font-size:7.97px;stroke:none;">Psg. avrA</text>
   <text y="545.691" x="176.656,179.31,181.964,185.032,188.515,192.5,195.154,198.637,203.0205,206.363,214.245,218.231,222.216,225.468,228.537,232.936,236.922,241.321,244.804,248.789,253.17249999999999,256.48,259.963,263.446,265.598,267.749,270.818,272.9699,276.322,281.63,286.03" svgx:width="0.33,0.33,0.38,0.44,0.5,0.33,0.44,0.55,0.55,0.99,0.5,0.5,0.55,0.38,0.55,0.5,0.55,0.44,0.5,0.55,0.55,0.44,0.44,0.27,0.27,0.38,0.27,0.55,0.67,0.55,0.44" style="fill:rgb(23,22,21);font-family:AdvTimes;font-size:7.97px;stroke:none;">-treated W82 soybean cells. The</text>
   <text y="554.648" x="42.463,45.532,49.014,52.083,56.483,58.635,61.289,63.441,67.84,71.825,75.345,81.896,88.448,94.58489999999999,98.079,100.733,103.802,107.787,111.772,118.323,121.806,126.206,128.86,131.88860000000003,135.44,141.163,144.646,147.714,151.2208,154.716,159.116,163.515,166.584,168.736,173.135,176.618,181.0015,184.537,188.522,192.921,197.3045,200.808,204.291,206.443,209.926,213.409,216.063,219.131,223.531,227.93,232.33,236.729,239.798,243.281,246.349,249.832,254.2155,257.784,262.184,266.56750000000005,270.087,274.072,277.57,281.555" svgx:width="0.38,0.44,0.38,0.55,0.27,0.33,0.27,0.55,0.5,0.55,0.82,0.82,0.77,0.55,0.33,0.38,0.5,0.5,0.82,0.44,0.55,0.33,0.38,0.55,0.72,0.44,0.38,0.44,0.55,0.55,0.55,0.38,0.27,0.55,0.44,0.55,0.55,0.5,0.55,0.55,0.55,0.44,0.27,0.44,0.44,0.33,0.38,0.55,0.55,0.55,0.55,0.38,0.44,0.38,0.44,0.55,0.55,0.55,0.55,0.55,0.5,0.55,0.5,1.0" style="fill:rgb(23,22,21);font-family:AdvTimes;font-size:7.97px;stroke:none;">resulting DNA fragments were puriﬁed and electrophoresed on a 6%</text>
   <text y="563.606" x="42.463,46.863,51.262,55.662,58.316,62.715,66.198,70.598,74.583,77.237,81.637,84.705,86.857,91.257,95.242,98.476,102.876,107.275,109.427,113.412,117.397,120.88,123.949,127.934,130.086,134.071,140.622,142.774,147.174,150.6808,153.922,156.991,160.474,164.873,169.273,172.756,177.155,180.638,182.79,187.19,191.175,194.401,198.386,201.869,204.021,206.1729,209.425,215.977,222.114,224.26590000000002,227.51" svgx:width="0.55,0.55,0.55,0.33,0.55,0.44,0.55,0.5,0.33,0.55,0.38,0.27,0.55,0.5,0.55,0.55,0.55,0.27,0.5,0.5,0.44,0.38,0.5,0.27,0.5,0.82,0.27,0.55,0.44,0.55,0.38,0.44,0.55,0.55,0.44,0.55,0.44,0.27,0.55,0.5,0.55,0.5,0.44,0.27,0.27,0.55,0.82,0.77,0.27,0.55,0.82" style="fill:rgb(23,22,21);font-family:AdvTimes;font-size:7.97px;stroke:none;">non-denaturing polyacrylamide sequencing gel. GA, G</text>
   <text y="563.606" x="235.39" svgx:width="0.77" style="fill:rgb(23,22,21);font-family:AdvMT_SY;font-size:7.97px;stroke:none;">þ</text>
   <text y="563.606" x="242.873,249.0099,252.227,255.296,258.779,263.179,267.578,271.061,275.461,278.944,281.095,285.495" svgx:width="0.77,0.55,0.38,0.44,0.55,0.55,0.44,0.55,0.44,0.27,0.55,0.5" style="fill:rgb(23,22,21);font-family:AdvTimes;font-size:7.97px;stroke:none;">A sequencing</text>
   <text y="572.62" x="42.463,44.615,48.6,53.0,57.399,60.882,63.910599999999995,66.614,69.268,73.668,78.067,82.467,85.121,88.604,93.004,97.403,99.555,103.955,107.94,110.665,113.733,116.387,119.456,123.441,127.841,132.24,134.894,137.04590000000002,139.749,141.901,145.886,150.285,153.7918,156.474,160.459,162.61090000000002,165.318,169.718,174.1015,176.827,181.227,185.626,189.109,191.261,194.744,198.729,201.75760000000002,204.493,208.893,211.961,216.361,219.015,222.498,224.65,229.049,231.20090000000002,233.973,236.125,240.11,244.51,247.993,251.0216,253.759,257.744,261.73,265.715,267.8669,270.541,274.526,276.6779,279.384,283.369,287.355" svgx:width="0.27,0.5,0.55,0.55,0.44,0.38,0.55,0.33,0.55,0.55,0.55,0.33,0.44,0.55,0.55,0.27,0.55,0.5,0.55,0.38,0.33,0.38,0.5,0.55,0.55,0.33,0.27,0.55,0.27,0.5,0.55,0.44,0.55,0.5,0.27,0.55,0.55,0.55,0.55,0.55,0.55,0.44,0.27,0.44,0.5,0.38,0.55,0.55,0.38,0.55,0.33,0.44,0.27,0.55,0.27,0.55,0.27,0.5,0.55,0.44,0.38,0.55,0.5,0.5,0.5,0.27,0.55,0.5,0.27,0.55,0.5,0.5,0.27" style="fill:rgb(23,22,21);font-family:AdvTimes;font-size:7.97px;stroke:none;">ladder (non-coding strand); lane 1, no nuclear protein; lanes 2–5, 5, 10,</text>
   <text y="581.578" x="42.463,46.448,50.433,55.502,59.487,63.887,68.2705,73.36,77.345" svgx:width="0.5,0.5,0.55,0.5,0.55,0.55,0.55,0.5,0.5" style="fill:rgb(23,22,21);font-family:AdvTimes;font-size:7.97px;stroke:none;">20 and 25</text>
   <text y="581.578" x="82.658" svgx:width="0.55" style="fill:rgb(23,22,21);font-family:AdvPi1;font-size:7.97px;stroke:none;">m</text>
   <text y="581.578" x="87.08,91.065,96.151,100.551,104.95,108.433,110.585,114.068,118.053,121.0816,126.199,130.598,133.667,138.066,140.72,144.203,146.355,150.755,152.9069,158.004,161.072,164.555,167.624,172.023,175.506,178.989,181.643,183.795,187.78,191.263,193.415,197.4,199.55190000000002,204.719,210.028,214.427,217.9338,222.974,229.526,236.077,240.063,243.131,246.6378,251.718,254.787,257.441,261.84,264.909,269.308,271.962,275.445,278.928,281.582,285.065" svgx:width="0.5,0.55,0.55,0.55,0.44,0.27,0.44,0.5,0.38,0.55,0.55,0.38,0.55,0.33,0.44,0.27,0.55,0.27,0.55,0.38,0.44,0.38,0.55,0.44,0.44,0.33,0.27,0.5,0.44,0.27,0.5,0.27,0.55,0.67,0.55,0.44,0.55,0.82,0.82,0.5,0.38,0.44,0.55,0.38,0.33,0.55,0.38,0.55,0.33,0.44,0.44,0.33,0.44,0.55" style="fill:rgb(23,22,21);font-family:AdvTimes;font-size:7.97px;stroke:none;">g nuclear protein, respectively. The DNase I-protected</text>
   <text y="590.536" x="42.463,45.531,49.014,53.0,55.152,59.551,63.9345,67.124,69.276,72.3046,75.572,77.724,82.123,86.523,88.675,92.158,96.143,98.797,102.28,106.6635,109.872,114.271,118.256,121.437,125.422,128.638,131.706,136.106,138.258,140.41,144.7935,147.97,152.37,156.355,159.3836,162.654,166.639,171.038,175.4215,178.641,181.295,185.695,189.2018,192.361,195.429,198.912,203.312,207.712,211.194,215.594,219.077,222.5838,225.754,227.906,230.93460000000002,234.201,237.27,241.669,246.069,251.791,256.191" svgx:width="0.38,0.44,0.5,0.27,0.55,0.55,0.55,0.27,0.38,0.55,0.27,0.55,0.55,0.27,0.44,0.5,0.33,0.44,0.55,0.55,0.55,0.5,0.55,0.5,0.55,0.38,0.55,0.27,0.27,0.55,0.55,0.55,0.5,0.38,0.55,0.5,0.55,0.55,0.55,0.33,0.55,0.44,0.55,0.38,0.44,0.55,0.55,0.44,0.55,0.44,0.44,0.55,0.27,0.38,0.55,0.38,0.55,0.55,0.72,0.55,0.27" style="fill:rgb(23,22,21);font-family:AdvTimes;font-size:7.97px;stroke:none;">region is indicated by a solid bar and the sequence is shown.</text>
  </g>
  <rect style="stroke:blue;stroke-width:0.3;" x="309.77" y="80.851" height="293.102" width="246.387" title="5"/>
  <text y="80.851" class="image" id="image.5.2" width="246" height="293" x="309.77">image.5.2.310_556.81_374</text>
  <g begin="text">
   <text y="380.714" x="309.43,314.244,316.396,320.381,324.366,327.434,330.9408,333.865,337.85" svgx:width="0.6,0.27,0.5,0.5,0.38,0.44,0.55,0.5,0.27" style="fill:rgb(23,22,21);font-family:AdvTimes-b;font-size:7.97px;stroke:none;">Figure 3.</text>
   <text y="380.714" x="344.013,347.081,350.15,354.549,356.701,360.686,363.34,365.492,369.892,374.2755,377.235,381.634,384.26410000000004,387.212,390.695,397.247,403.798,409.9349,412.895,416.378,418.53,422.929,427.329,430.812,433.8406,436.82,440.303,444.702,448.185,452.585,456.984,459.136,463.536,467.521,470.495,474.895,477.963,482.363,485.017,488.5,490.652,495.052,498.0806,501.053,503.707,508.107,512.092,514.7221,517.721,522.121,524.273,528.672,533.0555,535.976,538.63,543.0135,545.954,548.608,553.008" svgx:width="0.38,0.38,0.55,0.27,0.5,0.33,0.27,0.55,0.55,0.55,0.55,0.33,0.55,0.44,0.82,0.82,0.77,0.55,0.44,0.27,0.55,0.55,0.44,0.38,0.55,0.44,0.55,0.44,0.55,0.55,0.27,0.55,0.5,0.55,0.55,0.38,0.55,0.33,0.44,0.27,0.55,0.38,0.55,0.33,0.55,0.5,0.33,0.55,0.55,0.27,0.55,0.55,0.55,0.33,0.55,0.55,0.33,0.55,0.44" style="fill:rgb(23,22,21);font-family:AdvTimes;font-size:7.97px;stroke:none;">Isolation of cDNA clones encoding proteins that bind to the</text>
   <text y="389.671" x="309.43,315.567,319.552,322.412,325.481,328.964,332.949,335.101,339.501,343.8845,346.791,351.19,353.8201,356.712,359.366,363.766" svgx:width="0.77,0.5,0.55,0.38,0.44,0.5,0.27,0.55,0.55,0.55,0.55,0.33,0.55,0.33,0.55,0.44" style="fill:rgb(23,22,21);font-family:AdvTimes;font-size:7.97px;stroke:none;">A2 region of the</text>
   <text y="389.671" x="370.148,375.871,382.008,387.731,391.716,399.598" svgx:width="0.72,0.77,0.72,0.5,0.99,0.5" style="fill:rgb(23,22,21);font-family:AdvTimes-i;font-size:7.97px;stroke:none;">GmCaM4</text>
   <text y="389.671" x="406.432,410.831,413.9,418.299,424.851,429.251,431.905,435.388,438.456,440.60790000000003,443.509" svgx:width="0.55,0.38,0.55,0.82,0.55,0.33,0.44,0.38,0.27,0.55,0.33" style="fill:rgb(23,22,21);font-family:AdvTimes;font-size:7.97px;stroke:none;">promoter. (</text>
   <text y="389.671" x="446.174" svgx:width="0.72" style="fill:rgb(23,22,21);font-family:AdvTimes-b;font-size:7.97px;stroke:none;">A</text>
   <text y="389.671" x="451.9,454.5301,457.456,461.855,464.509,467.578,471.563,474.217,477.7,481.685,485.67,488.523,491.177,495.577,498.6056,501.506,504.989,511.541,518.092,524.2289,527.132,529.284,532.352,536.752,538.904,542.889,545.543,547.695,552.095" svgx:width="0.33,0.55,0.55,0.33,0.38,0.5,0.33,0.44,0.5,0.5,0.55,0.33,0.55,0.38,0.55,0.44,0.82,0.82,0.77,0.55,0.27,0.38,0.55,0.27,0.5,0.33,0.27,0.55,0.55" style="fill:rgb(23,22,21);font-family:AdvTimes;font-size:7.97px;stroke:none;">) Strategy for cDNA isolation</text>
   <text y="398.629" x="309.43,313.829,317.814,320.882,323.951,327.434,329.586,333.069,336.552,339.206,341.358,345.757,350.14050000000003,353.197,355.349,359.7325,362.778,366.763,370.246,374.231,377.3,379.954,382.1059,385.172,389.572,393.971,397.956,402.356,405.839,409.824,414.20750000000004,417.261,420.744,427.295,433.847,439.9839,443.0,445.152,447.304,451.703,454.772,458.757,461.825,463.977,467.46,470.48859999999996,473.614,477.097,481.497,485.896,488.965,491.619,494.687,499.087,502.57,505.224,508.707,513.0905,516.191,518.343,522.7265,525.772,528.426,532.825,536.3318,539.322,543.307,546.79,550.775,553.844" svgx:width="0.55,0.5,0.55,0.38,0.44,0.27,0.44,0.44,0.33,0.27,0.55,0.55,0.55,0.27,0.55,0.55,0.5,0.44,0.5,0.38,0.33,0.27,0.55,0.55,0.55,0.5,0.55,0.44,0.5,0.55,0.55,0.44,0.82,0.82,0.77,0.55,0.27,0.27,0.55,0.38,0.5,0.38,0.27,0.44,0.38,0.55,0.44,0.55,0.55,0.38,0.33,0.38,0.55,0.44,0.33,0.44,0.55,0.55,0.27,0.55,0.55,0.33,0.55,0.44,0.55,0.5,0.44,0.5,0.38,0.33" style="fill:rgb(23,22,21);font-family:AdvTimes;font-size:7.97px;stroke:none;">by selection in yeast. Soybean cDNA libraries constructed in the yeast</text>
   <text y="407.587" x="309.43,312.913,316.898,321.297,324.366,327.849,330.917,333.986,336.138,340.537,344.9205,348.264,352.25,355.733,359.216,361.87,366.269" svgx:width="0.44,0.5,0.55,0.38,0.44,0.38,0.38,0.27,0.55,0.55,0.55,0.5,0.44,0.44,0.33,0.55,0.38" style="fill:rgb(23,22,21);font-family:AdvTimes;font-size:7.97px;stroke:none;">expression vector</text>
   <text y="407.587" x="372.586,376.571,382.293,388.43,391.085,396.807,402.53,407.838,411.823,414.477,418.462,420.614" svgx:width="0.5,0.72,0.77,0.33,0.72,0.72,0.67,0.5,0.33,0.5,0.27,0.5" style="fill:rgb(23,22,21);font-family:AdvTimes-bi;font-size:7.97px;stroke:none;">pAD-GAL4-2.1</text>
   <text y="407.587" x="427.918,433.641,437.124,440.192,443.6988,446.967,449.621,452.689,456.674,461.074,464.142,466.797,471.196,474.265,480.816,484.299,488.6825,492.038,494.19,498.59,501.244,505.62750000000005,508.933,515.07,522.952,526.937,530.922,534.907,538.892,542.155,545.638,549.121,551.273,553.425" svgx:width="0.72,0.44,0.38,0.44,0.55,0.33,0.38,0.5,0.55,0.38,0.33,0.55,0.38,0.82,0.44,0.55,0.55,0.27,0.55,0.33,0.55,0.55,0.77,0.99,0.5,0.5,0.5,0.5,0.55,0.44,0.44,0.27,0.27,0.38" style="fill:rgb(23,22,21);font-family:AdvTimes;font-size:7.97px;stroke:none;">were transformed into YM4271 cells</text>
   <text y="416.601" x="309.429,312.912,316.897,319.966,323.034,327.019,329.171,333.571,337.55600000000004,341.121,343.775,348.174,351.6808,355.181,359.581,363.98,367.965,370.1169,373.663,376.732,380.215,384.614,389.014,392.082,394.736,398.219,401.2476,404.844,408.829,412.312,416.712,420.195" svgx:width="0.44,0.5,0.38,0.38,0.5,0.27,0.55,0.5,0.55,0.33,0.55,0.44,0.55,0.55,0.55,0.5,0.27,0.55,0.38,0.44,0.55,0.55,0.38,0.33,0.44,0.38,0.55,0.5,0.44,0.55,0.44,0.38" style="fill:rgb(23,22,21);font-family:AdvTimes;font-size:7.97px;stroke:none;">carrying the dual reporter genes</text>
   <text y="416.601" x="426.784,433.335,436.404,441.218" svgx:width="0.82,0.38,0.6,0.5" style="fill:rgb(23,22,21);font-family:AdvTimes-i;font-size:7.97px;stroke:none;">HIS3</text>
   <text y="416.601" x="448.781,452.766,457.165" svgx:width="0.5,0.55,0.55" style="fill:rgb(23,22,21);font-family:AdvTimes;font-size:7.97px;stroke:none;">and</text>
   <text y="416.601" x="465.109,467.26,471.246,474.729" svgx:width="0.27,0.5,0.44,0.72" style="fill:rgb(23,22,21);font-family:AdvTimes-i;font-size:7.97px;stroke:none;">lacZ</text>
   <text y="416.601" x="483.988,488.387,492.787,497.186,500.669,503.69759999999997,507.288,509.942,514.342,517.8488,521.349,524.832,529.231,533.631,536.285,539.353,543.753,545.9049,549.468,553.868" svgx:width="0.55,0.55,0.55,0.44,0.38,0.55,0.33,0.55,0.44,0.55,0.44,0.55,0.55,0.33,0.38,0.55,0.27,0.55,0.55,0.33" style="fill:rgb(23,22,21);font-family:AdvTimes;font-size:7.97px;stroke:none;">under the control of</text>
   <text y="425.559" x="309.43,312.084,316.483,320.883,323.91159999999996,328.535,331.189,335.174,339.574,343.973,347.456,353.9914,358.583,361.651,365.134,369.534,373.017,377.002,379.656,382.6846,387.326,391.726,394.3561,398.949,401.603,406.002,409.5088,414.086,420.223,424.208,428.769,431.838,435.321,439.306,441.458,445.857,450.24050000000005,454.848,459.248,461.8781,466.527,469.181,473.581" svgx:width="0.33,0.55,0.55,0.38,0.55,0.33,0.5,0.55,0.55,0.44,0.82,0.55,0.38,0.44,0.55,0.44,0.5,0.33,0.38,0.55,0.55,0.33,0.55,0.33,0.55,0.44,0.55,0.77,0.5,0.55,0.38,0.44,0.5,0.27,0.55,0.55,0.55,0.55,0.33,0.55,0.33,0.55,0.44" style="fill:rgb(23,22,21);font-family:AdvTimes;font-size:7.97px;stroke:none;">four tandem repeats of the A2 region of the</text>
   <text y="425.559" x="481.607,487.329,493.467,499.189,503.174,511.057,513.711" svgx:width="0.72,0.77,0.72,0.5,0.99,0.33,0.5" style="fill:rgb(23,22,21);font-family:AdvTimes-i;font-size:7.97px;stroke:none;">GmCaM-4</text>
   <text y="425.559" x="522.312,526.712,529.78,534.18,540.731,545.131,547.785,551.268,554.336" svgx:width="0.55,0.38,0.55,0.82,0.55,0.33,0.44,0.38,0.27" style="fill:rgb(23,22,21);font-family:AdvTimes;font-size:7.97px;stroke:none;">promoter.</text>
   <text y="434.516" x="309.43,314.738,319.138,322.6448,326.324,330.309,333.792,337.777,340.846,343.47610000000003,347.13,350.613,354.599,358.998,362.067,365.55,368.618,371.687,373.839,378.238,382.6215,386.362,389.845,396.397,402.948,409.0849,412.781,414.933,417.085,421.484,424.553,428.538,431.606,433.758,437.241,440.26959999999997,443.962,447.445,451.844,455.327,459.727,464.126,467.6328,471.288,475.273,479.65650000000005,483.363,489.915,492.569,495.223,498.706,501.774,508.326,510.478,514.877,518.863,521.0149,524.693,527.347,531.746,534.815,536.967,541.366,545.7495,549.467,553.867" svgx:width="0.67,0.55,0.44,0.55,0.5,0.44,0.5,0.38,0.33,0.55,0.44,0.5,0.55,0.38,0.44,0.38,0.38,0.27,0.55,0.55,0.55,0.44,0.82,0.82,0.77,0.55,0.27,0.27,0.55,0.38,0.5,0.38,0.27,0.44,0.38,0.55,0.44,0.55,0.44,0.55,0.55,0.44,0.55,0.5,0.55,0.55,0.82,0.33,0.33,0.44,0.38,0.82,0.27,0.55,0.5,0.27,0.55,0.33,0.55,0.38,0.27,0.55,0.55,0.55,0.55,0.33" style="fill:rgb(23,22,21);font-family:AdvTimes;font-size:7.97px;stroke:none;">The yeast expression cDNA libraries encode an N-terminal fusion of</text>
   <text y="443.474" x="309.43,312.084,316.483" svgx:width="0.33,0.55,0.44" style="fill:rgb(23,22,21);font-family:AdvTimes;font-size:7.97px;stroke:none;">the</text>
   <text y="443.474" x="325.644,331.367,337.09,342.398" svgx:width="0.72,0.72,0.67,0.5" style="fill:rgb(23,22,21);font-family:AdvTimes-i;font-size:7.97px;stroke:none;">GAL4</text>
   <text y="443.474" x="352.063,356.048,359.531,362.185,364.337,368.322,372.308,374.962,377.114,381.513,385.8965,391.579,395.978,400.378,406.929,410.914,413.066,417.4495,423.1,425.754,431.891,438.443,441.0731,446.798,449.452,453.8355,459.497,462.565,466.965,470.95,475.349,478.832,482.817,487.20050000000003,492.889,497.289,500.357,504.757,507.411,510.894,513.046,517.445,520.514,522.6659,528.322" svgx:width="0.5,0.44,0.33,0.27,0.5,0.5,0.33,0.27,0.55,0.55,0.55,0.55,0.55,0.82,0.5,0.27,0.55,0.55,0.33,0.77,0.82,0.33,0.55,0.33,0.55,0.55,0.38,0.55,0.5,0.55,0.44,0.5,0.55,0.55,0.55,0.38,0.55,0.33,0.44,0.27,0.55,0.38,0.27,0.55,0.6" style="fill:rgb(23,22,21);font-family:AdvTimes;font-size:7.97px;stroke:none;">activation domain (AD) to soybean proteins. P</text>
   <text y="444.776" x="533.14,538.053,539.667,542.967,547.88,550.182,553.481" svgx:width="0.82,0.27,0.55,0.82,0.38,0.55,0.5" style="fill:rgb(23,22,21);font-family:AdvTimes;font-size:5.31px;stroke:none;">minHIS3</text>
   <text y="452.43" x="309.43,311.582,315.981,320.381,322.533,326.016,330.001,332.655,336.138,339.16659999999996,344.75,347.404,351.803,355.3098,360.794,367.345,369.497,373.897,376.049,382.6,386.585,388.7369,394.3,398.699,401.768,406.167,412.719,417.118,419.772,423.255,426.2836,431.83,436.23,438.86010000000005,444.36,447.014,451.413" svgx:width="0.27,0.55,0.55,0.27,0.44,0.5,0.33,0.44,0.38,0.55,0.33,0.55,0.44,0.55,0.82,0.27,0.55,0.27,0.82,0.5,0.27,0.55,0.55,0.38,0.55,0.82,0.55,0.33,0.44,0.38,0.55,0.55,0.33,0.55,0.33,0.55,0.44" style="fill:rgb(23,22,21);font-family:AdvTimes;font-size:7.97px;stroke:none;">indicates the minimal promoter of the</text>
   <text y="452.43" x="460.404,466.955,470.024,474.838" svgx:width="0.82,0.38,0.6,0.5" style="fill:rgb(23,22,21);font-family:AdvTimes-i;font-size:7.97px;stroke:none;">HIS3</text>
   <text y="452.43" x="484.385,488.37,491.853,496.253,499.736,501.8879,507.402,511.388,515.787,520.1705000000001,525.657" svgx:width="0.5,0.44,0.55,0.44,0.27,0.55,0.5,0.55,0.55,0.55,0.6" style="fill:rgb(23,22,21);font-family:AdvTimes;font-size:7.97px;stroke:none;">gene, and P</text>
   <text y="453.791" x="530.476,535.389,537.003,540.302,544.594,549.197,553.488" svgx:width="0.82,0.27,0.55,0.72,0.77,0.72,0.5" style="fill:rgb(23,22,21);font-family:AdvTimes;font-size:5.31px;stroke:none;">minCYC1</text>
   <text y="461.388" x="309.43,311.582,315.981,320.381,322.533,326.016,330.001,332.655,336.138,339.16659999999996,343.73,346.384,350.783" svgx:width="0.27,0.55,0.55,0.27,0.44,0.5,0.33,0.44,0.38,0.55,0.33,0.55,0.44" style="fill:rgb(23,22,21);font-family:AdvTimes;font-size:7.97px;stroke:none;">indicates the</text>
   <text y="461.388" x="358.753,364.475,370.198,375.92" svgx:width="0.72,0.72,0.72,0.5" style="fill:rgb(23,22,21);font-family:AdvTimes-i;font-size:7.97px;stroke:none;">CYC1</text>
   <text y="461.388" x="384.378,390.929,393.081,397.481,399.633,406.184,410.169,412.3209,416.806,421.205,424.274,428.674,435.225,439.625,442.279,445.762,448.83,450.9819,455.527" svgx:width="0.82,0.27,0.55,0.27,0.82,0.5,0.27,0.55,0.55,0.38,0.55,0.82,0.55,0.33,0.44,0.38,0.27,0.55,0.6" style="fill:rgb(23,22,21);font-family:AdvTimes;font-size:7.97px;stroke:none;">minimal promoter. P</text>
   <text y="462.748" x="460.346,464.949,469.862,474.776" svgx:width="0.77,0.82,0.82,0.5" style="fill:rgb(23,22,21);font-family:AdvTimes;font-size:5.31px;stroke:none;">ADH1</text>
   <text y="461.388" x="482.23,484.382,488.781,493.181,495.333,498.816,502.801,505.455,508.938,511.96659999999997,516.529,519.184,523.583,527.0898,531.497,535.482,537.634,541.117,545.516,549.916,554.315" svgx:width="0.27,0.55,0.55,0.27,0.44,0.5,0.33,0.44,0.38,0.55,0.33,0.55,0.44,0.55,0.5,0.27,0.44,0.55,0.55,0.55,0.27" style="fill:rgb(23,22,21);font-family:AdvTimes;font-size:7.97px;stroke:none;">indicates the alcohol</text>
   <text y="470.402" x="309.43,313.829,317.312,321.712,325.697,330.096,333.165,337.564,341.549,345.032,349.432,353.417,356.485,359.9918,364.025,368.01,372.076" svgx:width="0.55,0.44,0.55,0.5,0.55,0.38,0.55,0.5,0.44,0.55,0.5,0.38,0.44,0.55,0.5,0.55,0.33" style="fill:rgb(23,22,21);font-family:AdvTimes;font-size:7.97px;stroke:none;">dehydrogenase 1 (</text>
   <text y="470.402" x="374.74,380.462,386.599,393.151" svgx:width="0.72,0.77,0.82,0.5" style="fill:rgb(23,22,21);font-family:AdvTimes-i;font-size:7.97px;stroke:none;">ADH1</text>
   <text y="470.402" x="397.134,399.76410000000004,403.824,408.223,411.292,415.691,422.243,426.642,429.296,432.779,435.848,437.9999,442.092,446.077,450.476,454.8595,458.873" svgx:width="0.33,0.55,0.55,0.38,0.55,0.82,0.55,0.33,0.44,0.38,0.27,0.55,0.5,0.55,0.55,0.55,0.67" style="fill:rgb(23,22,21);font-family:AdvTimes;font-size:7.97px;stroke:none;">) promoter, and T</text>
   <text y="471.706" x="464.202,468.804,473.718,478.631" svgx:width="0.77,0.82,0.82,0.5" style="fill:rgb(23,22,21);font-family:AdvTimes;font-size:5.31px;stroke:none;">ADH1</text>
   <text y="470.402" x="485.688,487.84,492.239,496.639,498.791,502.274,506.259,508.913,512.396,515.4245999999999,519.534,522.188,526.588" svgx:width="0.27,0.55,0.55,0.27,0.44,0.5,0.33,0.44,0.38,0.55,0.33,0.55,0.44" style="fill:rgb(23,22,21);font-family:AdvTimes;font-size:7.97px;stroke:none;">indicates the</text>
   <text y="470.402" x="534.104,539.826,545.963,552.515" svgx:width="0.72,0.77,0.82,0.5" style="fill:rgb(23,22,21);font-family:AdvTimes-i;font-size:7.97px;stroke:none;">ADH1</text>
   <text y="479.359" x="309.429,312.083,315.566,318.635,325.186,327.338,331.738,335.723,338.377,342.777,345.845,347.99690000000004,351.722" svgx:width="0.33,0.44,0.38,0.82,0.27,0.55,0.5,0.33,0.55,0.38,0.27,0.55,0.33" style="fill:rgb(23,22,21);font-family:AdvTimes;font-size:7.97px;stroke:none;">terminator. (</text>
   <text y="479.359" x="354.387" svgx:width="0.67" style="fill:rgb(23,22,21);font-family:AdvTimes-b;font-size:7.97px;stroke:none;">B</text>
   <text y="479.359" x="359.716,362.34610000000004,366.009,370.409,374.808,378.291,381.774,383.926,388.326,391.8328,395.547,397.699,402.098,404.752,408.235,411.304,415.289,418.772,421.426,423.578,427.977,432.377,435.4056,439.143,443.543,446.17310000000003,449.859,456.41,462.962,468.27,473.578,476.232,482.784,489.335,493.32,497.085,501.07,505.469" svgx:width="0.33,0.55,0.55,0.55,0.44,0.44,0.27,0.55,0.44,0.55,0.27,0.55,0.33,0.44,0.38,0.5,0.44,0.33,0.27,0.55,0.55,0.38,0.55,0.55,0.33,0.55,0.82,0.82,0.67,0.67,0.33,0.82,0.82,0.5,0.55,0.5,0.55,0.55" style="fill:rgb(23,22,21);font-family:AdvTimes;font-size:7.97px;stroke:none;">) Speciﬁc interactions of GmZF-HD1 and</text>
   <text y="479.359" code="1" x="513.524" svgx:width="0.77" style="fill:rgb(23,22,21);font-family:AdvMT_SY;font-size:7.97px;stroke:none;">?</text>
   <text y="479.359" x="519.703,523.688,527.357,533.08,535.232,537.886,542.2695,545.952,548.606,553.006" svgx:width="0.5,0.55,0.72,0.27,0.33,0.55,0.55,0.33,0.55,0.44" style="fill:rgb(23,22,21);font-family:AdvTimes;font-size:7.97px;stroke:none;">2 with the</text>
   <text y="488.317" x="309.429,315.566,319.551,322.865,325.933,329.416,333.401,335.553,339.953,344.3365,347.64,352.04,354.67010000000005,358.015,360.669,365.069" svgx:width="0.77,0.5,0.55,0.38,0.44,0.5,0.27,0.55,0.55,0.55,0.55,0.33,0.55,0.33,0.55,0.44" style="fill:rgb(23,22,21);font-family:AdvTimes;font-size:7.97px;stroke:none;">A2 region of the</text>
   <text y="488.317" x="371.848,377.571,383.708,389.43,393.415,401.298,403.952" svgx:width="0.72,0.77,0.72,0.5,0.99,0.33,0.5" style="fill:rgb(23,22,21);font-family:AdvTimes-i;font-size:7.97px;stroke:none;">GmCaM-4</text>
   <text y="488.317" x="411.25,415.649,418.718,423.117,429.669,434.068,436.722,440.205,443.274,445.4259,448.724,454.861,458.344,462.329,465.397,468.0271,471.345,473.999,477.067,481.052,485.452,488.521,491.175,495.574,498.643,505.194,509.179,513.579,516.233,519.2615999999999,522.652,527.052,531.037,534.105,538.505,542.904,545.973,548.125,552.524" svgx:width="0.55,0.38,0.55,0.82,0.55,0.33,0.44,0.38,0.27,0.55,0.77,0.44,0.5,0.38,0.33,0.55,0.33,0.38,0.5,0.55,0.38,0.33,0.55,0.38,0.82,0.5,0.55,0.33,0.38,0.55,0.55,0.5,0.38,0.55,0.55,0.38,0.27,0.55,0.5" style="fill:rgb(23,22,21);font-family:AdvTimes;font-size:7.97px;stroke:none;">promoter. Yeast transformants harboring</text>
   <text y="497.275" x="309.429,312.083,316.482,319.9888,323.092,325.244,329.643,334.043,336.195,339.678,343.663,346.317,349.8,354.18350000000004,357.334,360.817,362.969,367.369,371.768,375.251,378.27959999999996,381.429,384.083,388.483,392.882,397.282,400.765,403.79359999999997,406.997,409.149,412.632,415.286,417.94,420.5701,423.722,429.445,432.928,435.996,439.5028,442.601,446.586,449.655,454.054,459.777,464.1605,467.262,469.414,473.7975,476.957,479.611,484.011,487.5178,490.62,495.02,498.089,501.572,504.64,508.123,512.523,516.005,519.5118,522.595,526.995,529.6251,532.744,536.729,540.714,542.041,548.592" svgx:width="0.33,0.55,0.44,0.55,0.27,0.55,0.55,0.27,0.44,0.5,0.33,0.44,0.55,0.55,0.44,0.27,0.55,0.55,0.44,0.38,0.55,0.33,0.55,0.55,0.55,0.44,0.38,0.55,0.27,0.44,0.33,0.33,0.33,0.55,0.72,0.44,0.38,0.44,0.55,0.5,0.38,0.55,0.72,0.55,0.55,0.27,0.55,0.55,0.33,0.55,0.44,0.55,0.55,0.38,0.44,0.38,0.44,0.55,0.44,0.44,0.55,0.55,0.33,0.55,0.5,0.5,0.55,0.82,0.99" style="fill:rgb(23,22,21);font-family:AdvTimes;font-size:7.97px;stroke:none;">the indicated clones (upper left) were grown in the presence of 20 mM</text>
   <text y="506.233" x="309.429,312.083,316.482,320.882,325.281,328.764,331.7926,334.317,337.386,339.538,343.523,347.922,350.576,353.20610000000005,355.747,360.147,363.1756,365.669,369.654,373.639,374.967,381.518,389.4083,391.861,394.515,396.667,401.067,406.789,410.272,413.3006,415.843,417.995,421.478,424.132,426.786,429.41610000000003,431.943,435.928,438.582,444.72,450.028,452.17990000000003,454.678,461.229,463.381,467.781,471.2878,473.726,478.126,480.7561,483.251,485.905,490.304,493.8108,496.29,500.275,504.26,506.721,511.121,515.52,518.589,520.741,523.395,525.547,529.532,533.0388,535.522,539.005,541.157,545.556,549.956,553.439" svgx:width="0.33,0.55,0.55,0.55,0.44,0.38,0.55,0.38,0.27,0.5,0.55,0.33,0.33,0.55,0.55,0.38,0.55,0.5,0.5,0.55,0.82,0.99,0.55,0.33,0.27,0.55,0.72,0.44,0.38,0.55,0.27,0.44,0.33,0.33,0.33,0.55,0.5,0.33,0.77,0.67,0.27,0.55,0.82,0.27,0.55,0.44,0.55,0.55,0.33,0.55,0.33,0.55,0.44,0.55,0.5,0.5,0.55,0.55,0.55,0.38,0.27,0.33,0.27,0.5,0.44,0.55,0.44,0.27,0.55,0.55,0.44,0.38" style="fill:rgb(23,22,21);font-family:AdvTimes;font-size:7.97px;stroke:none;">(upper right) or 60 mM (lower left) 3-AT. Nine of the 16 positive clones</text>
   <text y="515.19" x="309.429,313.414,316.482,319.9888,324.452,327.521,331.921,336.32,342.043,346.42650000000003,350.985,353.137,357.5205,362.041,364.695,369.094,371.246,374.27459999999996,378.822,383.221,387.207,391.606,394.675,398.158,400.3099,404.787,411.339,415.738,422.29,426.689,430.172,433.241,436.26959999999997,440.844,442.996,447.396,451.795,453.947,457.43,461.415,464.069,467.5758,472.083,475.151,478.634,483.034,486.102,489.585,492.654,496.137,500.536,503.19,507.175,509.829,511.981,515.966,519.4728,523.957,527.44,529.592,533.992,538.391,541.874,544.9026,549.469,553.454" svgx:width="0.5,0.38,0.44,0.55,0.38,0.55,0.55,0.72,0.55,0.55,0.27,0.55,0.55,0.33,0.55,0.27,0.38,0.55,0.55,0.5,0.55,0.38,0.44,0.27,0.55,0.82,0.55,0.82,0.55,0.44,0.38,0.38,0.55,0.27,0.55,0.55,0.27,0.44,0.5,0.33,0.44,0.55,0.38,0.44,0.55,0.38,0.44,0.38,0.44,0.55,0.33,0.5,0.33,0.27,0.5,0.44,0.55,0.44,0.27,0.55,0.55,0.44,0.38,0.55,0.5,0.38" style="fill:rgb(23,22,21);font-family:AdvTimes;font-size:7.97px;stroke:none;">are shown in this ﬁgure. Numbers indicate representative clones as</text>
   <text y="524.148" x="309.429,312.497,315.98,319.463,323.84650000000005,327.57,329.722,334.1055,337.832,343.14,347.125,351.525,353.677,357.1838,360.907,364.892,367.0439,370.715,376.023,380.422" svgx:width="0.38,0.44,0.44,0.55,0.55,0.27,0.55,0.55,0.67,0.5,0.55,0.27,0.44,0.55,0.5,0.27,0.55,0.67,0.55,0.44" style="fill:rgb(23,22,21);font-family:AdvTimes;font-size:7.97px;stroke:none;">seen in Table 1. The</text>
   <text y="524.148" x="387.665" svgx:width="0.55" style="fill:rgb(23,22,21);font-family:AdvPi1;font-size:7.97px;stroke:none;">b</text>
   <text y="524.148" x="392.03,394.684,398.669,402.655,404.806,408.792,412.275,414.929,419.328,422.397,424.549,428.948,432.933,436.002,439.5088,443.224,447.21,450.692,453.347,455.499,459.484,461.636,464.29,468.27500000000003,472.025,476.424,479.0541,482.796,486.782,490.265,494.25,497.318,499.9481,503.659,507.142,511.542,513.694,518.093,522.493,524.645,528.128,531.1566,534.898,538.883,541.951,546.351,552.073" svgx:width="0.33,0.5,0.5,0.27,0.5,0.44,0.33,0.55,0.38,0.27,0.55,0.5,0.38,0.44,0.55,0.5,0.44,0.33,0.27,0.5,0.27,0.33,0.5,0.55,0.55,0.33,0.55,0.5,0.44,0.5,0.38,0.33,0.55,0.44,0.55,0.27,0.55,0.55,0.27,0.44,0.38,0.55,0.5,0.38,0.55,0.72,0.55" style="fill:rgb(23,22,21);font-family:AdvTimes;font-size:7.97px;stroke:none;">-galactosidase activity of yeast colonies grown</text>
   <text y="533.162" x="309.429,311.581,315.96450000000004,319.18,325.317,330.131,336.66639999999995,339.873,346.425,349.908,354.307,356.459,360.859,367.39439999999996,370.657,376.38,380.365,383.3936,386.588,390.988,394.471,397.125,400.608,403.676,410.228,412.38,416.779,420.262,424.6455,427.918,432.317,436.302,439.483,443.468,446.683,451.083,453.235,455.889,459.372,462.44,465.095,467.246,469.398,472.052,474.68210000000005,477.922,481.907,484.975,488.044,492.029,496.014,499.181,501.836,503.987,508.387,514.11,517.593,520.6216,523.899,526.968,529.12,533.105,537.505,540.159,542.813" svgx:width="0.27,0.55,0.55,0.77,0.6,0.82,0.55,0.82,0.44,0.55,0.27,0.55,0.82,0.55,0.72,0.5,0.38,0.55,0.55,0.44,0.33,0.44,0.38,0.82,0.27,0.55,0.44,0.55,0.55,0.55,0.5,0.55,0.5,0.55,0.55,0.27,0.33,0.44,0.38,0.33,0.27,0.27,0.33,0.33,0.55,0.5,0.38,0.38,0.5,0.5,0.55,0.33,0.27,0.55,0.72,0.44,0.38,0.55,0.38,0.27,0.5,0.55,0.33,0.33,0.27" style="fill:rgb(23,22,21);font-family:AdvTimes;font-size:7.97px;stroke:none;">in YPD medium was determined by a ﬁlter-lift assay (lower right).</text>
   <text y="44.751" x="42.463,47.444,52.426,57.407" svgx:width="0.5,0.5,0.5,0.5" style="fill:rgb(23,22,21);font-family:AdvTimes-bi;font-size:9.96px;stroke:none;">3616</text>
   <text y="44.751" x="72.34,80.165,85.246,89.686,92.43,96.871,99.615,104.08539999999999,106.129,113.426,117.866,120.61,125.691,129.55180000000001,131.641,138.937,143.378,147.29,151.731,156.812,160.724,165.165,170.246,172.9892,175.068,180.149,185.23,190.311,195.392,198.1352,200.183,207.479,212.56,215.304,218.0472,220.082,225.163,230.244,232.9872,235.048,242.873,247.954,250.6972,252.736,257.817" svgx:width="0.77,0.5,0.44,0.27,0.44,0.27,0.44,0.55,0.72,0.44,0.27,0.5,0.38,0.55,0.72,0.44,0.38,0.44,0.5,0.38,0.44,0.5,0.27,0.55,0.5,0.5,0.5,0.5,0.27,0.55,0.72,0.5,0.27,0.27,0.55,0.5,0.5,0.27,0.55,0.77,0.5,0.27,0.55,0.5,0.5" style="fill:rgb(23,22,21);font-family:AdvTimes-i;font-size:10.16px;stroke:none;">Nucleic Acids Research, 2007, Vol. 35, No. 11</text>
  </g>
 </g>
</svg>
